<?xml version="1.0" standalone="no"?>
<!DOCTYPE svg PUBLIC "-//W3C//DTD SVG 1.1//EN" "http://www.w3.org/Graphics/SVG/1.1/DTD/svg11.dtd" >
<svg>
<metadata>
Created by FontForge 20090622 at Tue Mar 28 18:41:21 2017
 By deploy user
Copyright (c) 2010 Village Type and Design LLC. All rights reserved.
</metadata>
<defs>
<font id="ApexRounded-Medium" horiz-adv-x="600" >
  <font-face 
    font-family="Apex Rounded Medium"
    font-weight="620"
    font-stretch="normal"
    units-per-em="1000"
    panose-1="0 0 0 0 0 0 0 0 0 0"
    ascent="750"
    descent="-250"
    x-height="500"
    cap-height="750"
    bbox="-124.9 -270 1410 932"
    underline-thickness="50"
    underline-position="-50"
    unicode-range="U+0020-U+F778"
  />
<missing-glyph horiz-adv-x="880" 
d="M65 0v750h750v-750h-750zM181 684l259 -259l259 259h-518zM440 325l-259 -259h518zM490 375l254 -254v508zM390 375l-254 254v-508z" />
    <glyph glyph-name="interrobang" unicode="&#x21;&#x3f;" horiz-adv-x="475" 
d="M66 642q-20 -5 -31.5 5t-11.5 27v32q0 32 31 40q57 16 136 16q77 0 129 -16t78.5 -47t36.5 -65.5t10 -80.5q0 -47 -14 -81.5t-43.5 -57.5t-55 -35.5t-69.5 -28.5q-22 -8 -37 -16l-6 -95q-2 -29 -28 -29h-24q-26 0 -28 29l-26 412q-12 -2 -29 -5.5t-18 -3.5zM106 61
q0 30 21.5 51.5t51.5 21.5t51.5 -21.5t21.5 -51.5t-21.5 -51.5t-51.5 -21.5t-51.5 21.5t-21.5 51.5zM331 550q0 42 -19.5 67t-67.5 34l-13 -223q52 21 76 46t24 76z" />
    <glyph glyph-name="fi" unicode="fi" horiz-adv-x="639" 
d="M308 665q-90 0 -90 -76v-89h103q38 0 38 -40v-15q0 -40 -38 -40h-103v-365q0 -40 -38 -40h-36q-38 0 -38 40v365h-58q-33 0 -33 32v10q0 16 6.5 24t22.5 12l62 17v99q0 163 194 163q34 0 54 -5q28 -7 28 -37v-38q0 -13 -10 -19.5t-26 -2.5q-20 5 -38 5zM447 102v358
q0 40 38 40h36q38 0 38 -40v-342q0 -24 24 -30q23 -6 23 -30v-30q0 -35 -45 -35q-51 0 -82.5 28t-31.5 81zM430 648q0 30 21.5 51.5t51.5 21.5t51.5 -21.5t21.5 -51.5t-21.5 -51.5t-51.5 -21.5t-51.5 21.5t-21.5 51.5z" />
    <glyph glyph-name="fl" unicode="fl" horiz-adv-x="639" 
d="M308 665q-90 0 -90 -76v-89h103q38 0 38 -40v-15q0 -40 -38 -40h-103v-365q0 -40 -38 -40h-36q-38 0 -38 40v365h-58q-33 0 -33 32v10q0 16 6.5 24t22.5 12l62 17v99q0 163 194 163q34 0 54 -5q28 -7 28 -37v-38q0 -13 -10 -19.5t-26 -2.5q-20 5 -38 5zM447 102v608
q0 40 38 40h36q38 0 38 -40v-592q0 -24 24 -30q23 -6 23 -30v-30q0 -35 -45 -35q-51 0 -82.5 28t-31.5 81z" />
    <glyph glyph-name="interrobangdown" unicode="&#xa1;&#xbf;" horiz-adv-x="475" 
d="M409 -142q20 5 31.5 -5t11.5 -27v-32q0 -32 -31 -40q-57 -16 -136 -16q-77 0 -129 16t-78.5 47t-36.5 65.5t-10 80.5q0 47 14 81.5t43.5 57.5t55 35.5t69.5 28.5q31 12 37 15l6 96q2 29 28 29h24q26 0 28 -29l25 -412l30 5zM369 439q0 -30 -21.5 -51.5t-51.5 -21.5
t-51.5 21.5t-21.5 51.5t21.5 51.5t51.5 21.5t51.5 -21.5t21.5 -51.5zM144 -50q0 -42 19 -67t67 -34l14 223q-35 -15 -53 -26.5t-32.5 -35.5t-14.5 -60z" />
    <glyph glyph-name="f_dotlessi" unicode="f&#x131;" horiz-adv-x="639" 
d="M308 665q-90 0 -90 -76v-89h103q38 0 38 -40v-15q0 -40 -38 -40h-103v-365q0 -40 -38 -40h-36q-38 0 -38 40v365h-58q-33 0 -33 32v10q0 16 6.5 24t22.5 12l62 17v99q0 163 194 163q34 0 54 -5q28 -7 28 -37v-38q0 -13 -10 -19.5t-26 -2.5q-20 5 -38 5zM447 102v358
q0 40 38 40h36q38 0 38 -40v-342q0 -24 24 -30q23 -6 23 -30v-30q0 -35 -45 -35q-51 0 -82.5 28t-31.5 81z" />
    <glyph glyph-name=".notdef" horiz-adv-x="880" 
d="M65 0v750h750v-750h-750zM181 684l259 -259l259 259h-518zM440 325l-259 -259h518zM490 375l254 -254v508zM390 375l-254 254v-508z" />
    <glyph glyph-name=".null" horiz-adv-x="0" 
 />
    <glyph glyph-name="nonmarkingreturn" horiz-adv-x="333" 
 />
    <glyph glyph-name="space" unicode=" " horiz-adv-x="192" 
 />
    <glyph glyph-name="exclam" unicode="!" horiz-adv-x="220" 
d="M71 750h78q39 0 36 -42l-35 -469q-2 -29 -28 -29h-24q-26 0 -28 29l-35 469q-3 42 36 42zM37 61q0 30 21.5 51.5t51.5 21.5t51.5 -21.5t21.5 -51.5t-21.5 -51.5t-51.5 -21.5t-51.5 21.5t-21.5 51.5z" />
    <glyph glyph-name="quotedbl" unicode="&#x22;" horiz-adv-x="365" 
d="M112 500h-21q-25 0 -28 27l-22 181q-2 20 8 31t30 11h46q20 0 30 -11.5t8 -30.5l-23 -181q-3 -27 -28 -27zM277 500h-21q-25 0 -28 27l-22 181q-2 20 8 31t30 11h46q20 0 30 -11.5t8 -30.5l-23 -181q-3 -27 -28 -27z" />
    <glyph glyph-name="numbersign" unicode="#" horiz-adv-x="640" 
d="M78 505l9 31q9 29 39 29h61l35 156q6 29 39 29h50q14 0 20 -10t3 -24l-34 -151h121l35 156q6 29 39 29h50q14 0 20 -10t3 -24l-34 -151h63q15 0 20.5 -10t0.5 -24l-9 -32q-9 -28 -39 -28h-56l-42 -192h67q15 0 21 -9.5t1 -24.5l-9 -31q-9 -29 -39 -29h-62l-34 -156
q-6 -29 -39 -29h-50q-14 0 -20 10t-3 24l33 151h-121l-34 -156q-6 -29 -39 -29h-50q-14 0 -20 10t-3 24l33 151h-62q-15 0 -20.5 10t-0.5 24l9 32q9 28 39 28h55l43 192h-67q-15 0 -21 9.5t-1 24.5zM280 471l-42 -192h120l43 192h-121z" />
    <glyph glyph-name="dollar" unicode="$" horiz-adv-x="508" 
d="M392 706l-33 -78q31 -4 50 -10q30 -8 30 -41v-27q0 -18 -12.5 -26.5t-33.5 -2.5q-69 16 -132 16q-55 0 -80.5 -14t-25.5 -46q0 -26 23.5 -36.5t82.5 -15.5q117 -10 159.5 -40t42.5 -111q0 -74 -57.5 -117.5t-177.5 -43.5l-28 -81q-11 -32 -44 -32h-28q-17 0 -24 14t1 30
l33 77q-32 5 -56 11q-28 7 -28 39v27q0 19 12.5 28.5t33.5 2.5q63 -17 134 -17q118 0 118 62q0 30 -24 42.5t-81 17.5q-115 10 -157.5 39.5t-42.5 101.5q0 161 223 161l28 82q11 32 44 32h27q17 0 24 -14t-1 -30z" />
    <glyph glyph-name="percent" unicode="%" horiz-adv-x="940" 
d="M896 186q0 -100 -44 -149t-136 -49q-93 0 -137 49t-44 149t44 149t137 49t136.5 -48.5t43.5 -149.5zM637 186q0 -60 18.5 -83.5t60.5 -23.5t60 23.5t18 83.5q0 61 -18 84.5t-60 23.5t-60.5 -24t-18.5 -84zM405 564q0 -100 -44 -149t-136 -49q-93 0 -137 48.5t-44 149.5
q0 100 44 149t137 49q92 0 136 -49t44 -149zM146 564q0 -61 18.5 -84.5t60.5 -23.5t60.5 24t18.5 84t-18.5 83.5t-60.5 23.5t-60.5 -23.5t-18.5 -83.5zM182 41l485 685q17 24 42 24h34q14 0 20 -12.5t-4 -28.5l-485 -685q-17 -24 -42 -24h-34q-14 0 -20 12.5t4 28.5z" />
    <glyph glyph-name="ampersand" unicode="&#x26;" horiz-adv-x="734" 
d="M683 94q35 -12 18 -50l-12 -27q-12 -30 -54 -15q-71 27 -119 58q-98 -72 -224 -72q-118 0 -185.5 54t-67.5 166q0 80 33 128t101 85q-42 76 -42 155q0 34 10 65.5t31 59t59.5 44.5t89.5 17q98 0 140.5 -50t42.5 -129q0 -38 -13.5 -68.5t-42.5 -55.5t-56.5 -41.5
t-72.5 -39.5q80 -114 179 -185q82 103 92 265q1 24 10 33t30 9h37q39 0 36 -42q-10 -195 -111 -324q37 -21 91 -40zM414 125q-111 71 -194 203q-36 -22 -51.5 -48.5t-15.5 -68.5q0 -61 40.5 -90t97.5 -29q70 0 123 33zM240 577q0 -56 30 -113q80 42 100 60q27 25 26 58
q0 76 -74 76q-42 0 -62 -22.5t-20 -58.5z" />
    <glyph glyph-name="quotesingle" unicode="'" horiz-adv-x="200" 
d="M112 500h-21q-25 0 -28 27l-22 181q-2 20 8 31t30 11h46q20 0 30 -11.5t8 -30.5l-23 -181q-3 -27 -28 -27z" />
    <glyph glyph-name="parenleft" unicode="(" horiz-adv-x="318" 
d="M50 305q0 270 109 485q14 26 39 26h51q16 0 21.5 -10.5t-3.5 -28.5q-105 -193 -105 -472q0 -280 105 -472q9 -18 3.5 -28.5t-21.5 -10.5h-51q-25 0 -39 26q-109 215 -109 485z" />
    <glyph glyph-name="parenright" unicode=")" horiz-adv-x="318" 
d="M268 305q0 -270 -109 -485q-14 -26 -39 -26h-51q-16 0 -21.5 10.5t3.5 28.5q105 192 105 472q0 279 -105 472q-9 18 -3.5 28.5t21.5 10.5h51q25 0 39 -26q109 -215 109 -485z" />
    <glyph glyph-name="asterisk" unicode="*" horiz-adv-x="500" 
d="M299 366l-49 91l-49 -91q-9 -17 -24.5 -20.5t-30.5 7.5l-42 31q-16 11 -17.5 27t12.5 30l71 73l-100 18q-19 3 -27 16.5t-2 31.5l16 50q6 18 20.5 24t32.5 -2l91 -45l-14 100q-3 19 7.5 31t29.5 12h52q19 0 29.5 -12t7.5 -31l-14 -100l91 45q18 8 32.5 2t20.5 -24l16 -50
q6 -18 -2 -31.5t-27 -16.5l-100 -18l71 -73q14 -14 12.5 -30t-17.5 -27l-42 -31q-15 -11 -30.5 -7.5t-24.5 20.5z" />
    <glyph glyph-name="plus" unicode="+" 
d="M247 393v131q0 40 38 40h30q38 0 38 -40v-131h131q40 0 40 -38v-30q0 -38 -40 -38h-131v-131q0 -40 -38 -40h-30q-38 0 -38 40v131h-131q-40 0 -40 38v30q0 38 40 38h131z" />
    <glyph glyph-name="comma" unicode="," horiz-adv-x="220" 
d="M86 106h47q21 0 30 -15t1 -35l-58 -149q-12 -32 -44 -32h-19q-13 0 -20.5 9t-5.5 24l23 157q4 41 46 41z" />
    <glyph glyph-name="hyphen" unicode="-" horiz-adv-x="315" 
d="M249 261h-183q-38 0 -38 40v21q0 40 38 40h183q38 0 38 -40v-21q0 -40 -38 -40z" />
    <glyph glyph-name="period" unicode="." horiz-adv-x="220" 
d="M37 61q0 30 21.5 51.5t51.5 21.5t51.5 -21.5t21.5 -51.5t-21.5 -51.5t-51.5 -21.5t-51.5 21.5t-21.5 51.5z" />
    <glyph glyph-name="slash" unicode="/" horiz-adv-x="463" 
d="M447 745l-323 -909q-13 -36 -48 -36h-31q-21 0 -29 17.5t0 37.5l323 909q13 36 48 36h31q21 0 29 -17.5t0 -37.5z" />
    <glyph glyph-name="zero" unicode="0" 
d="M58 375q0 84 5.5 141t20.5 107t42 78.5t70 44.5t104 16t104 -16t70 -44.5t42 -78.5t20.5 -107t5.5 -141t-5.5 -141t-20.5 -107t-42 -78.5t-70 -44.5t-104 -16t-104 16t-70 44.5t-42 78.5t-20.5 107t-5.5 141zM430 375q0 66 -2 104.5t-9 78t-20.5 58.5t-38 31.5
t-60.5 12.5t-60.5 -12.5t-38 -31.5t-20.5 -58.5t-9 -78t-2 -104.5t2 -104.5t9 -78t20.5 -58.5t38 -31.5t60.5 -12.5t60.5 12.5t38 31.5t20.5 58.5t9 78t2 104.5z" />
    <glyph glyph-name="one" unicode="1" 
d="M506 0h-378q-30 0 -30 29v26q0 30 28 31l135 6v554l-133 -8q-30 -2 -30 29v11q0 25 30 33l165 44q24 7 37 7h5q38 0 38 -40v-630l135 -6q28 -1 28 -31v-26q0 -29 -30 -29z" />
    <glyph glyph-name="two" unicode="2" 
d="M55 38v16q0 27 23 46q116 102 186.5 172.5t103.5 120.5t42.5 81.5t9.5 72.5q0 54 -29.5 83t-103.5 29q-69 0 -141 -23q-21 -6 -34 4t-13 29v30q0 30 29 40q71 23 166 23q73 0 123 -17.5t74.5 -49.5t34.5 -66.5t10 -77.5q0 -91 -70.5 -191t-265.5 -258l307 4q38 0 38 -38
v-30q0 -38 -38 -38h-414q-38 0 -38 38z" />
    <glyph glyph-name="three" unicode="3" 
d="M255 762q264 0 264 -205q0 -55 -27 -98t-70 -64q54 -14 87.5 -61t33.5 -114q0 -109 -69.5 -170.5t-217.5 -61.5q-97 0 -173 23q-29 9 -29 40v29q0 19 12.5 29t33.5 4q69 -21 152 -21q174 0 174 128q0 64 -35.5 90.5t-112.5 26.5h-101q-39 0 -39 38v26q0 38 39 38h103
q60 0 91 29t31 78q0 56 -37.5 84.5t-121.5 28.5q-73 0 -142 -21q-21 -6 -33.5 4t-12.5 29v28q0 31 29 40q76 23 171 23z" />
    <glyph glyph-name="four" unicode="4" 
d="M171 300l183 3l3 265zM464 722v-419h59q38 0 38 -40v-25q0 -40 -38 -40h-59v-158q0 -40 -38 -40h-34q-38 0 -38 40v158h-280q-36 0 -36 36v17q0 15 14 36l313 448q18 26 42 26h19q38 0 38 -39z" />
    <glyph glyph-name="five" unicode="5" 
d="M257 -12q-92 0 -165 22q-29 9 -29 40v27q0 19 12.5 29t33.5 4q65 -20 142 -20q35 0 62 5.5t53.5 20t40.5 44t14 72.5q0 32 -9 55t-21.5 34.5t-35 18t-40 7.5t-45.5 1h-141q-38 0 -38 40v322q0 40 38 40h355q38 0 38 -40v-24q0 -40 -38 -40h-282v-198q24 3 86 3
q56 0 94.5 -7.5t76.5 -28.5t57.5 -67t19.5 -116q0 -63 -18 -109t-44.5 -71.5t-66.5 -40.5t-74 -19t-76 -4z" />
    <glyph glyph-name="six" unicode="6" 
d="M178 230q0 -141 130 -141q118 0 118 141q0 28 -3.5 48.5t-14.5 44t-36.5 36t-63.5 12.5t-65 -13.5t-40.5 -35.5t-19 -44.5t-5.5 -47.5zM348 657q-96 0 -136 -67t-41 -194q54 77 162 77q205 0 205 -243q0 -34 -5 -64.5t-20.5 -64t-39.5 -57.5t-66.5 -40t-98.5 -16
q-63 0 -107.5 16.5t-71 44t-42 73.5t-20.5 94.5t-5 116.5q0 79 6.5 139t25 116.5t49 93t81 58.5t118.5 22q85 0 148 -21q29 -10 29 -40v-29q0 -19 -12.5 -29t-33.5 -4q-59 18 -125 18z" />
    <glyph glyph-name="seven" unicode="7" 
d="M539 652l-285 -618q-15 -34 -49 -34h-54q-22 0 -32 19t1 39l311 591l-343 -2q-38 0 -38 40v23q0 40 38 40h426q36 0 36 -36v-26q0 -12 -11 -36z" />
    <glyph glyph-name="eight" unicode="8" 
d="M300 435q60 0 90.5 32t30.5 80q0 50 -29.5 83.5t-91.5 33.5t-91.5 -33.5t-29.5 -83.5q0 -48 30.5 -80t90.5 -32zM300 86q79 0 113.5 38t34.5 91q0 127 -148 127t-148 -127q0 -53 34.5 -91t113.5 -38zM300 -12q-128 0 -193.5 60.5t-65.5 165.5q0 63 32.5 113.5t82.5 67.5
q-41 20 -66 61.5t-25 95.5q0 97 57 153.5t178 56.5t178 -56.5t57 -153.5q0 -54 -25 -95.5t-66 -61.5q50 -17 82.5 -67.5t32.5 -113.5q0 -105 -65.5 -165.5t-193.5 -60.5z" />
    <glyph glyph-name="nine" unicode="9" 
d="M422 520q0 141 -130 141q-118 0 -118 -141q0 -28 3.5 -48.5t14.5 -44t36.5 -36t63.5 -12.5t65 13.5t40.5 35.5t19 44.5t5.5 47.5zM252 93q96 0 136 67t41 194q-54 -77 -162 -77q-205 0 -205 243q0 34 5 64.5t20.5 64t39.5 57.5t66.5 40t98.5 16q63 0 107.5 -16.5t71 -44
t42 -73.5t20.5 -94.5t5 -116.5q0 -79 -6.5 -139t-25 -116.5t-49 -93t-81 -58.5t-118.5 -22q-88 0 -151 21q-29 10 -29 40v29q0 19 12.5 29t33.5 4q59 -18 128 -18z" />
    <glyph glyph-name="colon" unicode=":" horiz-adv-x="220" 
d="M37 61q0 30 21.5 51.5t51.5 21.5t51.5 -21.5t21.5 -51.5t-21.5 -51.5t-51.5 -21.5t-51.5 21.5t-21.5 51.5zM37 375q0 30 21.5 51.5t51.5 21.5t51.5 -21.5t21.5 -51.5t-21.5 -51.5t-51.5 -21.5t-51.5 21.5t-21.5 51.5z" />
    <glyph glyph-name="semicolon" unicode=";" horiz-adv-x="220" 
d="M86 106h47q21 0 30 -15t1 -35l-58 -149q-12 -32 -44 -32h-19q-13 0 -20.5 9t-5.5 24l23 157q4 41 46 41zM37 375q0 30 21.5 51.5t51.5 21.5t51.5 -21.5t21.5 -51.5t-21.5 -51.5t-51.5 -21.5t-51.5 21.5t-21.5 51.5z" />
    <glyph glyph-name="less" unicode="&#x3c;" 
d="M76 354q0 32 27 46l381 197q16 8 28 0.5t12 -22.5v-52q0 -30 -23 -41l-295 -141l295 -141q23 -11 23 -41v-52q0 -15 -12 -22.5t-28 0.5l-381 197q-27 14 -27 46v26z" />
    <glyph glyph-name="equal" unicode="=" 
d="M484 481q40 0 40 -38v-30q0 -38 -40 -38h-368q-40 0 -40 38v30q0 38 40 38h368zM484 305q40 0 40 -38v-30q0 -38 -40 -38h-368q-40 0 -40 38v30q0 38 40 38h368z" />
    <glyph glyph-name="greater" unicode="&#x3e;" 
d="M524 328q0 -32 -27 -46l-381 -197q-16 -8 -28 -0.5t-12 22.5v52q0 30 23 41l295 141l-295 141q-23 11 -23 41v52q0 15 12 22.5t28 -0.5l381 -197q27 -14 27 -46v-26z" />
    <glyph glyph-name="question" unicode="?" horiz-adv-x="475" 
d="M106 61q0 30 21.5 51.5t51.5 21.5t51.5 -21.5t21.5 -51.5t-21.5 -51.5t-51.5 -21.5t-51.5 21.5t-21.5 51.5zM182 656q-54 0 -116 -14q-20 -5 -31.5 5t-11.5 27v32q0 32 31 40q57 16 136 16q77 0 129 -16t78.5 -47t36.5 -65.5t10 -80.5q0 -47 -14 -81.5t-43.5 -57.5
t-55 -35.5t-69.5 -28.5q-18 -6 -30.5 -16t-18.5 -18.5t-9 -23.5t-3.5 -23t-0.5 -25v-9q0 -25 -24 -25h-25q-21 0 -27 21q-8 32 -8 61q0 88 83 123l21.5 8.5t21 9t18 8.5t18 9.5t15 10.5t14 12.5t9.5 14t8.5 17.5t4.5 20.5t2 24.5q0 54 -32.5 80t-116.5 26z" />
    <glyph glyph-name="at" unicode="@" horiz-adv-x="962" 
d="M255 250q0 104 53 158.5t137 54.5q42 0 83.5 -15t66.5 -38l4 9q14 31 44 31h4q32 0 32 -33v-292q40 0 67.5 14.5t42 42t20 58.5t5.5 72q0 133 -78.5 192.5t-249.5 59.5q-172 0 -254 -75t-82 -239t82 -239t254 -75q132 0 250 36q18 6 28 -2t10 -22v-19q0 -26 -25 -35
q-35 -12 -111.5 -23.5t-151.5 -11.5q-207 0 -314.5 98t-107.5 293t107.5 293t314.5 98q204 0 308 -83.5t104 -248.5q0 -47 -10 -89t-33.5 -82.5t-69.5 -64t-110 -23.5h-32q-30 0 -44 31l-4 9q-25 -23 -66.5 -38t-83.5 -15q-84 0 -137 54.5t-53 158.5zM367 250
q0 -62 24.5 -89.5t73.5 -27.5q53 0 102 27v180q-49 27 -102 27q-49 0 -73.5 -27.5t-24.5 -89.5z" />
    <glyph glyph-name="A" unicode="A" horiz-adv-x="640" 
d="M96 0h-44q-19 0 -28.5 15t-2.5 37l227 667q8 22 19 31t31 9h44q20 0 31 -9t19 -31l227 -667q7 -22 -2.5 -37t-28.5 -15h-44q-22 0 -33 9.5t-18 31.5l-43 142h-260l-43 -142q-7 -22 -18 -31.5t-33 -9.5zM422 275l-102 335l-102 -335h204z" />
    <glyph glyph-name="B" unicode="B" horiz-adv-x="608" 
d="M61 45v660q0 45 43 45h209q238 0 238 -205q0 -49 -24 -89t-66 -60q53 -16 83 -63.5t30 -112.5q0 -220 -255 -220h-215q-43 0 -43 45zM173 342v-239h150q131 0 131 120q0 60 -30.5 89.5t-99.5 29.5h-151zM431 540q0 107 -115 107h-143v-210h147q61 0 86 30t25 73z" />
    <glyph glyph-name="C" unicode="C" horiz-adv-x="587" 
d="M166 375q0 -142 48 -212t153 -70q73 0 131 20q18 6 28 -1.5t10 -23.5v-40q0 -30 -36 -41q-59 -19 -140 -19q-161 0 -235 98.5t-74 288.5t74 288.5t235 98.5q81 0 140 -19q36 -11 36 -41v-40q0 -16 -10 -23.5t-28 -1.5q-58 20 -131 20q-105 0 -153 -70t-48 -212z" />
    <glyph glyph-name="D" unicode="D" horiz-adv-x="650" 
d="M61 45v660q0 45 43 45h180q91 0 154.5 -28t98.5 -80.5t50 -117t15 -149.5t-15 -149.5t-50 -117t-98.5 -80.5t-154.5 -28h-180q-43 0 -43 45zM173 647v-544h114q107 0 152.5 70.5t45.5 201.5t-45.5 201.5t-152.5 70.5h-114z" />
    <glyph glyph-name="E" unicode="E" horiz-adv-x="565" 
d="M173 647v-207h269q43 0 43 -43v-17q0 -43 -43 -43h-269v-234h301q43 0 43 -43v-17q0 -43 -43 -43h-370q-43 0 -43 45v660q0 45 43 45h370q43 0 43 -43v-17q0 -43 -43 -43h-301z" />
    <glyph glyph-name="F" unicode="F" horiz-adv-x="544" 
d="M433 333h-260v-288q0 -45 -44 -45h-25q-43 0 -43 45v660q0 45 43 45h361q44 0 44 -43v-17q0 -43 -44 -43h-292v-211h260q44 0 44 -43v-17q0 -43 -44 -43z" />
    <glyph glyph-name="G" unicode="G" horiz-adv-x="651" 
d="M391 413h157q44 0 44 -45v-298q0 -38 -38 -52q-83 -30 -198 -30q-305 0 -305 387q0 186 72.5 286.5t235.5 100.5q107 0 181 -24q34 -11 34 -43v-42q0 -16 -11.5 -24.5t-29.5 -1.5q-88 30 -160 30q-111 0 -159 -71t-48 -211q0 -143 48 -212.5t159 -69.5q69 0 107 14v205
h-90q-43 0 -43 42v16q0 43 44 43z" />
    <glyph glyph-name="H" unicode="H" horiz-adv-x="650" 
d="M477 45v292h-304v-292q0 -45 -44 -45h-25q-43 0 -43 45v660q0 45 43 45h25q44 0 44 -45v-265h304v265q0 45 44 45h25q43 0 43 -45v-660q0 -45 -43 -45h-25q-44 0 -44 45z" />
    <glyph glyph-name="I" unicode="I" horiz-adv-x="266" 
d="M77 45v660q0 45 43 45h26q43 0 43 -45v-660q0 -45 -43 -45h-26q-43 0 -43 45z" />
    <glyph glyph-name="J" unicode="J" horiz-adv-x="374" 
d="M304 705v-550q0 -167 -198 -167q-35 0 -56 6q-28 6 -28 35v49q0 12 8 19t20 4q30 -6 50 -6q92 0 92 77v533q0 45 43 45h26q43 0 43 -45z" />
    <glyph glyph-name="K" unicode="K" horiz-adv-x="623" 
d="M173 705l-1 -303l265 318q15 18 26.5 24t29.5 6h55q19 0 24.5 -15t-7.5 -30l-257 -292l282 -367q11 -15 4.5 -30.5t-25.5 -15.5h-55q-34 0 -60 34l-221 294l-61 -70l1 -213q0 -45 -44 -45h-25q-43 0 -43 45v660q0 45 43 45h25q44 0 44 -45z" />
    <glyph glyph-name="L" unicode="L" horiz-adv-x="524" 
d="M455 0h-351q-43 0 -43 45v660q0 45 43 45h25q44 0 44 -45v-602h282q44 0 44 -43v-17q0 -43 -44 -43z" />
    <glyph glyph-name="M" unicode="M" horiz-adv-x="816" 
d="M392 103q-38 0 -50 32l-174 429l5 -519q0 -45 -44 -45h-25q-43 0 -43 45v660q0 45 43 45h64q38 0 50 -32l190 -479l190 479q12 32 50 32h64q43 0 43 -45v-660q0 -45 -43 -45h-25q-44 0 -44 45l5 519l-174 -429q-12 -32 -50 -32h-32z" />
    <glyph glyph-name="N" unicode="N" horiz-adv-x="658" 
d="M181 720l308 -503l-3 488q0 45 44 45h24q43 0 43 -45v-660q0 -45 -43 -45h-25q-34 0 -52 30l-308 503l3 -488q0 -45 -44 -45h-24q-43 0 -43 45v660q0 45 43 45h25q34 0 52 -30z" />
    <glyph glyph-name="O" unicode="O" horiz-adv-x="680" 
d="M340 -12q-70 0 -122.5 20.5t-83.5 54t-50.5 85t-26 105t-6.5 122.5t6.5 122.5t26 105t50.5 85t83.5 54t122.5 20.5t122.5 -20.5t83.5 -54t50.5 -85t26 -105t6.5 -122.5t-6.5 -122.5t-26 -105t-50.5 -85t-83.5 -54t-122.5 -20.5zM340 660q-100 0 -137 -70t-37 -215
t37 -215t137 -70t137 70t37 215t-37 215t-137 70z" />
    <glyph glyph-name="P" unicode="P" horiz-adv-x="580" 
d="M61 45v660q0 45 43 45h198q135 0 197.5 -66.5t62.5 -168.5t-62.5 -168t-197.5 -66h-129v-236q0 -45 -43 -45h-26q-43 0 -43 45zM173 647v-264h134q75 0 104 39t29 93t-29 93t-104 39h-134z" />
    <glyph glyph-name="Q" unicode="Q" horiz-adv-x="680" 
d="M471 20l195 -40q39 -8 39 -47v-39q0 -18 -12 -26t-33 -1l-422 133q-56 17 -94 51.5t-58 86t-27.5 107.5t-7.5 130q0 71 7 125.5t26 105.5t51 84t83.5 52.5t121.5 19.5t122 -19.5t83.5 -52.5t50.5 -84t26 -105.5t7 -125.5q0 -145 -33 -233t-125 -121v-1zM340 660
q-100 0 -137 -70t-37 -215t37 -215t137 -70t137 70t37 215t-37 215t-137 70z" />
    <glyph glyph-name="R" unicode="R" horiz-adv-x="621" 
d="M61 45v660q0 45 43 45h201q139 0 197.5 -57t58.5 -166q0 -158 -122 -200l150 -274q11 -21 0.5 -37t-30.5 -16h-46q-22 0 -34 8.5t-22 29.5l-128 267h-156v-260q0 -45 -43 -45h-26q-43 0 -43 45zM173 647v-240h148q37 0 62 9.5t36.5 28t15.5 37.5t4 45q0 56 -23.5 88
t-94.5 32h-148z" />
    <glyph glyph-name="S" unicode="S" horiz-adv-x="595" 
d="M260 94q175 0 175 126q0 60 -28.5 83t-107.5 33q-140 18 -197 63t-57 146q0 94 62.5 155.5t203.5 61.5q101 0 169 -22q34 -11 34 -43v-42q0 -16 -11.5 -24.5t-29.5 -1.5q-79 27 -156 27q-157 0 -157 -112q0 -57 31.5 -77t113.5 -31q64 -9 105 -20.5t76 -34t50.5 -60.5
t15.5 -94q0 -112 -70 -175.5t-215 -63.5q-102 0 -188 28q-34 11 -34 43v42q0 16 11.5 24.5t29.5 1.5q97 -33 174 -33z" />
    <glyph glyph-name="T" unicode="T" horiz-adv-x="556" 
d="M334 647v-602q0 -45 -43 -45h-25q-44 0 -44 45v602h-151q-44 0 -44 43v17q0 43 44 43h414q44 0 44 -43v-17q0 -43 -44 -43h-151z" />
    <glyph glyph-name="U" unicode="U" horiz-adv-x="656" 
d="M328 -12q-35 0 -68 5.5t-71.5 22t-66.5 42.5t-47 72t-19 106v469q0 45 43 45h26q43 0 43 -45v-459q0 -156 160 -156t160 156v459q0 45 43 45h26q43 0 43 -45v-469q0 -60 -19 -106t-47 -72t-66.5 -42.5t-71.5 -22t-68 -5.5z" />
    <glyph glyph-name="V" unicode="V" horiz-adv-x="640" 
d="M147 709l173 -569l173 569q7 22 18 31.5t33 9.5h44q19 0 28.5 -15t2.5 -37l-227 -667q-8 -22 -19 -31t-31 -9h-44q-20 0 -31 9t-19 31l-227 667q-7 22 2.5 37t28.5 15h44q22 0 33 -9.5t18 -31.5z" />
    <glyph glyph-name="W" unicode="W" horiz-adv-x="884" 
d="M412 750h60q21 0 32.5 -9t16.5 -33l128 -549l94 550q7 41 45 41h41q20 0 28 -12t4 -34l-133 -670q-9 -43 -49 -43h-52q-40 0 -50 43l-135 585l-135 -585q-10 -43 -50 -43h-52q-40 0 -49 43l-133 670q-4 22 4 34t28 12h41q38 0 45 -41l94 -550l128 549q5 24 16.5 33
t32.5 9z" />
    <glyph glyph-name="X" unicode="X" horiz-adv-x="653" 
d="M318 302l-168 -270q-20 -32 -53 -32h-47q-20 0 -27.5 17t3.5 33l215 334l-205 315q-13 18 -6.5 34.5t27.5 16.5h54q19 0 28.5 -7t20.5 -25l158 -267l158 267q11 18 20.5 25t28.5 7h54q21 0 27.5 -16.5t-6.5 -34.5l-205 -315l215 -334q11 -16 3.5 -33t-27.5 -17h-47
q-33 0 -53 32z" />
    <glyph glyph-name="Y" unicode="Y" horiz-adv-x="670" 
d="M150 718l185 -318l185 318q18 32 53 32h47q20 0 27.5 -17t-3.5 -33l-252 -399v-256q0 -45 -43 -45h-27q-44 0 -44 45v256l-252 399q-11 16 -3.5 33t27.5 17h47q35 0 53 -32z" />
    <glyph glyph-name="Z" unicode="Z" horiz-adv-x="610" 
d="M551 654l-370 -548l354 2q45 0 45 -44v-21q0 -43 -45 -43h-460q-45 0 -45 43v14q0 18 14 39l370 548l-314 -2q-45 0 -45 44v21q0 43 45 43h420q45 0 45 -43v-14q0 -18 -14 -39z" />
    <glyph glyph-name="bracketleft" unicode="[" horiz-adv-x="268" 
d="M65 776q0 40 38 40h97q38 0 38 -40v-24q0 -40 -38 -40h-26v-814h26q38 0 38 -40v-24q0 -40 -38 -40h-97q-38 0 -38 40v942z" />
    <glyph glyph-name="backslash" unicode="\" horiz-adv-x="463" 
d="M339 -164l-323 909q-8 20 0 37.5t29 17.5h31q35 0 48 -36l323 -909q8 -20 0 -37.5t-29 -17.5h-31q-35 0 -48 36z" />
    <glyph glyph-name="bracketright" unicode="]" horiz-adv-x="268" 
d="M203 -166q0 -40 -38 -40h-97q-38 0 -38 40v24q0 40 38 40h26v814h-26q-38 0 -38 40v24q0 40 38 40h97q38 0 38 -40v-942z" />
    <glyph glyph-name="asciicircum" unicode="^" horiz-adv-x="566" 
d="M420 405l-137 237l-137 -237q-18 -30 -50 -30h-45q-18 0 -23.5 13t3.5 28l184 311q12 20 23 27.5t31 7.5h28q20 0 31 -7.5t23 -27.5l184 -311q9 -15 3.5 -28t-23.5 -13h-45q-32 0 -50 30z" />
    <glyph glyph-name="underscore" unicode="_" horiz-adv-x="294" 
d="M295 -132v-19q0 -37 -38 -37h-219q-38 0 -38 37v19q0 37 38 37h219q38 0 38 -37z" />
    <glyph glyph-name="grave" unicode="`" horiz-adv-x="526" 
d="M153 750h63q35 0 46 -34l41 -133q5 -15 -1.5 -24t-21.5 -9h-34q-27 0 -45 30l-71 124q-10 18 -3 32t26 14z" />
    <glyph glyph-name="a" unicode="a" horiz-adv-x="496" 
d="M444 334v-301q0 -33 -32 -33h-11q-15 0 -22 6t-14 23l-5 11q-63 -52 -151 -52q-90 0 -131 46t-41 114q0 148 183 163l112 9v25q0 39 -21.5 55t-76.5 16q-57 0 -120 -20q-16 -5 -26 2.5t-10 20.5v37q0 29 28 37q64 19 136 19q115 0 158.5 -45t43.5 -133zM332 243l-105 -12
q-40 -5 -59.5 -22.5t-19.5 -54.5q0 -74 77 -74q56 0 107 33v130z" />
    <glyph glyph-name="b" unicode="b" horiz-adv-x="542" 
d="M139 40l-5 -11q-7 -17 -14 -23t-22 -6h-11q-32 0 -32 33v677q0 40 38 40h36q38 0 38 -40v-237q61 39 134 39q106 0 153 -67t47 -195t-47 -195t-153 -67q-91 0 -162 52zM275 417q-55 0 -108 -29v-276q53 -29 108 -29q67 0 90 43t23 124t-23 124t-90 43z" />
    <glyph glyph-name="c" unicode="c" horiz-adv-x="450" 
d="M41 250q0 126 52.5 194t178.5 68q59 0 110 -15q28 -8 28 -37v-38q0 -13 -10 -20t-26 -2q-41 13 -95 13q-69 0 -97 -42t-28 -121t28 -121t97 -42q54 0 95 13q16 5 26 -2t10 -20v-38q0 -29 -28 -37q-51 -15 -110 -15q-126 0 -178.5 68t-52.5 194z" />
    <glyph glyph-name="d" unicode="d" horiz-adv-x="542" 
d="M408 29l-5 11q-71 -52 -162 -52q-106 0 -153 67t-47 195t47 195t153 67q73 0 134 -39v237q0 40 38 40h36q38 0 38 -40v-677q0 -33 -32 -33h-11q-15 0 -22 6t-14 23zM267 417q-67 0 -90 -43t-23 -124t23 -124t90 -43q55 0 108 29v276q-53 29 -108 29z" />
    <glyph glyph-name="e" unicode="e" horiz-adv-x="510" 
d="M263 415q-58 0 -82 -33t-27 -95h200q0 31 -2 49.5t-10.5 39t-28 30t-50.5 9.5zM429 209h-275q2 -61 30.5 -92.5t100.5 -31.5q61 0 128 21q16 5 26 -2.5t10 -20.5v-37q0 -28 -28 -37q-65 -21 -153 -21q-120 0 -173.5 67t-53.5 195q0 127 52.5 194.5t169.5 67.5
q64 0 106 -19.5t62.5 -57t28 -78.5t7.5 -99v-9q0 -40 -38 -40z" />
    <glyph glyph-name="f" unicode="f" horiz-adv-x="382" 
d="M308 665q-90 0 -90 -76v-89h103q38 0 38 -40v-15q0 -40 -38 -40h-103v-365q0 -40 -38 -40h-36q-38 0 -38 40v365h-58q-33 0 -33 32v10q0 16 6.5 24t22.5 12l62 17v99q0 163 194 163q34 0 54 -5q28 -7 28 -37v-38q0 -13 -10 -19.5t-26 -2.5q-20 5 -38 5z" />
    <glyph glyph-name="g" unicode="g" horiz-adv-x="524" 
d="M352 -33l-142 18q-97 -17 -97 -80q0 -42 31 -60t101 -18q71 0 118 21.5t47 64.5q0 25 -13.5 37.5t-44.5 16.5zM142 322q0 -48 22.5 -74.5t80.5 -26.5t80.5 26.5t22.5 74.5t-22.5 74.5t-80.5 26.5t-80.5 -26.5t-22.5 -74.5zM337 500h140q33 0 33 -32v-11q0 -16 -6.5 -24
t-22.5 -12l-42 -12q15 -39 15 -87q0 -190 -209 -190q-35 0 -58 4q-14 -14 -14 -29q0 -25 30 -29l181 -22q73 -9 103.5 -42.5t30.5 -97.5q0 -90 -80.5 -134t-200.5 -44q-106 0 -168.5 36t-62.5 110q0 48 30 79.5t74 44.5v1q-39 22 -39 69q0 46 45 81q-80 45 -80 163
q0 190 209 190q53 0 92 -12z" />
    <glyph glyph-name="h" unicode="h" horiz-adv-x="524" 
d="M361 40v303q0 74 -79 74q-63 0 -115 -29v-348q0 -40 -38 -40h-36q-38 0 -38 40v670q0 40 38 40h36q38 0 38 -40v-235q63 37 134 37q172 0 172 -159v-313q0 -40 -38 -40h-36q-38 0 -38 40z" />
    <glyph glyph-name="i" unicode="i" horiz-adv-x="257" 
d="M65 102v358q0 40 38 40h36q38 0 38 -40v-342q0 -24 24 -30q23 -6 23 -30v-30q0 -35 -45 -35q-51 0 -82.5 28t-31.5 81zM48 648q0 30 21.5 51.5t51.5 21.5t51.5 -21.5t21.5 -51.5t-21.5 -51.5t-51.5 -21.5t-51.5 21.5t-21.5 51.5z" />
    <glyph glyph-name="j" unicode="j" horiz-adv-x="242" 
d="M48 648q0 30 21.5 51.5t51.5 21.5t51.5 -21.5t21.5 -51.5t-21.5 -51.5t-51.5 -21.5t-51.5 21.5t-21.5 51.5zM177 460v-550q0 -83 -52 -126.5t-131 -43.5q-46 0 -46 36v36q0 36 38 36q37 0 58 20.5t21 60.5v531q0 40 38 40h36q38 0 38 -40z" />
    <glyph glyph-name="k" unicode="k" horiz-adv-x="522" 
d="M167 171v-131q0 -40 -38 -40h-36q-38 0 -38 40v670q0 40 38 40h36q38 0 38 -40v-409l177 170q29 29 60 29h44q22 0 28.5 -19t-8.5 -32l-170 -156l198 -240q14 -17 6 -35t-30 -18h-43q-32 0 -56 30l-151 191z" />
    <glyph glyph-name="l" unicode="l" horiz-adv-x="257" 
d="M65 102v608q0 40 38 40h36q38 0 38 -40v-592q0 -24 24 -30q23 -6 23 -30v-30q0 -35 -45 -35q-51 0 -82.5 28t-31.5 81z" />
    <glyph glyph-name="m" unicode="m" horiz-adv-x="794" 
d="M455 331v-291q0 -40 -38 -40h-36q-38 0 -38 40v313q0 64 -71 64q-55 0 -105 -29v-348q0 -40 -38 -40h-36q-38 0 -38 40v427q0 33 32 33h11q15 0 22 -6t14 -23l5 -11q66 52 151 52q94 0 128 -50q70 50 160 50q165 0 165 -159v-313q0 -40 -38 -40h-36q-38 0 -38 40v313
q0 64 -71 64q-58 0 -108 -31q3 -27 3 -55z" />
    <glyph glyph-name="n" unicode="n" horiz-adv-x="524" 
d="M55 40v427q0 33 32 33h11q15 0 22 -6t14 -23l5 -11q76 52 162 52q172 0 172 -159v-313q0 -40 -38 -40h-36q-38 0 -38 40v303q0 74 -79 74q-63 0 -115 -29v-348q0 -40 -38 -40h-36q-38 0 -38 40z" />
    <glyph glyph-name="o" unicode="o" horiz-adv-x="526" 
d="M263 82q67 0 88 39.5t21 128.5t-21 128.5t-88 39.5t-88 -39.5t-21 -128.5t21 -128.5t88 -39.5zM263 -12q-125 0 -173.5 67.5t-48.5 194.5t48.5 194.5t173.5 67.5t173.5 -67.5t48.5 -194.5t-48.5 -194.5t-173.5 -67.5z" />
    <glyph glyph-name="p" unicode="p" horiz-adv-x="542" 
d="M134 471l5 -11q71 52 162 52q106 0 153 -67t47 -195t-47 -195t-153 -67q-73 0 -134 39v-237q0 -40 -38 -40h-36q-38 0 -38 40v677q0 33 32 33h11q15 0 22 -6t14 -23zM275 83q67 0 90 43t23 124t-23 124t-90 43q-55 0 -108 -29v-276q53 -29 108 -29z" />
    <glyph glyph-name="q" unicode="q" horiz-adv-x="542" 
d="M403 460l5 11q7 17 14 23t22 6h11q32 0 32 -33v-677q0 -40 -38 -40h-36q-38 0 -38 40v237q-61 -39 -134 -39q-106 0 -153 67t-47 195t47 195t153 67q91 0 162 -52zM267 83q55 0 108 29v276q-53 29 -108 29q-67 0 -90 -43t-23 -124t23 -124t90 -43z" />
    <glyph glyph-name="r" unicode="r" horiz-adv-x="366" 
d="M295 416q-81 0 -128 -30v-346q0 -40 -38 -40h-36q-38 0 -38 40v427q0 33 32 33h11q15 0 22 -6t14 -23l5 -11q64 52 158 52q11 0 23 -2q30 -5 30 -32v-41q0 -27 -30 -23q-18 2 -25 2z" />
    <glyph glyph-name="s" unicode="s" horiz-adv-x="465" 
d="M247 418q-96 0 -96 -62q0 -27 17.5 -39.5t65.5 -16.5q109 -9 149 -43.5t40 -107.5q0 -71 -50.5 -116t-162.5 -45q-81 0 -139 18q-31 9 -31 40v24q0 17 11.5 27t31.5 4q63 -18 111 -18q119 0 119 62q0 29 -17.5 43.5t-65.5 18.5q-108 9 -148 43.5t-40 102.5
q0 70 49.5 114.5t153.5 44.5q75 0 128 -15q32 -9 32 -42v-23q0 -17 -13 -26.5t-34 -3.5q-68 16 -111 16z" />
    <glyph glyph-name="t" unicode="t" horiz-adv-x="380" 
d="M216 616v-116h103q38 0 38 -40v-15q0 -40 -38 -40h-103v-248q0 -41 21 -57.5t61 -16.5q7 0 16 1q30 4 30 -23v-38q0 -25 -30 -32q-14 -3 -34 -3q-176 0 -176 156v261h-58q-33 0 -33 32v10q0 16 6.5 24t22.5 12l62 17v91q0 16 6.5 24t22.5 12l48 14q15 4 25 -3.5t10 -21.5
z" />
    <glyph glyph-name="u" unicode="u" horiz-adv-x="524" 
d="M469 460v-427q0 -33 -32 -33h-11q-15 0 -22 6t-14 23l-5 11q-76 -52 -162 -52q-172 0 -172 159v313q0 40 38 40h36q38 0 38 -40v-303q0 -74 79 -74q63 0 115 29v348q0 40 38 40h36q38 0 38 -40z" />
    <glyph glyph-name="v" unicode="v" horiz-adv-x="500" 
d="M260 -9h-20q-22 0 -32.5 8.5t-18.5 28.5l-167 418q-9 22 1 38t32 16h32q36 0 47 -34l116 -328l116 328q11 34 47 34h32q22 0 32 -16t1 -38l-167 -418q-8 -20 -18.5 -28.5t-32.5 -8.5z" />
    <glyph glyph-name="w" unicode="w" horiz-adv-x="696" 
d="M335 500h26q39 0 49 -39l86 -305l70 306q9 38 44 38h33q20 0 30 -14t4 -37l-118 -419q-11 -39 -47 -39h-20q-40 0 -51 41l-93 336l-93 -336q-11 -41 -51 -41h-20q-36 0 -47 39l-118 419q-6 23 4 37t30 14h33q35 0 44 -38l70 -306l86 305q10 39 49 39z" />
    <glyph glyph-name="x" unicode="x" horiz-adv-x="510" 
d="M363 28l-108 157l-108 -157q-19 -28 -53 -28h-39q-23 0 -31 21t6 38l151 198l-142 189q-14 16 -6 35t31 19h40q32 0 52 -28l99 -146l99 146q20 28 52 28h40q23 0 31 -19t-6 -35l-142 -189l151 -198q14 -17 6 -38t-31 -21h-39q-34 0 -53 28z" />
    <glyph glyph-name="y" unicode="y" horiz-adv-x="500" 
d="M478 446l-264 -662q-14 -34 -49 -34h-48q-22 0 -31.5 18t0.5 38l107 212l-171 428q-9 22 1 38t32 16h32q35 0 47 -34l116 -328l116 328q11 34 47 34h32q22 0 32 -16t1 -38z" />
    <glyph glyph-name="z" unicode="z" horiz-adv-x="439" 
d="M35 101l236 301h-198q-38 0 -38 40v18q0 40 38 40h306q36 0 36 -36v-24q0 -19 -18 -41l-236 -301h227q38 0 38 -40v-18q0 -40 -38 -40h-335q-36 0 -36 36v24q0 19 18 41z" />
    <glyph glyph-name="braceleft" unicode="{" horiz-adv-x="248" 
d="M18 290v30q0 35 27 39q26 4 25 37l-18 311q-3 55 29.5 82t88.5 27h10q38 0 38 -40v-26q0 -32 -25 -38q-18 -4 -25.5 -12t-6.5 -27l18 -292q3 -49 -34 -76q37 -27 34 -76l-18 -292q-1 -19 6.5 -27t25.5 -12q25 -6 25 -38v-26q0 -40 -38 -40h-10q-56 0 -88.5 27t-29.5 82
l18 311q1 33 -25 37q-27 4 -27 39z" />
    <glyph glyph-name="bar" unicode="|" horiz-adv-x="266" 
d="M77 -160v920q0 40 38 40h36q38 0 38 -40v-920q0 -40 -38 -40h-36q-38 0 -38 40z" />
    <glyph glyph-name="braceright" unicode="}" horiz-adv-x="248" 
d="M230 320v-30q0 -35 -27 -39q-26 -4 -25 -37l18 -311q3 -55 -29.5 -82t-88.5 -27h-10q-38 0 -38 40v26q0 32 25 38q18 4 25.5 12t6.5 27l-18 292q-3 49 34 76q-37 27 -34 76l18 292q1 19 -6.5 27t-25.5 12q-25 6 -25 38v26q0 40 38 40h10q56 0 88.5 -27t29.5 -82l-18 -311
q-1 -33 25 -37q27 -4 27 -39z" />
    <glyph glyph-name="asciitilde" unicode="~" horiz-adv-x="490" 
d="M344 252q-34 0 -63 11.5t-45.5 25t-38 25t-43.5 11.5q-24 0 -48.5 -14.5t-34.5 -14.5q-12 0 -19 7t-7 17v50q0 28 26 40q37 17 75 17q43 0 76.5 -18.5t60 -36.5t53.5 -18q24 0 48.5 14.5t34.5 14.5q12 0 19 -7t7 -17v-50q0 -28 -26 -40q-37 -17 -75 -17z" />
    <glyph glyph-name="nbspace" unicode="&#xa0;" horiz-adv-x="200" 
 />
    <glyph glyph-name="exclamdown" unicode="&#xa1;" horiz-adv-x="220" 
d="M149 -250h-78q-39 0 -36 42l35 469q2 29 28 29h24q26 0 28 -29l35 -469q3 -42 -36 -42zM183 439q0 -30 -21.5 -51.5t-51.5 -21.5t-51.5 21.5t-21.5 51.5t21.5 51.5t51.5 21.5t51.5 -21.5t21.5 -51.5z" />
    <glyph glyph-name="cent" unicode="&#xa2;" horiz-adv-x="504" 
d="M47 375q0 124 60 192.5t181 69.5l28 81q11 32 44 32h28q17 0 23.5 -14t-0.5 -30l-32 -77q24 -4 43 -9q32 -9 32 -42v-25q0 -17 -13 -26.5t-34 -3.5q-55 13 -99 13q-149 0 -149 -161t149 -161q44 0 99 13q21 6 34 -3.5t13 -26.5v-25q0 -33 -32 -42q-60 -17 -133 -17h-17
l-28 -81q-11 -32 -44 -32h-28q-17 0 -23.5 14t0.5 30l36 86q-138 51 -138 245z" />
    <glyph glyph-name="sterling" unicode="&#xa3;" horiz-adv-x="581" 
d="M473 386v-22q0 -36 -38 -36h-214v-225h290q42 0 42 -42v-20q0 -41 -42 -41h-436q-42 0 -42 41v20q0 42 42 42h34v225h-39q-37 0 -37 36v22q0 36 37 36h39v138q0 202 239 202q88 0 154 -21q31 -10 31 -40v-28q0 -16 -12 -25.5t-31 -4.5q-72 18 -133 18q-69 0 -102.5 -26.5
t-33.5 -82.5v-130h214q38 0 38 -36z" />
    <glyph glyph-name="currency" unicode="&#xa4;" horiz-adv-x="716" 
d="M359 64q-84 0 -147 30l-66 -72q-26 -28 -54 -2l-29 27q-25 25 0 54l63 69q-47 64 -47 173t47 173l-63 69q-26 27 0 53l29 28q28 25 54 -3l66 -72q63 30 147 30t147 -30l66 72q26 28 54 3l28 -28q27 -25 1 -53l-63 -69q47 -66 47 -173t-47 -173l63 -69q26 -29 -1 -54
l-28 -27q-28 -26 -54 2l-66 72q-63 -30 -147 -30zM200 342q0 -96 40.5 -133t117.5 -37t117.5 37t40.5 133t-40.5 133t-117.5 37t-117.5 -37t-40.5 -133z" />
    <glyph glyph-name="yen" unicode="&#xa5;" horiz-adv-x="620" 
d="M326 0h-32q-42 0 -42 43v207h-181q-38 0 -38 36v22q0 36 38 36h163l-36 62h-127q-38 0 -38 36v21q0 37 38 37h73l-110 190q-14 21 -6.5 40.5t31.5 19.5h42q39 0 57 -36l152 -315l152 315q18 36 57 36h42q24 0 31.5 -19.5t-6.5 -40.5l-110 -190h73q38 0 38 -37v-21
q0 -36 -38 -36h-127l-36 -62h163q38 0 38 -36v-22q0 -36 -38 -36h-181v-207q0 -43 -42 -43z" />
    <glyph glyph-name="brokenbar" unicode="&#xa6;" horiz-adv-x="266" 
d="M77 365v395q0 40 38 40h36q38 0 38 -40v-395q0 -40 -38 -40h-36q-38 0 -38 40zM77 -160v395q0 40 38 40h36q38 0 38 -40v-395q0 -40 -38 -40h-36q-38 0 -38 40z" />
    <glyph glyph-name="section" unicode="&#xa7;" horiz-adv-x="658" 
d="M372 653q-82 0 -113 -29.5t-31 -80.5q0 -50 33.5 -70t114.5 -33q140 -21 188.5 -64t48.5 -140q0 -113 -95 -173q30 -42 30 -109q0 -30 -6.5 -58t-24 -57.5t-46 -51t-76.5 -35.5t-111 -14q-100 0 -177 25q-34 11 -34 43v43q0 16 11.5 24.5t29.5 1.5q82 -28 172 -28
q82 0 113 29.5t31 80.5q0 50 -33.5 70t-114.5 33q-140 21 -188.5 64t-48.5 140q0 49 23 95.5t71 77.5q-29 39 -29 109q0 30 6 58t24 57.5t46 51t76.5 35.5t111.5 14q100 0 177 -25q34 -11 34 -43v-43q0 -16 -11.5 -24.5t-29.5 -1.5q-82 28 -172 28zM360 338q-84 13 -128 32
q-70 -30 -70 -107q0 -51 29.5 -69t106.5 -32q86 -15 127 -32q71 30 71 107q0 51 -29.5 69t-106.5 32z" />
    <glyph glyph-name="dieresis" unicode="&#xa8;" horiz-adv-x="526" 
d="M84 648q0 30 21.5 51.5t51.5 21.5t51.5 -21.5t21.5 -51.5t-21.5 -51.5t-51.5 -21.5t-51.5 21.5t-21.5 51.5zM296 648q0 30 21.5 51.5t51.5 21.5t51.5 -21.5t21.5 -51.5t-21.5 -51.5t-51.5 -21.5t-51.5 21.5t-21.5 51.5z" />
    <glyph glyph-name="copyright" unicode="&#xa9;" horiz-adv-x="792" 
d="M395 -12q-148 0 -241 78.5t-93 245.5q0 86 26.5 150.5t73.5 101.5t105 55t129 18t130 -18t106 -55t73.5 -101.5t26.5 -150.5t-26.5 -150t-73.5 -101t-106 -55t-130 -18zM397 64q113 0 184 60.5t71 187.5q0 128 -71 188.5t-184 60.5q-114 0 -185.5 -60.5t-71.5 -188.5
q0 -127 71.5 -187.5t185.5 -60.5zM222 312q0 93 48 138t133 45q48 0 85 -8q27 -5 27 -34v-22q0 -14 -11 -22t-28 -4q-42 6 -62 6q-95 0 -95 -99t95 -99q20 0 62 6q17 4 28 -4t11 -22v-22q0 -29 -27 -34q-37 -8 -85 -8q-85 0 -133 45t-48 138z" />
    <glyph glyph-name="ordfeminine" unicode="&#xaa;" horiz-adv-x="387" 
d="M184 680q-39 0 -67.5 -7.5t-34.5 -7.5q-27 0 -27 27v17q0 28 43 40.5t97 12.5q86 0 118.5 -34t32.5 -100v-217q0 -35 -35 -35h-15q-21 0 -30 22q-52 -34 -108 -34q-131 0 -131 123q0 112 142 121l80 5v15q0 27 -14 39.5t-51 12.5zM249 551l-71 -6q-59 -7 -59 -53
q0 -51 58 -51q37 0 72 20v90z" />
    <glyph glyph-name="guillemotleft" unicode="&#xab;" horiz-adv-x="479" 
d="M47 232v36q0 17 5 27t22 23l123 102q13 10 26.5 5t13.5 -19v-35q0 -16 -4.5 -25t-18.5 -22l-79 -74l79 -74q14 -13 18.5 -22t4.5 -25v-35q0 -14 -13.5 -19t-26.5 5l-123 102q-17 13 -22 23t-5 27zM237 232v36q0 17 5 27t22 23l123 102q13 10 26.5 5t13.5 -19v-35
q0 -16 -4.5 -25t-18.5 -22l-79 -74l79 -74q14 -13 18.5 -22t4.5 -25v-35q0 -14 -13.5 -19t-26.5 5l-123 102q-17 13 -22 23t-5 27z" />
    <glyph glyph-name="logicalnot" unicode="&#xac;" horiz-adv-x="610" 
d="M524 460v-240q0 -39 -37 -39h-32q-37 0 -37 39v173h-305q-37 0 -37 36v32q0 38 37 38h373q38 0 38 -39z" />
    <glyph glyph-name="uni00AD" unicode="&#xad;" horiz-adv-x="315" 
d="M249 261h-183q-38 0 -38 40v21q0 40 38 40h183q38 0 38 -40v-21q0 -40 -38 -40z" />
    <glyph glyph-name="registered" unicode="&#xae;" horiz-adv-x="328" 
d="M23 625q0 79 38 108t103 29t103 -29t38 -108t-38 -108t-103 -29t-103 29t-38 108zM201 607l24 -41q4 -6 2 -11.5t-9 -5.5h-18q-11 0 -17 13l-17 39h-25v-38q0 -14 -13 -14h-11q-13 0 -13 14v125q0 13 13 13h56q51 0 51 -47q0 -32 -23 -47zM184 652q0 14 -15 14h-28v-31
h28q15 0 15 17zM266 625q0 60 -26 80.5t-76 20.5t-76 -20.5t-26 -80.5t26 -80.5t76 -20.5t76 20.5t26 80.5z" />
    <glyph glyph-name="macron" unicode="&#xaf;" horiz-adv-x="526" 
d="M373 605h-220q-38 0 -38 37v15q0 37 38 37h220q38 0 38 -37v-15q0 -37 -38 -37z" />
    <glyph glyph-name="degree" unicode="&#xb0;" horiz-adv-x="378" 
d="M341 617q0 -145 -152 -145q-71 0 -111.5 35t-40.5 110t40.5 110t111.5 35q152 0 152 -145zM129 617q0 -59 60 -59t60 59t-60 59t-60 -59z" />
    <glyph glyph-name="plusminus" unicode="&#xb1;" 
d="M353 462h131q40 0 40 -38v-30q0 -38 -40 -38h-131v-131q0 -40 -38 -40h-30q-38 0 -38 40v131h-131q-40 0 -40 38v30q0 38 40 38h131v131q0 40 38 40h30q38 0 38 -40v-131zM484 146q40 0 40 -38v-30q0 -38 -40 -38h-368q-40 0 -40 38v30q0 38 40 38h368z" />
    <glyph glyph-name="twosuperior" unicode="&#xb2;" horiz-adv-x="427" 
d="M37 378v13q0 23 26 39q117 74 157.5 112.5t40.5 75.5q0 48 -73 48q-46 0 -94 -14q-18 -4 -29 4t-11 24v29q0 29 28 37q58 16 116 16q178 0 178 -132q0 -31 -15 -58.5t-47 -53.5t-57.5 -42t-71.5 -42l164 1q38 0 38 -38v-19q0 -37 -38 -37h-274q-38 0 -38 37z" />
    <glyph glyph-name="threesuperior" unicode="&#xb3;" horiz-adv-x="449" 
d="M152 589h88q51 0 51 39t-87 39q-63 0 -109 -13q-18 -5 -29 4t-11 24v29q0 29 27 36q54 15 130 15q89 0 137 -29.5t48 -87.5q0 -31 -13.5 -52.5t-33.5 -28.5q64 -24 64 -104q0 -61 -51.5 -96t-149.5 -35q-79 0 -138 16q-28 7 -28 36v29q0 15 11 23.5t30 4.5
q56 -14 117 -14q98 0 98 45q0 23 -13 33t-45 10h-93q-36 0 -36 36v5q0 36 36 36z" />
    <glyph glyph-name="acute" unicode="&#xb4;" horiz-adv-x="526" 
d="M310 750h63q19 0 26 -14t-3 -32l-71 -124q-18 -30 -45 -30h-34q-15 0 -21.5 9t-1.5 24l41 133q11 34 46 34z" />
    <glyph glyph-name="paragraph" unicode="&#xb6;" horiz-adv-x="626" 
d="M395 281v-236q0 -45 -43 -45h-26q-43 0 -43 45v236q-132 1 -193.5 67t-61.5 167q0 102 62.5 168.5t197.5 66.5h234q43 0 43 -45v-660q0 -45 -43 -45h-26q-43 0 -43 45v236h-58zM150 515q0 -54 29 -93t104 -39v264q-75 0 -104 -39t-29 -93zM453 383v264h-58v-264h58z" />
    <glyph glyph-name="periodcentered" unicode="&#xb7;" horiz-adv-x="220" 
d="M37 312q0 30 21.5 51.5t51.5 21.5t51.5 -21.5t21.5 -51.5t-21.5 -51.5t-51.5 -21.5t-51.5 21.5t-21.5 51.5z" />
    <glyph glyph-name="cedilla" unicode="&#xb8;" horiz-adv-x="526" 
d="M221 0h54l3 -53q45 -12 69.5 -38.5t24.5 -61.5q0 -47 -32.5 -72t-86.5 -25q-39 0 -72 10q-25 8 -25 31v24q0 12 7.5 18.5t20.5 2.5q31 -9 54 -9q54 0 54 30q0 32 -58 45q-24 5 -21 26z" />
    <glyph glyph-name="onesuperior" unicode="&#xb9;" horiz-adv-x="323" 
d="M140 656l-78 -3q-31 0 -31 30v6q0 25 30 34l100 29q37 10 49 10h3q31 0 31 -35v-347q0 -39 -38 -39h-28q-38 0 -38 39v276z" />
    <glyph glyph-name="ordmasculine" unicode="&#xba;" horiz-adv-x="422" 
d="M389 563q0 -101 -42 -150t-136 -49t-136 49t-42 150t42 150t136 49t136 -49t42 -150zM128 563q0 -62 19.5 -88.5t63.5 -26.5t63.5 26.5t19.5 88.5t-19.5 88.5t-63.5 26.5t-63.5 -26.5t-19.5 -88.5z" />
    <glyph glyph-name="guillemotright" unicode="&#xbb;" horiz-adv-x="479" 
d="M432 232q0 -17 -5 -27t-22 -23l-123 -102q-13 -10 -26.5 -5t-13.5 19v35q0 16 4.5 25t18.5 22l79 74l-79 74q-14 13 -18.5 22t-4.5 25v35q0 14 13.5 19t26.5 -5l123 -102q17 -13 22 -23t5 -27v-36zM242 232q0 -17 -5 -27t-22 -23l-123 -102q-13 -10 -26.5 -5t-13.5 19v35
q0 16 4.5 25t18.5 22l79 74l-79 74q-14 13 -18.5 22t-4.5 25v35q0 14 13.5 19t26.5 -5l123 -102q17 -13 22 -23t5 -27v-36z" />
    <glyph glyph-name="onequarter" unicode="&#xbc;" horiz-adv-x="987" 
d="M536 128v15q0 16 19 38l187 215q22 25 43 25h49q35 0 35 -36v-201h36q39 0 39 -37v-18q0 -37 -39 -37h-36v-56q0 -36 -35 -36h-30q-36 0 -36 36v56h-193q-39 0 -39 36zM670 183l98 1l3 113zM752 727l-501 -710q-14 -17 -32 -17h-56q-10 0 -13 7t4 16l502 710q13 17 32 17
h55q10 0 13 -7t-4 -16zM140 656l-78 -3q-31 0 -31 30v6q0 25 30 34l100 29q37 10 49 10h3q31 0 31 -35v-347q0 -39 -38 -39h-28q-38 0 -38 39v276z" />
    <glyph glyph-name="onehalf" unicode="&#xbd;" horiz-adv-x="1000" 
d="M612 37v13q0 23 26 39q117 74 157.5 112.5t40.5 75.5q0 48 -73 48q-46 0 -94 -14q-18 -4 -29 4t-11 24v29q0 29 28 37q58 16 116 16q178 0 178 -132q0 -31 -15 -58.5t-47 -53.5t-57.5 -42t-71.5 -42l164 1q38 0 38 -38v-19q0 -37 -38 -37h-274q-38 0 -38 37zM752 727
l-501 -710q-14 -17 -32 -17h-56q-10 0 -13 7t4 16l502 710q13 17 32 17h55q10 0 13 -7t-4 -16zM140 656l-78 -3q-31 0 -31 30v6q0 25 30 34l100 29q37 10 49 10h3q31 0 31 -35v-347q0 -39 -38 -39h-28q-38 0 -38 39v276z" />
    <glyph glyph-name="threequarters" unicode="&#xbe;" horiz-adv-x="1098" 
d="M647 128v15q0 16 19 38l187 215q22 25 43 25h49q35 0 35 -36v-201h36q39 0 39 -37v-18q0 -37 -39 -37h-36v-56q0 -36 -35 -36h-30q-36 0 -36 36v56h-193q-39 0 -39 36zM781 183l98 1l3 113zM863 727l-501 -710q-14 -17 -32 -17h-56q-10 0 -13 7t4 16l502 710q13 17 32 17
h55q10 0 13 -7t-4 -16zM152 589h88q51 0 51 39t-87 39q-63 0 -109 -13q-18 -5 -29 4t-11 24v29q0 29 27 36q54 15 130 15q89 0 137 -29.5t48 -87.5q0 -31 -13.5 -52.5t-33.5 -28.5q64 -24 64 -104q0 -61 -51.5 -96t-149.5 -35q-79 0 -138 16q-28 7 -28 36v29q0 15 11 23.5
t30 4.5q56 -14 117 -14q98 0 98 45q0 23 -13 33t-45 10h-93q-36 0 -36 36v5q0 36 36 36z" />
    <glyph glyph-name="questiondown" unicode="&#xbf;" horiz-adv-x="475" 
d="M369 439q0 -30 -21.5 -51.5t-51.5 -21.5t-51.5 21.5t-21.5 51.5t21.5 51.5t51.5 21.5t51.5 -21.5t21.5 -51.5zM293 -156q54 0 116 14q20 5 31.5 -5t11.5 -27v-32q0 -32 -31 -40q-57 -16 -136 -16q-77 0 -129 16t-78.5 47t-36.5 65.5t-10 80.5q0 47 14 81.5t43.5 57.5
t55 35.5t69.5 28.5q18 6 30.5 16t18.5 18.5t9 23.5t3.5 23t0.5 25v9q0 25 24 25h25q21 0 27 -21q8 -32 8 -61q0 -88 -83 -123l-21.5 -8.5t-21 -9t-18 -8.5t-18 -9.5t-15 -10.5t-14 -12.5t-9.5 -14t-8.5 -17.5t-4.5 -20.5t-2 -24.5q0 -54 32.5 -80t116.5 -26z" />
    <glyph glyph-name="Agrave" unicode="&#xc0;" horiz-adv-x="640" 
d="M96 0h-44q-19 0 -28.5 15t-2.5 37l227 667q8 22 19 31t31 9h44q20 0 31 -9t19 -31l227 -667q7 -22 -2.5 -37t-28.5 -15h-44q-22 0 -33 9.5t-18 31.5l-43 142h-260l-43 -142q-7 -22 -18 -31.5t-33 -9.5zM422 275l-102 335l-102 -335h204zM210 905h63q36 0 53 -26l33 -50
q9 -13 3.5 -23.5t-20.5 -10.5h-38q-28 0 -51 19l-55 47q-16 13 -11.5 28.5t23.5 15.5z" />
    <glyph glyph-name="Aacute" unicode="&#xc1;" horiz-adv-x="640" 
d="M493 41l-43 142h-260l-43 -142q-7 -22 -18 -31.5t-33 -9.5h-44q-19 0 -28.5 15t-2.5 37l227 667q8 22 19 31t31 9h44q20 0 31 -9t19 -31l227 -667q7 -22 -2.5 -37t-28.5 -15h-44q-22 0 -33 9.5t-18 31.5zM320 610l-102 -335h204zM367 905h63q19 0 23.5 -15.5t-11.5 -28.5
l-55 -47q-23 -19 -51 -19h-38q-15 0 -20.5 10.5t3.5 23.5l33 50q17 26 53 26z" />
    <glyph glyph-name="Acircumflex" unicode="&#xc2;" horiz-adv-x="640" 
d="M96 0h-44q-19 0 -28.5 15t-2.5 37l227 667q8 22 19 31t31 9h44q20 0 31 -9t19 -31l227 -667q7 -22 -2.5 -37t-28.5 -15h-44q-22 0 -33 9.5t-18 31.5l-43 142h-260l-43 -142q-7 -22 -18 -31.5t-33 -9.5zM422 275l-102 335l-102 -335h204zM377 808l-57 31l-57 -31
q-25 -13 -55 -13h-51q-14 0 -17.5 13.5t10.5 23.5l74 54q26 19 57 19h78q31 0 57 -19l74 -54q14 -10 10.5 -23.5t-17.5 -13.5h-51q-30 0 -55 13z" />
    <glyph glyph-name="Atilde" unicode="&#xc3;" horiz-adv-x="640" 
d="M96 0h-44q-19 0 -28.5 15t-2.5 37l227 667q8 22 19 31t31 9h44q20 0 31 -9t19 -31l227 -667q7 -22 -2.5 -37t-28.5 -15h-44q-22 0 -33 9.5t-18 31.5l-43 142h-260l-43 -142q-7 -22 -18 -31.5t-33 -9.5zM402 860q18 0 28 7t12.5 15.5t9.5 15.5t20 7h17q28 0 28 -29
q0 -37 -28.5 -68t-84.5 -31q-36 0 -66.5 15.5t-55 31.5t-44.5 16q-18 0 -28 -7t-12.5 -15.5t-9.5 -15.5t-20 -7h-17q-28 0 -28 29q0 37 28.5 68t84.5 31q36 0 66.5 -15.5t55 -31.5t44.5 -16zM422 275l-102 335l-102 -335h204z" />
    <glyph glyph-name="Adieresis" unicode="&#xc4;" horiz-adv-x="640" 
d="M96 0h-44q-19 0 -28.5 15t-2.5 37l227 667q8 22 19 31t31 9h44q20 0 31 -9t19 -31l227 -667q7 -22 -2.5 -37t-28.5 -15h-44q-22 0 -33 9.5t-18 31.5l-43 142h-260l-43 -142q-7 -22 -18 -31.5t-33 -9.5zM422 275l-102 335l-102 -335h204zM141 850q0 30 21.5 51.5
t51.5 21.5t51.5 -21.5t21.5 -51.5t-21.5 -51.5t-51.5 -21.5t-51.5 21.5t-21.5 51.5zM353 850q0 30 21.5 51.5t51.5 21.5t51.5 -21.5t21.5 -51.5t-21.5 -51.5t-51.5 -21.5t-51.5 21.5t-21.5 51.5z" />
    <glyph glyph-name="Aring" unicode="&#xc5;" horiz-adv-x="640" 
d="M96 0h-44q-19 0 -28.5 15t-2.5 37l227 667q8 22 19 31t31 9h44q20 0 31 -9t19 -31l227 -667q7 -22 -2.5 -37t-28.5 -15h-44q-22 0 -33 9.5t-18 31.5l-43 142h-260l-43 -142q-7 -22 -18 -31.5t-33 -9.5zM422 275l-102 335l-102 -335h204zM220 850q0 82 100 82t100 -82
t-100 -82t-100 82zM354 850q0 17 -34 17t-34 -17t34 -17t34 17z" />
    <glyph glyph-name="AE" unicode="&#xc6;" horiz-adv-x="944" 
d="M421 750h452q43 0 43 -43v-17q0 -43 -43 -43h-341l32 -207h277q43 0 43 -43v-17q0 -43 -43 -43h-261l36 -234h257q43 0 43 -43v-17q0 -43 -43 -43h-321q-43 0 -49 42l-20 141h-268l-71 -149q-16 -34 -56 -34h-44q-19 0 -26.5 13t1.5 32l341 664q20 41 61 41zM422 617
l-163 -342h210z" />
    <glyph glyph-name="Ccedilla" unicode="&#xc7;" horiz-adv-x="587" 
d="M166 375q0 -142 48 -212t153 -70q73 0 131 20q18 6 28 -1.5t10 -23.5v-40q0 -30 -36 -41q-59 -19 -140 -19l2 -41q45 -12 69.5 -38.5t24.5 -61.5q0 -47 -32.5 -72t-86.5 -25q-39 0 -72 10q-25 8 -25 31v24q0 12 7.5 18.5t20.5 2.5q32 -9 54 -9q54 0 54 30q0 32 -58 45
q-24 5 -21 26l7 64q-132 16 -192.5 113t-60.5 270q0 190 74 288.5t235 98.5q81 0 140 -19q36 -11 36 -41v-40q0 -16 -10 -23.5t-28 -1.5q-58 20 -131 20q-105 0 -153 -70t-48 -212z" />
    <glyph glyph-name="Egrave" unicode="&#xc8;" horiz-adv-x="565" 
d="M173 647v-207h269q43 0 43 -43v-17q0 -43 -43 -43h-269v-234h301q43 0 43 -43v-17q0 -43 -43 -43h-370q-43 0 -43 45v660q0 45 43 45h370q43 0 43 -43v-17q0 -43 -43 -43h-301zM187 905h63q36 0 53 -26l33 -50q9 -13 3.5 -23.5t-20.5 -10.5h-38q-28 0 -51 19l-55 47
q-16 13 -11.5 28.5t23.5 15.5z" />
    <glyph glyph-name="Eacute" unicode="&#xc9;" horiz-adv-x="565" 
d="M173 647v-207h269q43 0 43 -43v-17q0 -43 -43 -43h-269v-234h301q43 0 43 -43v-17q0 -43 -43 -43h-370q-43 0 -43 45v660q0 45 43 45h370q43 0 43 -43v-17q0 -43 -43 -43h-301zM344 905h63q19 0 23.5 -15.5t-11.5 -28.5l-55 -47q-23 -19 -51 -19h-38q-15 0 -20.5 10.5
t3.5 23.5l33 50q17 26 53 26z" />
    <glyph glyph-name="Ecircumflex" unicode="&#xca;" horiz-adv-x="565" 
d="M173 647v-207h269q43 0 43 -43v-17q0 -43 -43 -43h-269v-234h301q43 0 43 -43v-17q0 -43 -43 -43h-370q-43 0 -43 45v660q0 45 43 45h370q43 0 43 -43v-17q0 -43 -43 -43h-301zM354 808l-57 31l-57 -31q-25 -13 -55 -13h-51q-14 0 -17.5 13.5t10.5 23.5l74 54
q26 19 57 19h78q31 0 57 -19l74 -54q14 -10 10.5 -23.5t-17.5 -13.5h-51q-30 0 -55 13z" />
    <glyph glyph-name="Edieresis" unicode="&#xcb;" horiz-adv-x="565" 
d="M173 647v-207h269q43 0 43 -43v-17q0 -43 -43 -43h-269v-234h301q43 0 43 -43v-17q0 -43 -43 -43h-370q-43 0 -43 45v660q0 45 43 45h370q43 0 43 -43v-17q0 -43 -43 -43h-301zM118 850q0 30 21.5 51.5t51.5 21.5t51.5 -21.5t21.5 -51.5t-21.5 -51.5t-51.5 -21.5
t-51.5 21.5t-21.5 51.5zM330 850q0 30 21.5 51.5t51.5 21.5t51.5 -21.5t21.5 -51.5t-21.5 -51.5t-51.5 -21.5t-51.5 21.5t-21.5 51.5z" />
    <glyph glyph-name="Igrave" unicode="&#xcc;" horiz-adv-x="266" 
d="M77 45v660q0 45 43 45h26q43 0 43 -45v-660q0 -45 -43 -45h-26q-43 0 -43 45zM23 905h63q36 0 53 -26l33 -50q9 -13 3.5 -23.5t-20.5 -10.5h-38q-28 0 -51 19l-55 47q-16 13 -11.5 28.5t23.5 15.5z" />
    <glyph glyph-name="Iacute" unicode="&#xcd;" horiz-adv-x="266" 
d="M77 45v660q0 45 43 45h26q43 0 43 -45v-660q0 -45 -43 -45h-26q-43 0 -43 45zM180 905h63q19 0 23.5 -15.5t-11.5 -28.5l-55 -47q-23 -19 -51 -19h-38q-15 0 -20.5 10.5t3.5 23.5l33 50q17 26 53 26z" />
    <glyph glyph-name="Icircumflex" unicode="&#xce;" horiz-adv-x="266" 
d="M77 45v660q0 45 43 45h26q43 0 43 -45v-660q0 -45 -43 -45h-26q-43 0 -43 45zM190 808l-57 31l-57 -31q-25 -13 -55 -13h-51q-14 0 -17.5 13.5t10.5 23.5l74 54q26 19 57 19h78q31 0 57 -19l74 -54q14 -10 10.5 -23.5t-17.5 -13.5h-51q-30 0 -55 13z" />
    <glyph glyph-name="Idieresis" unicode="&#xcf;" horiz-adv-x="266" 
d="M77 45v660q0 45 43 45h26q43 0 43 -45v-660q0 -45 -43 -45h-26q-43 0 -43 45zM-36 850q0 30 21.5 51.5t51.5 21.5t51.5 -21.5t21.5 -51.5t-21.5 -51.5t-51.5 -21.5t-51.5 21.5t-21.5 51.5zM176 850q0 30 21.5 51.5t51.5 21.5t51.5 -21.5t21.5 -51.5t-21.5 -51.5
t-51.5 -21.5t-51.5 21.5t-21.5 51.5z" />
    <glyph glyph-name="Eth" unicode="&#xd0;" horiz-adv-x="695" 
d="M106 45v290h-49q-38 0 -38 37v21q0 37 38 37h49v275q0 45 43 45h180q91 0 154.5 -28t98.5 -80.5t50 -117t15 -149.5t-15 -149.5t-50 -117t-98.5 -80.5t-154.5 -28h-180q-43 0 -43 45zM338 335h-120v-232h114q107 0 152.5 70.5t45.5 201.5t-45.5 201.5t-152.5 70.5h-114
v-217h120q38 0 38 -37v-21q0 -37 -38 -37z" />
    <glyph glyph-name="Ntilde" unicode="&#xd1;" horiz-adv-x="658" 
d="M181 720l308 -503l-3 488q0 45 44 45h24q43 0 43 -45v-660q0 -45 -43 -45h-25q-34 0 -52 30l-308 503l3 -488q0 -45 -44 -45h-24q-43 0 -43 45v660q0 45 43 45h25q34 0 52 -30zM411 860q18 0 28 7t12.5 15.5t9.5 15.5t20 7h17q28 0 28 -29q0 -37 -28.5 -68t-84.5 -31
q-36 0 -66.5 15.5t-55 31.5t-44.5 16q-18 0 -28 -7t-12.5 -15.5t-9.5 -15.5t-20 -7h-17q-28 0 -28 29q0 37 28.5 68t84.5 31q36 0 66.5 -15.5t55 -31.5t44.5 -16z" />
    <glyph glyph-name="Ograve" unicode="&#xd2;" horiz-adv-x="680" 
d="M340 -12q-70 0 -122.5 20.5t-83.5 54t-50.5 85t-26 105t-6.5 122.5t6.5 122.5t26 105t50.5 85t83.5 54t122.5 20.5t122.5 -20.5t83.5 -54t50.5 -85t26 -105t6.5 -122.5t-6.5 -122.5t-26 -105t-50.5 -85t-83.5 -54t-122.5 -20.5zM340 660q-100 0 -137 -70t-37 -215
t37 -215t137 -70t137 70t37 215t-37 215t-137 70zM230 905h63q36 0 53 -26l33 -50q9 -13 3.5 -23.5t-20.5 -10.5h-38q-28 0 -51 19l-55 47q-16 13 -11.5 28.5t23.5 15.5z" />
    <glyph glyph-name="Oacute" unicode="&#xd3;" horiz-adv-x="680" 
d="M340 -12q-70 0 -122.5 20.5t-83.5 54t-50.5 85t-26 105t-6.5 122.5t6.5 122.5t26 105t50.5 85t83.5 54t122.5 20.5t122.5 -20.5t83.5 -54t50.5 -85t26 -105t6.5 -122.5t-6.5 -122.5t-26 -105t-50.5 -85t-83.5 -54t-122.5 -20.5zM340 660q-100 0 -137 -70t-37 -215
t37 -215t137 -70t137 70t37 215t-37 215t-137 70zM387 905h63q19 0 23.5 -15.5t-11.5 -28.5l-55 -47q-23 -19 -51 -19h-38q-15 0 -20.5 10.5t3.5 23.5l33 50q17 26 53 26z" />
    <glyph glyph-name="Ocircumflex" unicode="&#xd4;" horiz-adv-x="680" 
d="M340 -12q-70 0 -122.5 20.5t-83.5 54t-50.5 85t-26 105t-6.5 122.5t6.5 122.5t26 105t50.5 85t83.5 54t122.5 20.5t122.5 -20.5t83.5 -54t50.5 -85t26 -105t6.5 -122.5t-6.5 -122.5t-26 -105t-50.5 -85t-83.5 -54t-122.5 -20.5zM340 660q-100 0 -137 -70t-37 -215
t37 -215t137 -70t137 70t37 215t-37 215t-137 70zM397 808l-57 31l-57 -31q-25 -13 -55 -13h-51q-14 0 -17.5 13.5t10.5 23.5l74 54q26 19 57 19h78q31 0 57 -19l74 -54q14 -10 10.5 -23.5t-17.5 -13.5h-51q-30 0 -55 13z" />
    <glyph glyph-name="Otilde" unicode="&#xd5;" horiz-adv-x="680" 
d="M340 -12q-70 0 -122.5 20.5t-83.5 54t-50.5 85t-26 105t-6.5 122.5t6.5 122.5t26 105t50.5 85t83.5 54t122.5 20.5t122.5 -20.5t83.5 -54t50.5 -85t26 -105t6.5 -122.5t-6.5 -122.5t-26 -105t-50.5 -85t-83.5 -54t-122.5 -20.5zM340 660q-100 0 -137 -70t-37 -215
t37 -215t137 -70t137 70t37 215t-37 215t-137 70zM422 860q18 0 28 7t12.5 15.5t9.5 15.5t20 7h17q28 0 28 -29q0 -37 -28.5 -68t-84.5 -31q-36 0 -66.5 15.5t-55 31.5t-44.5 16q-18 0 -28 -7t-12.5 -15.5t-9.5 -15.5t-20 -7h-17q-28 0 -28 29q0 37 28.5 68t84.5 31
q36 0 66.5 -15.5t55 -31.5t44.5 -16z" />
    <glyph glyph-name="Odieresis" unicode="&#xd6;" horiz-adv-x="680" 
d="M340 -12q-70 0 -122.5 20.5t-83.5 54t-50.5 85t-26 105t-6.5 122.5t6.5 122.5t26 105t50.5 85t83.5 54t122.5 20.5t122.5 -20.5t83.5 -54t50.5 -85t26 -105t6.5 -122.5t-6.5 -122.5t-26 -105t-50.5 -85t-83.5 -54t-122.5 -20.5zM340 660q-100 0 -137 -70t-37 -215
t37 -215t137 -70t137 70t37 215t-37 215t-137 70zM161 850q0 30 21.5 51.5t51.5 21.5t51.5 -21.5t21.5 -51.5t-21.5 -51.5t-51.5 -21.5t-51.5 21.5t-21.5 51.5zM373 850q0 30 21.5 51.5t51.5 21.5t51.5 -21.5t21.5 -51.5t-21.5 -51.5t-51.5 -21.5t-51.5 21.5t-21.5 51.5z
" />
    <glyph glyph-name="multiply" unicode="&#xd7;" 
d="M177 538l123 -123l123 123q29 29 55 1l21 -21q28 -26 -1 -55l-123 -123l123 -123q29 -29 1 -55l-21 -21q-26 -28 -55 1l-123 123l-123 -123q-29 -29 -55 -1l-21 21q-28 26 1 55l123 123l-123 123q-29 29 -1 55l21 21q26 28 55 -1z" />
    <glyph glyph-name="Oslash" unicode="&#xd8;" horiz-adv-x="680" 
d="M589 716l-29 -47q69 -91 69 -294q0 -69 -6.5 -122.5t-26 -105t-50.5 -85t-83.5 -54t-122.5 -20.5q-105 0 -171 44l-9 -15q-10 -17 -32 -17h-22q-13 0 -18 10t3 24l28 46q-68 91 -68 295q0 69 6.5 122.5t26 105t50.5 85t83.5 54t122.5 20.5q106 0 170 -45l10 16
q10 17 32 17h22q13 0 18 -10t-3 -24zM514 375q0 118 -23 182l-263 -429q40 -38 112 -38q100 0 137 70t37 215zM340 660q-100 0 -137 -70t-37 -215q0 -118 22 -183l264 430q-41 38 -112 38z" />
    <glyph glyph-name="Ugrave" unicode="&#xd9;" horiz-adv-x="656" 
d="M328 -12q-35 0 -68 5.5t-71.5 22t-66.5 42.5t-47 72t-19 106v469q0 45 43 45h26q43 0 43 -45v-459q0 -156 160 -156t160 156v459q0 45 43 45h26q43 0 43 -45v-469q0 -60 -19 -106t-47 -72t-66.5 -42.5t-71.5 -22t-68 -5.5zM218 905h63q36 0 53 -26l33 -50
q9 -13 3.5 -23.5t-20.5 -10.5h-38q-28 0 -51 19l-55 47q-16 13 -11.5 28.5t23.5 15.5z" />
    <glyph glyph-name="Uacute" unicode="&#xda;" horiz-adv-x="656" 
d="M328 -12q-35 0 -68 5.5t-71.5 22t-66.5 42.5t-47 72t-19 106v469q0 45 43 45h26q43 0 43 -45v-459q0 -156 160 -156t160 156v459q0 45 43 45h26q43 0 43 -45v-469q0 -60 -19 -106t-47 -72t-66.5 -42.5t-71.5 -22t-68 -5.5zM375 905h63q19 0 23.5 -15.5t-11.5 -28.5
l-55 -47q-23 -19 -51 -19h-38q-15 0 -20.5 10.5t3.5 23.5l33 50q17 26 53 26z" />
    <glyph glyph-name="Ucircumflex" unicode="&#xdb;" horiz-adv-x="656" 
d="M488 705q0 45 43 45h26q43 0 43 -45v-469q0 -60 -19 -106t-47 -72t-66.5 -42.5t-71.5 -22t-68 -5.5t-68 5.5t-71.5 22t-66.5 42.5t-47 72t-19 106v469q0 45 43 45h26q43 0 43 -45v-459q0 -156 160 -156t160 156v459zM385 808l-57 31l-57 -31q-25 -13 -55 -13h-51
q-14 0 -17.5 13.5t10.5 23.5l74 54q26 19 57 19h78q31 0 57 -19l74 -54q14 -10 10.5 -23.5t-17.5 -13.5h-51q-30 0 -55 13z" />
    <glyph glyph-name="Udieresis" unicode="&#xdc;" horiz-adv-x="656" 
d="M488 705q0 45 43 45h26q43 0 43 -45v-469q0 -60 -19 -106t-47 -72t-66.5 -42.5t-71.5 -22t-68 -5.5t-68 5.5t-71.5 22t-66.5 42.5t-47 72t-19 106v469q0 45 43 45h26q43 0 43 -45v-459q0 -156 160 -156t160 156v459zM149 850q0 30 21.5 51.5t51.5 21.5t51.5 -21.5
t21.5 -51.5t-21.5 -51.5t-51.5 -21.5t-51.5 21.5t-21.5 51.5zM361 850q0 30 21.5 51.5t51.5 21.5t51.5 -21.5t21.5 -51.5t-21.5 -51.5t-51.5 -21.5t-51.5 21.5t-21.5 51.5z" />
    <glyph glyph-name="Yacute" unicode="&#xdd;" horiz-adv-x="670" 
d="M150 718l185 -318l185 318q18 32 53 32h47q20 0 27.5 -17t-3.5 -33l-252 -399v-256q0 -45 -43 -45h-27q-44 0 -44 45v256l-252 399q-11 16 -3.5 33t27.5 17h47q35 0 53 -32zM382 905h63q19 0 23.5 -15.5t-11.5 -28.5l-55 -47q-23 -19 -51 -19h-38q-15 0 -20.5 10.5
t3.5 23.5l33 50q17 26 53 26z" />
    <glyph glyph-name="Thorn" unicode="&#xde;" horiz-adv-x="590" 
d="M61 45v660q0 45 43 45h26q43 0 43 -45v-95h129q135 0 197.5 -66.5t62.5 -168.5t-62.5 -168t-197.5 -66h-129v-96q0 -45 -43 -45h-26q-43 0 -43 45zM173 507v-264h134q75 0 104 39t29 93t-29 93t-104 39h-134z" />
    <glyph glyph-name="germandbls" unicode="&#xdf;" horiz-adv-x="563" 
d="M348 83q86 0 86 68q0 32 -21 49t-64 31q-70 23 -98.5 54t-28.5 87q0 35 13.5 62t33 43.5l38.5 32t32.5 37t13.5 48.5q0 35 -24.5 52.5t-64.5 17.5q-41 0 -65.5 -18.5t-24.5 -53.5v-554q0 -39 -37 -39h-37q-38 0 -38 39v560q0 163 202 163q198 0 198 -164q0 -43 -20.5 -76
t-45 -50t-45 -40t-20.5 -49q0 -27 14.5 -41.5t56.5 -28.5q80 -27 111 -61.5t31 -100.5q0 -74 -49 -118.5t-136 -44.5q-63 0 -100.5 15t-37.5 43v21q0 33 30 33q3 0 33 -8.5t64 -8.5z" />
    <glyph glyph-name="agrave" unicode="&#xe0;" horiz-adv-x="496" 
d="M444 334v-301q0 -33 -32 -33h-11q-15 0 -22 6t-14 23l-5 11q-63 -52 -151 -52q-90 0 -131 46t-41 114q0 148 183 163l112 9v25q0 39 -21.5 55t-76.5 16q-57 0 -120 -20q-16 -5 -26 2.5t-10 20.5v37q0 29 28 37q64 19 136 19q115 0 158.5 -45t43.5 -133zM332 243l-105 -12
q-40 -5 -59.5 -22.5t-19.5 -54.5q0 -74 77 -74q56 0 107 33v130zM135 750h63q35 0 46 -34l41 -133q5 -15 -1.5 -24t-21.5 -9h-34q-27 0 -45 30l-71 124q-10 18 -3 32t26 14z" />
    <glyph glyph-name="aacute" unicode="&#xe1;" horiz-adv-x="496" 
d="M444 334v-301q0 -33 -32 -33h-11q-15 0 -22 6t-14 23l-5 11q-63 -52 -151 -52q-90 0 -131 46t-41 114q0 148 183 163l112 9v25q0 39 -21.5 55t-76.5 16q-57 0 -120 -20q-16 -5 -26 2.5t-10 20.5v37q0 29 28 37q64 19 136 19q115 0 158.5 -45t43.5 -133zM332 243l-105 -12
q-40 -5 -59.5 -22.5t-19.5 -54.5q0 -74 77 -74q56 0 107 33v130zM292 750h63q19 0 26 -14t-3 -32l-71 -124q-18 -30 -45 -30h-34q-15 0 -21.5 9t-1.5 24l41 133q11 34 46 34z" />
    <glyph glyph-name="acircumflex" unicode="&#xe2;" horiz-adv-x="496" 
d="M444 334v-301q0 -33 -32 -33h-11q-15 0 -22 6t-14 23l-5 11q-63 -52 -151 -52q-90 0 -131 46t-41 114q0 148 183 163l112 9v25q0 39 -21.5 55t-76.5 16q-57 0 -120 -20q-16 -5 -26 2.5t-10 20.5v37q0 29 28 37q64 19 136 19q115 0 158.5 -45t43.5 -133zM330 573l-85 95
l-85 -95q-20 -23 -47 -23h-39q-13 0 -18 12t5 25l109 136q13 17 23 22t27 5h50q17 0 27 -5t23 -22l109 -136q10 -13 5 -25t-18 -12h-39q-27 0 -47 23zM332 243l-105 -12q-40 -5 -59.5 -22.5t-19.5 -54.5q0 -74 77 -74q56 0 107 33v130z" />
    <glyph glyph-name="atilde" unicode="&#xe3;" horiz-adv-x="496" 
d="M444 334v-301q0 -33 -32 -33h-11q-15 0 -22 6t-14 23l-5 11q-63 -52 -151 -52q-90 0 -131 46t-41 114q0 148 183 163l112 9v25q0 39 -21.5 55t-76.5 16q-57 0 -120 -20q-16 -5 -26 2.5t-10 20.5v37q0 29 28 37q64 19 136 19q115 0 158.5 -45t43.5 -133zM332 243l-105 -12
q-40 -5 -59.5 -22.5t-19.5 -54.5q0 -74 77 -74q56 0 107 33v130zM325 653q35 0 45 26q11 28 36 28h15q29 0 27 -32q-3 -40 -30.5 -74t-91.5 -34q-30 0 -55 11.5t-39 25.5t-32 25.5t-35 11.5q-35 0 -45 -26q-11 -28 -36 -28h-15q-29 0 -27 32q3 40 30.5 74t91.5 34
q30 0 55 -11.5t39 -25.5t32 -25.5t35 -11.5z" />
    <glyph glyph-name="adieresis" unicode="&#xe4;" horiz-adv-x="496" 
d="M444 334v-301q0 -33 -32 -33h-11q-15 0 -22 6t-14 23l-5 11q-63 -52 -151 -52q-90 0 -131 46t-41 114q0 148 183 163l112 9v25q0 39 -21.5 55t-76.5 16q-57 0 -120 -20q-16 -5 -26 2.5t-10 20.5v37q0 29 28 37q64 19 136 19q115 0 158.5 -45t43.5 -133zM332 243l-105 -12
q-40 -5 -59.5 -22.5t-19.5 -54.5q0 -74 77 -74q56 0 107 33v130zM66 648q0 30 21.5 51.5t51.5 21.5t51.5 -21.5t21.5 -51.5t-21.5 -51.5t-51.5 -21.5t-51.5 21.5t-21.5 51.5zM278 648q0 30 21.5 51.5t51.5 21.5t51.5 -21.5t21.5 -51.5t-21.5 -51.5t-51.5 -21.5t-51.5 21.5
t-21.5 51.5z" />
    <glyph glyph-name="aring" unicode="&#xe5;" horiz-adv-x="496" 
d="M444 334v-301q0 -33 -32 -33h-11q-15 0 -22 6t-14 23l-5 11q-63 -52 -151 -52q-90 0 -131 46t-41 114q0 148 183 163l112 9v25q0 39 -21.5 55t-76.5 16q-57 0 -120 -20q-16 -5 -26 2.5t-10 20.5v37q0 29 28 37q64 19 136 19q115 0 158.5 -45t43.5 -133zM332 243l-105 -12
q-40 -5 -59.5 -22.5t-19.5 -54.5q0 -74 77 -74q56 0 107 33v130zM350 650q0 -51 -28.5 -77t-76.5 -26t-76.5 26t-28.5 77t28.5 77t76.5 26t76.5 -26t28.5 -77zM207 650q0 -37 38 -37q39 0 39 37t-39 37q-38 0 -38 -37z" />
    <glyph glyph-name="ae" unicode="&#xe6;" horiz-adv-x="801" 
d="M332 212h-100q-84 0 -84 -66q0 -32 16.5 -49t60.5 -17q69 0 122 46q-14 40 -15 86zM554 415q-58 0 -82 -33t-27 -95h200q0 31 -2 49.5t-10.5 39t-28 30t-50.5 9.5zM559 -12q-116 0 -170 62q-74 -62 -180 -62q-90 0 -131 44t-41 110q0 77 46.5 112.5t139.5 35.5h109v55
q0 39 -21 55t-77 16q-57 0 -120 -20q-16 -5 -26 2.5t-10 20.5v37q0 29 28 37q64 19 136 19q118 0 162 -49q47 47 150 49q64 0 106 -19.5t62.5 -57t28 -78.5t7.5 -99v-9q0 -40 -38 -40h-275q2 -61 30.5 -92.5t100.5 -31.5q62 0 128 21q16 5 26 -2.5t10 -20.5v-37
q0 -28 -28 -37q-65 -21 -153 -21z" />
    <glyph glyph-name="ccedilla" unicode="&#xe7;" horiz-adv-x="450" 
d="M41 250q0 126 52.5 194t178.5 68q59 0 110 -15q28 -8 28 -37v-38q0 -13 -10 -20t-26 -2q-41 13 -95 13q-69 0 -97 -42t-28 -121t28 -121t97 -42q54 0 95 13q16 5 26 -2t10 -20v-38q0 -29 -28 -37q-51 -14 -102 -15l2 -41q45 -12 69.5 -38.5t24.5 -61.5q0 -47 -32.5 -72
t-86.5 -25q-39 0 -72 10q-25 8 -25 31v24q0 12 7.5 18.5t20.5 2.5q32 -9 54 -9q54 0 54 30q0 32 -58 45q-24 5 -21 26l7 63q-99 13 -141 79.5t-42 179.5z" />
    <glyph glyph-name="egrave" unicode="&#xe8;" horiz-adv-x="510" 
d="M263 415q-58 0 -82 -33t-27 -95h200q0 31 -2 49.5t-10.5 39t-28 30t-50.5 9.5zM429 209h-275q2 -61 30.5 -92.5t100.5 -31.5q61 0 128 21q16 5 26 -2.5t10 -20.5v-37q0 -28 -28 -37q-65 -21 -153 -21q-120 0 -173.5 67t-53.5 195q0 127 52.5 194.5t169.5 67.5
q64 0 106 -19.5t62.5 -57t28 -78.5t7.5 -99v-9q0 -40 -38 -40zM153 750h63q35 0 46 -34l41 -133q5 -15 -1.5 -24t-21.5 -9h-34q-27 0 -45 30l-71 124q-10 18 -3 32t26 14z" />
    <glyph glyph-name="eacute" unicode="&#xe9;" horiz-adv-x="510" 
d="M263 415q-58 0 -82 -33t-27 -95h200q0 31 -2 49.5t-10.5 39t-28 30t-50.5 9.5zM429 209h-275q2 -61 30.5 -92.5t100.5 -31.5q61 0 128 21q16 5 26 -2.5t10 -20.5v-37q0 -28 -28 -37q-65 -21 -153 -21q-120 0 -173.5 67t-53.5 195q0 127 52.5 194.5t169.5 67.5
q64 0 106 -19.5t62.5 -57t28 -78.5t7.5 -99v-9q0 -40 -38 -40zM310 750h63q19 0 26 -14t-3 -32l-71 -124q-18 -30 -45 -30h-34q-15 0 -21.5 9t-1.5 24l41 133q11 34 46 34z" />
    <glyph glyph-name="ecircumflex" unicode="&#xea;" horiz-adv-x="510" 
d="M429 209h-275q2 -61 30.5 -92.5t100.5 -31.5q61 0 128 21q16 5 26 -2.5t10 -20.5v-37q0 -28 -28 -37q-65 -21 -153 -21q-120 0 -173.5 67t-53.5 195q0 127 52.5 194.5t169.5 67.5q64 0 106 -19.5t62.5 -57t28 -78.5t7.5 -99v-9q0 -40 -38 -40zM348 573l-85 95l-85 -95
q-20 -23 -47 -23h-39q-13 0 -18 12t5 25l109 136q13 17 23 22t27 5h50q17 0 27 -5t23 -22l109 -136q10 -13 5 -25t-18 -12h-39q-27 0 -47 23zM263 415q-58 0 -82 -33t-27 -95h200q0 31 -2 49.5t-10.5 39t-28 30t-50.5 9.5z" />
    <glyph glyph-name="edieresis" unicode="&#xeb;" horiz-adv-x="510" 
d="M263 415q-58 0 -82 -33t-27 -95h200q0 31 -2 49.5t-10.5 39t-28 30t-50.5 9.5zM429 209h-275q2 -61 30.5 -92.5t100.5 -31.5q61 0 128 21q16 5 26 -2.5t10 -20.5v-37q0 -28 -28 -37q-65 -21 -153 -21q-120 0 -173.5 67t-53.5 195q0 127 52.5 194.5t169.5 67.5
q64 0 106 -19.5t62.5 -57t28 -78.5t7.5 -99v-9q0 -40 -38 -40zM84 648q0 30 21.5 51.5t51.5 21.5t51.5 -21.5t21.5 -51.5t-21.5 -51.5t-51.5 -21.5t-51.5 21.5t-21.5 51.5zM296 648q0 30 21.5 51.5t51.5 21.5t51.5 -21.5t21.5 -51.5t-21.5 -51.5t-51.5 -21.5t-51.5 21.5
t-21.5 51.5z" />
    <glyph glyph-name="igrave" unicode="&#xec;" horiz-adv-x="257" 
d="M65 102v358q0 40 38 40h36q38 0 38 -40v-342q0 -24 24 -30q23 -6 23 -30v-30q0 -35 -45 -35q-51 0 -82.5 28t-31.5 81zM11 750h63q35 0 46 -34l41 -133q5 -15 -1.5 -24t-21.5 -9h-34q-27 0 -45 30l-71 124q-10 18 -3 32t26 14z" />
    <glyph glyph-name="iacute" unicode="&#xed;" horiz-adv-x="257" 
d="M65 102v358q0 40 38 40h36q38 0 38 -40v-342q0 -24 24 -30q23 -6 23 -30v-30q0 -35 -45 -35q-51 0 -82.5 28t-31.5 81zM168 750h63q19 0 26 -14t-3 -32l-71 -124q-18 -30 -45 -30h-34q-15 0 -21.5 9t-1.5 24l41 133q11 34 46 34z" />
    <glyph glyph-name="icircumflex" unicode="&#xee;" horiz-adv-x="257" 
d="M65 102v358q0 40 38 40h36q38 0 38 -40v-342q0 -24 24 -30q23 -6 23 -30v-30q0 -35 -45 -35q-51 0 -82.5 28t-31.5 81zM206 573l-85 95l-85 -95q-20 -23 -47 -23h-39q-13 0 -18 12t5 25l109 136q13 17 23 22t27 5h50q17 0 27 -5t23 -22l109 -136q10 -13 5 -25t-18 -12
h-39q-27 0 -47 23z" />
    <glyph glyph-name="idieresis" unicode="&#xef;" horiz-adv-x="257" 
d="M65 102v358q0 40 38 40h36q38 0 38 -40v-342q0 -24 24 -30q23 -6 23 -30v-30q0 -35 -45 -35q-51 0 -82.5 28t-31.5 81zM-48 648q0 30 21.5 51.5t51.5 21.5t51.5 -21.5t21.5 -51.5t-21.5 -51.5t-51.5 -21.5t-51.5 21.5t-21.5 51.5zM144 648q0 30 21.5 51.5t51.5 21.5
t51.5 -21.5t21.5 -51.5t-21.5 -51.5t-51.5 -21.5t-51.5 21.5t-21.5 51.5z" />
    <glyph glyph-name="eth" unicode="&#xf0;" horiz-adv-x="526" 
d="M135 611l78 40q-41 32 -104 51q-16 5 -21.5 16.5t0.5 21.5t19 10h91q40 0 74 -26l32 -27l82 42q14 7 24 0.5t10 -19.5v-19q0 -20 -17 -30l-48 -25q130 -150 130 -396q0 -127 -48.5 -194.5t-173.5 -67.5t-173.5 67.5t-48.5 194.5q0 129 49 195.5t163 66.5q56 0 84 -18
q-31 57 -72 106l-113 -57q-14 -8 -24 -1t-10 20v19q0 20 17 30zM263 82q67 0 88 39.5t21 128.5t-21 128.5t-88 39.5t-88 -39.5t-21 -128.5t21 -128.5t88 -39.5z" />
    <glyph glyph-name="ntilde" unicode="&#xf1;" horiz-adv-x="524" 
d="M55 40v427q0 33 32 33h11q15 0 22 -6t14 -23l5 -11q76 52 162 52q172 0 172 -159v-313q0 -40 -38 -40h-36q-38 0 -38 40v303q0 74 -79 74q-63 0 -115 -29v-348q0 -40 -38 -40h-36q-38 0 -38 40zM346 653q35 0 45 26q11 28 36 28h15q29 0 27 -32q-3 -40 -30.5 -74
t-91.5 -34q-30 0 -55 11.5t-39 25.5t-32 25.5t-35 11.5q-35 0 -45 -26q-11 -28 -36 -28h-15q-29 0 -27 32q3 40 30.5 74t91.5 34q30 0 55 -11.5t39 -25.5t32 -25.5t35 -11.5z" />
    <glyph glyph-name="ograve" unicode="&#xf2;" horiz-adv-x="526" 
d="M263 82q67 0 88 39.5t21 128.5t-21 128.5t-88 39.5t-88 -39.5t-21 -128.5t21 -128.5t88 -39.5zM263 -12q-125 0 -173.5 67.5t-48.5 194.5t48.5 194.5t173.5 67.5t173.5 -67.5t48.5 -194.5t-48.5 -194.5t-173.5 -67.5zM153 750h63q35 0 46 -34l41 -133q5 -15 -1.5 -24
t-21.5 -9h-34q-27 0 -45 30l-71 124q-10 18 -3 32t26 14z" />
    <glyph glyph-name="oacute" unicode="&#xf3;" horiz-adv-x="526" 
d="M263 82q67 0 88 39.5t21 128.5t-21 128.5t-88 39.5t-88 -39.5t-21 -128.5t21 -128.5t88 -39.5zM263 -12q-125 0 -173.5 67.5t-48.5 194.5t48.5 194.5t173.5 67.5t173.5 -67.5t48.5 -194.5t-48.5 -194.5t-173.5 -67.5zM310 750h63q19 0 26 -14t-3 -32l-71 -124
q-18 -30 -45 -30h-34q-15 0 -21.5 9t-1.5 24l41 133q11 34 46 34z" />
    <glyph glyph-name="ocircumflex" unicode="&#xf4;" horiz-adv-x="526" 
d="M263 -12q-125 0 -173.5 67.5t-48.5 194.5t48.5 194.5t173.5 67.5t173.5 -67.5t48.5 -194.5t-48.5 -194.5t-173.5 -67.5zM263 82q67 0 88 39.5t21 128.5t-21 128.5t-88 39.5t-88 -39.5t-21 -128.5t21 -128.5t88 -39.5zM348 573l-85 95l-85 -95q-20 -23 -47 -23h-39
q-13 0 -18 12t5 25l109 136q13 17 23 22t27 5h50q17 0 27 -5t23 -22l109 -136q10 -13 5 -25t-18 -12h-39q-27 0 -47 23z" />
    <glyph glyph-name="otilde" unicode="&#xf5;" horiz-adv-x="526" 
d="M263 82q67 0 88 39.5t21 128.5t-21 128.5t-88 39.5t-88 -39.5t-21 -128.5t21 -128.5t88 -39.5zM263 -12q-125 0 -173.5 67.5t-48.5 194.5t48.5 194.5t173.5 67.5t173.5 -67.5t48.5 -194.5t-48.5 -194.5t-173.5 -67.5zM343 653q35 0 45 26q11 28 36 28h15q29 0 27 -32
q-3 -40 -30.5 -74t-91.5 -34q-30 0 -55 11.5t-39 25.5t-32 25.5t-35 11.5q-35 0 -45 -26q-11 -28 -36 -28h-15q-29 0 -27 32q3 40 30.5 74t91.5 34q30 0 55 -11.5t39 -25.5t32 -25.5t35 -11.5z" />
    <glyph glyph-name="odieresis" unicode="&#xf6;" horiz-adv-x="526" 
d="M263 82q67 0 88 39.5t21 128.5t-21 128.5t-88 39.5t-88 -39.5t-21 -128.5t21 -128.5t88 -39.5zM263 -12q-125 0 -173.5 67.5t-48.5 194.5t48.5 194.5t173.5 67.5t173.5 -67.5t48.5 -194.5t-48.5 -194.5t-173.5 -67.5zM84 648q0 30 21.5 51.5t51.5 21.5t51.5 -21.5
t21.5 -51.5t-21.5 -51.5t-51.5 -21.5t-51.5 21.5t-21.5 51.5zM296 648q0 30 21.5 51.5t51.5 21.5t51.5 -21.5t21.5 -51.5t-21.5 -51.5t-51.5 -21.5t-51.5 21.5t-21.5 51.5z" />
    <glyph glyph-name="divide" unicode="&#xf7;" 
d="M484 394q40 0 40 -38v-31q0 -38 -40 -38h-368q-40 0 -40 38v31q0 38 40 38h368zM227 516q0 30 21.5 51.5t51.5 21.5t51.5 -21.5t21.5 -51.5t-21.5 -51.5t-51.5 -21.5t-51.5 21.5t-21.5 51.5zM227 170q0 30 21.5 51.5t51.5 21.5t51.5 -21.5t21.5 -51.5t-21.5 -51.5
t-51.5 -21.5t-51.5 21.5t-21.5 51.5z" />
    <glyph glyph-name="oslash" unicode="&#xf8;" horiz-adv-x="526" 
d="M461 466l-20 -27q44 -63 44 -189q0 -127 -48.5 -194.5t-173.5 -67.5q-78 0 -130 29q-12 -17 -32 -17h-21q-13 0 -18.5 10t3.5 24l20 28q-44 61 -44 188t48.5 194.5t173.5 67.5q78 0 129 -30l1 1q12 17 32 17h21q13 0 18.5 -10t-3.5 -24zM263 82q67 0 88 39.5t21 128.5
q0 50 -6 86l-172 -236q24 -18 69 -18zM154 250q0 -57 6 -86l172 235q-25 19 -69 19q-67 0 -88 -39.5t-21 -128.5z" />
    <glyph glyph-name="ugrave" unicode="&#xf9;" horiz-adv-x="524" 
d="M469 460v-427q0 -33 -32 -33h-11q-15 0 -22 6t-14 23l-5 11q-76 -52 -162 -52q-172 0 -172 159v313q0 40 38 40h36q38 0 38 -40v-303q0 -74 79 -74q63 0 115 29v348q0 40 38 40h36q38 0 38 -40zM150 750h63q35 0 46 -34l41 -133q5 -15 -1.5 -24t-21.5 -9h-34
q-27 0 -45 30l-71 124q-11 18 -4 32t27 14z" />
    <glyph glyph-name="uacute" unicode="&#xfa;" horiz-adv-x="524" 
d="M469 460v-427q0 -33 -32 -33h-11q-15 0 -22 6t-14 23l-5 11q-76 -52 -162 -52q-172 0 -172 159v313q0 40 38 40h36q38 0 38 -40v-303q0 -74 79 -74q63 0 115 29v348q0 40 38 40h36q38 0 38 -40zM307 750h63q20 0 27 -14t-4 -32l-71 -124q-18 -30 -45 -30h-34
q-15 0 -21.5 9t-1.5 24l41 133q11 34 46 34z" />
    <glyph glyph-name="ucircumflex" unicode="&#xfb;" horiz-adv-x="524" 
d="M469 460v-427q0 -33 -32 -33h-11q-15 0 -22 6t-14 23l-5 11q-76 -52 -162 -52q-172 0 -172 159v313q0 40 38 40h36q38 0 38 -40v-303q0 -74 79 -74q63 0 115 29v348q0 40 38 40h36q38 0 38 -40zM345 573l-85 95l-85 -95q-20 -23 -47 -23h-39q-13 0 -18 12t5 25l109 136
q13 17 23 22t27 5h50q17 0 27 -5t23 -22l109 -136q10 -13 5 -25t-18 -12h-39q-27 0 -47 23z" />
    <glyph glyph-name="udieresis" unicode="&#xfc;" horiz-adv-x="524" 
d="M469 460v-427q0 -33 -32 -33h-11q-15 0 -22 6t-14 23l-5 11q-76 -52 -162 -52q-172 0 -172 159v313q0 40 38 40h36q38 0 38 -40v-303q0 -74 79 -74q63 0 115 29v348q0 40 38 40h36q38 0 38 -40zM81 648q0 30 21.5 51.5t51.5 21.5t51.5 -21.5t21.5 -51.5t-21.5 -51.5
t-51.5 -21.5t-51.5 21.5t-21.5 51.5zM293 648q0 30 21.5 51.5t51.5 21.5t51.5 -21.5t21.5 -51.5t-21.5 -51.5t-51.5 -21.5t-51.5 21.5t-21.5 51.5z" />
    <glyph glyph-name="yacute" unicode="&#xfd;" horiz-adv-x="500" 
d="M478 446l-264 -662q-14 -34 -49 -34h-48q-22 0 -31.5 18t0.5 38l107 212l-171 428q-9 22 1 38t32 16h32q35 0 47 -34l116 -328l116 328q11 34 47 34h32q22 0 32 -16t1 -38zM297 750h63q20 0 27 -14t-4 -32l-71 -124q-18 -30 -45 -30h-34q-15 0 -21.5 9t-1.5 24l41 133
q11 34 46 34z" />
    <glyph glyph-name="thorn" unicode="&#xfe;" horiz-adv-x="542" 
d="M275 83q67 0 90 43t23 124t-23 124t-90 43q-55 0 -108 -29v-276q53 -29 108 -29zM55 -210v920q0 40 38 40h36q38 0 38 -40v-237q61 39 134 39q106 0 153 -67t47 -195t-47 -195t-153 -67q-73 0 -134 39v-237q0 -40 -38 -40h-36q-38 0 -38 40z" />
    <glyph glyph-name="ydieresis" unicode="&#xff;" horiz-adv-x="500" 
d="M478 446l-264 -662q-14 -34 -49 -34h-48q-22 0 -31.5 18t0.5 38l107 212l-171 428q-9 22 1 38t32 16h32q35 0 47 -34l116 -328l116 328q11 34 47 34h32q22 0 32 -16t1 -38zM71 648q0 30 21.5 51.5t51.5 21.5t51.5 -21.5t21.5 -51.5t-21.5 -51.5t-51.5 -21.5t-51.5 21.5
t-21.5 51.5zM283 648q0 30 21.5 51.5t51.5 21.5t51.5 -21.5t21.5 -51.5t-21.5 -51.5t-51.5 -21.5t-51.5 21.5t-21.5 51.5z" />
    <glyph glyph-name="Amacron" unicode="&#x100;" horiz-adv-x="640" 
d="M96 0h-44q-19 0 -28.5 15t-2.5 37l227 667q8 22 19 31t31 9h44q20 0 31 -9t19 -31l227 -667q7 -22 -2.5 -37t-28.5 -15h-44q-22 0 -33 9.5t-18 31.5l-43 142h-260l-43 -142q-7 -22 -18 -31.5t-33 -9.5zM422 275l-102 335l-102 -335h204zM430 805h-220q-38 0 -38 37v15
q0 37 38 37h220q38 0 38 -37v-15q0 -37 -38 -37z" />
    <glyph glyph-name="amacron" unicode="&#x101;" horiz-adv-x="496" 
d="M444 334v-301q0 -33 -32 -33h-11q-15 0 -22 6t-14 23l-5 11q-63 -52 -151 -52q-90 0 -131 46t-41 114q0 148 183 163l112 9v25q0 39 -21.5 55t-76.5 16q-57 0 -120 -20q-16 -5 -26 2.5t-10 20.5v37q0 29 28 37q64 19 136 19q115 0 158.5 -45t43.5 -133zM332 243l-105 -12
q-40 -5 -59.5 -22.5t-19.5 -54.5q0 -74 77 -74q56 0 107 33v130zM355 605h-220q-38 0 -38 37v15q0 37 38 37h220q38 0 38 -37v-15q0 -37 -38 -37z" />
    <glyph glyph-name="Abreve" unicode="&#x102;" horiz-adv-x="640" 
d="M96 0h-44q-19 0 -28.5 15t-2.5 37l227 667q8 22 19 31t31 9h44q20 0 31 -9t19 -31l227 -667q7 -22 -2.5 -37t-28.5 -15h-44q-22 0 -33 9.5t-18 31.5l-43 142h-260l-43 -142q-7 -22 -18 -31.5t-33 -9.5zM422 275l-102 335l-102 -335h204zM320 777q-163 0 -163 105
q0 23 24 23h37q13 0 20.5 -8.5t11 -19t21 -19t49.5 -8.5t49.5 8.5t21 19t11 19t20.5 8.5h37q24 0 24 -23q0 -105 -163 -105z" />
    <glyph glyph-name="abreve" unicode="&#x103;" horiz-adv-x="496" 
d="M444 334v-301q0 -33 -32 -33h-11q-15 0 -22 6t-14 23l-5 11q-63 -52 -151 -52q-90 0 -131 46t-41 114q0 148 183 163l112 9v25q0 39 -21.5 55t-76.5 16q-57 0 -120 -20q-16 -5 -26 2.5t-10 20.5v37q0 29 28 37q64 19 136 19q115 0 158.5 -45t43.5 -133zM332 243l-105 -12
q-40 -5 -59.5 -22.5t-19.5 -54.5q0 -74 77 -74q56 0 107 33v130zM245 639q54 0 76.5 21t26.5 63q3 27 29 27h27q13 0 20.5 -8t6.5 -21q-5 -83 -47 -127t-139 -44t-139 44t-47 127q-1 13 6.5 21t20.5 8h27q26 0 29 -27q4 -42 26.5 -63t76.5 -21z" />
    <glyph glyph-name="Aogonek" unicode="&#x104;" horiz-adv-x="640" 
d="M543 -250q-53 0 -88 30.5t-35 84.5q0 82 83 143l-53 175h-260l-43 -142q-7 -22 -18 -31.5t-33 -9.5h-44q-19 0 -28.5 15t-2.5 37l227 667q8 22 19 31t31 9h44q20 0 31 -9t19 -31l227 -667q12 -36 -19 -50q-37 -17 -64 -48.5t-27 -72.5q0 -26 14.5 -41.5t41.5 -15.5
q23 0 37 4q29 8 29 -21v-18q0 -23 -26 -31q-27 -8 -62 -8zM320 610l-102 -335h204z" />
    <glyph glyph-name="aogonek" unicode="&#x105;" horiz-adv-x="496" 
d="M372 -250q-53 0 -88 28.5t-35 80.5q0 102 116 168l-5 13q-63 -52 -151 -52q-90 0 -131 46t-41 114q0 148 183 163l112 9v25q0 39 -21.5 55t-76.5 16q-57 0 -120 -20q-16 -5 -26 2.5t-10 20.5v37q0 29 28 37q64 19 136 19q115 0 158.5 -45t43.5 -133v-301q0 -22 -18 -31
q-38 -18 -63 -51t-25 -76q0 -23 15 -37t41 -14q23 0 37 4q29 8 29 -21v-18q0 -23 -26 -31q-27 -8 -62 -8zM332 243l-105 -12q-40 -5 -59.5 -22.5t-19.5 -54.5q0 -74 77 -74q56 0 107 33v130z" />
    <glyph glyph-name="Cacute" unicode="&#x106;" horiz-adv-x="587" 
d="M166 375q0 -142 48 -212t153 -70q73 0 131 20q18 6 28 -1.5t10 -23.5v-40q0 -30 -36 -41q-59 -19 -140 -19q-161 0 -235 98.5t-74 288.5t74 288.5t235 98.5q81 0 140 -19q36 -11 36 -41v-40q0 -16 -10 -23.5t-28 -1.5q-58 20 -131 20q-105 0 -153 -70t-48 -212zM390 905
h63q19 0 23.5 -15.5t-11.5 -28.5l-55 -47q-23 -19 -51 -19h-38q-15 0 -20.5 10.5t3.5 23.5l33 50q17 26 53 26z" />
    <glyph glyph-name="cacute" unicode="&#x107;" horiz-adv-x="450" 
d="M41 250q0 126 52.5 194t178.5 68q59 0 110 -15q28 -8 28 -37v-38q0 -13 -10 -20t-26 -2q-41 13 -95 13q-69 0 -97 -42t-28 -121t28 -121t97 -42q54 0 95 13q16 5 26 -2t10 -20v-38q0 -29 -28 -37q-51 -15 -110 -15q-126 0 -178.5 68t-52.5 194zM304 750h63q19 0 26 -14
t-3 -32l-71 -124q-18 -30 -45 -30h-34q-15 0 -21.5 9t-1.5 24l41 133q11 34 46 34z" />
    <glyph glyph-name="Ccircumflex" unicode="&#x108;" horiz-adv-x="587" 
d="M166 375q0 -142 48 -212t153 -70q73 0 131 20q18 6 28 -1.5t10 -23.5v-40q0 -30 -36 -41q-59 -19 -140 -19q-161 0 -235 98.5t-74 288.5t74 288.5t235 98.5q81 0 140 -19q36 -11 36 -41v-40q0 -16 -10 -23.5t-28 -1.5q-58 20 -131 20q-105 0 -153 -70t-48 -212zM400 808
l-57 31l-57 -31q-25 -13 -55 -13h-51q-14 0 -17.5 13.5t10.5 23.5l74 54q26 19 57 19h78q31 0 57 -19l74 -54q14 -10 10.5 -23.5t-17.5 -13.5h-51q-30 0 -55 13z" />
    <glyph glyph-name="ccircumflex" unicode="&#x109;" horiz-adv-x="450" 
d="M41 250q0 126 52.5 194t178.5 68q59 0 110 -15q28 -8 28 -37v-38q0 -13 -10 -20t-26 -2q-41 13 -95 13q-69 0 -97 -42t-28 -121t28 -121t97 -42q54 0 95 13q16 5 26 -2t10 -20v-38q0 -29 -28 -37q-51 -15 -110 -15q-126 0 -178.5 68t-52.5 194zM348 573l-85 95l-85 -95
q-20 -23 -47 -23h-39q-13 0 -18 12t5 25l109 136q13 17 23 22t27 5h50q17 0 27 -5t23 -22l109 -136q10 -13 5 -25t-18 -12h-39q-27 0 -47 23z" />
    <glyph glyph-name="Cdotaccent" unicode="&#x10a;" horiz-adv-x="587" 
d="M166 375q0 -142 48 -212t153 -70q73 0 131 20q18 6 28 -1.5t10 -23.5v-40q0 -30 -36 -41q-59 -19 -140 -19q-161 0 -235 98.5t-74 288.5t74 288.5t235 98.5q81 0 140 -19q36 -11 36 -41v-40q0 -16 -10 -23.5t-28 -1.5q-58 20 -131 20q-105 0 -153 -70t-48 -212zM270 850
q0 30 21.5 51.5t51.5 21.5t51.5 -21.5t21.5 -51.5t-21.5 -51.5t-51.5 -21.5t-51.5 21.5t-21.5 51.5z" />
    <glyph glyph-name="cdotaccent" unicode="&#x10b;" horiz-adv-x="450" 
d="M41 250q0 126 52.5 194t178.5 68q59 0 110 -15q28 -8 28 -37v-38q0 -13 -10 -20t-26 -2q-41 13 -95 13q-69 0 -97 -42t-28 -121t28 -121t97 -42q54 0 95 13q16 5 26 -2t10 -20v-38q0 -29 -28 -37q-51 -15 -110 -15q-126 0 -178.5 68t-52.5 194zM184 648q0 30 21.5 51.5
t51.5 21.5t51.5 -21.5t21.5 -51.5t-21.5 -51.5t-51.5 -21.5t-51.5 21.5t-21.5 51.5z" />
    <glyph glyph-name="Ccaron" unicode="&#x10c;" horiz-adv-x="587" 
d="M166 375q0 -142 48 -212t153 -70q73 0 131 20q18 6 28 -1.5t10 -23.5v-40q0 -30 -36 -41q-59 -19 -140 -19q-161 0 -235 98.5t-74 288.5t74 288.5t235 98.5q81 0 140 -19q36 -11 36 -41v-40q0 -16 -10 -23.5t-28 -1.5q-58 20 -131 20q-105 0 -153 -70t-48 -212zM286 892
l57 -31l57 31q25 13 55 13h51q14 0 17.5 -13.5t-10.5 -23.5l-74 -54q-26 -19 -57 -19h-78q-31 0 -57 19l-74 54q-14 10 -10.5 23.5t17.5 13.5h51q30 0 55 -13z" />
    <glyph glyph-name="ccaron" unicode="&#x10d;" horiz-adv-x="450" 
d="M41 250q0 126 52.5 194t178.5 68q59 0 110 -15q28 -8 28 -37v-38q0 -13 -10 -20t-26 -2q-41 13 -95 13q-69 0 -97 -42t-28 -121t28 -121t97 -42q54 0 95 13q16 5 26 -2t10 -20v-38q0 -29 -28 -37q-51 -15 -110 -15q-126 0 -178.5 68t-52.5 194zM172 727l85 -95l85 95
q20 23 47 23h39q13 0 18 -12t-5 -25l-109 -136q-13 -17 -23 -22t-27 -5h-50q-17 0 -27 5t-23 22l-109 136q-10 13 -5 25t18 12h39q27 0 47 -23z" />
    <glyph glyph-name="Dcaron" unicode="&#x10e;" horiz-adv-x="650" 
d="M61 45v660q0 45 43 45h180q91 0 154.5 -28t98.5 -80.5t50 -117t15 -149.5t-15 -149.5t-50 -117t-98.5 -80.5t-154.5 -28h-180q-43 0 -43 45zM173 647v-544h114q107 0 152.5 70.5t45.5 201.5t-45.5 201.5t-152.5 70.5h-114zM240 892l57 -31l57 31q25 13 55 13h51
q14 0 17.5 -13.5t-10.5 -23.5l-74 -54q-26 -19 -57 -19h-78q-31 0 -57 19l-74 54q-14 10 -10.5 23.5t17.5 13.5h51q30 0 55 -13z" />
    <glyph glyph-name="dcaron" unicode="&#x10f;" horiz-adv-x="552" 
d="M408 29l-5 11q-71 -52 -162 -52q-106 0 -153 67t-47 195t47 195t153 67q73 0 134 -39v237q0 40 38 40h36q38 0 38 -40v-677q0 -33 -32 -33h-11q-15 0 -22 6t-14 23zM267 417q-67 0 -90 -43t-23 -124t23 -124t90 -43q55 0 108 29v276q-53 29 -108 29zM581 750h21
q18 0 26 -11t4 -29l-37 -130q-7 -30 -34 -30h-4q-27 0 -24 30l12 136q3 34 36 34z" />
    <glyph glyph-name="Dcroat" unicode="&#x110;" horiz-adv-x="695" 
d="M106 45v290h-49q-38 0 -38 37v21q0 37 38 37h49v275q0 45 43 45h180q91 0 154.5 -28t98.5 -80.5t50 -117t15 -149.5t-15 -149.5t-50 -117t-98.5 -80.5t-154.5 -28h-180q-43 0 -43 45zM338 335h-120v-232h114q107 0 152.5 70.5t45.5 201.5t-45.5 201.5t-152.5 70.5h-114
v-217h120q38 0 38 -37v-21q0 -37 -38 -37z" />
    <glyph glyph-name="dcroat" unicode="&#x111;" horiz-adv-x="542" 
d="M540 577h-53v-544q0 -33 -32 -33h-11q-15 0 -22 6t-14 23l-5 11q-71 -52 -162 -52q-106 0 -153 67t-47 195t47 195t153 67q73 0 134 -39v104h-86q-38 0 -38 37v10q0 37 38 37h86v49q0 40 38 40h36q38 0 38 -40v-49h53q38 0 38 -37v-10q0 -37 -38 -37zM267 417
q-67 0 -90 -43t-23 -124t23 -124t90 -43q55 0 108 29v276q-53 29 -108 29z" />
    <glyph glyph-name="Emacron" unicode="&#x112;" horiz-adv-x="565" 
d="M173 647v-207h269q43 0 43 -43v-17q0 -43 -43 -43h-269v-234h301q43 0 43 -43v-17q0 -43 -43 -43h-370q-43 0 -43 45v660q0 45 43 45h370q43 0 43 -43v-17q0 -43 -43 -43h-301zM407 805h-220q-38 0 -38 37v15q0 37 38 37h220q38 0 38 -37v-15q0 -37 -38 -37z" />
    <glyph glyph-name="emacron" unicode="&#x113;" horiz-adv-x="510" 
d="M263 415q-58 0 -82 -33t-27 -95h200q0 31 -2 49.5t-10.5 39t-28 30t-50.5 9.5zM429 209h-275q2 -61 30.5 -92.5t100.5 -31.5q61 0 128 21q16 5 26 -2.5t10 -20.5v-37q0 -28 -28 -37q-65 -21 -153 -21q-120 0 -173.5 67t-53.5 195q0 127 52.5 194.5t169.5 67.5
q64 0 106 -19.5t62.5 -57t28 -78.5t7.5 -99v-9q0 -40 -38 -40zM373 605h-220q-38 0 -38 37v15q0 37 38 37h220q38 0 38 -37v-15q0 -37 -38 -37z" />
    <glyph glyph-name="Ebreve" unicode="&#x114;" horiz-adv-x="565" 
d="M173 647v-207h269q43 0 43 -43v-17q0 -43 -43 -43h-269v-234h301q43 0 43 -43v-17q0 -43 -43 -43h-370q-43 0 -43 45v660q0 45 43 45h370q43 0 43 -43v-17q0 -43 -43 -43h-301zM297 777q-163 0 -163 105q0 23 24 23h37q13 0 20.5 -8.5t11 -19t21 -19t49.5 -8.5t49.5 8.5
t21 19t11 19t20.5 8.5h37q24 0 24 -23q0 -105 -163 -105z" />
    <glyph glyph-name="ebreve" unicode="&#x115;" horiz-adv-x="510" 
d="M263 415q-58 0 -82 -33t-27 -95h200q0 31 -2 49.5t-10.5 39t-28 30t-50.5 9.5zM429 209h-275q2 -61 30.5 -92.5t100.5 -31.5q61 0 128 21q16 5 26 -2.5t10 -20.5v-37q0 -28 -28 -37q-65 -21 -153 -21q-120 0 -173.5 67t-53.5 195q0 127 52.5 194.5t169.5 67.5
q64 0 106 -19.5t62.5 -57t28 -78.5t7.5 -99v-9q0 -40 -38 -40zM263 639q54 0 76.5 21t26.5 63q3 27 29 27h27q13 0 20.5 -8t6.5 -21q-5 -83 -47 -127t-139 -44t-139 44t-47 127q-1 13 6.5 21t20.5 8h27q26 0 29 -27q4 -42 26.5 -63t76.5 -21z" />
    <glyph glyph-name="Edotaccent" unicode="&#x116;" horiz-adv-x="565" 
d="M173 647v-207h269q43 0 43 -43v-17q0 -43 -43 -43h-269v-234h301q43 0 43 -43v-17q0 -43 -43 -43h-370q-43 0 -43 45v660q0 45 43 45h370q43 0 43 -43v-17q0 -43 -43 -43h-301zM224 850q0 30 21.5 51.5t51.5 21.5t51.5 -21.5t21.5 -51.5t-21.5 -51.5t-51.5 -21.5
t-51.5 21.5t-21.5 51.5z" />
    <glyph glyph-name="edotaccent" unicode="&#x117;" horiz-adv-x="510" 
d="M263 415q-58 0 -82 -33t-27 -95h200q0 31 -2 49.5t-10.5 39t-28 30t-50.5 9.5zM429 209h-275q2 -61 30.5 -92.5t100.5 -31.5q61 0 128 21q16 5 26 -2.5t10 -20.5v-37q0 -28 -28 -37q-65 -21 -153 -21q-120 0 -173.5 67t-53.5 195q0 127 52.5 194.5t169.5 67.5
q64 0 106 -19.5t62.5 -57t28 -78.5t7.5 -99v-9q0 -40 -38 -40zM190 648q0 30 21.5 51.5t51.5 21.5t51.5 -21.5t21.5 -51.5t-21.5 -51.5t-51.5 -21.5t-51.5 21.5t-21.5 51.5z" />
    <glyph glyph-name="Eogonek" unicode="&#x118;" horiz-adv-x="565" 
d="M445 -250q-53 0 -88 28.5t-35 80.5q0 84 70 141h-288q-43 0 -43 45v660q0 45 43 45h370q43 0 43 -43v-17q0 -43 -43 -43h-301v-207h269q43 0 43 -43v-17q0 -43 -43 -43h-269v-234h301q43 0 43 -43v-19q0 -26 -23 -38q-83 -43 -83 -128q0 -23 15 -37t41 -14q23 0 37 4
q29 8 29 -21v-18q0 -23 -26 -31q-27 -8 -62 -8z" />
    <glyph glyph-name="eogonek" unicode="&#x119;" horiz-adv-x="510" 
d="M311 -250q-53 0 -88 28.5t-35 80.5q0 73 69 129q-115 4 -165.5 70.5t-50.5 191.5q0 127 52.5 194.5t169.5 67.5q64 0 106 -19.5t62.5 -57t28 -78.5t7.5 -99v-9q0 -40 -38 -40h-275q2 -61 30.5 -92.5t100.5 -31.5q61 0 128 21q16 5 26 -2.5t10 -20.5v-37q0 -28 -28 -37
q-6 -2 -20 -5.5t-21 -5.5q-41 -12 -72 -45.5t-31 -77.5q0 -23 15 -37t41 -14q23 0 37 4q29 8 29 -21v-18q0 -23 -26 -31q-27 -8 -62 -8zM263 415q-58 0 -82 -33t-27 -95h200q0 31 -2 49.5t-10.5 39t-28 30t-50.5 9.5z" />
    <glyph glyph-name="Ecaron" unicode="&#x11a;" horiz-adv-x="565" 
d="M173 647v-207h269q43 0 43 -43v-17q0 -43 -43 -43h-269v-234h301q43 0 43 -43v-17q0 -43 -43 -43h-370q-43 0 -43 45v660q0 45 43 45h370q43 0 43 -43v-17q0 -43 -43 -43h-301zM240 892l57 -31l57 31q25 13 55 13h51q14 0 17.5 -13.5t-10.5 -23.5l-74 -54
q-26 -19 -57 -19h-78q-31 0 -57 19l-74 54q-14 10 -10.5 23.5t17.5 13.5h51q30 0 55 -13z" />
    <glyph glyph-name="ecaron" unicode="&#x11b;" horiz-adv-x="510" 
d="M429 209h-275q2 -61 30.5 -92.5t100.5 -31.5q61 0 128 21q16 5 26 -2.5t10 -20.5v-37q0 -28 -28 -37q-65 -21 -153 -21q-120 0 -173.5 67t-53.5 195q0 127 52.5 194.5t169.5 67.5q64 0 106 -19.5t62.5 -57t28 -78.5t7.5 -99v-9q0 -40 -38 -40zM178 727l85 -95l85 95
q20 23 47 23h39q13 0 18 -12t-5 -25l-109 -136q-13 -17 -23 -22t-27 -5h-50q-17 0 -27 5t-23 22l-109 136q-10 13 -5 25t18 12h39q27 0 47 -23zM263 415q-58 0 -82 -33t-27 -95h200q0 31 -2 49.5t-10.5 39t-28 30t-50.5 9.5z" />
    <glyph glyph-name="Gcircumflex" unicode="&#x11c;" horiz-adv-x="650" 
d="M391 413h157q44 0 44 -45v-298q0 -38 -38 -52q-83 -30 -198 -30q-305 0 -305 387q0 186 72.5 286.5t235.5 100.5q107 0 181 -24q34 -11 34 -43v-42q0 -16 -11.5 -24.5t-29.5 -1.5q-88 30 -160 30q-111 0 -159 -71t-48 -211q0 -143 48 -212.5t159 -69.5q69 0 107 14v205
h-90q-43 0 -43 42v16q0 43 44 43zM409 808l-57 31l-57 -31q-25 -13 -55 -13h-51q-14 0 -17.5 13.5t10.5 23.5l74 54q26 19 57 19h78q31 0 57 -19l74 -54q14 -10 10.5 -23.5t-17.5 -13.5h-51q-30 0 -55 13z" />
    <glyph glyph-name="gcircumflex" unicode="&#x11d;" horiz-adv-x="524" 
d="M337 500h140q33 0 33 -32v-11q0 -16 -6.5 -24t-22.5 -12l-42 -12q15 -39 15 -87q0 -190 -209 -190q-35 0 -58 4q-14 -14 -14 -29q0 -25 30 -29l181 -22q73 -9 103.5 -42.5t30.5 -97.5q0 -90 -80.5 -134t-200.5 -44q-106 0 -168.5 36t-62.5 110q0 48 30 79.5t74 44.5v1
q-39 22 -39 69q0 46 45 81q-80 45 -80 163q0 190 209 190q53 0 92 -12zM330 573l-85 95l-85 -95q-20 -23 -47 -23h-39q-13 0 -18 12t5 25l109 136q13 17 23 22t27 5h50q17 0 27 -5t23 -22l109 -136q10 -13 5 -25t-18 -12h-39q-27 0 -47 23zM352 -33l-142 18q-97 -17 -97 -80
q0 -42 31 -60t101 -18q71 0 118 21.5t47 64.5q0 25 -13.5 37.5t-44.5 16.5zM142 322q0 -48 22.5 -74.5t80.5 -26.5t80.5 26.5t22.5 74.5t-22.5 74.5t-80.5 26.5t-80.5 -26.5t-22.5 -74.5z" />
    <glyph glyph-name="Gbreve" unicode="&#x11e;" horiz-adv-x="650" 
d="M391 413h157q44 0 44 -45v-298q0 -38 -38 -52q-83 -30 -198 -30q-305 0 -305 387q0 186 72.5 286.5t235.5 100.5q107 0 181 -24q34 -11 34 -43v-42q0 -16 -11.5 -24.5t-29.5 -1.5q-88 30 -160 30q-111 0 -159 -71t-48 -211q0 -143 48 -212.5t159 -69.5q69 0 107 14v205
h-90q-43 0 -43 42v16q0 43 44 43zM352 777q-163 0 -163 105q0 23 24 23h37q13 0 20.5 -8.5t11 -19t21 -19t49.5 -8.5t49.5 8.5t21 19t11 19t20.5 8.5h37q24 0 24 -23q0 -105 -163 -105z" />
    <glyph glyph-name="gbreve" unicode="&#x11f;" horiz-adv-x="524" 
d="M352 -33l-142 18q-97 -17 -97 -80q0 -42 31 -60t101 -18q71 0 118 21.5t47 64.5q0 25 -13.5 37.5t-44.5 16.5zM142 322q0 -48 22.5 -74.5t80.5 -26.5t80.5 26.5t22.5 74.5t-22.5 74.5t-80.5 26.5t-80.5 -26.5t-22.5 -74.5zM337 500h140q33 0 33 -32v-11q0 -16 -6.5 -24
t-22.5 -12l-42 -12q15 -39 15 -87q0 -190 -209 -190q-35 0 -58 4q-14 -14 -14 -29q0 -25 30 -29l181 -22q73 -9 103.5 -42.5t30.5 -97.5q0 -90 -80.5 -134t-200.5 -44q-106 0 -168.5 36t-62.5 110q0 48 30 79.5t74 44.5v1q-39 22 -39 69q0 46 45 81q-80 45 -80 163
q0 190 209 190q53 0 92 -12zM245 639q54 0 76.5 21t26.5 63q3 27 29 27h27q13 0 20.5 -8t6.5 -21q-5 -83 -47 -127t-139 -44t-139 44t-47 127q-1 13 6.5 21t20.5 8h27q26 0 29 -27q4 -42 26.5 -63t76.5 -21z" />
    <glyph glyph-name="Gdotaccent" unicode="&#x120;" horiz-adv-x="650" 
d="M391 413h157q44 0 44 -45v-298q0 -38 -38 -52q-83 -30 -198 -30q-305 0 -305 387q0 186 72.5 286.5t235.5 100.5q107 0 181 -24q34 -11 34 -43v-42q0 -16 -11.5 -24.5t-29.5 -1.5q-88 30 -160 30q-111 0 -159 -71t-48 -211q0 -143 48 -212.5t159 -69.5q69 0 107 14v205
h-90q-43 0 -43 42v16q0 43 44 43zM279 850q0 30 21.5 51.5t51.5 21.5t51.5 -21.5t21.5 -51.5t-21.5 -51.5t-51.5 -21.5t-51.5 21.5t-21.5 51.5z" />
    <glyph glyph-name="gdotaccent" unicode="&#x121;" horiz-adv-x="524" 
d="M352 -33l-142 18q-97 -17 -97 -80q0 -42 31 -60t101 -18q71 0 118 21.5t47 64.5q0 25 -13.5 37.5t-44.5 16.5zM142 322q0 -48 22.5 -74.5t80.5 -26.5t80.5 26.5t22.5 74.5t-22.5 74.5t-80.5 26.5t-80.5 -26.5t-22.5 -74.5zM337 500h140q33 0 33 -32v-11q0 -16 -6.5 -24
t-22.5 -12l-42 -12q15 -39 15 -87q0 -190 -209 -190q-35 0 -58 4q-14 -14 -14 -29q0 -25 30 -29l181 -22q73 -9 103.5 -42.5t30.5 -97.5q0 -90 -80.5 -134t-200.5 -44q-106 0 -168.5 36t-62.5 110q0 48 30 79.5t74 44.5v1q-39 22 -39 69q0 46 45 81q-80 45 -80 163
q0 190 209 190q53 0 92 -12zM172 648q0 30 21.5 51.5t51.5 21.5t51.5 -21.5t21.5 -51.5t-21.5 -51.5t-51.5 -21.5t-51.5 21.5t-21.5 51.5z" />
    <glyph glyph-name="Gcommaaccent" unicode="&#x122;" horiz-adv-x="650" 
d="M391 413h157q44 0 44 -45v-298q0 -38 -38 -52q-83 -30 -198 -30q-305 0 -305 387q0 186 72.5 286.5t235.5 100.5q107 0 181 -24q34 -11 34 -43v-42q0 -16 -11.5 -24.5t-29.5 -1.5q-88 30 -160 30q-111 0 -159 -71t-48 -211q0 -143 48 -212.5t159 -69.5q69 0 107 14v205
h-90q-43 0 -43 42v16q0 43 44 43zM336 -50h50q21 0 30 -15t1 -35l-44 -118q-12 -32 -44 -32h-31q-13 0 -20.5 9t-5.5 24l18 126q6 41 46 41z" />
    <glyph glyph-name="gcommaaccent" unicode="&#x123;" horiz-adv-x="524" 
d="M352 -33l-142 18q-97 -17 -97 -80q0 -42 31 -60t101 -18q71 0 118 21.5t47 64.5q0 25 -13.5 37.5t-44.5 16.5zM142 322q0 -48 22.5 -74.5t80.5 -26.5t80.5 26.5t22.5 74.5t-22.5 74.5t-80.5 26.5t-80.5 -26.5t-22.5 -74.5zM337 500h140q33 0 33 -32v-11q0 -16 -6.5 -24
t-22.5 -12l-42 -12q15 -39 15 -87q0 -190 -209 -190q-35 0 -58 4q-14 -14 -14 -29q0 -25 30 -29l181 -22q73 -9 103.5 -42.5t30.5 -97.5q0 -90 -80.5 -134t-200.5 -44q-106 0 -168.5 36t-62.5 110q0 48 30 79.5t74 44.5v1q-39 22 -39 69q0 46 45 81q-80 45 -80 163
q0 190 209 190q53 0 92 -12zM266 550h-50q-21 0 -30 15t-1 35l44 118q12 32 44 32h31q13 0 20.5 -9t5.5 -24l-18 -126q-6 -41 -46 -41z" />
    <glyph glyph-name="Hcircumflex" unicode="&#x124;" horiz-adv-x="650" 
d="M477 45v292h-304v-292q0 -45 -44 -45h-25q-43 0 -43 45v660q0 45 43 45h25q44 0 44 -45v-265h304v265q0 45 44 45h25q43 0 43 -45v-660q0 -45 -43 -45h-25q-44 0 -44 45zM382 808l-57 31l-57 -31q-25 -13 -55 -13h-51q-14 0 -17.5 13.5t10.5 23.5l74 54q26 19 57 19h78
q31 0 57 -19l74 -54q14 -10 10.5 -23.5t-17.5 -13.5h-51q-30 0 -55 13z" />
    <glyph glyph-name="hcircumflex" unicode="&#x125;" horiz-adv-x="524" 
d="M361 40v303q0 74 -79 74q-63 0 -115 -29v-348q0 -40 -38 -40h-36q-38 0 -38 40v670q0 40 38 40h36q38 0 38 -40v-235q63 37 134 37q172 0 172 -159v-313q0 -40 -38 -40h-36q-38 0 -38 40zM168 808l-57 31l-57 -31q-25 -13 -55 -13h-51q-14 0 -17.5 13.5t10.5 23.5l74 54
q26 19 57 19h78q31 0 57 -19l74 -54q14 -10 10.5 -23.5t-17.5 -13.5h-51q-30 0 -55 13z" />
    <glyph glyph-name="Hbar" unicode="&#x126;" horiz-adv-x="650" 
d="M477 45v292h-304v-292q0 -45 -44 -45h-25q-43 0 -43 45v660q0 45 43 45h25q44 0 44 -45v-71h304v71q0 45 44 45h25q43 0 43 -45v-660q0 -45 -43 -45h-25q-44 0 -44 45zM173 440h304v104h-304v-104z" />
    <glyph glyph-name="hbar" unicode="&#x127;" horiz-adv-x="524" 
d="M253 577h-86v-102q63 37 134 37q172 0 172 -159v-313q0 -40 -38 -40h-36q-38 0 -38 40v303q0 74 -79 74q-63 0 -115 -29v-348q0 -40 -38 -40h-36q-38 0 -38 40v537h-53q-38 0 -38 37v10q0 37 38 37h53v49q0 40 38 40h36q38 0 38 -40v-49h86q38 0 38 -37v-10
q0 -37 -38 -37z" />
    <glyph glyph-name="Itilde" unicode="&#x128;" horiz-adv-x="266" 
d="M77 45v660q0 45 43 45h26q43 0 43 -45v-660q0 -45 -43 -45h-26q-43 0 -43 45zM215 860q18 0 28 7t12.5 15.5t9.5 15.5t20 7h17q28 0 28 -29q0 -37 -28.5 -68t-84.5 -31q-36 0 -66.5 15.5t-55 31.5t-44.5 16q-18 0 -28 -7t-12.5 -15.5t-9.5 -15.5t-20 -7h-17q-28 0 -28 29
q0 37 28.5 68t84.5 31q36 0 66.5 -15.5t55 -31.5t44.5 -16z" />
    <glyph glyph-name="itilde" unicode="&#x129;" horiz-adv-x="257" 
d="M65 102v358q0 40 38 40h36q38 0 38 -40v-342q0 -24 24 -30q23 -6 23 -30v-30q0 -35 -45 -35q-51 0 -82.5 28t-31.5 81zM201 653q35 0 45 26q11 28 36 28h15q29 0 27 -32q-3 -40 -30.5 -74t-91.5 -34q-30 0 -55 11.5t-39 25.5t-32 25.5t-35 11.5q-35 0 -45 -26
q-11 -28 -36 -28h-15q-29 0 -27 32q3 40 30.5 74t91.5 34q30 0 55 -11.5t39 -25.5t32 -25.5t35 -11.5z" />
    <glyph glyph-name="Imacron" unicode="&#x12a;" horiz-adv-x="266" 
d="M77 45v660q0 45 43 45h26q43 0 43 -45v-660q0 -45 -43 -45h-26q-43 0 -43 45zM243 805h-220q-38 0 -38 37v15q0 37 38 37h220q38 0 38 -37v-15q0 -37 -38 -37z" />
    <glyph glyph-name="imacron" unicode="&#x12b;" horiz-adv-x="257" 
d="M65 102v358q0 40 38 40h36q38 0 38 -40v-342q0 -24 24 -30q23 -6 23 -30v-30q0 -35 -45 -35q-51 0 -82.5 28t-31.5 81zM231 605h-220q-38 0 -38 37v15q0 37 38 37h220q38 0 38 -37v-15q0 -37 -38 -37z" />
    <glyph glyph-name="Ibreve" unicode="&#x12c;" horiz-adv-x="266" 
d="M77 45v660q0 45 43 45h26q43 0 43 -45v-660q0 -45 -43 -45h-26q-43 0 -43 45zM133 777q-163 0 -163 105q0 23 24 23h37q13 0 20.5 -8.5t11 -19t21 -19t49.5 -8.5t49.5 8.5t21 19t11 19t20.5 8.5h37q24 0 24 -23q0 -105 -163 -105z" />
    <glyph glyph-name="ibreve" unicode="&#x12d;" horiz-adv-x="257" 
d="M65 102v358q0 40 38 40h36q38 0 38 -40v-342q0 -24 24 -30q23 -6 23 -30v-30q0 -35 -45 -35q-51 0 -82.5 28t-31.5 81zM121 639q54 0 76.5 21t26.5 63q3 27 29 27h27q13 0 20.5 -8t6.5 -21q-5 -83 -47 -127t-139 -44t-139 44t-47 127q-1 13 6.5 21t20.5 8h27q26 0 29 -27
q4 -42 26.5 -63t76.5 -21z" />
    <glyph glyph-name="Iogonek" unicode="&#x12e;" horiz-adv-x="266" 
d="M132 -250q-55 0 -89 29.5t-34 91.5q0 73 68 134v700q0 45 43 45h26q43 0 43 -45v-660q0 -30 -20 -41q-29 -16 -50 -51t-21 -71q0 -58 56 -58q23 0 37 4q29 8 29 -21v-18q0 -23 -26 -31q-27 -8 -62 -8z" />
    <glyph glyph-name="iogonek" unicode="&#x12f;" horiz-adv-x="257" 
d="M155 -250q-53 0 -88 28.5t-35 80.5q0 85 87 146q-54 26 -54 97v358q0 40 38 40h36q38 0 38 -40v-342q0 -24 24 -30q23 -6 23 -30v-30q0 -20 -23 -32q-34 -17 -57 -48t-23 -73q0 -23 15 -37t41 -14q23 0 37 4q29 8 29 -21v-18q0 -23 -26 -31q-27 -8 -62 -8zM48 648
q0 30 21.5 51.5t51.5 21.5t51.5 -21.5t21.5 -51.5t-21.5 -51.5t-51.5 -21.5t-51.5 21.5t-21.5 51.5z" />
    <glyph glyph-name="Idotaccent" unicode="&#x130;" horiz-adv-x="266" 
d="M77 45v660q0 45 43 45h26q43 0 43 -45v-660q0 -45 -43 -45h-26q-43 0 -43 45zM60 850q0 30 21.5 51.5t51.5 21.5t51.5 -21.5t21.5 -51.5t-21.5 -51.5t-51.5 -21.5t-51.5 21.5t-21.5 51.5z" />
    <glyph glyph-name="dotlessi" unicode="&#x131;" horiz-adv-x="257" 
d="M65 102v358q0 40 38 40h36q38 0 38 -40v-342q0 -24 24 -30q23 -6 23 -30v-30q0 -35 -45 -35q-51 0 -82.5 28t-31.5 81z" />
    <glyph glyph-name="IJ" unicode="&#x132;" horiz-adv-x="624" 
d="M77 45v660q0 45 43 45h26q43 0 43 -45v-660q0 -45 -43 -45h-26q-43 0 -43 45zM554 705v-550q0 -167 -198 -167q-35 0 -56 6q-28 6 -28 35v49q0 12 8 19t20 4q30 -6 50 -6q92 0 92 77v533q0 45 43 45h26q43 0 43 -45z" />
    <glyph glyph-name="ij" unicode="&#x133;" horiz-adv-x="454" 
d="M65 102v358q0 40 38 40h36q38 0 38 -40v-342q0 -24 24 -30q23 -6 23 -30v-30q0 -35 -45 -35q-51 0 -82.5 28t-31.5 81zM48 648q0 30 21.5 51.5t51.5 21.5t51.5 -21.5t21.5 -51.5t-21.5 -51.5t-51.5 -21.5t-51.5 21.5t-21.5 51.5zM260 648q0 30 21.5 51.5t51.5 21.5
t51.5 -21.5t21.5 -51.5t-21.5 -51.5t-51.5 -21.5t-51.5 21.5t-21.5 51.5zM389 460v-550q0 -83 -52 -126.5t-131 -43.5q-46 0 -46 36v36q0 36 38 36q37 0 58 20.5t21 60.5v531q0 40 38 40h36q38 0 38 -40z" />
    <glyph glyph-name="Jcircumflex" unicode="&#x134;" horiz-adv-x="374" 
d="M304 705v-550q0 -167 -198 -167q-35 0 -56 6q-28 6 -28 35v49q0 12 8 19t20 4q30 -6 50 -6q92 0 92 77v533q0 45 43 45h26q43 0 43 -45zM305 808l-57 31l-57 -31q-25 -13 -55 -13h-51q-14 0 -17.5 13.5t10.5 23.5l74 54q26 19 57 19h78q31 0 57 -19l74 -54
q14 -10 10.5 -23.5t-17.5 -13.5h-51q-30 0 -55 13z" />
    <glyph glyph-name="jcircumflex" unicode="&#x135;" horiz-adv-x="242" 
d="M177 460v-550q0 -83 -52 -126.5t-131 -43.5q-46 0 -46 36v36q0 36 38 36q37 0 58 20.5t21 60.5v531q0 40 38 40h36q38 0 38 -40zM205 573l-85 95l-85 -95q-20 -23 -47 -23h-39q-13 0 -18 12t5 25l109 136q13 17 23 22t27 5h50q17 0 27 -5t23 -22l109 -136q10 -13 5 -25
t-18 -12h-39q-27 0 -47 23z" />
    <glyph glyph-name="Kcommaaccent" unicode="&#x136;" horiz-adv-x="623" 
d="M173 705l-1 -303l265 318q15 18 26.5 24t29.5 6h55q19 0 24.5 -15t-7.5 -30l-257 -292l282 -367q11 -15 4.5 -30.5t-25.5 -15.5h-55q-34 0 -60 34l-221 294l-61 -70l1 -213q0 -45 -44 -45h-25q-43 0 -43 45v660q0 45 43 45h25q44 0 44 -45zM284 -50h50q21 0 30 -15t1 -35
l-44 -118q-12 -32 -44 -32h-31q-13 0 -20.5 9t-5.5 24l18 126q6 41 46 41z" />
    <glyph glyph-name="kcommaaccent" unicode="&#x137;" horiz-adv-x="522" 
d="M167 171v-131q0 -40 -38 -40h-36q-38 0 -38 40v670q0 40 38 40h36q38 0 38 -40v-409l177 170q29 29 60 29h44q22 0 28.5 -19t-8.5 -32l-170 -156l198 -240q14 -17 6 -35t-30 -18h-43q-32 0 -56 30l-151 191zM242 -50h50q21 0 30 -15t1 -35l-44 -118q-12 -32 -44 -32h-31
q-13 0 -20.5 9t-5.5 24l18 126q6 41 46 41z" />
    <glyph glyph-name="kgreenlandic" unicode="&#x138;" horiz-adv-x="522" 
d="M167 171v-131q0 -40 -38 -40h-36q-38 0 -38 40v420q0 40 38 40h36q38 0 38 -40v-159l177 170q29 29 60 29h44q22 0 28.5 -19t-8.5 -32l-170 -156l198 -240q14 -17 6 -35t-30 -18h-43q-32 0 -56 30l-151 191z" />
    <glyph glyph-name="Lacute" unicode="&#x139;" horiz-adv-x="524" 
d="M455 0h-351q-43 0 -43 45v660q0 45 43 45h25q44 0 44 -45v-602h282q44 0 44 -43v-17q0 -43 -44 -43zM164 905h63q19 0 23.5 -15.5t-11.5 -28.5l-55 -47q-23 -19 -51 -19h-38q-15 0 -20.5 10.5t3.5 23.5l33 50q17 26 53 26z" />
    <glyph glyph-name="lacute" unicode="&#x13a;" horiz-adv-x="257" 
d="M65 102v608q0 40 38 40h36q38 0 38 -40v-592q0 -24 24 -30q23 -6 23 -30v-30q0 -35 -45 -35q-51 0 -82.5 28t-31.5 81zM168 905h63q19 0 23.5 -15.5t-11.5 -28.5l-55 -47q-23 -19 -51 -19h-38q-15 0 -20.5 10.5t3.5 23.5l33 50q17 26 53 26z" />
    <glyph glyph-name="Lcommaaccent" unicode="&#x13b;" horiz-adv-x="524" 
d="M455 0h-351q-43 0 -43 45v660q0 45 43 45h25q44 0 44 -45v-602h282q44 0 44 -43v-17q0 -43 -44 -43zM259 -50h50q21 0 30 -15t1 -35l-44 -118q-12 -32 -44 -32h-31q-13 0 -20.5 9t-5.5 24l18 126q6 41 46 41z" />
    <glyph glyph-name="lcommaaccent" unicode="&#x13c;" horiz-adv-x="257" 
d="M65 102v608q0 40 38 40h36q38 0 38 -40v-592q0 -24 24 -30q23 -6 23 -30v-30q0 -35 -45 -35q-51 0 -82.5 28t-31.5 81zM120 -50h50q21 0 30 -15t1 -35l-44 -118q-12 -32 -44 -32h-31q-13 0 -20.5 9t-5.5 24l18 126q6 41 46 41z" />
    <glyph glyph-name="Lcaron" unicode="&#x13d;" horiz-adv-x="524" 
d="M455 0h-351q-43 0 -43 45v660q0 45 43 45h25q44 0 44 -45v-602h282q44 0 44 -43v-17q0 -43 -44 -43zM292 750h21q18 0 26.5 -11t3.5 -29l-37 -130q-8 -30 -34 -30h-4q-27 0 -24 30l12 136q3 34 36 34z" />
    <glyph glyph-name="lcaron" unicode="&#x13e;" horiz-adv-x="267" 
d="M65 102v608q0 40 38 40h36q38 0 38 -40v-592q0 -24 24 -30q23 -6 23 -30v-30q0 -35 -45 -35q-51 0 -82.5 28t-31.5 81zM271 750h21q18 0 26 -11t4 -29l-37 -130q-7 -30 -34 -30h-4q-27 0 -24 30l12 136q3 34 36 34z" />
    <glyph glyph-name="Ldot" unicode="&#x13f;" horiz-adv-x="524" 
d="M455 0h-351q-43 0 -43 45v660q0 45 43 45h25q44 0 44 -45v-602h282q44 0 44 -43v-17q0 -43 -44 -43zM307 375q0 30 21.5 51.5t51.5 21.5t51.5 -21.5t21.5 -51.5t-21.5 -51.5t-51.5 -21.5t-51.5 21.5t-21.5 51.5z" />
    <glyph glyph-name="ldot" unicode="&#x140;" horiz-adv-x="384" 
d="M65 102v608q0 40 38 40h36q38 0 38 -40v-592q0 -24 24 -30q23 -6 23 -30v-30q0 -35 -45 -35q-51 0 -82.5 28t-31.5 81zM240 306q0 30 21.5 51.5t51.5 21.5t51.5 -21.5t21.5 -51.5t-21.5 -51.5t-51.5 -21.5t-51.5 21.5t-21.5 51.5z" />
    <glyph glyph-name="Lslash" unicode="&#x141;" horiz-adv-x="560" 
d="M376 408l-168 -93v-212h282q44 0 44 -43v-17q0 -43 -44 -43h-351q-43 0 -43 45v208l-60 -33q-12 -7 -21.5 -1t-9.5 20v29q0 16 5 23.5t19 15.5l67 37v361q0 45 43 45h25q44 0 44 -45v-299l161 89q12 7 21.5 1.5t9.5 -19.5v-30q0 -17 -5 -24t-19 -15z" />
    <glyph glyph-name="lslash" unicode="&#x142;" horiz-adv-x="304" 
d="M271 406l-76 -45v-243q0 -24 24 -30q23 -6 23 -30v-30q0 -35 -45 -35q-51 0 -82.5 28t-31.5 81v192l-41 -24q-12 -7 -21.5 -1t-9.5 20v29q0 16 4.5 23t19.5 16l48 28v325q0 40 38 40h36q38 0 38 -40v-258l69 41q12 7 21.5 1.5t9.5 -19.5v-30q0 -16 -4.5 -23t-19.5 -16z
" />
    <glyph glyph-name="Nacute" unicode="&#x143;" horiz-adv-x="658" 
d="M181 720l308 -503l-3 488q0 45 44 45h24q43 0 43 -45v-660q0 -45 -43 -45h-25q-34 0 -52 30l-308 503l3 -488q0 -45 -44 -45h-24q-43 0 -43 45v660q0 45 43 45h25q34 0 52 -30zM376 905h63q19 0 23.5 -15.5t-11.5 -28.5l-55 -47q-23 -19 -51 -19h-38q-15 0 -20.5 10.5
t3.5 23.5l33 50q17 26 53 26z" />
    <glyph glyph-name="nacute" unicode="&#x144;" horiz-adv-x="524" 
d="M55 40v427q0 33 32 33h11q15 0 22 -6t14 -23l5 -11q76 52 162 52q172 0 172 -159v-313q0 -40 -38 -40h-36q-38 0 -38 40v303q0 74 -79 74q-63 0 -115 -29v-348q0 -40 -38 -40h-36q-38 0 -38 40zM313 750h63q20 0 27 -14t-4 -32l-71 -124q-18 -30 -45 -30h-34
q-15 0 -21.5 9t-1.5 24l41 133q11 34 46 34z" />
    <glyph glyph-name="Ncommaaccent" unicode="&#x145;" horiz-adv-x="658" 
d="M181 720l308 -503l-3 488q0 45 44 45h24q43 0 43 -45v-660q0 -45 -43 -45h-25q-34 0 -52 30l-308 503l3 -488q0 -45 -44 -45h-24q-43 0 -43 45v660q0 45 43 45h25q34 0 52 -30zM308 -50h50q21 0 30 -15t1 -35l-44 -118q-12 -32 -44 -32h-31q-13 0 -20.5 9t-5.5 24l18 126
q6 41 46 41z" />
    <glyph glyph-name="ncommaaccent" unicode="&#x146;" horiz-adv-x="524" 
d="M55 40v427q0 33 32 33h11q15 0 22 -6t14 -23l5 -11q76 52 162 52q172 0 172 -159v-313q0 -40 -38 -40h-36q-38 0 -38 40v303q0 74 -79 74q-63 0 -115 -29v-348q0 -40 -38 -40h-36q-38 0 -38 40zM243 -50h50q21 0 30 -15t1 -35l-44 -118q-12 -32 -44 -32h-31
q-13 0 -20.5 9t-5.5 24l18 126q6 41 46 41z" />
    <glyph glyph-name="Ncaron" unicode="&#x147;" horiz-adv-x="658" 
d="M181 720l308 -503l-3 488q0 45 44 45h24q43 0 43 -45v-660q0 -45 -43 -45h-25q-34 0 -52 30l-308 503l3 -488q0 -45 -44 -45h-24q-43 0 -43 45v660q0 45 43 45h25q34 0 52 -30zM272 892l57 -31l57 31q25 13 55 13h51q14 0 17.5 -13.5t-10.5 -23.5l-74 -54
q-26 -19 -57 -19h-78q-31 0 -57 19l-74 54q-14 10 -10.5 23.5t17.5 13.5h51q30 0 55 -13z" />
    <glyph glyph-name="ncaron" unicode="&#x148;" horiz-adv-x="524" 
d="M55 40v427q0 33 32 33h11q15 0 22 -6t14 -23l5 -11q76 52 162 52q172 0 172 -159v-313q0 -40 -38 -40h-36q-38 0 -38 40v303q0 74 -79 74q-63 0 -115 -29v-348q0 -40 -38 -40h-36q-38 0 -38 40zM181 727l85 -95l85 95q20 23 47 23h39q13 0 18 -12t-5 -25l-109 -136
q-13 -17 -23 -22t-27 -5h-50q-17 0 -27 5t-23 22l-109 136q-10 13 -5 25t18 12h39q27 0 47 -23z" />
    <glyph glyph-name="Eng" unicode="&#x14a;" horiz-adv-x="658" 
d="M181 720l308 -503l-3 488q0 45 44 45h24q43 0 43 -45v-795q0 -83 -52 -126.5t-131 -43.5q-46 0 -46 36v36q0 36 38 36t59.5 20.5t21.5 60.5v84l-318 520l3 -488q0 -45 -44 -45h-24q-43 0 -43 45v660q0 45 43 45h25q34 0 52 -30z" />
    <glyph glyph-name="eng" unicode="&#x14b;" horiz-adv-x="524" 
d="M361 343q0 74 -79 74q-63 0 -115 -29v-348q0 -40 -38 -40h-36q-38 0 -38 40v427q0 33 32 33h11q15 0 22 -6t14 -23l5 -11q76 52 162 52q172 0 172 -159v-443q0 -83 -52 -126.5t-131 -43.5q-46 0 -46 36v36q0 36 38 36q37 0 58 20.5t21 60.5v414z" />
    <glyph glyph-name="Omacron" unicode="&#x14c;" horiz-adv-x="680" 
d="M340 -12q-70 0 -122.5 20.5t-83.5 54t-50.5 85t-26 105t-6.5 122.5t6.5 122.5t26 105t50.5 85t83.5 54t122.5 20.5t122.5 -20.5t83.5 -54t50.5 -85t26 -105t6.5 -122.5t-6.5 -122.5t-26 -105t-50.5 -85t-83.5 -54t-122.5 -20.5zM340 660q-100 0 -137 -70t-37 -215
t37 -215t137 -70t137 70t37 215t-37 215t-137 70zM450 805h-220q-38 0 -38 37v15q0 37 38 37h220q38 0 38 -37v-15q0 -37 -38 -37z" />
    <glyph glyph-name="omacron" unicode="&#x14d;" horiz-adv-x="526" 
d="M263 82q67 0 88 39.5t21 128.5t-21 128.5t-88 39.5t-88 -39.5t-21 -128.5t21 -128.5t88 -39.5zM263 -12q-125 0 -173.5 67.5t-48.5 194.5t48.5 194.5t173.5 67.5t173.5 -67.5t48.5 -194.5t-48.5 -194.5t-173.5 -67.5zM373 605h-220q-38 0 -38 37v15q0 37 38 37h220
q38 0 38 -37v-15q0 -37 -38 -37z" />
    <glyph glyph-name="Obreve" unicode="&#x14e;" horiz-adv-x="680" 
d="M340 -12q-70 0 -122.5 20.5t-83.5 54t-50.5 85t-26 105t-6.5 122.5t6.5 122.5t26 105t50.5 85t83.5 54t122.5 20.5t122.5 -20.5t83.5 -54t50.5 -85t26 -105t6.5 -122.5t-6.5 -122.5t-26 -105t-50.5 -85t-83.5 -54t-122.5 -20.5zM340 660q-100 0 -137 -70t-37 -215
t37 -215t137 -70t137 70t37 215t-37 215t-137 70zM340 777q-163 0 -163 105q0 23 24 23h37q13 0 20.5 -8.5t11 -19t21 -19t49.5 -8.5t49.5 8.5t21 19t11 19t20.5 8.5h37q24 0 24 -23q0 -105 -163 -105z" />
    <glyph glyph-name="obreve" unicode="&#x14f;" horiz-adv-x="526" 
d="M263 82q67 0 88 39.5t21 128.5t-21 128.5t-88 39.5t-88 -39.5t-21 -128.5t21 -128.5t88 -39.5zM263 -12q-125 0 -173.5 67.5t-48.5 194.5t48.5 194.5t173.5 67.5t173.5 -67.5t48.5 -194.5t-48.5 -194.5t-173.5 -67.5zM263 639q54 0 76.5 21t26.5 63q3 27 29 27h27
q13 0 20.5 -8t6.5 -21q-5 -83 -47 -127t-139 -44t-139 44t-47 127q-1 13 6.5 21t20.5 8h27q26 0 29 -27q4 -42 26.5 -63t76.5 -21z" />
    <glyph glyph-name="Ohungarumlaut" unicode="&#x150;" horiz-adv-x="680" 
d="M340 -12q-70 0 -122.5 20.5t-83.5 54t-50.5 85t-26 105t-6.5 122.5t6.5 122.5t26 105t50.5 85t83.5 54t122.5 20.5t122.5 -20.5t83.5 -54t50.5 -85t26 -105t6.5 -122.5t-6.5 -122.5t-26 -105t-50.5 -85t-83.5 -54t-122.5 -20.5zM340 660q-100 0 -137 -70t-37 -215
t37 -215t137 -70t137 70t37 215t-37 215t-137 70zM472 905h63q19 0 23.5 -15.5t-11.5 -28.5l-55 -47q-23 -19 -51 -19h-38q-15 0 -20.5 10.5t3.5 23.5l33 50q17 26 53 26zM302 905h63q19 0 23.5 -15.5t-11.5 -28.5l-55 -47q-23 -19 -51 -19h-38q-15 0 -20.5 10.5t3.5 23.5
l33 50q17 26 53 26z" />
    <glyph glyph-name="ohungarumlaut" unicode="&#x151;" horiz-adv-x="526" 
d="M263 82q67 0 88 39.5t21 128.5t-21 128.5t-88 39.5t-88 -39.5t-21 -128.5t21 -128.5t88 -39.5zM263 -12q-125 0 -173.5 67.5t-48.5 194.5t48.5 194.5t173.5 67.5t173.5 -67.5t48.5 -194.5t-48.5 -194.5t-173.5 -67.5zM395 750h63q20 0 27 -14t-4 -32l-71 -124
q-18 -30 -45 -30h-34q-15 0 -21.5 9t-1.5 24l41 133q11 34 46 34zM225 750h63q20 0 27 -14t-4 -32l-71 -124q-18 -30 -45 -30h-34q-15 0 -21.5 9t-1.5 24l41 133q11 34 46 34z" />
    <glyph glyph-name="OE" unicode="&#x152;" horiz-adv-x="946" 
d="M457 103v544h-94q-107 0 -152.5 -70.5t-45.5 -201.5t45.5 -201.5t152.5 -70.5h94zM855 0h-489q-91 0 -154.5 28t-98.5 80.5t-50 117t-15 149.5t15 149.5t50 117t98.5 80.5t154.5 28h489q43 0 43 -43v-17q0 -43 -43 -43h-286v-207h254q43 0 43 -43v-17q0 -43 -43 -43h-254
v-234h286q43 0 43 -43v-17q0 -43 -43 -43z" />
    <glyph glyph-name="oe" unicode="&#x153;" horiz-adv-x="842" 
d="M263 82q67 0 88 39.5t21 128.5t-21 128.5t-88 39.5t-88 -39.5t-21 -128.5t21 -128.5t88 -39.5zM595 415q-58 0 -82 -33t-27 -95h200q0 31 -2 49.5t-10.5 39t-28 30t-50.5 9.5zM600 -12q-115 0 -169 73q-51 -73 -168 -73q-125 0 -173.5 67.5t-48.5 194.5t48.5 194.5
t173.5 67.5q116 0 168 -73q52 73 164 73q64 0 106 -19.5t62.5 -57t28 -78.5t7.5 -99v-9q0 -40 -38 -40h-275q2 -61 30.5 -92.5t100.5 -31.5q61 0 128 21q16 5 26 -2.5t10 -20.5v-37q0 -28 -28 -37q-65 -21 -153 -21z" />
    <glyph glyph-name="Racute" unicode="&#x154;" horiz-adv-x="621" 
d="M61 45v660q0 45 43 45h201q139 0 197.5 -57t58.5 -166q0 -158 -122 -200l150 -274q11 -21 0.5 -37t-30.5 -16h-46q-22 0 -34 8.5t-22 29.5l-128 267h-156v-260q0 -45 -43 -45h-26q-43 0 -43 45zM173 647v-240h148q37 0 62 9.5t36.5 28t15.5 37.5t4 45q0 56 -23.5 88
t-94.5 32h-148zM337 905h63q19 0 23.5 -15.5t-11.5 -28.5l-55 -47q-23 -19 -51 -19h-38q-15 0 -20.5 10.5t3.5 23.5l33 50q17 26 53 26z" />
    <glyph glyph-name="racute" unicode="&#x155;" horiz-adv-x="366" 
d="M295 416q-81 0 -128 -30v-346q0 -40 -38 -40h-36q-38 0 -38 40v427q0 33 32 33h11q15 0 22 -6t14 -23l5 -11q64 52 158 52q11 0 23 -2q30 -5 30 -32v-41q0 -27 -30 -23q-18 2 -25 2zM255 750h63q20 0 27 -14t-4 -32l-71 -124q-18 -30 -45 -30h-34q-15 0 -21.5 9t-1.5 24
l41 133q11 34 46 34z" />
    <glyph glyph-name="Rcommaaccent" unicode="&#x156;" horiz-adv-x="621" 
d="M61 45v660q0 45 43 45h201q139 0 197.5 -57t58.5 -166q0 -158 -122 -200l150 -274q11 -21 0.5 -37t-30.5 -16h-46q-22 0 -34 8.5t-22 29.5l-128 267h-156v-260q0 -45 -43 -45h-26q-43 0 -43 45zM173 647v-240h148q37 0 62 9.5t36.5 28t15.5 37.5t4 45q0 56 -23.5 88
t-94.5 32h-148zM293 -50h50q21 0 30 -15t1 -35l-44 -118q-12 -32 -44 -32h-31q-13 0 -20.5 9t-5.5 24l18 126q6 41 46 41z" />
    <glyph glyph-name="rcommaaccent" unicode="&#x157;" horiz-adv-x="366" 
d="M295 416q-81 0 -128 -30v-346q0 -40 -38 -40h-36q-38 0 -38 40v427q0 33 32 33h11q15 0 22 -6t14 -23l5 -11q64 52 158 52q11 0 23 -2q30 -5 30 -32v-41q0 -27 -30 -23q-18 2 -25 2zM86 -50h50q21 0 30 -15t1 -35l-44 -118q-12 -32 -44 -32h-31q-13 0 -20.5 9t-5.5 24
l18 126q6 41 46 41z" />
    <glyph glyph-name="Rcaron" unicode="&#x158;" horiz-adv-x="621" 
d="M61 45v660q0 45 43 45h201q139 0 197.5 -57t58.5 -166q0 -158 -122 -200l150 -274q11 -21 0.5 -37t-30.5 -16h-46q-22 0 -34 8.5t-22 29.5l-128 267h-156v-260q0 -45 -43 -45h-26q-43 0 -43 45zM173 647v-240h148q37 0 62 9.5t36.5 28t15.5 37.5t4 45q0 56 -23.5 88
t-94.5 32h-148zM233 892l57 -31l57 31q25 13 55 13h51q14 0 17.5 -13.5t-10.5 -23.5l-74 -54q-26 -19 -57 -19h-78q-31 0 -57 19l-74 54q-14 10 -10.5 23.5t17.5 13.5h51q30 0 55 -13z" />
    <glyph glyph-name="rcaron" unicode="&#x159;" horiz-adv-x="366" 
d="M295 416q-81 0 -128 -30v-346q0 -40 -38 -40h-36q-38 0 -38 40v427q0 33 32 33h11q15 0 22 -6t14 -23l5 -11q64 52 158 52q11 0 23 -2q30 -5 30 -32v-41q0 -27 -30 -23q-18 2 -25 2zM123 727l85 -95l85 95q20 23 47 23h39q13 0 18 -12t-5 -25l-109 -136q-13 -17 -23 -22
t-27 -5h-50q-17 0 -27 5t-23 22l-109 136q-10 13 -5 25t18 12h39q27 0 47 -23z" />
    <glyph glyph-name="Sacute" unicode="&#x15a;" horiz-adv-x="595" 
d="M260 94q175 0 175 126q0 60 -28.5 83t-107.5 33q-140 18 -197 63t-57 146q0 94 62.5 155.5t203.5 61.5q101 0 169 -22q34 -11 34 -43v-42q0 -16 -11.5 -24.5t-29.5 -1.5q-79 27 -156 27q-157 0 -157 -112q0 -57 31.5 -77t113.5 -31q64 -9 105 -20.5t76 -34t50.5 -60.5
t15.5 -94q0 -112 -70 -175.5t-215 -63.5q-102 0 -188 28q-34 11 -34 43v42q0 16 11.5 24.5t29.5 1.5q97 -33 174 -33zM350 905h63q19 0 23.5 -15.5t-11.5 -28.5l-55 -47q-23 -19 -51 -19h-38q-15 0 -20.5 10.5t3.5 23.5l33 50q17 26 53 26z" />
    <glyph glyph-name="sacute" unicode="&#x15b;" horiz-adv-x="465" 
d="M247 418q-96 0 -96 -62q0 -27 17.5 -39.5t65.5 -16.5q109 -9 149 -43.5t40 -107.5q0 -71 -50.5 -116t-162.5 -45q-81 0 -139 18q-31 9 -31 40v24q0 17 11.5 27t31.5 4q63 -18 111 -18q119 0 119 62q0 29 -17.5 43.5t-65.5 18.5q-108 9 -148 43.5t-40 102.5
q0 70 49.5 114.5t153.5 44.5q75 0 128 -15q32 -9 32 -42v-23q0 -17 -13 -26.5t-34 -3.5q-68 16 -111 16zM274 750h63q19 0 26 -14t-3 -32l-71 -124q-18 -30 -45 -30h-34q-15 0 -21.5 9t-1.5 24l41 133q11 34 46 34z" />
    <glyph glyph-name="Scircumflex" unicode="&#x15c;" horiz-adv-x="595" 
d="M260 94q175 0 175 126q0 60 -28.5 83t-107.5 33q-140 18 -197 63t-57 146q0 94 62.5 155.5t203.5 61.5q101 0 169 -22q34 -11 34 -43v-42q0 -16 -11.5 -24.5t-29.5 -1.5q-79 27 -156 27q-157 0 -157 -112q0 -57 31.5 -77t113.5 -31q64 -9 105 -20.5t76 -34t50.5 -60.5
t15.5 -94q0 -112 -70 -175.5t-215 -63.5q-102 0 -188 28q-34 11 -34 43v42q0 16 11.5 24.5t29.5 1.5q97 -33 174 -33zM360 808l-57 31l-57 -31q-25 -13 -55 -13h-51q-14 0 -17.5 13.5t10.5 23.5l74 54q26 19 57 19h78q31 0 57 -19l74 -54q14 -10 10.5 -23.5t-17.5 -13.5h-51
q-30 0 -55 13z" />
    <glyph glyph-name="scircumflex" unicode="&#x15d;" horiz-adv-x="465" 
d="M247 418q-96 0 -96 -62q0 -27 17.5 -39.5t65.5 -16.5q109 -9 149 -43.5t40 -107.5q0 -71 -50.5 -116t-162.5 -45q-81 0 -139 18q-31 9 -31 40v24q0 17 11.5 27t31.5 4q63 -18 111 -18q119 0 119 62q0 29 -17.5 43.5t-65.5 18.5q-108 9 -148 43.5t-40 102.5
q0 70 49.5 114.5t153.5 44.5q75 0 128 -15q32 -9 32 -42v-23q0 -17 -13 -26.5t-34 -3.5q-68 16 -111 16zM312 573l-85 95l-85 -95q-20 -23 -47 -23h-39q-13 0 -18 12t5 25l109 136q13 17 23 22t27 5h50q17 0 27 -5t23 -22l109 -136q10 -13 5 -25t-18 -12h-39q-27 0 -47 23z
" />
    <glyph glyph-name="Scedilla" unicode="&#x15e;" horiz-adv-x="595" 
d="M260 94q175 0 175 126q0 60 -28.5 83t-107.5 33q-140 18 -197 63t-57 146q0 94 62.5 155.5t203.5 61.5q101 0 169 -22q34 -11 34 -43v-42q0 -16 -11.5 -24.5t-29.5 -1.5q-79 27 -156 27q-157 0 -157 -112q0 -57 31.5 -77t113.5 -31q64 -9 105 -20.5t76 -34t50.5 -60.5
t15.5 -94q0 -104 -60.5 -166.5t-186.5 -71.5l3 -42q45 -12 69.5 -38.5t24.5 -61.5q0 -47 -32.5 -72t-86.5 -25q-39 0 -72 10q-25 8 -25 31v24q0 12 7.5 18.5t20.5 2.5q32 -9 54 -9q54 0 54 30q0 32 -58 45q-24 5 -21 26l6 60q-91 3 -170 28q-34 11 -34 43v42q0 16 11.5 24.5
t29.5 1.5q97 -33 174 -33z" />
    <glyph glyph-name="scedilla" unicode="&#x15f;" horiz-adv-x="465" 
d="M247 418q-96 0 -96 -62q0 -27 17.5 -39.5t65.5 -16.5q109 -9 149 -43.5t40 -107.5q0 -65 -41 -108t-133 -51l3 -43q45 -12 69.5 -38.5t24.5 -61.5q0 -47 -32.5 -72t-86.5 -25q-39 0 -72 10q-25 8 -25 31v24q0 12 7.5 18.5t20.5 2.5q32 -9 54 -9q54 0 54 30q0 32 -58 45
q-24 5 -21 26l6 60q-73 3 -122 18q-31 9 -31 40v24q0 17 11.5 27t31.5 4q63 -18 111 -18q119 0 119 62q0 29 -17.5 43.5t-65.5 18.5q-108 9 -148 43.5t-40 102.5q0 70 49.5 114.5t153.5 44.5q75 0 128 -15q32 -9 32 -42v-23q0 -17 -13 -26.5t-34 -3.5q-68 16 -111 16z" />
    <glyph glyph-name="Scaron" unicode="&#x160;" horiz-adv-x="595" 
d="M260 94q175 0 175 126q0 60 -28.5 83t-107.5 33q-140 18 -197 63t-57 146q0 94 62.5 155.5t203.5 61.5q101 0 169 -22q34 -11 34 -43v-42q0 -16 -11.5 -24.5t-29.5 -1.5q-79 27 -156 27q-157 0 -157 -112q0 -57 31.5 -77t113.5 -31q64 -9 105 -20.5t76 -34t50.5 -60.5
t15.5 -94q0 -112 -70 -175.5t-215 -63.5q-102 0 -188 28q-34 11 -34 43v42q0 16 11.5 24.5t29.5 1.5q97 -33 174 -33zM246 892l57 -31l57 31q25 13 55 13h51q14 0 17.5 -13.5t-10.5 -23.5l-74 -54q-26 -19 -57 -19h-78q-31 0 -57 19l-74 54q-14 10 -10.5 23.5t17.5 13.5h51
q30 0 55 -13z" />
    <glyph glyph-name="scaron" unicode="&#x161;" horiz-adv-x="465" 
d="M247 418q-96 0 -96 -62q0 -27 17.5 -39.5t65.5 -16.5q109 -9 149 -43.5t40 -107.5q0 -71 -50.5 -116t-162.5 -45q-81 0 -139 18q-31 9 -31 40v24q0 17 11.5 27t31.5 4q63 -18 111 -18q119 0 119 62q0 29 -17.5 43.5t-65.5 18.5q-108 9 -148 43.5t-40 102.5
q0 70 49.5 114.5t153.5 44.5q75 0 128 -15q32 -9 32 -42v-23q0 -17 -13 -26.5t-34 -3.5q-68 16 -111 16zM142 727l85 -95l85 95q20 23 47 23h39q13 0 18 -12t-5 -25l-109 -136q-13 -17 -23 -22t-27 -5h-50q-17 0 -27 5t-23 22l-109 136q-10 13 -5 25t18 12h39q27 0 47 -23z
" />
    <glyph glyph-name="Tcommaaccent" unicode="&#x162;" horiz-adv-x="556" 
d="M334 647v-602q0 -45 -43 -45h-25q-44 0 -44 45v602h-151q-44 0 -44 43v17q0 43 44 43h414q44 0 44 -43v-17q0 -43 -44 -43h-151zM252 -50h50q21 0 30 -15t1 -35l-44 -118q-12 -32 -44 -32h-31q-13 0 -20.5 9t-5.5 24l18 126q6 41 46 41z" />
    <glyph glyph-name="tcommaaccent" unicode="&#x163;" horiz-adv-x="380" 
d="M216 616v-116h103q38 0 38 -40v-15q0 -40 -38 -40h-103v-248q0 -41 21 -57.5t61 -16.5q7 0 16 1q30 4 30 -23v-38q0 -25 -30 -32q-14 -3 -34 -3q-176 0 -176 156v261h-58q-33 0 -33 32v10q0 16 6.5 24t22.5 12l62 17v91q0 16 6.5 24t22.5 12l48 14q15 4 25 -3.5t10 -21.5
zM203 -50h50q21 0 30 -15t1 -35l-44 -118q-12 -32 -44 -32h-31q-13 0 -20.5 9t-5.5 24l18 126q6 41 46 41z" />
    <glyph glyph-name="Tcaron" unicode="&#x164;" horiz-adv-x="556" 
d="M334 647v-602q0 -45 -43 -45h-25q-44 0 -44 45v602h-151q-44 0 -44 43v17q0 43 44 43h414q44 0 44 -43v-17q0 -43 -44 -43h-151zM221 892l57 -31l57 31q25 13 55 13h51q14 0 17.5 -13.5t-10.5 -23.5l-74 -54q-26 -19 -57 -19h-78q-31 0 -57 19l-74 54q-14 10 -10.5 23.5
t17.5 13.5h51q30 0 55 -13z" />
    <glyph glyph-name="tcaron" unicode="&#x165;" horiz-adv-x="380" 
d="M216 616v-116h103q38 0 38 -40v-15q0 -40 -38 -40h-103v-248q0 -41 21 -57.5t61 -16.5q7 0 16 1q30 4 30 -23v-38q0 -25 -30 -32q-14 -3 -34 -3q-176 0 -176 156v261h-58q-33 0 -33 32v10q0 16 6.5 24t22.5 12l62 17v91q0 16 6.5 24t22.5 12l48 14q15 4 25 -3.5t10 -21.5
zM315 750h21q18 0 26 -11t4 -29l-37 -130q-7 -30 -34 -30h-4q-27 0 -24 30l12 136q3 34 36 34z" />
    <glyph glyph-name="Tbar" unicode="&#x166;" horiz-adv-x="556" 
d="M411 344h-77v-299q0 -45 -43 -45h-25q-44 0 -44 45v299h-77q-38 0 -38 37v15q0 37 38 37h77v214h-151q-44 0 -44 43v17q0 43 44 43h414q44 0 44 -43v-17q0 -43 -44 -43h-151v-214h77q38 0 38 -37v-15q0 -37 -38 -37z" />
    <glyph glyph-name="tbar" unicode="&#x167;" horiz-adv-x="380" 
d="M289 227h-73v-70q0 -41 21 -57.5t61 -16.5q7 0 16 1q30 4 30 -23v-38q0 -25 -30 -32q-14 -3 -34 -3q-176 0 -176 156v83h-53q-38 0 -38 37v12q0 37 38 37h53v92h-58q-33 0 -33 32v10q0 16 6.5 24t22.5 12l62 17v91q0 16 6.5 24t22.5 12l48 14q15 4 25 -3.5t10 -21.5v-116
h103q38 0 38 -40v-15q0 -40 -38 -40h-103v-92h73q38 0 38 -37v-12q0 -37 -38 -37z" />
    <glyph glyph-name="Utilde" unicode="&#x168;" horiz-adv-x="656" 
d="M488 705q0 45 43 45h26q43 0 43 -45v-469q0 -60 -19 -106t-47 -72t-66.5 -42.5t-71.5 -22t-68 -5.5t-68 5.5t-71.5 22t-66.5 42.5t-47 72t-19 106v469q0 45 43 45h26q43 0 43 -45v-459q0 -156 160 -156t160 156v459zM410 860q18 0 28 7t12.5 15.5t9.5 15.5t20 7h17
q28 0 28 -29q0 -37 -28.5 -68t-84.5 -31q-36 0 -66.5 15.5t-55 31.5t-44.5 16q-18 0 -28 -7t-12.5 -15.5t-9.5 -15.5t-20 -7h-17q-28 0 -28 29q0 37 28.5 68t84.5 31q36 0 66.5 -15.5t55 -31.5t44.5 -16z" />
    <glyph glyph-name="utilde" unicode="&#x169;" horiz-adv-x="524" 
d="M469 460v-427q0 -33 -32 -33h-11q-15 0 -22 6t-14 23l-5 11q-76 -52 -162 -52q-172 0 -172 159v313q0 40 38 40h36q38 0 38 -40v-303q0 -74 79 -74q63 0 115 29v348q0 40 38 40h36q38 0 38 -40zM340 653q35 0 45 26q11 28 36 28h15q29 0 27 -32q-3 -40 -30.5 -74
t-91.5 -34q-30 0 -55 11.5t-39 25.5t-32 25.5t-35 11.5q-35 0 -45 -26q-11 -28 -36 -28h-15q-29 0 -27 32q3 40 30.5 74t91.5 34q30 0 55 -11.5t39 -25.5t32 -25.5t35 -11.5z" />
    <glyph glyph-name="Umacron" unicode="&#x16a;" horiz-adv-x="656" 
d="M488 705q0 45 43 45h26q43 0 43 -45v-469q0 -60 -19 -106t-47 -72t-66.5 -42.5t-71.5 -22t-68 -5.5t-68 5.5t-71.5 22t-66.5 42.5t-47 72t-19 106v469q0 45 43 45h26q43 0 43 -45v-459q0 -156 160 -156t160 156v459zM438 805h-220q-38 0 -38 37v15q0 37 38 37h220
q38 0 38 -37v-15q0 -37 -38 -37z" />
    <glyph glyph-name="umacron" unicode="&#x16b;" horiz-adv-x="524" 
d="M469 460v-427q0 -33 -32 -33h-11q-15 0 -22 6t-14 23l-5 11q-76 -52 -162 -52q-172 0 -172 159v313q0 40 38 40h36q38 0 38 -40v-303q0 -74 79 -74q63 0 115 29v348q0 40 38 40h36q38 0 38 -40zM370 605h-220q-38 0 -38 37v15q0 37 38 37h220q38 0 38 -37v-15
q0 -37 -38 -37z" />
    <glyph glyph-name="Ubreve" unicode="&#x16c;" horiz-adv-x="656" 
d="M328 -12q-35 0 -68 5.5t-71.5 22t-66.5 42.5t-47 72t-19 106v469q0 45 43 45h26q43 0 43 -45v-459q0 -156 160 -156t160 156v459q0 45 43 45h26q43 0 43 -45v-469q0 -60 -19 -106t-47 -72t-66.5 -42.5t-71.5 -22t-68 -5.5zM328 777q-163 0 -163 105q0 23 24 23h37
q13 0 20.5 -8.5t11 -19t21 -19t49.5 -8.5t49.5 8.5t21 19t11 19t20.5 8.5h37q24 0 24 -23q0 -105 -163 -105z" />
    <glyph glyph-name="ubreve" unicode="&#x16d;" horiz-adv-x="524" 
d="M469 460v-427q0 -33 -32 -33h-11q-15 0 -22 6t-14 23l-5 11q-76 -52 -162 -52q-172 0 -172 159v313q0 40 38 40h36q38 0 38 -40v-303q0 -74 79 -74q63 0 115 29v348q0 40 38 40h36q38 0 38 -40zM260 639q54 0 76.5 21t26.5 63q3 27 29 27h27q13 0 20.5 -8t6.5 -21
q-5 -83 -47 -127t-139 -44t-139 44t-47 127q-1 13 6.5 21t20.5 8h27q26 0 29 -27q4 -42 26.5 -63t76.5 -21z" />
    <glyph glyph-name="Uring" unicode="&#x16e;" horiz-adv-x="656" 
d="M488 705q0 45 43 45h26q43 0 43 -45v-469q0 -60 -19 -106t-47 -72t-66.5 -42.5t-71.5 -22t-68 -5.5t-68 5.5t-71.5 22t-66.5 42.5t-47 72t-19 106v469q0 45 43 45h26q43 0 43 -45v-459q0 -156 160 -156t160 156v459zM228 850q0 82 100 82t100 -82t-100 -82t-100 82z
M362 850q0 17 -34 17t-34 -17t34 -17t34 17z" />
    <glyph glyph-name="uring" unicode="&#x16f;" horiz-adv-x="524" 
d="M469 460v-427q0 -33 -32 -33h-11q-15 0 -22 6t-14 23l-5 11q-76 -52 -162 -52q-172 0 -172 159v313q0 40 38 40h36q38 0 38 -40v-303q0 -74 79 -74q63 0 115 29v348q0 40 38 40h36q38 0 38 -40zM365 650q0 -51 -28.5 -77t-76.5 -26t-76.5 26t-28.5 77t28.5 77t76.5 26
t76.5 -26t28.5 -77zM222 650q0 -37 38 -37q39 0 39 37t-39 37q-38 0 -38 -37z" />
    <glyph glyph-name="Uhungarumlaut" unicode="&#x170;" horiz-adv-x="656" 
d="M328 -12q-35 0 -68 5.5t-71.5 22t-66.5 42.5t-47 72t-19 106v469q0 45 43 45h26q43 0 43 -45v-459q0 -156 160 -156t160 156v459q0 45 43 45h26q43 0 43 -45v-469q0 -60 -19 -106t-47 -72t-66.5 -42.5t-71.5 -22t-68 -5.5zM460 905h63q19 0 23.5 -15.5t-11.5 -28.5
l-55 -47q-23 -19 -51 -19h-38q-15 0 -20.5 10.5t3.5 23.5l33 50q17 26 53 26zM290 905h63q19 0 23.5 -15.5t-11.5 -28.5l-55 -47q-23 -19 -51 -19h-38q-15 0 -20.5 10.5t3.5 23.5l33 50q17 26 53 26z" />
    <glyph glyph-name="uhungarumlaut" unicode="&#x171;" horiz-adv-x="524" 
d="M469 460v-427q0 -33 -32 -33h-11q-15 0 -22 6t-14 23l-5 11q-76 -52 -162 -52q-172 0 -172 159v313q0 40 38 40h36q38 0 38 -40v-303q0 -74 79 -74q63 0 115 29v348q0 40 38 40h36q38 0 38 -40zM392 750h63q19 0 26 -14t-3 -32l-71 -124q-18 -30 -45 -30h-34
q-15 0 -21.5 9t-1.5 24l41 133q11 34 46 34zM222 750h63q19 0 26 -14t-3 -32l-71 -124q-18 -30 -45 -30h-34q-15 0 -21.5 9t-1.5 24l41 133q11 34 46 34z" />
    <glyph glyph-name="Uogonek" unicode="&#x172;" horiz-adv-x="656" 
d="M353 -250q-53 0 -88 28.5t-35 80.5q0 73 70 130q-34 2 -65 9.5t-64.5 25.5t-58 44t-40.5 69.5t-16 98.5v469q0 45 43 45h26q43 0 43 -45v-459q0 -156 160 -156t160 156v459q0 45 43 45h26q43 0 43 -45v-469q0 -183 -173 -236q-45 -14 -76.5 -47.5t-31.5 -77.5
q0 -23 15 -37t41 -14q23 0 37 4q29 8 29 -21v-18q0 -23 -26 -31q-27 -8 -62 -8z" />
    <glyph glyph-name="uogonek" unicode="&#x173;" horiz-adv-x="524" 
d="M397 -250q-53 0 -88 28.5t-35 80.5q0 102 116 168l-5 13q-76 -52 -162 -52q-172 0 -172 159v313q0 40 38 40h36q38 0 38 -40v-303q0 -74 79 -74q63 0 115 29v348q0 40 38 40h36q38 0 38 -40v-427q0 -22 -18 -31q-37 -18 -62.5 -51t-25.5 -76q0 -23 15 -37t41 -14
q23 0 37 4q29 8 29 -21v-18q0 -23 -26 -31q-27 -8 -62 -8z" />
    <glyph glyph-name="Wcircumflex" unicode="&#x174;" horiz-adv-x="884" 
d="M412 750h60q21 0 32.5 -9t16.5 -33l128 -549l94 550q7 41 45 41h41q20 0 28 -12t4 -34l-133 -670q-9 -43 -49 -43h-52q-40 0 -50 43l-135 585l-135 -585q-10 -43 -50 -43h-52q-40 0 -49 43l-133 670q-4 22 4 34t28 12h41q38 0 45 -41l94 -550l128 549q5 24 16.5 33
t32.5 9zM499 808l-57 31l-57 -31q-25 -13 -55 -13h-51q-14 0 -17.5 13.5t10.5 23.5l74 54q26 19 57 19h78q31 0 57 -19l74 -54q14 -10 10.5 -23.5t-17.5 -13.5h-51q-30 0 -55 13z" />
    <glyph glyph-name="wcircumflex" unicode="&#x175;" horiz-adv-x="696" 
d="M335 500h26q39 0 49 -39l86 -305l70 306q9 38 44 38h33q20 0 30 -14t4 -37l-118 -419q-11 -39 -47 -39h-20q-40 0 -51 41l-93 336l-93 -336q-11 -41 -51 -41h-20q-36 0 -47 39l-118 419q-6 23 4 37t30 14h33q35 0 44 -38l70 -306l86 305q10 39 49 39zM433 573l-85 95
l-85 -95q-20 -23 -47 -23h-39q-13 0 -18 12t5 25l109 136q13 17 23 22t27 5h50q17 0 27 -5t23 -22l109 -136q10 -13 5 -25t-18 -12h-39q-27 0 -47 23z" />
    <glyph glyph-name="Ycircumflex" unicode="&#x176;" horiz-adv-x="670" 
d="M150 718l185 -318l185 318q18 32 53 32h47q20 0 27.5 -17t-3.5 -33l-252 -399v-256q0 -45 -43 -45h-27q-44 0 -44 45v256l-252 399q-11 16 -3.5 33t27.5 17h47q35 0 53 -32zM392 808l-57 31l-57 -31q-25 -13 -55 -13h-51q-14 0 -17.5 13.5t10.5 23.5l74 54q26 19 57 19
h78q31 0 57 -19l74 -54q14 -10 10.5 -23.5t-17.5 -13.5h-51q-30 0 -55 13z" />
    <glyph glyph-name="ycircumflex" unicode="&#x177;" horiz-adv-x="500" 
d="M478 446l-264 -662q-14 -34 -49 -34h-48q-22 0 -31.5 18t0.5 38l107 212l-171 428q-9 22 1 38t32 16h32q35 0 47 -34l116 -328l116 328q11 34 47 34h32q22 0 32 -16t1 -38zM335 573l-85 95l-85 -95q-20 -23 -47 -23h-39q-13 0 -18 12t5 25l109 136q13 17 23 22t27 5h50
q17 0 27 -5t23 -22l109 -136q10 -13 5 -25t-18 -12h-39q-27 0 -47 23z" />
    <glyph glyph-name="Ydieresis" unicode="&#x178;" horiz-adv-x="670" 
d="M150 718l185 -318l185 318q18 32 53 32h47q20 0 27.5 -17t-3.5 -33l-252 -399v-256q0 -45 -43 -45h-27q-44 0 -44 45v256l-252 399q-11 16 -3.5 33t27.5 17h47q35 0 53 -32zM156 850q0 30 21.5 51.5t51.5 21.5t51.5 -21.5t21.5 -51.5t-21.5 -51.5t-51.5 -21.5t-51.5 21.5
t-21.5 51.5zM368 850q0 30 21.5 51.5t51.5 21.5t51.5 -21.5t21.5 -51.5t-21.5 -51.5t-51.5 -21.5t-51.5 21.5t-21.5 51.5z" />
    <glyph glyph-name="Zacute" unicode="&#x179;" horiz-adv-x="610" 
d="M551 654l-370 -548l354 2q45 0 45 -44v-21q0 -43 -45 -43h-460q-45 0 -45 43v14q0 18 14 39l370 548l-314 -2q-45 0 -45 44v21q0 43 45 43h420q45 0 45 -43v-14q0 -18 -14 -39zM355 905h63q19 0 23.5 -15.5t-11.5 -28.5l-55 -47q-23 -19 -51 -19h-38q-15 0 -20.5 10.5
t3.5 23.5l33 50q17 26 53 26z" />
    <glyph glyph-name="zacute" unicode="&#x17a;" horiz-adv-x="439" 
d="M35 101l236 301h-198q-38 0 -38 40v18q0 40 38 40h306q36 0 36 -36v-24q0 -19 -18 -41l-236 -301h227q38 0 38 -40v-18q0 -40 -38 -40h-335q-36 0 -36 36v24q0 19 18 41zM269 750h63q20 0 27 -14t-4 -32l-71 -124q-18 -30 -45 -30h-34q-15 0 -21.5 9t-1.5 24l41 133
q11 34 46 34z" />
    <glyph glyph-name="Zdotaccent" unicode="&#x17b;" horiz-adv-x="610" 
d="M551 654l-370 -548l354 2q45 0 45 -44v-21q0 -43 -45 -43h-460q-45 0 -45 43v14q0 18 14 39l370 548l-314 -2q-45 0 -45 44v21q0 43 45 43h420q45 0 45 -43v-14q0 -18 -14 -39zM235 850q0 30 21.5 51.5t51.5 21.5t51.5 -21.5t21.5 -51.5t-21.5 -51.5t-51.5 -21.5
t-51.5 21.5t-21.5 51.5z" />
    <glyph glyph-name="zdotaccent" unicode="&#x17c;" horiz-adv-x="439" 
d="M35 101l236 301h-198q-38 0 -38 40v18q0 40 38 40h306q36 0 36 -36v-24q0 -19 -18 -41l-236 -301h227q38 0 38 -40v-18q0 -40 -38 -40h-335q-36 0 -36 36v24q0 19 18 41zM149 648q0 30 21.5 51.5t51.5 21.5t51.5 -21.5t21.5 -51.5t-21.5 -51.5t-51.5 -21.5t-51.5 21.5
t-21.5 51.5z" />
    <glyph glyph-name="Zcaron" unicode="&#x17d;" horiz-adv-x="610" 
d="M551 654l-370 -548l354 2q45 0 45 -44v-21q0 -43 -45 -43h-460q-45 0 -45 43v14q0 18 14 39l370 548l-314 -2q-45 0 -45 44v21q0 43 45 43h420q45 0 45 -43v-14q0 -18 -14 -39zM251 892l57 -31l57 31q25 13 55 13h51q14 0 17.5 -13.5t-10.5 -23.5l-74 -54
q-26 -19 -57 -19h-78q-31 0 -57 19l-74 54q-14 10 -10.5 23.5t17.5 13.5h51q30 0 55 -13z" />
    <glyph glyph-name="zcaron" unicode="&#x17e;" horiz-adv-x="439" 
d="M35 101l236 301h-198q-38 0 -38 40v18q0 40 38 40h306q36 0 36 -36v-24q0 -19 -18 -41l-236 -301h227q38 0 38 -40v-18q0 -40 -38 -40h-335q-36 0 -36 36v24q0 19 18 41zM152 727l85 -95l85 95q20 23 47 23h39q13 0 18 -12t-5 -25l-109 -136q-13 -17 -23 -22t-27 -5h-50
q-17 0 -27 5t-23 22l-109 136q-10 13 -5 25t18 12h39q27 0 47 -23z" />
    <glyph glyph-name="florin" unicode="&#x192;" horiz-adv-x="525" 
d="M346 660q-51 0 -81 -24t-30 -69v-67h195q38 0 38 -36v-22q0 -36 -38 -36h-195v-365q0 -41 -42 -41h-26q-42 0 -42 41v365h-65q-37 0 -37 36v22q0 36 37 36h65v77q0 184 212 184q81 0 134 -17q31 -10 31 -40v-28q0 -16 -12 -25.5t-31 -4.5q-56 14 -113 14z" />
    <glyph glyph-name="Scommaaccent" unicode="&#x218;" horiz-adv-x="595" 
d="M260 94q175 0 175 126q0 60 -28.5 83t-107.5 33q-140 18 -197 63t-57 146q0 94 62.5 155.5t203.5 61.5q101 0 169 -22q34 -11 34 -43v-42q0 -16 -11.5 -24.5t-29.5 -1.5q-79 27 -156 27q-157 0 -157 -112q0 -57 31.5 -77t113.5 -31q64 -9 105 -20.5t76 -34t50.5 -60.5
t15.5 -94q0 -112 -70 -175.5t-215 -63.5q-102 0 -188 28q-34 11 -34 43v42q0 16 11.5 24.5t29.5 1.5q97 -33 174 -33zM262 -50h50q21 0 30 -15t1 -35l-44 -118q-12 -32 -44 -32h-31q-13 0 -20.5 9t-5.5 24l18 126q6 41 46 41z" />
    <glyph glyph-name="scommaaccent" unicode="&#x219;" horiz-adv-x="465" 
d="M247 418q-96 0 -96 -62q0 -27 17.5 -39.5t65.5 -16.5q109 -9 149 -43.5t40 -107.5q0 -71 -50.5 -116t-162.5 -45q-81 0 -139 18q-31 9 -31 40v24q0 17 11.5 27t31.5 4q63 -18 111 -18q119 0 119 62q0 29 -17.5 43.5t-65.5 18.5q-108 9 -148 43.5t-40 102.5
q0 70 49.5 114.5t153.5 44.5q75 0 128 -15q32 -9 32 -42v-23q0 -17 -13 -26.5t-34 -3.5q-68 16 -111 16zM207 -50h50q21 0 30 -15t1 -35l-44 -118q-12 -32 -44 -32h-31q-13 0 -20.5 9t-5.5 24l18 126q6 41 46 41z" />
    <glyph glyph-name="dotlessj" unicode="&#x237;" horiz-adv-x="242" 
d="M177 460v-550q0 -83 -52 -126.5t-131 -43.5q-46 0 -46 36v36q0 36 38 36q37 0 58 20.5t21 60.5v531q0 40 38 40h36q38 0 38 -40z" />
    <glyph glyph-name="circumflex" unicode="&#x2c6;" horiz-adv-x="526" 
d="M348 573l-85 95l-85 -95q-20 -23 -47 -23h-39q-13 0 -18 12t5 25l109 136q13 17 23 22t27 5h50q17 0 27 -5t23 -22l109 -136q10 -13 5 -25t-18 -12h-39q-27 0 -47 23z" />
    <glyph glyph-name="caron" unicode="&#x2c7;" horiz-adv-x="526" 
d="M178 727l85 -95l85 95q20 23 47 23h39q13 0 18 -12t-5 -25l-109 -136q-13 -17 -23 -22t-27 -5h-50q-17 0 -27 5t-23 22l-109 136q-10 13 -5 25t18 12h39q27 0 47 -23z" />
    <glyph glyph-name="breve" unicode="&#x2d8;" horiz-adv-x="526" 
d="M263 639q54 0 76.5 21t26.5 63q3 27 29 27h27q13 0 20.5 -8t6.5 -21q-5 -83 -47 -127t-139 -44t-139 44t-47 127q-1 13 6.5 21t20.5 8h27q26 0 29 -27q4 -42 26.5 -63t76.5 -21z" />
    <glyph glyph-name="dotaccent" unicode="&#x2d9;" horiz-adv-x="526" 
d="M190 648q0 30 21.5 51.5t51.5 21.5t51.5 -21.5t21.5 -51.5t-21.5 -51.5t-51.5 -21.5t-51.5 21.5t-21.5 51.5z" />
    <glyph glyph-name="ring" unicode="&#x2da;" horiz-adv-x="526" 
d="M368 650q0 -51 -28.5 -77t-76.5 -26t-76.5 26t-28.5 77t28.5 77t76.5 26t76.5 -26t28.5 -77zM225 650q0 -37 38 -37q39 0 39 37t-39 37q-38 0 -38 -37z" />
    <glyph glyph-name="ogonek" unicode="&#x2db;" horiz-adv-x="526" 
d="M280 -250q-53 0 -88 28.5t-35 80.5q0 101 129 167l66 -26q-106 -48 -106 -125q0 -23 15 -37t41 -14q23 0 37 4q29 8 29 -21v-18q0 -23 -26 -31q-27 -8 -62 -8z" />
    <glyph glyph-name="tilde" unicode="&#x2dc;" horiz-adv-x="526" 
d="M343 653q35 0 45 26q11 28 36 28h15q29 0 27 -32q-3 -40 -30.5 -74t-91.5 -34q-30 0 -55 11.5t-39 25.5t-32 25.5t-35 11.5q-35 0 -45 -26q-11 -28 -36 -28h-15q-29 0 -27 32q3 40 30.5 74t91.5 34q30 0 55 -11.5t39 -25.5t32 -25.5t35 -11.5z" />
    <glyph glyph-name="hungarumlaut" unicode="&#x2dd;" horiz-adv-x="526" 
d="M395 750h63q20 0 27 -14t-4 -32l-71 -124q-18 -30 -45 -30h-34q-15 0 -21.5 9t-1.5 24l41 133q11 34 46 34zM225 750h63q20 0 27 -14t-4 -32l-71 -124q-18 -30 -45 -30h-34q-15 0 -21.5 9t-1.5 24l41 133q11 34 46 34z" />
    <glyph glyph-name="uni0323" unicode="&#x323;" horiz-adv-x="526" 
d="M336 -148q0 -30 -21.5 -51.5t-51.5 -21.5t-51.5 21.5t-21.5 51.5t21.5 51.5t51.5 21.5t51.5 -21.5t21.5 -51.5z" />
    <glyph glyph-name="uni0329" unicode="&#x329;" horiz-adv-x="526" 
d="M224 -212v124q0 38 37 38h4q37 0 37 -38v-124q0 -38 -37 -38h-4q-37 0 -37 38z" />
    <glyph glyph-name="enspace" unicode="&#x2002;" horiz-adv-x="500" 
 />
    <glyph glyph-name="emspace" unicode="&#x2003;" horiz-adv-x="1000" 
 />
    <glyph glyph-name="threeperemspace" unicode="&#x2004;" horiz-adv-x="333" 
 />
    <glyph glyph-name="fourperemspace" unicode="&#x2005;" horiz-adv-x="250" 
 />
    <glyph glyph-name="sixperemspace" unicode="&#x2006;" horiz-adv-x="167" 
 />
    <glyph glyph-name="figurespace" unicode="&#x2007;" 
 />
    <glyph glyph-name="punctuationspace" unicode="&#x2008;" horiz-adv-x="214" 
 />
    <glyph glyph-name="thinspace" unicode="&#x2009;" horiz-adv-x="100" 
 />
    <glyph glyph-name="hairspace" unicode="&#x200a;" horiz-adv-x="50" 
 />
    <glyph glyph-name="zerowidthspace" unicode="&#x200b;" horiz-adv-x="0" 
 />
    <glyph glyph-name="figuredash" unicode="&#x2012;" 
d="M519 261h-438q-38 0 -38 40v21q0 40 38 40h438q38 0 38 -40v-21q0 -40 -38 -40z" />
    <glyph glyph-name="endash" unicode="&#x2013;" horiz-adv-x="500" 
d="M419 261h-338q-38 0 -38 40v21q0 40 38 40h338q38 0 38 -40v-21q0 -40 -38 -40z" />
    <glyph glyph-name="emdash" unicode="&#x2014;" horiz-adv-x="1000" 
d="M919 261h-838q-38 0 -38 40v21q0 40 38 40h838q38 0 38 -40v-21q0 -40 -38 -40z" />
    <glyph glyph-name="uni2015" unicode="&#x2015;" horiz-adv-x="1200" 
d="M1119 261h-1038q-38 0 -38 40v21q0 40 38 40h1038q38 0 38 -40v-21q0 -40 -38 -40z" />
    <glyph glyph-name="doublebar" unicode="&#x2016;" horiz-adv-x="428" 
d="M77 -160v920q0 40 38 40h36q38 0 38 -40v-920q0 -40 -38 -40h-36q-38 0 -38 40zM239 -160v920q0 40 38 40h36q38 0 38 -40v-920q0 -40 -38 -40h-36q-38 0 -38 40z" />
    <glyph glyph-name="quoteleft" unicode="&#x2018;" horiz-adv-x="166" 
d="M73 500h-51q-21 0 -30 15t-1 35l68 168q13 32 44 32h19q13 0 20.5 -9t5.5 -24l-29 -176q-7 -41 -46 -41z" />
    <glyph glyph-name="quoteright" unicode="&#x2019;" horiz-adv-x="166" 
d="M93 750h51q21 0 30 -15t1 -35l-68 -168q-13 -32 -44 -32h-19q-13 0 -20.5 9t-5.5 24l29 176q7 41 46 41z" />
    <glyph glyph-name="quotesinglbase" unicode="&#x201a;" horiz-adv-x="177" 
d="M78 82h51q21 0 30 -15t1 -35l-68 -168q-13 -32 -44 -32h-19q-13 0 -20.5 9t-5.5 24l29 176q7 41 46 41z" />
    <glyph glyph-name="reversequoteleft" unicode="&#x201b;" horiz-adv-x="166" 
d="M22 750h51q39 0 46 -41l29 -176q2 -15 -5.5 -24t-20.5 -9h-19q-31 0 -44 32l-68 168q-8 20 1 35t30 15z" />
    <glyph glyph-name="quotedblleft" unicode="&#x201c;" horiz-adv-x="336" 
d="M73 500h-51q-21 0 -30 15t-1 35l68 168q13 32 44 32h19q13 0 20.5 -9t5.5 -24l-29 -176q-7 -41 -46 -41zM243 500h-51q-21 0 -30 15t-1 35l68 168q13 32 44 32h19q13 0 20.5 -9t5.5 -24l-29 -176q-7 -41 -46 -41z" />
    <glyph glyph-name="quotedblright" unicode="&#x201d;" horiz-adv-x="336" 
d="M93 750h51q21 0 30 -15t1 -35l-68 -168q-13 -32 -44 -32h-19q-13 0 -20.5 9t-5.5 24l29 176q7 41 46 41zM263 750h51q21 0 30 -15t1 -35l-68 -168q-13 -32 -44 -32h-19q-13 0 -20.5 9t-5.5 24l29 176q7 41 46 41z" />
    <glyph glyph-name="quotedblbase" unicode="&#x201e;" horiz-adv-x="347" 
d="M78 82h51q21 0 30 -15t1 -35l-68 -168q-13 -32 -44 -32h-19q-13 0 -20.5 9t-5.5 24l29 176q7 41 46 41zM248 82h51q21 0 30 -15t1 -35l-68 -168q-13 -32 -44 -32h-19q-13 0 -20.5 9t-5.5 24l29 176q7 41 46 41z" />
    <glyph glyph-name="reversequotedblleft" unicode="&#x201f;" horiz-adv-x="336" 
d="M22 750h51q39 0 46 -41l29 -176q2 -15 -5.5 -24t-20.5 -9h-19q-31 0 -44 32l-68 168q-8 20 1 35t30 15zM192 750h51q39 0 46 -41l29 -176q2 -15 -5.5 -24t-20.5 -9h-19q-31 0 -44 32l-68 168q-8 20 1 35t30 15z" />
    <glyph glyph-name="dagger" unicode="&#x2020;" horiz-adv-x="500" 
d="M286 250h-73q-20 0 -30.5 11.5t-7.5 30.5l29 202l-122 -18q-19 -3 -30.5 7.5t-11.5 30.5v51q0 20 11.5 30.5t30.5 7.5l122 -18l-18 123q-3 19 7.5 30.5t30.5 11.5h51q20 0 30.5 -11.5t7.5 -30.5l-18 -123l122 18q19 3 30.5 -7.5t11.5 -30.5v-51q0 -20 -11.5 -30.5
t-30.5 -7.5l-122 18l29 -202q3 -19 -7.5 -30.5t-30.5 -11.5z" />
    <glyph glyph-name="daggerdbl" unicode="&#x2021;" horiz-adv-x="500" 
d="M295 335l122 18q19 3 30.5 -7.5t11.5 -30.5v-51q0 -20 -11.5 -30.5t-30.5 -7.5l-122 18l29 -202q3 -19 -7.5 -30.5t-30.5 -11.5h-73q-20 0 -30.5 11.5t-7.5 30.5l29 202l-122 -18q-19 -3 -30.5 7.5t-11.5 30.5v51q0 20 11.5 30.5t30.5 7.5l122 -18l-10 64q-2 12 -2 16
t2 16l10 63l-122 -18q-19 -3 -30.5 7.5t-11.5 30.5v51q0 20 11.5 30.5t30.5 7.5l122 -18l-18 123q-3 19 7.5 30.5t30.5 11.5h51q20 0 30.5 -11.5t7.5 -30.5l-18 -123l122 18q19 3 30.5 -7.5t11.5 -30.5v-51q0 -20 -11.5 -30.5t-30.5 -7.5l-122 18l10 -63q2 -12 2 -16t-2 -16
z" />
    <glyph glyph-name="bullet" unicode="&#x2022;" horiz-adv-x="384" 
d="M55 375q0 57 40 97t97 40t97 -40t40 -97t-40 -97t-97 -40t-97 40t-40 97z" />
    <glyph glyph-name="ellipsis" unicode="&#x2026;" horiz-adv-x="1000" 
d="M94 61q0 30 21.5 51.5t51.5 21.5t51.5 -21.5t21.5 -51.5t-21.5 -51.5t-51.5 -21.5t-51.5 21.5t-21.5 51.5zM427 61q0 30 21.5 51.5t51.5 21.5t51.5 -21.5t21.5 -51.5t-21.5 -51.5t-51.5 -21.5t-51.5 21.5t-21.5 51.5zM760 61q0 30 21.5 51.5t51.5 21.5t51.5 -21.5
t21.5 -51.5t-21.5 -51.5t-51.5 -21.5t-51.5 21.5t-21.5 51.5z" />
    <glyph glyph-name="perthousand" unicode="&#x2030;" horiz-adv-x="1365" 
d="M896 186q0 -100 -44 -149t-136 -49q-93 0 -137 49t-44 149t44 149t137 49t136.5 -48.5t43.5 -149.5zM637 186q0 -60 18.5 -83.5t60.5 -23.5t60 23.5t18 83.5q0 61 -18 84.5t-60 23.5t-60.5 -24t-18.5 -84zM405 564q0 -100 -44 -149t-136 -49q-93 0 -137 48.5t-44 149.5
q0 100 44 149t137 49q92 0 136 -49t44 -149zM146 564q0 -61 18.5 -84.5t60.5 -23.5t60.5 24t18.5 84t-18.5 83.5t-60.5 23.5t-60.5 -23.5t-18.5 -83.5zM182 41l485 685q17 24 42 24h34q14 0 20 -12.5t-4 -28.5l-485 -685q-17 -24 -42 -24h-34q-14 0 -20 12.5t4 28.5z
M1321 186q0 -100 -44 -149t-136 -49q-93 0 -137 49t-44 149t44 149t137 49q92 0 136 -48.5t44 -149.5zM1062 186q0 -60 18.5 -83.5t60.5 -23.5t60 23.5t18 83.5q0 61 -18 84.5t-60 23.5t-60.5 -24t-18.5 -84z" />
    <glyph glyph-name="tripleprime" unicode="&#x2034;" horiz-adv-x="530" 
d="M112 500h-21q-25 0 -28 27l-22 181q-2 20 8 31t30 11h46q20 0 30 -11.5t8 -30.5l-23 -181q-3 -27 -28 -27zM277 500h-21q-25 0 -28 27l-22 181q-2 20 8 31t30 11h46q20 0 30 -11.5t8 -30.5l-23 -181q-3 -27 -28 -27zM442 500h-21q-25 0 -28 27l-22 181q-2 20 8 31t30 11
h46q20 0 30 -11.5t8 -30.5l-23 -181q-3 -27 -28 -27z" />
    <glyph glyph-name="guilsinglleft" unicode="&#x2039;" horiz-adv-x="289" 
d="M47 232v36q0 17 5 27t22 23l123 102q13 10 26.5 5t13.5 -19v-35q0 -16 -4.5 -25t-18.5 -22l-79 -74l79 -74q14 -13 18.5 -22t4.5 -25v-35q0 -14 -13.5 -19t-26.5 5l-123 102q-17 13 -22 23t-5 27z" />
    <glyph glyph-name="guilsinglright" unicode="&#x203a;" horiz-adv-x="289" 
d="M242 268v-36q0 -17 -5 -27t-22 -23l-123 -102q-13 -10 -26.5 -5t-13.5 19v35q0 16 4.5 25t18.5 22l79 74l-79 74q-14 13 -18.5 22t-4.5 25v35q0 14 13.5 19t26.5 -5l123 -102q17 -13 22 -23t5 -27z" />
    <glyph glyph-name="fraction" unicode="&#x2044;" horiz-adv-x="403" 
d="M478 727l-501 -710q-14 -17 -32 -17h-56q-10 0 -13 7t4 16l502 710q13 17 32 17h55q10 0 13 -7t-4 -16z" />
    <glyph glyph-name="uni2070" unicode="&#x2070;" horiz-adv-x="500" 
d="M243 329q-201 0 -201 217q0 216 201 216t201 -216q0 -217 -201 -217zM243 665q-100 0 -100 -119q0 -63 25 -91t75 -28t75 28t25 91q0 119 -100 119z" />
    <glyph glyph-name="uni2074" unicode="&#x2074;" horiz-adv-x="460" 
d="M22 469v15q0 16 19 38l187 215q22 25 43 25h49q35 0 35 -36v-201h36q39 0 39 -37v-18q0 -37 -39 -37h-36v-56q0 -36 -35 -36h-30q-36 0 -36 36v56h-193q-39 0 -39 36zM156 524l98 1l3 113z" />
    <glyph glyph-name="uni2075" unicode="&#x2075;" horiz-adv-x="438" 
d="M222 513h-130q-39 0 -39 40v157q0 40 39 40h260q39 0 39 -38v-20q0 -39 -39 -39h-198v-59q14 2 61 2q105 0 147.5 -30t42.5 -101q0 -136 -200 -136q-80 0 -139 16q-27 7 -27 36v29q0 16 10 24.5t30 3.5q54 -14 124 -14q91 0 91 47q0 42 -72 42z" />
    <glyph glyph-name="uni2076" unicode="&#x2076;" horiz-adv-x="470" 
d="M274 669q-51 0 -85.5 -23t-37.5 -74q37 40 119 40q165 0 165 -137q0 -146 -191 -146q-101 0 -150 53t-49 162q0 111 54 164.5t166 53.5q65 0 123 -14q26 -6 26 -36v-28q0 -15 -10.5 -23.5t-29.5 -3.5q-43 12 -100 12zM247 420q77 0 77 54q0 51 -71 51q-68 0 -89 -43
q12 -62 83 -62z" />
    <glyph glyph-name="uni2077" unicode="&#x2077;" horiz-adv-x="403" 
d="M168 341h-47q-20 0 -27.5 17t4.5 35l162 263l-201 -2q-37 0 -37 36v24q0 36 37 36h285q36 0 36 -36v-12q0 -19 -13 -44l-148 -283q-18 -34 -51 -34z" />
    <glyph glyph-name="uni2078" unicode="&#x2078;" horiz-adv-x="435" 
d="M218 422q71 0 71 47q0 46 -71 46q-73 0 -73 -46q0 -47 73 -47zM218 595q62 0 62 37q0 39 -62 39q-63 0 -63 -39q0 -37 63 -37zM218 329q-183 0 -183 130q0 34 17 63.5t46 41.5q-20 7 -33 28.5t-13 50.5q0 119 166 119q164 0 164 -119q0 -29 -13 -50.5t-33 -28.5
q29 -12 46.5 -41t17.5 -64q0 -130 -182 -130z" />
    <glyph glyph-name="uni2079" unicode="&#x2079;" horiz-adv-x="470" 
d="M204 422q118 0 123 97q-35 -40 -119 -40q-165 0 -165 137q0 146 191 146q101 0 150 -53t49 -162q0 -111 -55.5 -164.5t-170.5 -53.5q-69 0 -123 15q-26 6 -26 35v28q0 15 10 23.5t28 3.5q46 -12 108 -12zM231 671q-78 0 -78 -54q0 -51 71 -51q68 0 90 43q-12 62 -83 62z
" />
    <glyph glyph-name="uni207A" unicode="&#x207a;" horiz-adv-x="405" 
d="M185 705h34q37 0 37 -38v-68h67q38 0 38 -37v-33q0 -37 -38 -37h-67v-68q0 -38 -37 -38h-34q-38 0 -38 38v68h-68q-37 0 -37 37v33q0 37 37 37h68v68q0 38 38 38z" />
    <glyph glyph-name="uni207B" unicode="&#x207b;" horiz-adv-x="405" 
d="M361 562v-33q0 -37 -38 -37h-244q-37 0 -37 37v33q0 37 37 37h244q38 0 38 -37z" />
    <glyph glyph-name="uni207C" unicode="&#x207c;" horiz-adv-x="405" 
d="M361 633v-33q0 -37 -38 -37h-244q-37 0 -37 37v33q0 37 37 37h244q38 0 38 -37zM361 491v-33q0 -37 -38 -37h-244q-37 0 -37 37v33q0 37 37 37h244q38 0 38 -37z" />
    <glyph glyph-name="uni207D" unicode="&#x207d;" horiz-adv-x="214" 
d="M32 546q0 110 46 200q14 25 36 25h45q15 0 24 -11.5t1 -27.5q-45 -99 -45 -186t45 -186q8 -16 -1 -27.5t-24 -11.5h-45q-22 0 -36 25q-46 90 -46 200z" />
    <glyph glyph-name="uni207E" unicode="&#x207e;" horiz-adv-x="214" 
d="M181 546q0 -110 -46 -200q-14 -25 -36 -25h-45q-15 0 -24 11.5t-1 27.5q45 99 45 186t-45 186q-8 16 1 27.5t24 11.5h45q22 0 36 -25q46 -90 46 -200z" />
    <glyph glyph-name="n.superior" unicode="&#x207f;" horiz-adv-x="300" 
d="M35 366v202q0 23 23 23h14q18 0 26 -17q38 24 80 24q50 0 69.5 -22t19.5 -63v-147q0 -25 -24 -25h-36q-24 0 -24 25v142q0 23 -25 23q-23 0 -39 -9v-156q0 -25 -25 -25h-34q-25 0 -25 25z" />
    <glyph glyph-name="uni2080" unicode="&#x2080;" horiz-adv-x="486" 
d="M243 -12q-201 0 -201 217q0 216 201 216t201 -216q0 -217 -201 -217zM243 324q-100 0 -100 -119q0 -63 25 -91t75 -28t75 28t25 91q0 119 -100 119z" />
    <glyph glyph-name="uni2081" unicode="&#x2081;" horiz-adv-x="323" 
d="M140 315l-78 -3q-31 0 -31 30v6q0 25 30 34l100 29q37 10 49 10h3q31 0 31 -35v-347q0 -39 -38 -39h-28q-38 0 -38 39v276z" />
    <glyph glyph-name="uni2082" unicode="&#x2082;" horiz-adv-x="427" 
d="M37 37v13q0 23 26 39q117 74 157.5 112.5t40.5 75.5q0 48 -73 48q-46 0 -94 -14q-18 -4 -29 4t-11 24v29q0 29 28 37q58 16 116 16q178 0 178 -132q0 -31 -15 -58.5t-47 -53.5t-57.5 -42t-71.5 -42l164 1q38 0 38 -38v-19q0 -37 -38 -37h-274q-38 0 -38 37z" />
    <glyph glyph-name="uni2083" unicode="&#x2083;" horiz-adv-x="449" 
d="M152 248h88q51 0 51 39t-87 39q-63 0 -109 -13q-18 -5 -29 4t-11 24v29q0 29 27 36q54 15 130 15q89 0 137 -29.5t48 -87.5q0 -31 -13.5 -52.5t-33.5 -28.5q64 -24 64 -104q0 -61 -51.5 -96t-149.5 -35q-79 0 -138 16q-28 7 -28 36v29q0 15 11 23.5t30 4.5
q56 -14 117 -14q98 0 98 45q0 23 -13 33t-45 10h-93q-36 0 -36 36v5q0 36 36 36z" />
    <glyph glyph-name="uni2084" unicode="&#x2084;" horiz-adv-x="460" 
d="M22 128v15q0 16 19 38l187 215q22 25 43 25h49q35 0 35 -36v-201h36q39 0 39 -37v-18q0 -37 -39 -37h-36v-56q0 -36 -35 -36h-30q-36 0 -36 36v56h-193q-39 0 -39 36zM156 183l98 1l3 113z" />
    <glyph glyph-name="uni2085" unicode="&#x2085;" horiz-adv-x="438" 
d="M222 172h-130q-39 0 -39 40v157q0 40 39 40h260q39 0 39 -38v-20q0 -39 -39 -39h-198v-59q14 2 61 2q105 0 147.5 -30t42.5 -101q0 -136 -200 -136q-80 0 -139 16q-27 7 -27 36v29q0 16 10 24.5t30 3.5q54 -14 124 -14q91 0 91 47q0 42 -72 42z" />
    <glyph glyph-name="uni2086" unicode="&#x2086;" horiz-adv-x="470" 
d="M274 328q-51 0 -85.5 -23t-37.5 -74q37 40 119 40q165 0 165 -137q0 -146 -191 -146q-101 0 -150 53t-49 162q0 111 54 164.5t166 53.5q65 0 123 -14q26 -7 26 -36v-28q0 -15 -10.5 -23.5t-29.5 -3.5q-43 12 -100 12zM247 79q77 0 77 54q0 51 -71 51q-68 0 -89 -43
q12 -62 83 -62z" />
    <glyph glyph-name="uni2087" unicode="&#x2087;" horiz-adv-x="403" 
d="M168 0h-47q-20 0 -27.5 17t4.5 35l162 263l-201 -2q-37 0 -37 36v24q0 36 37 36h285q36 0 36 -36v-12q0 -19 -13 -44l-148 -283q-18 -34 -51 -34z" />
    <glyph glyph-name="uni2088" unicode="&#x2088;" horiz-adv-x="435" 
d="M218 81q71 0 71 47q0 46 -71 46q-73 0 -73 -46q0 -47 73 -47zM218 254q62 0 62 37q0 39 -62 39q-63 0 -63 -39q0 -37 63 -37zM218 -12q-183 0 -183 130q0 34 17 63.5t46 41.5q-20 7 -33 28.5t-13 50.5q0 119 166 119q164 0 164 -119q0 -29 -13 -50.5t-33 -28.5
q29 -12 46.5 -41t17.5 -64q0 -130 -182 -130z" />
    <glyph glyph-name="uni2089" unicode="&#x2089;" horiz-adv-x="470" 
d="M204 81q118 0 123 97q-35 -40 -119 -40q-165 0 -165 137q0 146 191 146q101 0 150 -53t49 -162q0 -111 -55.5 -164.5t-170.5 -53.5q-69 0 -123 15q-26 7 -26 35v28q0 15 10 23.5t28 3.5q46 -12 108 -12zM231 330q-78 0 -78 -54q0 -51 71 -51q68 0 90 43q-12 62 -83 62z
" />
    <glyph glyph-name="uni208A" unicode="&#x208a;" horiz-adv-x="405" 
d="M185 364h34q37 0 37 -38v-68h67q38 0 38 -37v-33q0 -37 -38 -37h-67v-68q0 -38 -37 -38h-34q-38 0 -38 38v68h-68q-37 0 -37 37v33q0 37 37 37h68v68q0 38 38 38z" />
    <glyph glyph-name="uni208B" unicode="&#x208b;" horiz-adv-x="405" 
d="M361 221v-33q0 -37 -38 -37h-244q-37 0 -37 37v33q0 37 37 37h244q38 0 38 -37z" />
    <glyph glyph-name="uni208C" unicode="&#x208c;" horiz-adv-x="405" 
d="M361 292v-33q0 -37 -38 -37h-244q-37 0 -37 37v33q0 37 37 37h244q38 0 38 -37zM361 150v-33q0 -37 -38 -37h-244q-37 0 -37 37v33q0 37 37 37h244q38 0 38 -37z" />
    <glyph glyph-name="uni208D" unicode="&#x208d;" horiz-adv-x="214" 
d="M32 205q0 110 46 200q14 25 36 25h45q15 0 24 -11.5t1 -27.5q-45 -99 -45 -186t45 -186q8 -16 -1 -27.5t-24 -11.5h-45q-22 0 -36 25q-46 90 -46 200z" />
    <glyph glyph-name="uni208E" unicode="&#x208e;" horiz-adv-x="214" 
d="M181 205q0 -110 -46 -200q-14 -25 -36 -25h-45q-15 0 -24 11.5t-1 27.5q45 99 45 186t-45 186q-8 16 1 27.5t24 11.5h45q22 0 36 -25q46 -90 46 -200z" />
    <glyph glyph-name="Euro" unicode="&#x20ac;" 
d="M399 89q58 0 108 13q21 5 34 -4t13 -26v-26q0 -31 -30 -41q-56 -17 -133 -17q-130 0 -198.5 64.5t-88.5 197.5h-34q-37 0 -37 36v21q0 37 37 37h26v62h-26q-37 0 -37 36v21q0 37 37 37h34q20 133 88.5 197.5t198.5 64.5q77 0 133 -17q30 -10 30 -41v-26q0 -17 -13 -26
t-34 -4q-50 13 -108 13q-78 0 -120.5 -39.5t-58.5 -121.5h230q16 0 22.5 -11.5t0.5 -26.5l-8 -26q-11 -30 -43 -30h-213v-62h187q17 0 23 -11t1 -27l-8 -26q-10 -30 -43 -30h-149q16 -82 58.5 -121.5t120.5 -39.5z" />
    <glyph glyph-name="afii61289" unicode="&#x2113;" horiz-adv-x="347" 
d="M165 543v-142q31 38 52.5 98.5t21.5 124.5q0 24 -6 34.5t-23 10.5q-45 0 -45 -126zM229 -12q-176 0 -176 156v46l-19 -12q-8 -5 -17 -0.5t-9 16.5v40q0 26 21 42l24 18v221q0 247 156 247q117 0 117 -145q0 -182 -161 -345v-115q0 -74 82 -74q7 0 16 1q30 4 30 -23v-38
q0 -25 -30 -32q-14 -3 -34 -3z" />
    <glyph glyph-name="afii61352" unicode="&#x2116;" horiz-adv-x="1091" 
d="M1050 564q0 -198 -184 -198q-93 0 -137 48.5t-44 149.5q0 100 44 149t137 49q184 0 184 -198zM788 564q0 -60 18 -83.5t60 -23.5q43 0 62.5 24t19.5 83t-19.5 83t-62.5 24q-42 0 -60 -23.5t-18 -83.5zM170 532l2 -488q0 -44 -42 -44h-26q-43 0 -43 44v662q0 44 43 44h33
q27 0 40 -22l312 -510l-3 488q0 44 43 44h26q42 0 42 -44v-662q0 -44 -42 -44h-33q-27 0 -40 22z" />
    <glyph glyph-name="published" unicode="&#x2117;" horiz-adv-x="792" 
d="M461 365q0 14 -9 25.5t-24 11.5h-63v-74h63q33 0 33 37zM395 -12q-148 0 -241 78.5t-93 245.5q0 86 26.5 150.5t73.5 101.5t105 55t129 18t130 -18t106 -55t73.5 -101.5t26.5 -150.5t-26.5 -150t-73.5 -101t-106 -55t-130 -18zM397 64q113 0 184 60.5t71 187.5
q0 128 -71 188.5t-184 60.5q-114 0 -185.5 -60.5t-71.5 -188.5q0 -127 71.5 -187.5t185.5 -60.5zM306 484h128q63 0 92.5 -32.5t29.5 -85.5q0 -52 -29.5 -85t-92.5 -33h-69v-74q0 -32 -32 -32h-27q-33 0 -33 32v278q0 32 33 32z" />
    <glyph glyph-name="servicemark" unicode="&#x2120;" horiz-adv-x="580" 
d="M406 516h-14q-19 0 -28 19l-47 112l3 -120q0 -27 -26 -27h-10q-26 0 -26 27v196q0 27 26 27h31q21 0 30 -22l54 -131l54 131q9 22 30 22h31q26 0 26 -27v-196q0 -27 -26 -27h-10q-26 0 -26 27l3 120l-47 -112q-9 -19 -28 -19zM112 548q52 0 52 25q0 14 -10.5 19.5
t-38.5 7.5q-55 4 -75.5 20.5t-20.5 54.5q0 82 110 82q33 0 63 -7q21 -6 21 -27v-10q0 -11 -8 -16.5t-19 -2.5q-34 8 -63 8q-47 0 -47 -25q0 -13 11 -17.5t40 -6.5q57 -5 75.5 -22t18.5 -57q0 -81 -111 -81q-33 0 -67 8q-21 4 -21 26v10q0 11 8.5 16.5t20.5 2.5q27 -8 61 -8z
" />
    <glyph glyph-name="trademark" unicode="&#x2122;" horiz-adv-x="575" 
d="M401 516h-14q-19 0 -28 19l-47 112l3 -120q0 -27 -26 -27h-10q-26 0 -26 27v196q0 27 26 27h31q21 0 30 -22l54 -131l54 131q9 22 30 22h31q26 0 26 -27v-196q0 -27 -26 -27h-10q-26 0 -26 27l3 120l-47 -112q-9 -19 -28 -19zM80 690h-43q-26 0 -26 26v9q0 25 26 25h153
q26 0 26 -25v-9q0 -26 -26 -26h-43v-163q0 -27 -26 -27h-15q-26 0 -26 27v163z" />
    <glyph glyph-name="estimated" unicode="&#x212e;" horiz-adv-x="790" 
d="M395 666q-102 0 -159 -56v-188h318v188q-57 56 -159 56zM711 327h-475v-188q57 -56 159 -56q61 0 108.5 22.5t66.5 57.5q15 25 44 25h63q19 0 26.5 -15t-3.5 -35q-30 -56 -107 -103t-198 -47q-91 0 -161 32.5t-111 88t-61 123t-20 143.5t20 143.5t61 123t111 88t161 32.5
q92 0 162 -32.5t110.5 -88t60.5 -123t20 -143.5v-10q0 -38 -37 -38z" />
    <glyph glyph-name="arrowleft" unicode="&#x2190;" horiz-adv-x="830" 
d="M32 373v4q0 16 15 31l326 326q16 16 41 16h78q13 0 20.5 -7t7.5 -18q0 -13 -14 -27l-285 -268h525q49 0 49 -49v-12q0 -49 -49 -49h-525l285 -268q14 -14 14 -27q0 -11 -7.5 -18t-20.5 -7h-78q-25 0 -41 16l-326 326q-15 15 -15 31z" />
    <glyph glyph-name="arrowup" unicode="&#x2191;" horiz-adv-x="830" 
d="M411 763h4q16 0 31 -15l326 -326q16 -16 16 -41v-78q0 -13 -7 -20.5t-18 -7.5q-13 0 -27 14l-268 285v-525q0 -49 -49 -49h-12q-49 0 -49 49v525l-268 -285q-14 -14 -27 -14q-11 0 -18 7.5t-7 20.5v78q0 25 16 41l326 326q15 15 31 15z" />
    <glyph glyph-name="arrowright" unicode="&#x2192;" horiz-adv-x="830" 
d="M800 377v-4q0 -16 -15 -31l-326 -326q-16 -16 -41 -16h-78q-13 0 -20.5 7t-7.5 18q0 13 14 27l285 268h-525q-49 0 -49 49v12q0 49 49 49h525l-285 268q-14 14 -14 27q0 11 7.5 18t20.5 7h78q25 0 41 -16l326 -326q15 -15 15 -31z" />
    <glyph glyph-name="arrowdown" unicode="&#x2193;" horiz-adv-x="830" 
d="M415 -13h-4q-16 0 -31 15l-326 326q-16 16 -16 41v78q0 13 7 20.5t18 7.5q13 0 27 -14l268 -285v525q0 49 49 49h12q49 0 49 -49v-525l268 285q14 14 27 14q11 0 18 -7.5t7 -20.5v-78q0 -25 -16 -41l-326 -326q-15 -15 -31 -15z" />
    <glyph glyph-name="uni2196" unicode="&#x2196;" horiz-adv-x="830" 
d="M769 25l-8 -8q-36 -36 -70 0l-550 551l2 -391q0 -22 -16.5 -28.5t-32.5 9.5l-42 43q-17 17 -17 40v462q0 22 11 33l5 3q11 11 33 11h462q23 0 40 -17l43 -42q16 -16 9.5 -32.5t-28.5 -16.5l-391 2l550 -549q35 -33 0 -70z" />
    <glyph glyph-name="uni2197" unicode="&#x2197;" horiz-adv-x="830" 
d="M69 17l-8 8q-35 37 0 70l550 549l-391 -2q-22 0 -28.5 16.5t9.5 32.5l43 42q17 17 40 17h462q22 0 33 -11l5 -3q11 -11 11 -33v-462q0 -23 -17 -40l-42 -43q-16 -16 -32.5 -9.5t-16.5 28.5l2 391l-550 -551q-34 -36 -70 0z" />
    <glyph glyph-name="uni2198" unicode="&#x2198;" horiz-adv-x="830" 
d="M61 725l8 8q36 36 70 0l550 -551l-2 391q0 22 16.5 28.5t32.5 -9.5l42 -43q17 -17 17 -40v-462q0 -22 -11 -33l-5 -3q-11 -11 -33 -11h-462q-23 0 -40 17l-43 42q-16 16 -9.5 32.5t28.5 16.5l391 -2l-550 549q-35 33 0 70z" />
    <glyph glyph-name="uni2199" unicode="&#x2199;" horiz-adv-x="830" 
d="M761 733l8 -8q35 -37 0 -70l-550 -549l391 2q22 0 28.5 -16.5t-9.5 -32.5l-43 -42q-17 -17 -40 -17h-462q-22 0 -33 11l-5 3q-11 11 -11 33v462q0 23 17 40l42 43q16 16 32.5 9.5t16.5 -28.5l-2 -391l550 551q34 36 70 0z" />
    <glyph glyph-name="partialdiff" unicode="&#x2202;" horiz-adv-x="526" 
d="M218 658q-65 0 -120 -17q-19 -6 -30 2.5t-11 24.5v38q0 28 27 36q64 20 140 20q65 0 111 -22t75 -61.5t46 -105.5t23 -141.5t6 -181.5q0 -62 -9.5 -106.5t-33.5 -81.5t-68.5 -55.5t-110.5 -18.5q-126 0 -174 67.5t-48 194.5q0 126 46.5 194t162.5 68q79 0 121 -36
q-16 182 -153 182zM263 418q-67 0 -88 -39.5t-21 -128.5t21 -128.5t88 -39.5q66 0 87.5 39.5t21.5 128.5t-21.5 128.5t-87.5 39.5z" />
    <glyph glyph-name="increment" unicode="&#x2206;" horiz-adv-x="760" 
d="M401 762q35 0 51 -35l282 -626q11 -24 11 -42v-23q0 -36 -36 -36h-658q-36 0 -36 36v23q0 18 11 42l282 626q16 35 51 35h42zM380 642l-233 -539h466z" />
    <glyph glyph-name="product" unicode="&#x220f;" horiz-adv-x="740" 
d="M705 713v-24q0 -37 -38 -37h-59v-613q0 -39 -37 -39h-37q-38 0 -38 39v613h-252v-613q0 -39 -37 -39h-37q-38 0 -38 39v613h-59q-38 0 -38 37v24q0 37 38 37h594q38 0 38 -37z" />
    <glyph glyph-name="summation" unicode="&#x2211;" horiz-adv-x="624" 
d="M363 385l-282 257q-23 21 -23 45v25q0 38 38 38h433q43 0 43 -43v-12q0 -43 -43 -43l-316 2l246 -220q25 -22 25 -44v-11q0 -22 -25 -44l-269 -239l362 2q43 0 43 -42v-14q0 -42 -43 -42h-485q-38 0 -38 37v25q0 25 23 45z" />
    <glyph glyph-name="minus" unicode="&#x2212;" 
d="M484 393q40 0 40 -38v-30q0 -38 -40 -38h-368q-40 0 -40 38v30q0 38 40 38h368z" />
    <glyph glyph-name="radical" unicode="&#x221a;" horiz-adv-x="781" 
d="M126 405h-70q-36 0 -36 34v25q0 35 36 36h119q41 0 47 -36l68 -355l351 610q18 31 50 31h40q21 0 29 -17.5t-4 -38.5l-398 -672q-20 -34 -50 -34h-59q-36 0 -43 38z" />
    <glyph glyph-name="infinity" unicode="&#x221e;" horiz-adv-x="800" 
d="M343 357q-55 71 -120 75q-76 2 -76 -75t76 -75q65 4 120 75zM400 279q-78 -90 -183 -90q-82 0 -129 43t-47 125t47 125t129 43q104 0 183 -91q79 91 183 91q82 0 129 -43t47 -125t-47 -125t-129 -43q-105 0 -183 90zM457 357q55 -71 120 -75q76 -2 76 75t-76 75
q-65 -4 -120 -75z" />
    <glyph glyph-name="integral" unicode="&#x222b;" horiz-adv-x="341" 
d="M177 589v-679q0 -83 -52 -126.5t-131 -43.5q-46 0 -46 36v36q0 36 38 36q37 0 58 20.5t21 60.5v670q0 163 194 163q34 0 54 -5q28 -7 28 -37v-38q0 -13 -10 -19.5t-26 -2.5q-20 5 -38 5q-90 0 -90 -76z" />
    <glyph glyph-name="approxequal" unicode="&#x2248;" 
d="M418 337q-44 0 -87.5 18.5t-80 36.5t-62.5 18q-24 0 -50 -13t-36 -13q-12 0 -19 7t-7 17v47q0 28 26 40q37 17 80 17q44 0 87.5 -18t80 -36.5t62.5 -18.5q24 0 50 13t36 13q12 0 19 -7t7 -17v-47q0 -28 -26 -40q-37 -17 -80 -17zM418 169q-44 0 -87.5 18.5t-80 36.5
t-62.5 18q-24 0 -50 -13t-36 -13q-12 0 -19 7t-7 17v47q0 28 26 40q37 17 80 17q44 0 87.5 -18t80 -36.5t62.5 -18.5q24 0 50 13t36 13q12 0 19 -7t7 -17v-47q0 -28 -26 -40q-37 -17 -80 -17z" />
    <glyph glyph-name="notequal" unicode="&#x2260;" 
d="M277 199l-39 -97q-12 -32 -44 -32h-26q-17 0 -24.5 14t1.5 30l44 85h-73q-40 0 -40 38v30q0 38 40 38h368q40 0 40 -38v-30q0 -38 -40 -38h-207zM323 481l39 97q12 32 44 32h26q17 0 24.5 -14t-1.5 -30l-44 -85h73q40 0 40 -38v-30q0 -38 -40 -38h-368q-40 0 -40 38v30
q0 38 40 38h207z" />
    <glyph glyph-name="lessequal" unicode="&#x2264;" 
d="M76 399v11q0 33 27 42l378 150q18 7 30.5 -2.5t12.5 -24.5v-50q0 -30 -23 -37l-261 -90l253 -87q31 -10 31 -44v-21q0 -15 -11.5 -23.5t-28.5 -2.5l-381 137q-17 7 -22 16t-5 26zM116 310l377 -136q31 -12 31 -44v-19q0 -15 -11.5 -23.5t-28.5 -2.5l-377 136
q-31 10 -31 44v19q0 15 11.5 23.5t28.5 2.5z" />
    <glyph glyph-name="greaterequal" unicode="&#x2265;" 
d="M524 410v-11q0 -17 -5 -26t-22 -16l-381 -137q-17 -6 -28.5 2.5t-11.5 23.5v21q0 34 31 44l253 87l-261 90q-23 7 -23 37v50q0 15 12.5 24.5t30.5 2.5l378 -150q27 -9 27 -42zM107 174l377 136q17 6 28.5 -2.5t11.5 -23.5v-19q0 -34 -31 -44l-377 -136q-17 -6 -28.5 2.5
t-11.5 23.5v19q0 32 31 44z" />
    <glyph glyph-name="squaremultiply" unicode="&#x22a0;" horiz-adv-x="894" 
d="M822 711v-673q0 -38 -37 -38h-675q-38 0 -38 38v673q0 39 38 39h675q37 0 37 -39zM239 244l131 131l-131 131q-29 27 -1 53l25 25q26 28 53 -1l131 -131l131 131q27 28 54 1l25 -25q26 -26 -1 -53l-132 -131l132 -131q27 -27 1 -53l-25 -25q-27 -27 -54 1l-131 131
l-131 -131q-27 -29 -53 -1l-25 25q-28 26 1 53zM185 637v-524h524v524h-524z" />
    <glyph glyph-name="blacksquare" unicode="&#x25a0;" horiz-adv-x="894" 
d="M822 711v-673q0 -38 -37 -38h-675q-38 0 -38 38v673q0 39 38 39h675q37 0 37 -39z" />
    <glyph glyph-name="whitesquare" unicode="&#x25a1;" horiz-adv-x="894" 
d="M822 711v-673q0 -38 -37 -38h-675q-38 0 -38 38v673q0 39 38 39h675q37 0 37 -39zM185 637v-524h524v524h-524z" />
    <glyph glyph-name="blacksmallsquare" unicode="&#x25aa;" horiz-adv-x="644" 
d="M572 461v-423q0 -38 -37 -38h-425q-38 0 -38 38v423q0 39 38 39h425q37 0 37 -39z" />
    <glyph glyph-name="whitesmallsquare" unicode="&#x25ab;" horiz-adv-x="644" 
d="M572 461v-423q0 -38 -37 -38h-425q-38 0 -38 38v423q0 39 38 39h425q37 0 37 -39zM182 390v-280h280v280h-280z" />
    <glyph glyph-name="triagup" unicode="&#x25b2;" horiz-adv-x="872" 
d="M9 61l393 679q10 20 34 20q22 0 34 -20l393 -679q7 -10 7 -22q0 -16 -11.5 -27.5t-27.5 -11.5h-789q-16 0 -27.5 11.5t-11.5 27.5q0 10 6 22z" />
    <glyph glyph-name="triagrt" unicode="&#x25ba;" horiz-adv-x="742" 
d="M692 341l-587 -341q-14 -6 -22 -6q-16 0 -27.5 11.5t-11.5 27.5v684q0 16 11.5 27.5t27.5 11.5q8 0 22 -6l587 -341q20 -12 20 -34q0 -24 -20 -34z" />
    <glyph glyph-name="triagdn" unicode="&#x25bc;" horiz-adv-x="872" 
d="M863 689l-393 -679q-10 -20 -34 -20q-22 0 -34 20l-393 679q-6 12 -6 22q0 16 11.5 27.5t27.5 11.5h789q16 0 27.5 -11.5t11.5 -27.5q0 -11 -7 -22z" />
    <glyph glyph-name="triaglf" unicode="&#x25c4;" horiz-adv-x="742" 
d="M637 0l-587 341q-20 10 -20 34q0 22 20 34l587 341q14 6 22 6q16 0 27.5 -11.5t11.5 -27.5v-684q0 -16 -11.5 -27.5t-27.5 -11.5q-8 0 -22 6z" />
    <glyph glyph-name="lozenge" unicode="&#x25ca;" horiz-adv-x="690" 
d="M671 375q0 -12 -8 -21l-290 -350q-12 -17 -28 -17t-28 17l-290 350q-8 9 -8 21t8 21l290 350q12 17 28 17t28 -17l290 -350q8 -9 8 -21zM345 630l-210 -255l210 -255l210 255z" />
    <glyph glyph-name="whitecircle" unicode="&#x25cb;" horiz-adv-x="894" 
d="M60 375q0 161 113 274t274 113t274 -113t113 -274t-113 -274t-274 -113t-274 113t-113 274zM733 375q0 119 -83.5 202.5t-202.5 83.5t-202.5 -83.5t-83.5 -202.5t83.5 -202.5t202.5 -83.5t202.5 83.5t83.5 202.5z" />
    <glyph glyph-name="whitecircle" unicode="&#x25ef;" horiz-adv-x="894" 
d="M60 375q0 161 113 274t274 113t274 -113t113 -274t-113 -274t-274 -113t-274 113t-113 274zM733 375q0 119 -83.5 202.5t-202.5 83.5t-202.5 -83.5t-83.5 -202.5t83.5 -202.5t202.5 -83.5t202.5 83.5t83.5 202.5z" />
    <glyph glyph-name="bullseye" unicode="&#x25ce;" horiz-adv-x="850" 
d="M50 678v72h12l297 -206q-5 -6 -6 -10zM502 552l286 198h12v-72l-291 -138zM50 589v66l300 -125l-6 -10zM513 535l287 120v-66l-279 -66q-3 3 -7 11zM100 750h88l180 -191l-6 -10zM330 503l-280 7v59l290 -54q-5 -8 -10 -12zM491 568l171 182h88l-252 -193zM524 517
l276 52v-59l-264 -7zM50 490l267 6q-9 -14 -21 -20l-246 -46v60zM542 496l258 -6v-60l-232 44zM584 461l216 -51v-65l-176 73q-12 20 -40 43zM212 750h60l107 -176l-8 -11zM479 587l99 163h60l-151 -176zM50 345v65l214 51q-10 -4 -32 -11t-37.5 -13.5t-28.5 -14.5
q-38 -24 -68 -57zM290 750h47l56 -160l-10 -11zM631 401l169 -80v-21q-60 13 -110.5 38.5t-56.5 55.5q-2 4 -2 7zM464 609l49 141h47l-85 -157zM351 750h41l18 -145l-13 -11zM441 622l17 128h41l-40 -133l-6 9q-8 -2 -12 -4zM416 610l-11 140h39l-11 -131q-3 -1 -9 -4.5
t-8 -4.5zM71 331q-20 -20 -21 -28v18z" />
    <glyph glyph-name="blackcircle" unicode="&#x25cf;" horiz-adv-x="894" 
d="M60 375q0 161 113 274t274 113t274 -113t113 -274t-113 -274t-274 -113t-274 113t-113 274z" />
    <glyph glyph-name="uni25E2" unicode="&#x25e2;" horiz-adv-x="880" 
d="M635 731l185 -686q7 -29 -9 -45t-43 -8l-688 184q-21 5 -27 27t11 39l505 506q17 15 39 9.5t27 -26.5z" />
    <glyph glyph-name="uni25E3" unicode="&#x25e3;" horiz-adv-x="880" 
d="M52 45l184 686q6 21 28 26.5t39 -9.5l505 -506q16 -17 10.5 -39t-27.5 -27l-687 -184q-29 -8 -43 8q-16 16 -9 45z" />
    <glyph glyph-name="uni25E4" unicode="&#x25e4;" horiz-adv-x="880" 
d="M237 19l-184 686q-9 28 8 45q16 16 44 8l687 -184q22 -5 27.5 -27t-10.5 -39l-506 -506q-17 -15 -39 -9.5t-27 26.5z" />
    <glyph glyph-name="uni25E5" unicode="&#x25e5;" horiz-adv-x="880" 
d="M820 705l-185 -686q-5 -21 -27 -26.5t-39 9.5l-505 506q-17 17 -11 39t27 27l688 184q27 8 43 -8t9 -45z" />
    <glyph glyph-name="uni2605" unicode="&#x2605;" horiz-adv-x="864" 
d="M335 466l70 282q6 22 27 22t27 -22l70 -282l291 21q24 2 30 -18q7 -20 -14 -33l-249 -151l110 -267q10 -23 -7 -35t-35 3l-223 187l-223 -187q-18 -15 -35 -3t-7 35l110 267l-249 151q-21 13 -14 33q6 20 30 18z" />
    <glyph glyph-name="ballotboxwithx" unicode="&#x2612;" horiz-adv-x="644" 
d="M572 461v-423q0 -38 -37 -38h-425q-38 0 -38 38v423q0 39 38 39h425q37 0 37 -39zM182 390v-280h280v280h-280zM400 250l26 -26q28 -26 0 -53l-25 -25q-26 -28 -53 1l-26 26l-26 -26q-27 -29 -53 -1l-25 25q-28 27 0 53l26 26l-26 26q-28 26 0 53l25 25q26 28 53 -1
l26 -26l26 26q27 29 53 1l25 -25q28 -27 0 -53z" />
    <glyph glyph-name="uni263C" unicode="&#x263c;" horiz-adv-x="944" 
d="M472 -30q-22 0 -27 25l-14 81l-35 -73q-11 -23 -33 -17t-19 31l7 82l-53 -63q-16 -20 -36 -9q-18 11 -10 36l28 77l-66 -45q-21 -16 -38 1q-15 15 0 37l46 65l-75 -27q-25 -8 -36 10q-11 20 8 36l62 53l-79 -7q-26 -2 -32 20q-5 22 18 33l71 33l-81 14q-22 4 -24 27
q2 23 24 27l81 14l-71 33q-23 11 -18 33q6 22 32 20l79 -7l-62 53q-19 16 -8 36q11 18 36 10l75 -27l-46 65q-15 22 0 37q17 17 38 1l66 -45l-28 77q-8 25 10 36q20 11 36 -9l53 -63l-7 82q-3 25 19 31t33 -17l35 -73l14 81q5 25 27 25t27 -25l14 -81l35 73q11 23 33 17
t19 -31l-7 -82l53 63q16 20 36 9q18 -11 10 -36l-28 -77l66 45q21 16 38 -1q15 -15 0 -37l-46 -65l75 27q25 8 36 -10q11 -20 -8 -36l-62 -53l79 7q26 2 32 -20q5 -22 -18 -33l-71 -33l81 -14q22 -4 24 -27q-2 -23 -24 -27l-81 -14l71 -33q23 -11 18 -33q-6 -22 -32 -20
l-79 7l62 -53q19 -16 8 -36q-11 -18 -36 -10l-75 27l46 -65q15 -22 0 -37q-17 -17 -38 -1l-66 45l28 -77q8 -25 -10 -36q-20 -11 -36 9l-53 63l7 -82q3 -25 -19 -31t-33 17l-35 73l-14 -81q-5 -25 -27 -25z" />
    <glyph glyph-name="uni263E" unicode="&#x263e;" horiz-adv-x="864" 
d="M47 375q0 160 114 272.5t279 112.5q137 0 230 -64q14 -10 14 -24q0 -11 -8 -18.5t-19 -7.5q-4 0 -13 3q-43 15 -84 15q-134 0 -217.5 -75.5t-83.5 -213.5t83.5 -213.5t217.5 -75.5q41 0 84 15q9 3 13 3q11 0 19 -7.5t8 -18.5q0 -14 -14 -24q-93 -64 -230 -64
q-165 0 -279 112.5t-114 272.5z" />
    <glyph glyph-name="spade" unicode="&#x2660;" horiz-adv-x="864" 
d="M48 321q0 68 41.5 117.5t116.5 99.5q57 37 104 87t73 101q17 34 49 34t49 -34q26 -51 73 -101t104 -87q75 -50 116.5 -99.5t41.5 -117.5q0 -71 -49.5 -119.5t-120.5 -48.5q-67 0 -116 44t-76 111l-3 -1q7 -93 23.5 -150t55.5 -110q12 -17 5 -32t-25 -15h-156
q-18 0 -25 15t5 32q39 53 55.5 110t23.5 150l-3 1q-27 -67 -76 -111t-116 -44q-71 0 -120.5 48.5t-49.5 119.5z" />
    <glyph glyph-name="club" unicode="&#x2663;" horiz-adv-x="864" 
d="M454 308l-3 -1q7 -93 23.5 -150t55.5 -110q12 -17 5 -32t-25 -15h-156q-18 0 -25 15t5 32q39 53 55.5 110t23.5 150l-3 1q-27 -67 -76 -111t-116 -44q-71 0 -120.5 48.5t-49.5 119.5q0 76 47 124.5t121 48.5q41 0 81 -22l2 2q-37 56 -37 113q0 72 48.5 122.5t121.5 50.5
t121.5 -50.5t48.5 -122.5q0 -57 -37 -113l2 -2q40 22 81 22q74 0 121 -48.5t47 -124.5q0 -71 -49.5 -119.5t-120.5 -48.5q-67 0 -116 44t-76 111z" />
    <glyph glyph-name="heart" unicode="&#x2665;" horiz-adv-x="864" 
d="M432 -10q-33 0 -49 32q-64 124 -176 251q-43 49 -72.5 87.5t-57.5 96.5t-28 105q0 87 50 143t134 56q82 0 127.5 -40.5t69.5 -110.5h4q24 70 69.5 110.5t127.5 40.5q84 0 134 -56t50 -143q0 -47 -28 -105t-57.5 -96.5t-72.5 -87.5q-112 -127 -176 -251q-16 -32 -49 -32z
" />
    <glyph glyph-name="diamond" unicode="&#x2666;" horiz-adv-x="864" 
d="M432 -10q-32 0 -49 33q-90 173 -279 307q-25 18 -25 45t25 45q189 134 279 307q17 33 49 33t49 -33q90 -173 279 -307q25 -18 25 -45t-25 -45q-189 -134 -279 -307q-17 -33 -49 -33z" />
    <glyph glyph-name="musicflatsign" unicode="&#x266d;" horiz-adv-x="477" 
d="M50 -15v790q0 36 35 36h6q35 0 35 -36v-311q21 32 63.5 52t90.5 20q164 0 164 -189q0 -124 -102 -227.5t-246 -158.5q-15 -5 -20 -5q-26 0 -26 29zM126 332v-264q36 16 72 39.5t73.5 58t61 81.5t23.5 98q0 47 -23 76t-73 29t-88.5 -36.5t-45.5 -81.5z" />
    <glyph glyph-name="musicsharpsign" unicode="&#x266f;" horiz-adv-x="465" 
d="M284 225l-103 -82v-207q0 -36 -36 -36h-4q-36 0 -36 36v146l-23 -19q-21 -18 -37 -18q-9 0 -16 8t-7 21v37q0 25 19 41l64 51v153l-23 -19q-21 -18 -37 -18q-9 0 -16 8t-7 21v37q0 25 19 41l64 51v251q0 36 36 36h4q36 0 36 -36v-189l103 82v207q0 36 36 36h4
q36 0 36 -36v-146l23 19q21 18 37 18q9 0 16 -8t7 -21v-37q0 -25 -19 -41l-64 -51v-153l23 19q21 18 37 18q9 0 16 -8t7 -21v-37q0 -25 -19 -41l-64 -51v-251q0 -36 -36 -36h-4q-36 0 -36 36v189zM181 417v-153l103 83v153z" />
    <glyph glyph-name="uni267B" unicode="&#x267b;" horiz-adv-x="864" 
d="M585 244v-37h120q25 0 47.5 12.5t33.5 24.5l10 13l1 -2l-92 -160q-9 -16 -17.5 -26t-26 -19t-41.5 -9h-35v-37q0 -8 -6 -14t-14 -6t-16 8l-97 117q-7 7 -7 16q0 7 7 16l95 113q8 10 18 10q8 0 14 -6t6 -14zM709 232l-84 147q-26 46 18 72l53 30q46 27 73 -21l38 -65
q10 -16 10 -42q1 -46 -36.5 -83.5t-71.5 -37.5zM242 309l-32 18l-60 -104q-13 -22 -14 -48t4 -41l6 -15h-2l-92 161q-15 26 -17 44.5t14 54.5l17 31l-32 19q-17 10 -7 27q4 8 15 10l148 25q12 2 19 -2t10 -14l51 -139q4 -10 -1 -20q-4 -7 -12 -9.5t-15 2.5zM173 207h170
q53 0 53 -51v-62q0 -53 -55 -53h-75q-19 0 -42 13q-41 23 -55 75.5t4 77.5zM471 572l32 18l-60 104q-13 22 -35 36t-38 16l-15 3v1h186q31 0 51 -8t37 -37l18 -31l31 18q17 10 28 -7q5 -9 1 -18l-53 -143q-4 -10 -10 -14q-7 -4 -18 -2l-145 26q-13 2 -18 11q-9 17 8 27z
M415 686l-85 -147q-27 -45 -72 -20l-54 31q-47 26 -18 73l38 67q10 17 34 30q46 22 93 9t64 -43z" />
    <glyph glyph-name="uni267C" unicode="&#x267c;" horiz-adv-x="864" 
d="M359 514l60 104q-12 23 -50.5 33t-72.5 -7q-18 -11 -25 -23l-24 -42q-26 -47 19 -73l21 -12q46 -26 72 20zM47 375q0 160 112.5 272.5t272.5 112.5t272.5 -112.5t112.5 -272.5t-112.5 -272.5t-272.5 -112.5t-272.5 112.5t-112.5 272.5zM588 369l60 -104q26 -1 55 28.5
t29 65.5q0 21 -8 33l-24 42q-27 47 -73 20l-21 -12q-45 -28 -18 -73zM440 181q0 -9 7 -16l74 -87q8 -8 16 -8t14 6t6 14v26h22q18 0 31.5 6.5t19.5 14t14 21.5l73 125l-1 1q-3 -4 -8.5 -10.5t-24.5 -17.5t-39 -11h-87v27q0 8 -6 14t-14 6q-10 0 -18 -10l-72 -85
q-7 -9 -7 -16zM347 245h-119q-15 -19 -4 -59t43 -60q16 -10 33 -10h47q54 0 54 53v24q-2 52 -54 52zM260 467q-7 4 -18 2l-112 -21q-10 -2 -15 -10q-9 -16 7 -27l23 -13l-11 -19q-13 -29 -11.5 -42t14.5 -35l72 -126h1q-19 43 3 82l44 76l23 -14q18 -9 27 7q5 8 1 21
l-38 105q-3 10 -10 14zM596 480q8 6 10 14l38 108q4 10 -1 18q-9 16 -27 7l-23 -13l-11 19q-13 23 -28 29t-41 6h-144l-1 -1q47 -4 69 -42l44 -76l-23 -13q-16 -11 -7 -27q5 -9 18 -11l109 -20q11 -2 18 2z" />
    <glyph glyph-name="uni267D" unicode="&#x267d;" horiz-adv-x="864" 
d="M797 375q0 151 -107 258t-258 107t-258 -107t-107 -258t107 -258t258 -107t258 107t107 258zM47 375q0 160 112.5 272.5t272.5 112.5t272.5 -112.5t112.5 -272.5t-112.5 -272.5t-272.5 -112.5t-272.5 112.5t-112.5 272.5zM419 618l-60 -104q-26 -46 -72 -20l-21 12
q-45 26 -19 73l24 42q7 12 25 23q34 17 72.5 7t50.5 -33zM648 265l-60 104q-27 45 18 73l21 12q46 27 73 -20l24 -42q8 -12 8 -33q0 -36 -29 -65.5t-55 -28.5zM440 181q0 7 7 16l72 85q8 10 18 10q8 0 14 -6t6 -14v-27h87q20 0 38 9.5t26 19.5l8 10l1 -1l-73 -125
q-8 -14 -14 -21.5t-19.5 -14t-31.5 -6.5h-22v-26q0 -8 -6 -14t-14 -6t-16 8l-74 87q-7 7 -7 16zM228 245h119q52 0 54 -52v-24q0 -53 -54 -53h-47q-17 0 -33 10q-32 20 -43 60t4 59zM260 467q7 -4 10 -14l38 -105q4 -13 -1 -21q-9 -16 -27 -7l-23 14l-44 -76
q-10 -17 -10.5 -37.5t3.5 -32.5l4 -12h-1l-72 126q-13 22 -14.5 35t11.5 42l11 19l-23 13q-16 11 -7 27q5 8 15 10l112 21q11 2 18 -2zM596 480q-7 -4 -18 -2l-109 20q-13 2 -18 11q-9 16 7 27l23 13l-44 76q-10 17 -27 27.5t-30 12.5l-12 2l1 1h144q17 0 26.5 -1.5
t21.5 -9.5t21 -24l11 -19l23 13q18 9 27 -7q5 -8 1 -18l-38 -108q-2 -8 -10 -14z" />
    <glyph glyph-name="mediumwhitecircle" unicode="&#x26aa;" horiz-adv-x="630" 
d="M53 250q0 109 76.5 185.5t185.5 76.5t185.5 -76.5t76.5 -185.5t-76.5 -185.5t-185.5 -76.5t-185.5 76.5t-76.5 185.5zM471 250q0 66 -45.5 113t-110.5 47t-110.5 -47t-45.5 -113t45.5 -113t110.5 -47t110.5 47t45.5 113z" />
    <glyph glyph-name="mediumblackcircle" unicode="&#x26ab;" horiz-adv-x="630" 
d="M53 250q0 109 76.5 185.5t185.5 76.5t185.5 -76.5t76.5 -185.5t-76.5 -185.5t-185.5 -76.5t-185.5 76.5t-76.5 185.5z" />
    <glyph glyph-name="anglebracketleft" unicode="&#x3008;" horiz-adv-x="318" 
d="M40 305q0 6 2 16l123 459q6 21 16.5 28.5t30.5 7.5h29q22 0 31 -13.5t3 -35.5l-121 -462l121 -462q6 -22 -3 -35.5t-31 -13.5h-29q-20 0 -30.5 7.5t-16.5 28.5l-123 459q-2 10 -2 16z" />
    <glyph glyph-name="anglebracketright" unicode="&#x3009;" horiz-adv-x="318" 
d="M278 305q0 -6 -2 -16l-123 -459q-6 -21 -16.5 -28.5t-30.5 -7.5h-29q-22 0 -31 13.5t-3 35.5l121 462l-121 462q-6 22 3 35.5t31 13.5h29q20 0 30.5 -7.5t16.5 -28.5l123 -459q2 -10 2 -16z" />
    <glyph glyph-name="aogonek.school" unicode="&#xe150;" horiz-adv-x="542" 
d="M415 -250q-53 0 -88 28.5t-35 80.5q0 102 116 168l-5 13q-71 -52 -162 -52q-106 0 -153 67t-47 195t47 195t153 67q91 0 162 -52l5 11q7 17 14 23t22 6h11q32 0 32 -33v-434q0 -22 -18 -31q-37 -18 -62.5 -51t-25.5 -76q0 -23 15 -37t41 -14q23 0 37 4q29 8 29 -21v-18
q0 -23 -26 -31q-27 -8 -62 -8zM375 388q-53 29 -108 29q-67 0 -90 -43t-23 -124t23 -124t90 -43q55 0 108 29v276z" />
    <glyph glyph-name="a.school" unicode="&#xe151;" horiz-adv-x="542" 
d="M487 33q0 -33 -32 -33h-11q-15 0 -22 6t-14 23l-5 11q-71 -52 -162 -52q-106 0 -153 67t-47 195t47 195t153 67q91 0 162 -52l5 11q7 17 14 23t22 6h11q32 0 32 -33v-434zM375 388q-53 29 -108 29q-67 0 -90 -43t-23 -124t23 -124t90 -43q55 0 108 29v276z" />
    <glyph glyph-name="agrave.school" unicode="&#xe152;" horiz-adv-x="542" 
d="M487 33q0 -33 -32 -33h-11q-15 0 -22 6t-14 23l-5 11q-71 -52 -162 -52q-106 0 -153 67t-47 195t47 195t153 67q91 0 162 -52l5 11q7 17 14 23t22 6h11q32 0 32 -33v-434zM375 388q-53 29 -108 29q-67 0 -90 -43t-23 -124t23 -124t90 -43q55 0 108 29v276zM154 750h63
q35 0 46 -34l41 -133q5 -15 -1.5 -24t-21.5 -9h-34q-27 0 -45 30l-71 124q-11 18 -4 32t27 14z" />
    <glyph glyph-name="aacute.school" unicode="&#xe153;" horiz-adv-x="542" 
d="M487 33q0 -33 -32 -33h-11q-15 0 -22 6t-14 23l-5 11q-71 -52 -162 -52q-106 0 -153 67t-47 195t47 195t153 67q91 0 162 -52l5 11q7 17 14 23t22 6h11q32 0 32 -33v-434zM375 388q-53 29 -108 29q-67 0 -90 -43t-23 -124t23 -124t90 -43q55 0 108 29v276zM310 750h63
q19 0 26 -14t-3 -32l-71 -124q-18 -30 -45 -30h-34q-15 0 -21.5 9t-1.5 24l41 133q11 34 46 34z" />
    <glyph glyph-name="acircumflex.school" unicode="&#xe154;" horiz-adv-x="542" 
d="M487 33q0 -33 -32 -33h-11q-15 0 -22 6t-14 23l-5 11q-71 -52 -162 -52q-106 0 -153 67t-47 195t47 195t153 67q91 0 162 -52l5 11q7 17 14 23t22 6h11q32 0 32 -33v-434zM375 388q-53 29 -108 29q-67 0 -90 -43t-23 -124t23 -124t90 -43q55 0 108 29v276zM349 573
l-85 95l-85 -95q-20 -23 -47 -23h-39q-13 0 -18 12t5 25l109 136q13 17 23 22t27 5h50q17 0 27 -5t23 -22l109 -136q10 -13 5 -25t-18 -12h-39q-27 0 -47 23z" />
    <glyph glyph-name="adieresis.school" unicode="&#xe155;" horiz-adv-x="542" 
d="M487 33q0 -33 -32 -33h-11q-15 0 -22 6t-14 23l-5 11q-71 -52 -162 -52q-106 0 -153 67t-47 195t47 195t153 67q91 0 162 -52l5 11q7 17 14 23t22 6h11q32 0 32 -33v-434zM375 388q-53 29 -108 29q-67 0 -90 -43t-23 -124t23 -124t90 -43q55 0 108 29v276zM85 648
q0 30 21.5 51.5t51.5 21.5t51.5 -21.5t21.5 -51.5t-21.5 -51.5t-51.5 -21.5t-51.5 21.5t-21.5 51.5zM297 648q0 30 21.5 51.5t51.5 21.5t51.5 -21.5t21.5 -51.5t-21.5 -51.5t-51.5 -21.5t-51.5 21.5t-21.5 51.5z" />
    <glyph glyph-name="atilde.school" unicode="&#xe156;" horiz-adv-x="542" 
d="M487 33q0 -33 -32 -33h-11q-15 0 -22 6t-14 23l-5 11q-71 -52 -162 -52q-106 0 -153 67t-47 195t47 195t153 67q91 0 162 -52l5 11q7 17 14 23t22 6h11q32 0 32 -33v-434zM375 388q-53 29 -108 29q-67 0 -90 -43t-23 -124t23 -124t90 -43q55 0 108 29v276zM344 653
q35 0 45 26q11 28 36 28h15q29 0 27 -32q-3 -40 -30.5 -74t-91.5 -34q-30 0 -55 11.5t-39 25.5t-32 25.5t-35 11.5q-35 0 -45 -26q-11 -28 -36 -28h-15q-29 0 -27 32q3 40 30.5 74t91.5 34q30 0 55 -11.5t39 -25.5t32 -25.5t35 -11.5z" />
    <glyph glyph-name="aring.school" unicode="&#xe157;" horiz-adv-x="542" 
d="M487 33q0 -33 -32 -33h-11q-15 0 -22 6t-14 23l-5 11q-71 -52 -162 -52q-106 0 -153 67t-47 195t47 195t153 67q91 0 162 -52l5 11q7 17 14 23t22 6h11q32 0 32 -33v-434zM375 388q-53 29 -108 29q-67 0 -90 -43t-23 -124t23 -124t90 -43q55 0 108 29v276zM369 650
q0 -51 -28.5 -77t-76.5 -26t-76.5 26t-28.5 77t28.5 77t76.5 26t76.5 -26t28.5 -77zM226 650q0 -37 38 -37q39 0 39 37t-39 37q-38 0 -38 -37z" />
    <glyph glyph-name="amacron.school" unicode="&#xe159;" horiz-adv-x="542" 
d="M487 33q0 -33 -32 -33h-11q-15 0 -22 6t-14 23l-5 11q-71 -52 -162 -52q-106 0 -153 67t-47 195t47 195t153 67q91 0 162 -52l5 11q7 17 14 23t22 6h11q32 0 32 -33v-434zM375 388q-53 29 -108 29q-67 0 -90 -43t-23 -124t23 -124t90 -43q55 0 108 29v276zM374 605h-220
q-38 0 -38 37v15q0 37 38 37h220q38 0 38 -37v-15q0 -37 -38 -37z" />
    <glyph glyph-name="abreve.school" unicode="&#xe15a;" horiz-adv-x="542" 
d="M487 33q0 -33 -32 -33h-11q-15 0 -22 6t-14 23l-5 11q-71 -52 -162 -52q-106 0 -153 67t-47 195t47 195t153 67q91 0 162 -52l5 11q7 17 14 23t22 6h11q32 0 32 -33v-434zM375 388q-53 29 -108 29q-67 0 -90 -43t-23 -124t23 -124t90 -43q55 0 108 29v276zM264 639
q54 0 76.5 21t26.5 63q3 27 29 27h27q13 0 20.5 -8t6.5 -21q-5 -83 -47 -127t-139 -44t-139 44t-47 127q-1 13 6.5 21t20.5 8h27q26 0 29 -27q4 -42 26.5 -63t76.5 -21z" />
    <glyph glyph-name="g.school" unicode="&#xe161;" horiz-adv-x="542" 
d="M375 -49v76q-61 -39 -134 -39q-106 0 -153 67t-47 195t47 195t153 67q91 0 162 -52l5 11q7 17 14 23t22 6h11q32 0 32 -33v-502q0 -51 -9 -88t-34 -70.5t-75.5 -51t-125.5 -17.5q-95 0 -156 24q-27 10 -27 38v35q0 16 12.5 24t29.5 1q75 -27 141 -27q77 0 104.5 31
t27.5 87zM267 83q55 0 108 29v276q-53 29 -108 29q-67 0 -90 -43t-23 -124t23 -124t90 -43z" />
    <glyph glyph-name="gcircumflex.school" unicode="&#xe163;" horiz-adv-x="542" 
d="M375 -49v76q-61 -39 -134 -39q-106 0 -153 67t-47 195t47 195t153 67q91 0 162 -52l5 11q7 17 14 23t22 6h11q32 0 32 -33v-502q0 -51 -9 -88t-34 -70.5t-75.5 -51t-125.5 -17.5q-95 0 -156 24q-27 10 -27 38v35q0 16 12.5 24t29.5 1q75 -27 141 -27q77 0 104.5 31
t27.5 87zM267 83q55 0 108 29v276q-53 29 -108 29q-67 0 -90 -43t-23 -124t23 -124t90 -43zM349 573l-85 95l-85 -95q-20 -23 -47 -23h-39q-13 0 -18 12t5 25l109 136q13 17 23 22t27 5h50q17 0 27 -5t23 -22l109 -136q10 -13 5 -25t-18 -12h-39q-27 0 -47 23z" />
    <glyph glyph-name="gbreve.school" unicode="&#xe166;" horiz-adv-x="542" 
d="M375 -49v76q-61 -39 -134 -39q-106 0 -153 67t-47 195t47 195t153 67q91 0 162 -52l5 11q7 17 14 23t22 6h11q32 0 32 -33v-502q0 -51 -9 -88t-34 -70.5t-75.5 -51t-125.5 -17.5q-95 0 -156 24q-27 10 -27 38v35q0 16 12.5 24t29.5 1q75 -27 141 -27q77 0 104.5 31
t27.5 87zM267 83q55 0 108 29v276q-53 29 -108 29q-67 0 -90 -43t-23 -124t23 -124t90 -43zM264 639q54 0 76.5 21t26.5 63q3 27 29 27h27q13 0 20.5 -8t6.5 -21q-5 -83 -47 -127t-139 -44t-139 44t-47 127q-1 13 6.5 21t20.5 8h27q26 0 29 -27q4 -42 26.5 -63t76.5 -21z
" />
    <glyph glyph-name="gdotaccent.school" unicode="&#xe167;" horiz-adv-x="542" 
d="M191 648q0 30 21.5 51.5t51.5 21.5t51.5 -21.5t21.5 -51.5t-21.5 -51.5t-51.5 -21.5t-51.5 21.5t-21.5 51.5zM375 -49v76q-61 -39 -134 -39q-106 0 -153 67t-47 195t47 195t153 67q91 0 162 -52l5 11q7 17 14 23t22 6h11q32 0 32 -33v-502q0 -51 -9 -88t-34 -70.5
t-75.5 -51t-125.5 -17.5q-95 0 -156 24q-27 10 -27 38v35q0 16 12.5 24t29.5 1q75 -27 141 -27q77 0 104.5 31t27.5 87zM267 83q55 0 108 29v276q-53 29 -108 29q-67 0 -90 -43t-23 -124t23 -124t90 -43z" />
    <glyph glyph-name="gcommaaccent.school" unicode="&#xe168;" horiz-adv-x="542" 
d="M375 -49v76q-61 -39 -134 -39q-106 0 -153 67t-47 195t47 195t153 67q91 0 162 -52l5 11q7 17 14 23t22 6h11q32 0 32 -33v-502q0 -51 -9 -88t-34 -70.5t-75.5 -51t-125.5 -17.5q-95 0 -156 24q-27 10 -27 38v35q0 16 12.5 24t29.5 1q75 -27 141 -27q77 0 104.5 31
t27.5 87zM267 83q55 0 108 29v276q-53 29 -108 29q-67 0 -90 -43t-23 -124t23 -124t90 -43zM284 550h-50q-21 0 -30 15t-1 35l44 118q12 32 44 32h31q13 0 20.5 -9t5.5 -24l-18 -126q-6 -41 -46 -41z" />
    <glyph glyph-name="y.school" unicode="&#xe16b;" horiz-adv-x="524" 
d="M469 460v-495q0 -51 -9 -88t-34 -70.5t-75.5 -51t-125.5 -17.5q-77 0 -136 19q-27 9 -27 38v34q0 15 12 23t30 1q56 -20 121 -20q77 0 104.5 31t27.5 87v71q-65 -34 -134 -34q-172 0 -172 159v313q0 40 38 40h36q38 0 38 -40v-303q0 -74 79 -74q63 0 115 29v348
q0 40 38 40h36q38 0 38 -40z" />
    <glyph glyph-name="yacute.school" unicode="&#xe16d;" horiz-adv-x="524" 
d="M469 460v-495q0 -51 -9 -88t-34 -70.5t-75.5 -51t-125.5 -17.5q-77 0 -136 19q-27 9 -27 38v34q0 15 12 23t30 1q56 -20 121 -20q77 0 104.5 31t27.5 87v71q-65 -34 -134 -34q-172 0 -172 159v313q0 40 38 40h36q38 0 38 -40v-303q0 -74 79 -74q63 0 115 29v348
q0 40 38 40h36q38 0 38 -40zM307 750h63q20 0 27 -14t-4 -32l-71 -124q-18 -30 -45 -30h-34q-15 0 -21.5 9t-1.5 24l41 133q11 34 46 34z" />
    <glyph glyph-name="ycircumflex.school" unicode="&#xe16e;" horiz-adv-x="524" 
d="M469 460v-495q0 -51 -9 -88t-34 -70.5t-75.5 -51t-125.5 -17.5q-77 0 -136 19q-27 9 -27 38v34q0 15 12 23t30 1q56 -20 121 -20q77 0 104.5 31t27.5 87v71q-65 -34 -134 -34q-172 0 -172 159v313q0 40 38 40h36q38 0 38 -40v-303q0 -74 79 -74q63 0 115 29v348
q0 40 38 40h36q38 0 38 -40zM345 573l-85 95l-85 -95q-20 -23 -47 -23h-39q-13 0 -18 12t5 25l109 136q13 17 23 22t27 5h50q17 0 27 -5t23 -22l109 -136q10 -13 5 -25t-18 -12h-39q-27 0 -47 23z" />
    <glyph glyph-name="ydieresis.school" unicode="&#xe16f;" horiz-adv-x="524" 
d="M469 460v-495q0 -51 -9 -88t-34 -70.5t-75.5 -51t-125.5 -17.5q-77 0 -136 19q-27 9 -27 38v34q0 15 12 23t30 1q56 -20 121 -20q77 0 104.5 31t27.5 87v71q-65 -34 -134 -34q-172 0 -172 159v313q0 40 38 40h36q38 0 38 -40v-303q0 -74 79 -74q63 0 115 29v348
q0 40 38 40h36q38 0 38 -40zM293 648q0 30 21.5 51.5t51.5 21.5t51.5 -21.5t21.5 -51.5t-21.5 -51.5t-51.5 -21.5t-51.5 21.5t-21.5 51.5zM81 648q0 30 21.5 51.5t51.5 21.5t51.5 -21.5t21.5 -51.5t-21.5 -51.5t-51.5 -21.5t-51.5 21.5t-21.5 51.5z" />
    <glyph glyph-name="cordinal" unicode="&#xe181;" horiz-adv-x="344" 
d="M33 563q0 199 180 199q43 0 78 -7q26 -5 26 -31v-25q0 -32 -36 -25q-22 4 -49 4q-104 0 -104 -115t104 -115q27 0 49 4q36 7 36 -25v-25q0 -26 -26 -31q-35 -7 -78 -7q-180 0 -180 199z" />
    <glyph glyph-name="ordfeminine.school" unicode="&#xe182;" horiz-adv-x="425" 
d="M33 563q0 199 160 199q61 0 111 -34l1 3q7 19 31 19h19q29 0 29 -29v-316q0 -29 -29 -29h-19q-24 0 -31 19l-1 3q-50 -34 -111 -34q-160 0 -160 199zM130 563q0 -117 86 -117q39 0 71 20v194q-32 20 -71 20q-86 0 -86 -117z" />
    <glyph glyph-name="p.smcp" unicode="&#xe200;" horiz-adv-x="504" 
d="M292 156h-115v-111q0 -45 -44 -45h-24q-44 0 -44 45v410q0 45 44 45h183q93 0 135 -47t42 -125t-42 -125t-135 -47zM177 401v-146h103q75 0 75 73t-75 73h-103z" />
    <glyph glyph-name="p.smcp" unicode="&#xf770;" horiz-adv-x="504" 
d="M292 156h-115v-111q0 -45 -44 -45h-24q-44 0 -44 45v410q0 45 44 45h183q93 0 135 -47t42 -125t-42 -125t-135 -47zM177 401v-146h103q75 0 75 73t-75 73h-103z" />
    <glyph glyph-name="a.smcp" unicode="&#xe201;" horiz-adv-x="548" 
d="M293 509q20 0 31.5 -9t20.5 -30l179 -415q10 -22 0 -38.5t-31 -16.5h-37q-34 0 -48 36l-25 65h-218l-25 -65q-14 -36 -48 -36h-37q-21 0 -31 16.5t0 38.5l179 415q9 21 20.5 30t31.5 9h38zM274 383l-77 -199h154z" />
    <glyph glyph-name="a.smcp" unicode="&#xf761;" horiz-adv-x="548" 
d="M293 509q20 0 31.5 -9t20.5 -30l179 -415q10 -22 0 -38.5t-31 -16.5h-37q-34 0 -48 36l-25 65h-218l-25 -65q-14 -36 -48 -36h-37q-21 0 -31 16.5t0 38.5l179 415q9 21 20.5 30t31.5 9h38zM274 383l-77 -199h154z" />
    <glyph glyph-name="b.smcp" unicode="&#xe202;" horiz-adv-x="511" 
d="M109 0q-44 0 -44 45v410q0 45 44 45h181q89 0 128.5 -33.5t39.5 -98.5q0 -62 -46 -90q31 -12 49.5 -45.5t18.5 -72.5q0 -160 -174 -160h-197zM361 159q0 60 -67 60h-117v-120h120q37 0 50.5 16t13.5 44zM344 352q0 23 -11 36t-42 13h-114v-98h110q33 0 45 12.5t12 36.5z
" />
    <glyph glyph-name="b.smcp" unicode="&#xf762;" horiz-adv-x="511" 
d="M109 0q-44 0 -44 45v410q0 45 44 45h181q89 0 128.5 -33.5t39.5 -98.5q0 -62 -46 -90q31 -12 49.5 -45.5t18.5 -72.5q0 -160 -174 -160h-197zM361 159q0 60 -67 60h-117v-120h120q37 0 50.5 16t13.5 44zM344 352q0 23 -11 36t-42 13h-114v-98h110q33 0 45 12.5t12 36.5z
" />
    <glyph glyph-name="c.smcp" unicode="&#xe203;" horiz-adv-x="499" 
d="M50 250q0 124 60.5 193t181.5 69q68 0 128 -17q32 -9 32 -42v-26q0 -17 -13 -26.5t-34 -3.5q-59 14 -98 14q-73 0 -108.5 -43.5t-35.5 -117.5t35.5 -117.5t108.5 -43.5q39 0 98 14q21 6 34 -3.5t13 -26.5v-26q0 -33 -32 -42q-60 -17 -128 -17q-121 0 -181.5 69t-60.5 193
z" />
    <glyph glyph-name="c.smcp" unicode="&#xf763;" horiz-adv-x="499" 
d="M50 250q0 124 60.5 193t181.5 69q68 0 128 -17q32 -9 32 -42v-26q0 -17 -13 -26.5t-34 -3.5q-59 14 -98 14q-73 0 -108.5 -43.5t-35.5 -117.5t35.5 -117.5t108.5 -43.5q39 0 98 14q21 6 34 -3.5t13 -26.5v-26q0 -33 -32 -42q-60 -17 -128 -17q-121 0 -181.5 69t-60.5 193
z" />
    <glyph glyph-name="d.smcp" unicode="&#xe204;" horiz-adv-x="551" 
d="M65 45v410q0 45 44 45h150q244 0 244 -250t-244 -250h-150q-44 0 -44 45zM177 99h79q74 0 104.5 39.5t30.5 111.5t-30.5 111.5t-104.5 39.5h-79v-302z" />
    <glyph glyph-name="d.smcp" unicode="&#xf764;" horiz-adv-x="551" 
d="M65 45v410q0 45 44 45h150q244 0 244 -250t-244 -250h-150q-44 0 -44 45zM177 99h79q74 0 104.5 39.5t30.5 111.5t-30.5 111.5t-104.5 39.5h-79v-302z" />
    <glyph glyph-name="e.smcp" unicode="&#xe205;" horiz-adv-x="500" 
d="M177 401v-99h203q34 0 34 -34v-30q0 -33 -34 -33h-203v-106h226q43 0 43 -43v-13q0 -43 -43 -43h-295q-43 0 -43 45v410q0 45 43 45h295q43 0 43 -43v-13q0 -43 -43 -43h-226z" />
    <glyph glyph-name="e.smcp" unicode="&#xf765;" horiz-adv-x="500" 
d="M177 401v-99h203q34 0 34 -34v-30q0 -33 -34 -33h-203v-106h226q43 0 43 -43v-13q0 -43 -43 -43h-295q-43 0 -43 45v410q0 45 43 45h295q43 0 43 -43v-13q0 -43 -43 -43h-226z" />
    <glyph glyph-name="f.smcp" unicode="&#xe206;" horiz-adv-x="476" 
d="M364 201h-187v-156q0 -45 -44 -45h-25q-43 0 -43 45v410q0 45 43 45h285q43 0 43 -43v-13q0 -43 -43 -43h-216v-103h187q40 0 40 -39v-18q0 -40 -40 -40z" />
    <glyph glyph-name="f.smcp" unicode="&#xf766;" horiz-adv-x="476" 
d="M364 201h-187v-156q0 -45 -44 -45h-25q-43 0 -43 45v410q0 45 43 45h285q43 0 43 -43v-13q0 -43 -43 -43h-216v-103h187q40 0 40 -39v-18q0 -40 -40 -40z" />
    <glyph glyph-name="g.smcp" unicode="&#xe207;" horiz-adv-x="550" 
d="M313 411q-150 0 -150 -161t150 -161q40 0 66 8v89h-44q-44 0 -44 43v11q0 43 44 43h111q43 0 43 -45v-184q0 -21 -8.5 -31t-30.5 -16q-70 -19 -147 -19q-253 0 -253 262t253 262q89 0 144 -17q31 -9 31 -40v-28q0 -17 -11.5 -27t-31.5 -4q-53 15 -122 15z" />
    <glyph glyph-name="g.smcp" unicode="&#xf767;" horiz-adv-x="550" 
d="M313 411q-150 0 -150 -161t150 -161q40 0 66 8v89h-44q-44 0 -44 43v11q0 43 44 43h111q43 0 43 -45v-184q0 -21 -8.5 -31t-30.5 -16q-70 -19 -147 -19q-253 0 -253 262t253 262q89 0 144 -17q31 -9 31 -40v-28q0 -17 -11.5 -27t-31.5 -4q-53 15 -122 15z" />
    <glyph glyph-name="h.smcp" unicode="&#xe208;" horiz-adv-x="580" 
d="M403 208h-226v-163q0 -45 -44 -45h-24q-44 0 -44 45v410q0 45 44 45h24q44 0 44 -45v-150h226v150q0 45 44 45h24q44 0 44 -45v-410q0 -45 -44 -45h-24q-44 0 -44 45v163z" />
    <glyph glyph-name="h.smcp" unicode="&#xf768;" horiz-adv-x="580" 
d="M403 208h-226v-163q0 -45 -44 -45h-24q-44 0 -44 45v410q0 45 44 45h24q44 0 44 -45v-150h226v150q0 45 44 45h24q44 0 44 -45v-410q0 -45 -44 -45h-24q-44 0 -44 45v163z" />
    <glyph glyph-name="i.smcp" unicode="&#xe209;" horiz-adv-x="262" 
d="M187 455v-410q0 -45 -44 -45h-24q-44 0 -44 45v410q0 45 44 45h24q44 0 44 -45z" />
    <glyph glyph-name="i.smcp" unicode="&#xf769;" horiz-adv-x="262" 
d="M187 455v-410q0 -45 -44 -45h-24q-44 0 -44 45v410q0 45 44 45h24q44 0 44 -45z" />
    <glyph glyph-name="j.smcp" unicode="&#xe20a;" horiz-adv-x="376" 
d="M315 455v-299q0 -80 -49 -124t-148 -44q-30 0 -60 6q-32 7 -32 44v22q0 18 11.5 28.5t30.5 6.5q32 -4 43 -4q92 0 92 68v296q0 45 44 45h24q44 0 44 -45z" />
    <glyph glyph-name="j.smcp" unicode="&#xf76a;" horiz-adv-x="376" 
d="M315 455v-299q0 -80 -49 -124t-148 -44q-30 0 -60 6q-32 7 -32 44v22q0 18 11.5 28.5t30.5 6.5q32 -4 43 -4q92 0 92 68v296q0 45 44 45h24q44 0 44 -45z" />
    <glyph glyph-name="k.smcp" unicode="&#xe20b;" horiz-adv-x="545" 
d="M174 286l187 185q18 17 29.5 23t31.5 6h47q22 0 28.5 -19t-8.5 -33l-171 -159l198 -235q14 -16 6 -35t-30 -19h-46q-33 0 -57 30l-148 188l-66 -61l2 -112q0 -45 -44 -45h-24q-44 0 -44 45v410q0 45 44 45h24q46 0 44 -45z" />
    <glyph glyph-name="k.smcp" unicode="&#xf76b;" horiz-adv-x="545" 
d="M174 286l187 185q18 17 29.5 23t31.5 6h47q22 0 28.5 -19t-8.5 -33l-171 -159l198 -235q14 -16 6 -35t-30 -19h-46q-33 0 -57 30l-148 188l-66 -61l2 -112q0 -45 -44 -45h-24q-44 0 -44 45v410q0 45 44 45h24q46 0 44 -45z" />
    <glyph glyph-name="l.smcp" unicode="&#xe20c;" horiz-adv-x="476" 
d="M402 0h-294q-43 0 -43 45v410q0 45 43 45h25q44 0 44 -45v-356h225q44 0 44 -43v-13q0 -43 -44 -43z" />
    <glyph glyph-name="l.smcp" unicode="&#xf76c;" horiz-adv-x="476" 
d="M402 0h-294q-43 0 -43 45v410q0 45 43 45h25q44 0 44 -45v-356h225q44 0 44 -43v-13q0 -43 -44 -43z" />
    <glyph glyph-name="m.smcp" unicode="&#xe20d;" horiz-adv-x="688" 
d="M325 56q-31 0 -42 26l-113 261l6 -298q2 -45 -44 -45h-23q-44 0 -44 45v410q0 45 44 45h66q33 0 45 -28l125 -287l125 287q12 28 45 28h66q44 0 44 -45v-410q0 -45 -44 -45h-23q-46 0 -44 45l6 298l-113 -261q-11 -26 -42 -26h-40z" />
    <glyph glyph-name="m.smcp" unicode="&#xf76d;" horiz-adv-x="688" 
d="M325 56q-31 0 -42 26l-113 261l6 -298q2 -45 -44 -45h-23q-44 0 -44 45v410q0 45 44 45h66q33 0 45 -28l125 -287l125 287q12 28 45 28h66q44 0 44 -45v-410q0 -45 -44 -45h-23q-46 0 -44 45l6 298l-113 -261q-11 -26 -42 -26h-40z" />
    <glyph glyph-name="n.smcp" unicode="&#xe20e;" horiz-adv-x="584" 
d="M413 182l-5 273q0 45 44 45h23q44 0 44 -45v-410q0 -45 -44 -45h-24q-25 0 -43 22l-236 296l4 -273q0 -45 -44 -45h-23q-44 0 -44 45v410q0 45 44 45h24q25 0 43 -22z" />
    <glyph glyph-name="n.smcp" unicode="&#xf76e;" horiz-adv-x="584" 
d="M413 182l-5 273q0 45 44 45h23q44 0 44 -45v-410q0 -45 -44 -45h-24q-25 0 -43 22l-236 296l4 -273q0 -45 -44 -45h-23q-44 0 -44 45v410q0 45 44 45h24q25 0 43 -22z" />
    <glyph glyph-name="o.smcp" unicode="&#xe20f;" 
d="M50 250q0 262 250 262t250 -262t-250 -262t-250 262zM437 250q0 81 -31 123t-106 42t-106 -42t-31 -123t31 -123t106 -42t106 42t31 123z" />
    <glyph glyph-name="o.smcp" unicode="&#xf76f;" 
d="M50 250q0 262 250 262t250 -262t-250 -262t-250 262zM437 250q0 81 -31 123t-106 42t-106 -42t-31 -123t31 -123t106 -42t106 42t31 123z" />
    <glyph glyph-name="q.smcp" unicode="&#xe211;" 
d="M437 250q0 81 -31 123t-106 42t-106 -42t-31 -123t31 -123t106 -42t106 42t31 123zM624 -131l-419 131q-155 47 -155 250q0 262 250 262t250 -262q0 -174 -111 -229v-1l191 -40q40 -9 40 -47v-33q0 -20 -13.5 -28t-32.5 -3z" />
    <glyph glyph-name="q.smcp" unicode="&#xf771;" 
d="M437 250q0 81 -31 123t-106 42t-106 -42t-31 -123t31 -123t106 -42t106 42t31 123zM624 -131l-419 131q-155 47 -155 250q0 262 250 262t250 -262q0 -174 -111 -229v-1l191 -40q40 -9 40 -47v-33q0 -20 -13.5 -28t-32.5 -3z" />
    <glyph glyph-name="r.smcp" unicode="&#xe212;" horiz-adv-x="536" 
d="M65 45v410q0 45 44 45h196q174 0 174 -162q0 -112 -84 -145l96 -136q14 -22 5.5 -39.5t-29.5 -17.5h-38q-37 0 -60 39l-84 138h-108v-132q0 -45 -44 -45h-24q-44 0 -44 45zM361 338q0 63 -66 63h-118v-125h118q66 1 66 62z" />
    <glyph glyph-name="r.smcp" unicode="&#xf772;" horiz-adv-x="536" 
d="M65 45v410q0 45 44 45h196q174 0 174 -162q0 -112 -84 -145l96 -136q14 -22 5.5 -39.5t-29.5 -17.5h-38q-37 0 -60 39l-84 138h-108v-132q0 -45 -44 -45h-24q-44 0 -44 45zM361 338q0 63 -66 63h-118v-125h118q66 1 66 62z" />
    <glyph glyph-name="s.smcp" unicode="&#xe213;" horiz-adv-x="505" 
d="M233 -12q-78 0 -146 19q-31 8 -31 40v28q0 17 11.5 27t31.5 4q63 -18 135 -18q60 0 85.5 15t25.5 47q0 29 -21.5 41.5t-76.5 17.5q-113 10 -154 40t-41 103q0 160 210 160q80 0 144 -18q31 -8 31 -40v-28q0 -17 -11.5 -27t-31.5 -4q-59 17 -133 17q-55 0 -77.5 -14
t-22.5 -46q0 -27 21.5 -36.5t78.5 -14.5q113 -10 154 -41t41 -110q0 -73 -53 -117.5t-170 -44.5z" />
    <glyph glyph-name="s.smcp" unicode="&#xf773;" horiz-adv-x="505" 
d="M233 -12q-78 0 -146 19q-31 8 -31 40v28q0 17 11.5 27t31.5 4q63 -18 135 -18q60 0 85.5 15t25.5 47q0 29 -21.5 41.5t-76.5 17.5q-113 10 -154 40t-41 103q0 160 210 160q80 0 144 -18q31 -8 31 -40v-28q0 -17 -11.5 -27t-31.5 -4q-59 17 -133 17q-55 0 -77.5 -14
t-22.5 -46q0 -27 21.5 -36.5t78.5 -14.5q113 -10 154 -41t41 -110q0 -73 -53 -117.5t-170 -44.5z" />
    <glyph glyph-name="t.smcp" unicode="&#xe214;" horiz-adv-x="500" 
d="M306 401v-356q0 -45 -43 -45h-25q-44 0 -44 45v356h-115q-44 0 -44 43v13q0 43 44 43h342q44 0 44 -43v-13q0 -43 -44 -43h-115z" />
    <glyph glyph-name="t.smcp" unicode="&#xf774;" horiz-adv-x="500" 
d="M306 401v-356q0 -45 -43 -45h-25q-44 0 -44 45v356h-115q-44 0 -44 43v13q0 43 44 43h342q44 0 44 -43v-13q0 -43 -44 -43h-115z" />
    <glyph glyph-name="u.smcp" unicode="&#xe215;" horiz-adv-x="576" 
d="M61 455q0 45 44 45h24q44 0 44 -45v-281q0 -85 115 -85t115 85v281q0 45 44 45h24q44 0 44 -45v-290q0 -85 -57 -131t-170 -46t-170 46t-57 131v290z" />
    <glyph glyph-name="u.smcp" unicode="&#xf775;" horiz-adv-x="576" 
d="M61 455q0 45 44 45h24q44 0 44 -45v-281q0 -85 115 -85t115 85v281q0 45 44 45h24q44 0 44 -45v-290q0 -85 -57 -131t-170 -46t-170 46t-57 131v290z" />
    <glyph glyph-name="v.smcp" unicode="&#xe216;" horiz-adv-x="548" 
d="M289 -9h-30q-20 0 -31.5 9t-20.5 30l-184 415q-10 22 0 38.5t31 16.5h37q19 0 29.5 -8.5t18.5 -27.5l135 -330l135 330q8 19 18.5 27.5t29.5 8.5h37q21 0 31 -16.5t0 -38.5l-184 -415q-9 -21 -20.5 -30t-31.5 -9z" />
    <glyph glyph-name="v.smcp" unicode="&#xf776;" horiz-adv-x="548" 
d="M289 -9h-30q-20 0 -31.5 9t-20.5 30l-184 415q-10 22 0 38.5t31 16.5h37q19 0 29.5 -8.5t18.5 -27.5l135 -330l135 330q8 19 18.5 27.5t29.5 8.5h37q21 0 31 -16.5t0 -38.5l-184 -415q-9 -21 -20.5 -30t-31.5 -9z" />
    <glyph glyph-name="w.smcp" unicode="&#xe217;" horiz-adv-x="744" 
d="M471 31l-99 340l-99 -340q-11 -40 -50 -40h-37q-37 0 -48 40l-115 420q-5 21 4.5 35t30.5 14h40q21 0 31 -9.5t15 -30.5l67 -304l85 305q6 22 16.5 30.5t32.5 8.5h54q22 0 32.5 -8.5t16.5 -30.5l85 -305l67 304q5 21 15 30.5t31 9.5h40q21 0 30.5 -14t4.5 -35l-115 -420
q-11 -40 -48 -40h-37q-39 0 -50 40z" />
    <glyph glyph-name="w.smcp" unicode="&#xf777;" horiz-adv-x="744" 
d="M471 31l-99 340l-99 -340q-11 -40 -50 -40h-37q-37 0 -48 40l-115 420q-5 21 4.5 35t30.5 14h40q21 0 31 -9.5t15 -30.5l67 -304l85 305q6 22 16.5 30.5t32.5 8.5h54q22 0 32.5 -8.5t16.5 -30.5l85 -305l67 304q5 21 15 30.5t31 9.5h40q21 0 30.5 -14t4.5 -35l-115 -420
q-11 -40 -48 -40h-37q-39 0 -50 40z" />
    <glyph glyph-name="y.smcp" unicode="&#xe219;" horiz-adv-x="566" 
d="M532 443l-194 -278l1 -120q0 -45 -43 -45h-25q-44 0 -44 45l1 120l-194 278q-14 19 -6 38t30 19h45q21 0 32.5 -7.5t23.5 -26.5l124 -195l124 195q12 19 23.5 26.5t32.5 7.5h45q22 0 30 -19t-6 -38z" />
    <glyph glyph-name="y.smcp" unicode="&#xf779;" horiz-adv-x="566" 
d="M532 443l-194 -278l1 -120q0 -45 -43 -45h-25q-44 0 -44 45l1 120l-194 278q-14 19 -6 38t30 19h45q21 0 32.5 -7.5t23.5 -26.5l124 -195l124 195q12 19 23.5 26.5t32.5 7.5h45q22 0 30 -19t-6 -38z" />
    <glyph glyph-name="z.smcp" unicode="&#xe21a;" horiz-adv-x="530" 
d="M464 406l-267 -305l249 1q44 0 44 -43v-16q0 -43 -44 -43h-360q-43 0 -43 45v9q0 20 17 40l267 305l-220 -1q-44 0 -44 43v16q0 43 44 43h331q43 0 43 -45v-9q0 -20 -17 -40z" />
    <glyph glyph-name="z.smcp" unicode="&#xf77a;" horiz-adv-x="530" 
d="M464 406l-267 -305l249 1q44 0 44 -43v-16q0 -43 -44 -43h-360q-43 0 -43 45v9q0 20 17 40l267 305l-220 -1q-44 0 -44 43v16q0 43 44 43h331q43 0 43 -45v-9q0 -20 -17 -40z" />
    <glyph glyph-name="anocross.smcp" unicode="&#xe220;" horiz-adv-x="547" 
d="M293 509q20 0 31.5 -9t20.5 -30l179 -415q10 -22 0 -38.5t-31 -16.5h-37q-34 0 -48 36l-134 347l-134 -347q-14 -36 -48 -36h-37q-21 0 -31 16.5t0 38.5l179 415q9 21 20.5 30t31.5 9h38z" />
    <glyph glyph-name="aacute.smcp" unicode="&#xe221;" horiz-adv-x="548" 
d="M293 509q20 0 31.5 -9t20.5 -30l179 -415q10 -22 0 -38.5t-31 -16.5h-37q-34 0 -48 36l-25 65h-218l-25 -65q-14 -36 -48 -36h-37q-21 0 -31 16.5t0 38.5l179 415q9 21 20.5 30t31.5 9h38zM321 750h63q20 0 27 -14t-4 -32l-71 -124q-18 -30 -45 -30h-34q-15 0 -21.5 9
t-1.5 24l41 133q11 34 46 34zM274 383l-77 -199h154z" />
    <glyph glyph-name="aacute.smcp" unicode="&#xf7e1;" horiz-adv-x="548" 
d="M293 509q20 0 31.5 -9t20.5 -30l179 -415q10 -22 0 -38.5t-31 -16.5h-37q-34 0 -48 36l-25 65h-218l-25 -65q-14 -36 -48 -36h-37q-21 0 -31 16.5t0 38.5l179 415q9 21 20.5 30t31.5 9h38zM321 750h63q20 0 27 -14t-4 -32l-71 -124q-18 -30 -45 -30h-34q-15 0 -21.5 9
t-1.5 24l41 133q11 34 46 34zM274 383l-77 -199h154z" />
    <glyph glyph-name="agrave.smcp" unicode="&#xe222;" horiz-adv-x="548" 
d="M293 509q20 0 31.5 -9t20.5 -30l179 -415q10 -22 0 -38.5t-31 -16.5h-37q-34 0 -48 36l-25 65h-218l-25 -65q-14 -36 -48 -36h-37q-21 0 -31 16.5t0 38.5l179 415q9 21 20.5 30t31.5 9h38zM164 750h63q35 0 46 -34l41 -133q5 -15 -1.5 -24t-21.5 -9h-34q-27 0 -45 30
l-71 124q-11 18 -4 32t27 14zM274 383l-77 -199h154z" />
    <glyph glyph-name="agrave.smcp" unicode="&#xf7e0;" horiz-adv-x="548" 
d="M293 509q20 0 31.5 -9t20.5 -30l179 -415q10 -22 0 -38.5t-31 -16.5h-37q-34 0 -48 36l-25 65h-218l-25 -65q-14 -36 -48 -36h-37q-21 0 -31 16.5t0 38.5l179 415q9 21 20.5 30t31.5 9h38zM164 750h63q35 0 46 -34l41 -133q5 -15 -1.5 -24t-21.5 -9h-34q-27 0 -45 30
l-71 124q-11 18 -4 32t27 14zM274 383l-77 -199h154z" />
    <glyph glyph-name="acircumflex.smcp" unicode="&#xe223;" horiz-adv-x="548" 
d="M293 509q20 0 31.5 -9t20.5 -30l179 -415q10 -22 0 -38.5t-31 -16.5h-37q-34 0 -48 36l-25 65h-218l-25 -65q-14 -36 -48 -36h-37q-21 0 -31 16.5t0 38.5l179 415q9 21 20.5 30t31.5 9h38zM359 573l-85 95l-85 -95q-20 -23 -47 -23h-39q-13 0 -18 12t5 25l109 136
q13 17 23 22t27 5h50q17 0 27 -5t23 -22l109 -136q10 -13 5 -25t-18 -12h-39q-27 0 -47 23zM274 383l-77 -199h154z" />
    <glyph glyph-name="acircumflex.smcp" unicode="&#xf7e2;" horiz-adv-x="548" 
d="M293 509q20 0 31.5 -9t20.5 -30l179 -415q10 -22 0 -38.5t-31 -16.5h-37q-34 0 -48 36l-25 65h-218l-25 -65q-14 -36 -48 -36h-37q-21 0 -31 16.5t0 38.5l179 415q9 21 20.5 30t31.5 9h38zM359 573l-85 95l-85 -95q-20 -23 -47 -23h-39q-13 0 -18 12t5 25l109 136
q13 17 23 22t27 5h50q17 0 27 -5t23 -22l109 -136q10 -13 5 -25t-18 -12h-39q-27 0 -47 23zM274 383l-77 -199h154z" />
    <glyph glyph-name="adieresis.smcp" unicode="&#xe224;" horiz-adv-x="548" 
d="M293 509q20 0 31.5 -9t20.5 -30l179 -415q10 -22 0 -38.5t-31 -16.5h-37q-34 0 -48 36l-25 65h-218l-25 -65q-14 -36 -48 -36h-37q-21 0 -31 16.5t0 38.5l179 415q9 21 20.5 30t31.5 9h38zM307 648q0 30 21.5 51.5t51.5 21.5t51.5 -21.5t21.5 -51.5t-21.5 -51.5
t-51.5 -21.5t-51.5 21.5t-21.5 51.5zM95 648q0 30 21.5 51.5t51.5 21.5t51.5 -21.5t21.5 -51.5t-21.5 -51.5t-51.5 -21.5t-51.5 21.5t-21.5 51.5zM274 383l-77 -199h154z" />
    <glyph glyph-name="adieresis.smcp" unicode="&#xf7e4;" horiz-adv-x="548" 
d="M293 509q20 0 31.5 -9t20.5 -30l179 -415q10 -22 0 -38.5t-31 -16.5h-37q-34 0 -48 36l-25 65h-218l-25 -65q-14 -36 -48 -36h-37q-21 0 -31 16.5t0 38.5l179 415q9 21 20.5 30t31.5 9h38zM307 648q0 30 21.5 51.5t51.5 21.5t51.5 -21.5t21.5 -51.5t-21.5 -51.5
t-51.5 -21.5t-51.5 21.5t-21.5 51.5zM95 648q0 30 21.5 51.5t51.5 21.5t51.5 -21.5t21.5 -51.5t-21.5 -51.5t-51.5 -21.5t-51.5 21.5t-21.5 51.5zM274 383l-77 -199h154z" />
    <glyph glyph-name="atilde.smcp" unicode="&#xe225;" horiz-adv-x="548" 
d="M293 509q20 0 31.5 -9t20.5 -30l179 -415q10 -22 0 -38.5t-31 -16.5h-37q-34 0 -48 36l-25 65h-218l-25 -65q-14 -36 -48 -36h-37q-21 0 -31 16.5t0 38.5l179 415q9 21 20.5 30t31.5 9h38zM354 653q35 0 45 26q11 28 36 28h15q29 0 27 -32q-3 -40 -30.5 -74t-91.5 -34
q-30 0 -55 11.5t-39 25.5t-32 25.5t-35 11.5q-35 0 -45 -26q-11 -28 -36 -28h-15q-29 0 -27 32q3 40 30.5 74t91.5 34q30 0 55 -11.5t39 -25.5t32 -25.5t35 -11.5zM274 383l-77 -199h154z" />
    <glyph glyph-name="atilde.smcp" unicode="&#xf7e3;" horiz-adv-x="548" 
d="M293 509q20 0 31.5 -9t20.5 -30l179 -415q10 -22 0 -38.5t-31 -16.5h-37q-34 0 -48 36l-25 65h-218l-25 -65q-14 -36 -48 -36h-37q-21 0 -31 16.5t0 38.5l179 415q9 21 20.5 30t31.5 9h38zM354 653q35 0 45 26q11 28 36 28h15q29 0 27 -32q-3 -40 -30.5 -74t-91.5 -34
q-30 0 -55 11.5t-39 25.5t-32 25.5t-35 11.5q-35 0 -45 -26q-11 -28 -36 -28h-15q-29 0 -27 32q3 40 30.5 74t91.5 34q30 0 55 -11.5t39 -25.5t32 -25.5t35 -11.5zM274 383l-77 -199h154z" />
    <glyph glyph-name="aring.smcp" unicode="&#xe226;" horiz-adv-x="548" 
d="M293 509q20 0 31.5 -9t20.5 -30l179 -415q10 -22 0 -38.5t-31 -16.5h-37q-34 0 -48 36l-25 65h-218l-25 -65q-14 -36 -48 -36h-37q-21 0 -31 16.5t0 38.5l179 415q9 21 20.5 30t31.5 9h38zM379 650q0 -51 -28.5 -77t-76.5 -26t-76.5 26t-28.5 77t28.5 77t76.5 26
t76.5 -26t28.5 -77zM274 383l-77 -199h154zM236 650q0 -37 38 -37q39 0 39 37t-39 37q-38 0 -38 -37z" />
    <glyph glyph-name="aring.smcp" unicode="&#xf7e5;" horiz-adv-x="548" 
d="M293 509q20 0 31.5 -9t20.5 -30l179 -415q10 -22 0 -38.5t-31 -16.5h-37q-34 0 -48 36l-25 65h-218l-25 -65q-14 -36 -48 -36h-37q-21 0 -31 16.5t0 38.5l179 415q9 21 20.5 30t31.5 9h38zM379 650q0 -51 -28.5 -77t-76.5 -26t-76.5 26t-28.5 77t28.5 77t76.5 26
t76.5 -26t28.5 -77zM274 383l-77 -199h154zM236 650q0 -37 38 -37q39 0 39 37t-39 37q-38 0 -38 -37z" />
    <glyph glyph-name="amacron.smcp" unicode="&#xe228;" horiz-adv-x="548" 
d="M293 509q20 0 31.5 -9t20.5 -30l179 -415q10 -22 0 -38.5t-31 -16.5h-37q-34 0 -48 36l-25 65h-218l-25 -65q-14 -36 -48 -36h-37q-21 0 -31 16.5t0 38.5l179 415q9 21 20.5 30t31.5 9h38zM384 605h-220q-38 0 -38 37v15q0 37 38 37h220q38 0 38 -37v-15q0 -37 -38 -37z
M274 383l-77 -199h154z" />
    <glyph glyph-name="amacron.smcp" unicode="&#xf641;" horiz-adv-x="548" 
d="M293 509q20 0 31.5 -9t20.5 -30l179 -415q10 -22 0 -38.5t-31 -16.5h-37q-34 0 -48 36l-25 65h-218l-25 -65q-14 -36 -48 -36h-37q-21 0 -31 16.5t0 38.5l179 415q9 21 20.5 30t31.5 9h38zM384 605h-220q-38 0 -38 37v15q0 37 38 37h220q38 0 38 -37v-15q0 -37 -38 -37z
M274 383l-77 -199h154z" />
    <glyph glyph-name="abreve.smcp" unicode="&#xe229;" horiz-adv-x="548" 
d="M293 509q20 0 31.5 -9t20.5 -30l179 -415q10 -22 0 -38.5t-31 -16.5h-37q-34 0 -48 36l-25 65h-218l-25 -65q-14 -36 -48 -36h-37q-21 0 -31 16.5t0 38.5l179 415q9 21 20.5 30t31.5 9h38zM274 639q54 0 76.5 21t26.5 63q3 27 29 27h27q13 0 20.5 -8t6.5 -21
q-5 -83 -47 -127t-139 -44t-139 44t-47 127q-1 13 6.5 21t20.5 8h27q26 0 29 -27q4 -42 26.5 -63t76.5 -21zM274 383l-77 -199h154z" />
    <glyph glyph-name="abreve.smcp" unicode="&#xf640;" horiz-adv-x="548" 
d="M293 509q20 0 31.5 -9t20.5 -30l179 -415q10 -22 0 -38.5t-31 -16.5h-37q-34 0 -48 36l-25 65h-218l-25 -65q-14 -36 -48 -36h-37q-21 0 -31 16.5t0 38.5l179 415q9 21 20.5 30t31.5 9h38zM274 639q54 0 76.5 21t26.5 63q3 27 29 27h27q13 0 20.5 -8t6.5 -21
q-5 -83 -47 -127t-139 -44t-139 44t-47 127q-1 13 6.5 21t20.5 8h27q26 0 29 -27q4 -42 26.5 -63t76.5 -21zM274 383l-77 -199h154z" />
    <glyph glyph-name="aogonek.smcp" unicode="&#xe22f;" horiz-adv-x="548" 
d="M449 -250q-53 0 -88 30.5t-35 84.5q0 86 91 148l-34 88h-218l-25 -65q-14 -36 -48 -36h-37q-21 0 -31 16.5t0 38.5l179 415q9 21 20.5 30t31.5 9h38q20 0 31.5 -9t20.5 -30l179 -415q7 -19 2 -33t-20 -20q-36 -15 -63.5 -47.5t-27.5 -73.5q0 -26 14.5 -41.5t41.5 -15.5
q23 0 37 4q29 8 29 -21v-18q0 -23 -26 -31q-27 -8 -62 -8zM274 383l-77 -199h154z" />
    <glyph glyph-name="aogonek.smcp" unicode="&#xf642;" horiz-adv-x="548" 
d="M449 -250q-53 0 -88 30.5t-35 84.5q0 86 91 148l-34 88h-218l-25 -65q-14 -36 -48 -36h-37q-21 0 -31 16.5t0 38.5l179 415q9 21 20.5 30t31.5 9h38q20 0 31.5 -9t20.5 -30l179 -415q7 -19 2 -33t-20 -20q-36 -15 -63.5 -47.5t-27.5 -73.5q0 -26 14.5 -41.5t41.5 -15.5
q23 0 37 4q29 8 29 -21v-18q0 -23 -26 -31q-27 -8 -62 -8zM274 383l-77 -199h154z" />
    <glyph glyph-name="edieresis.smcp" unicode="&#xe230;" horiz-adv-x="500" 
d="M82 648q0 30 21.5 51.5t51.5 21.5t51.5 -21.5t21.5 -51.5t-21.5 -51.5t-51.5 -21.5t-51.5 21.5t-21.5 51.5zM294 648q0 30 21.5 51.5t51.5 21.5t51.5 -21.5t21.5 -51.5t-21.5 -51.5t-51.5 -21.5t-51.5 21.5t-21.5 51.5zM177 401v-99h203q34 0 34 -34v-30q0 -33 -34 -33
h-203v-106h226q43 0 43 -43v-13q0 -43 -43 -43h-295q-43 0 -43 45v410q0 45 43 45h295q43 0 43 -43v-13q0 -43 -43 -43h-226z" />
    <glyph glyph-name="edieresis.smcp" unicode="&#xf7eb;" horiz-adv-x="500" 
d="M82 648q0 30 21.5 51.5t51.5 21.5t51.5 -21.5t21.5 -51.5t-21.5 -51.5t-51.5 -21.5t-51.5 21.5t-21.5 51.5zM294 648q0 30 21.5 51.5t51.5 21.5t51.5 -21.5t21.5 -51.5t-21.5 -51.5t-51.5 -21.5t-51.5 21.5t-21.5 51.5zM177 401v-99h203q34 0 34 -34v-30q0 -33 -34 -33
h-203v-106h226q43 0 43 -43v-13q0 -43 -43 -43h-295q-43 0 -43 45v410q0 45 43 45h295q43 0 43 -43v-13q0 -43 -43 -43h-226z" />
    <glyph glyph-name="ae.smcp" unicode="&#xe231;" horiz-adv-x="767" 
d="M674 500q43 0 43 -43v-13q0 -43 -43 -43h-257l20 -99h214q34 0 34 -34v-30q0 -33 -34 -33h-193l22 -106h194q43 0 43 -43v-13q0 -43 -43 -43h-257q-19 0 -28 8.5t-13 27.5l-13 65h-201l-33 -65q-18 -36 -51 -36h-38q-20 0 -29 14t2 36l231 411q23 39 66 39h364zM306 383
l-102 -199h142z" />
    <glyph glyph-name="ae.smcp" unicode="&#xf7e6;" horiz-adv-x="767" 
d="M674 500q43 0 43 -43v-13q0 -43 -43 -43h-257l20 -99h214q34 0 34 -34v-30q0 -33 -34 -33h-193l22 -106h194q43 0 43 -43v-13q0 -43 -43 -43h-257q-19 0 -28 8.5t-13 27.5l-13 65h-201l-33 -65q-18 -36 -51 -36h-38q-20 0 -29 14t2 36l231 411q23 39 66 39h364zM306 383
l-102 -199h142z" />
    <glyph glyph-name="cacute.smcp" unicode="&#xe234;" horiz-adv-x="499" 
d="M326 750h63q19 0 26 -14t-3 -32l-71 -124q-18 -30 -45 -30h-34q-15 0 -21.5 9t-1.5 24l41 133q11 34 46 34zM50 250q0 124 60.5 193t181.5 69q68 0 128 -17q32 -9 32 -42v-26q0 -17 -13 -26.5t-34 -3.5q-59 14 -98 14q-73 0 -108.5 -43.5t-35.5 -117.5t35.5 -117.5
t108.5 -43.5q39 0 98 14q21 6 34 -3.5t13 -26.5v-26q0 -33 -32 -42q-60 -17 -128 -17q-121 0 -181.5 69t-60.5 193z" />
    <glyph glyph-name="cacute.smcp" unicode="&#xf643;" horiz-adv-x="499" 
d="M326 750h63q19 0 26 -14t-3 -32l-71 -124q-18 -30 -45 -30h-34q-15 0 -21.5 9t-1.5 24l41 133q11 34 46 34zM50 250q0 124 60.5 193t181.5 69q68 0 128 -17q32 -9 32 -42v-26q0 -17 -13 -26.5t-34 -3.5q-59 14 -98 14q-73 0 -108.5 -43.5t-35.5 -117.5t35.5 -117.5
t108.5 -43.5q39 0 98 14q21 6 34 -3.5t13 -26.5v-26q0 -33 -32 -42q-60 -17 -128 -17q-121 0 -181.5 69t-60.5 193z" />
    <glyph glyph-name="ccircumflex.smcp" unicode="&#xe235;" horiz-adv-x="499" 
d="M50 250q0 124 60.5 193t181.5 69q68 0 128 -17q32 -9 32 -42v-26q0 -17 -13 -26.5t-34 -3.5q-59 14 -98 14q-73 0 -108.5 -43.5t-35.5 -117.5t35.5 -117.5t108.5 -43.5q39 0 98 14q21 6 34 -3.5t13 -26.5v-26q0 -33 -32 -42q-60 -17 -128 -17q-121 0 -181.5 69t-60.5 193
zM364 573l-85 95l-85 -95q-20 -23 -47 -23h-39q-13 0 -18 12t5 25l109 136q13 17 23 22t27 5h50q17 0 27 -5t23 -22l109 -136q10 -13 5 -25t-18 -12h-39q-27 0 -47 23z" />
    <glyph glyph-name="ccircumflex.smcp" unicode="&#xf628;" horiz-adv-x="499" 
d="M50 250q0 124 60.5 193t181.5 69q68 0 128 -17q32 -9 32 -42v-26q0 -17 -13 -26.5t-34 -3.5q-59 14 -98 14q-73 0 -108.5 -43.5t-35.5 -117.5t35.5 -117.5t108.5 -43.5q39 0 98 14q21 6 34 -3.5t13 -26.5v-26q0 -33 -32 -42q-60 -17 -128 -17q-121 0 -181.5 69t-60.5 193
zM364 573l-85 95l-85 -95q-20 -23 -47 -23h-39q-13 0 -18 12t5 25l109 136q13 17 23 22t27 5h50q17 0 27 -5t23 -22l109 -136q10 -13 5 -25t-18 -12h-39q-27 0 -47 23z" />
    <glyph glyph-name="ccaron.smcp" unicode="&#xe236;" horiz-adv-x="499" 
d="M50 250q0 124 60.5 193t181.5 69q68 0 128 -17q32 -9 32 -42v-26q0 -17 -13 -26.5t-34 -3.5q-59 14 -98 14q-73 0 -108.5 -43.5t-35.5 -117.5t35.5 -117.5t108.5 -43.5q39 0 98 14q21 6 34 -3.5t13 -26.5v-26q0 -33 -32 -42q-60 -17 -128 -17q-121 0 -181.5 69t-60.5 193
zM194 727l85 -95l85 95q20 23 47 23h39q13 0 18 -12t-5 -25l-109 -136q-13 -17 -23 -22t-27 -5h-50q-17 0 -27 5t-23 22l-109 136q-10 13 -5 25t18 12h39q27 0 47 -23z" />
    <glyph glyph-name="ccaron.smcp" unicode="&#xf644;" horiz-adv-x="499" 
d="M50 250q0 124 60.5 193t181.5 69q68 0 128 -17q32 -9 32 -42v-26q0 -17 -13 -26.5t-34 -3.5q-59 14 -98 14q-73 0 -108.5 -43.5t-35.5 -117.5t35.5 -117.5t108.5 -43.5q39 0 98 14q21 6 34 -3.5t13 -26.5v-26q0 -33 -32 -42q-60 -17 -128 -17q-121 0 -181.5 69t-60.5 193
zM194 727l85 -95l85 95q20 23 47 23h39q13 0 18 -12t-5 -25l-109 -136q-13 -17 -23 -22t-27 -5h-50q-17 0 -27 5t-23 22l-109 136q-10 13 -5 25t18 12h39q27 0 47 -23z" />
    <glyph glyph-name="cdotaccent.smcp" unicode="&#xe237;" horiz-adv-x="499" 
d="M206 648q0 30 21.5 51.5t51.5 21.5t51.5 -21.5t21.5 -51.5t-21.5 -51.5t-51.5 -21.5t-51.5 21.5t-21.5 51.5zM50 250q0 124 60.5 193t181.5 69q68 0 128 -17q32 -9 32 -42v-26q0 -17 -13 -26.5t-34 -3.5q-59 14 -98 14q-73 0 -108.5 -43.5t-35.5 -117.5t35.5 -117.5
t108.5 -43.5q39 0 98 14q21 6 34 -3.5t13 -26.5v-26q0 -33 -32 -42q-60 -17 -128 -17q-121 0 -181.5 69t-60.5 193z" />
    <glyph glyph-name="cdotaccent.smcp" unicode="&#xf629;" horiz-adv-x="499" 
d="M206 648q0 30 21.5 51.5t51.5 21.5t51.5 -21.5t21.5 -51.5t-21.5 -51.5t-51.5 -21.5t-51.5 21.5t-21.5 51.5zM50 250q0 124 60.5 193t181.5 69q68 0 128 -17q32 -9 32 -42v-26q0 -17 -13 -26.5t-34 -3.5q-59 14 -98 14q-73 0 -108.5 -43.5t-35.5 -117.5t35.5 -117.5
t108.5 -43.5q39 0 98 14q21 6 34 -3.5t13 -26.5v-26q0 -33 -32 -42q-60 -17 -128 -17q-121 0 -181.5 69t-60.5 193z" />
    <glyph glyph-name="ccedilla.smcp" unicode="&#xe238;" horiz-adv-x="499" 
d="M50 250q0 124 60.5 193t181.5 69q68 0 128 -17q32 -9 32 -42v-26q0 -17 -13 -26.5t-34 -3.5q-59 14 -98 14q-73 0 -108.5 -43.5t-35.5 -117.5t35.5 -117.5t108.5 -43.5q39 0 98 14q21 6 34 -3.5t13 -26.5v-26q0 -33 -32 -42q-54 -15 -113 -17l2 -41q45 -12 69.5 -38.5
t24.5 -61.5q0 -47 -32.5 -72t-86.5 -25q-39 0 -72 10q-25 8 -25 31v24q0 12 7.5 18.5t20.5 2.5q31 -9 54 -9q54 0 54 30q0 32 -58 45q-24 5 -21 26l7 62q-101 11 -151 79t-50 181z" />
    <glyph glyph-name="ccedilla.smcp" unicode="&#xf7e7;" horiz-adv-x="499" 
d="M50 250q0 124 60.5 193t181.5 69q68 0 128 -17q32 -9 32 -42v-26q0 -17 -13 -26.5t-34 -3.5q-59 14 -98 14q-73 0 -108.5 -43.5t-35.5 -117.5t35.5 -117.5t108.5 -43.5q39 0 98 14q21 6 34 -3.5t13 -26.5v-26q0 -33 -32 -42q-54 -15 -113 -17l2 -41q45 -12 69.5 -38.5
t24.5 -61.5q0 -47 -32.5 -72t-86.5 -25q-39 0 -72 10q-25 8 -25 31v24q0 12 7.5 18.5t20.5 2.5q31 -9 54 -9q54 0 54 30q0 32 -58 45q-24 5 -21 26l7 62q-101 11 -151 79t-50 181z" />
    <glyph glyph-name="dcaron.smcp" unicode="&#xe239;" horiz-adv-x="551" 
d="M65 45v410q0 45 44 45h150q244 0 244 -250t-244 -250h-150q-44 0 -44 45zM177 99h79q74 0 104.5 39.5t30.5 111.5t-30.5 111.5t-104.5 39.5h-79v-302zM176 727l85 -95l85 95q20 23 47 23h39q13 0 18 -12t-5 -25l-109 -136q-13 -17 -23 -22t-27 -5h-50q-17 0 -27 5t-23 22
l-109 136q-10 13 -5 25t18 12h39q27 0 47 -23z" />
    <glyph glyph-name="dcaron.smcp" unicode="&#xf645;" horiz-adv-x="551" 
d="M65 45v410q0 45 44 45h150q244 0 244 -250t-244 -250h-150q-44 0 -44 45zM177 99h79q74 0 104.5 39.5t30.5 111.5t-30.5 111.5t-104.5 39.5h-79v-302zM176 727l85 -95l85 95q20 23 47 23h39q13 0 18 -12t-5 -25l-109 -136q-13 -17 -23 -22t-27 -5h-50q-17 0 -27 5t-23 22
l-109 136q-10 13 -5 25t18 12h39q27 0 47 -23z" />
    <glyph glyph-name="dcroat.smcp" unicode="&#xe23c;" horiz-adv-x="590" 
d="M105 45v157h-44q-38 0 -38 37v22q0 37 38 37h44v157q0 45 44 45h150q244 0 244 -250t-244 -250h-150q-44 0 -44 45zM280 202h-63v-103h79q74 0 104.5 39.5t30.5 111.5t-30.5 111.5t-104.5 39.5h-79v-103h63q38 0 38 -37v-22q0 -37 -38 -37z" />
    <glyph glyph-name="dcroat.smcp" unicode="&#xf646;" horiz-adv-x="590" 
d="M105 45v157h-44q-38 0 -38 37v22q0 37 38 37h44v157q0 45 44 45h150q244 0 244 -250t-244 -250h-150q-44 0 -44 45zM280 202h-63v-103h79q74 0 104.5 39.5t30.5 111.5t-30.5 111.5t-104.5 39.5h-79v-103h63q38 0 38 -37v-22q0 -37 -38 -37z" />
    <glyph glyph-name="eacute.smcp" unicode="&#xe23d;" horiz-adv-x="500" 
d="M177 401v-99h203q34 0 34 -34v-30q0 -33 -34 -33h-203v-106h226q43 0 43 -43v-13q0 -43 -43 -43h-295q-43 0 -43 45v410q0 45 43 45h295q43 0 43 -43v-13q0 -43 -43 -43h-226zM308 750h63q19 0 26 -14t-3 -32l-71 -124q-18 -30 -45 -30h-34q-15 0 -21.5 9t-1.5 24l41 133
q11 34 46 34z" />
    </font>
</defs>
</svg>
