<?xml version="1.0" standalone="no"?>
<!DOCTYPE svg PUBLIC "-//W3C//DTD SVG 1.1//EN" "http://www.w3.org/Graphics/SVG/1.1/DTD/svg11.dtd" >
<svg>
<metadata>
Created by FontForge 20090622 at Tue Mar 28 18:40:57 2017
 By deploy user
Copyright (c) 2010 Village Type and Design LLC. All rights reserved.
</metadata>
<defs>
<font id="ApexRounded-Book" horiz-adv-x="1167" >
  <font-face 
    font-family="Apex Rounded Book"
    font-weight="590"
    font-stretch="normal"
    units-per-em="2048"
    panose-1="0 0 0 0 0 0 0 0 0 0"
    ascent="1536"
    descent="-512"
    x-height="1024"
    cap-height="1536"
    bbox="-114.244 -532 2095 1886"
    underline-thickness="102"
    underline-position="-102"
    unicode-range="U+000D-U+FB02"
  />
<missing-glyph horiz-adv-x="748" 
d="M68 0v1365h544v-1365h-544zM136 68h408v1229h-408v-1229z" />
    <glyph glyph-name="uniFB01" unicode="fi" horiz-adv-x="1259" 
d="M33 948q0 18 10.5 27.5t34.5 15.5l168 39v219q0 307 368 307q52 0 95 -6q49 -7 49 -55v-25q0 -22 -16.5 -35.5t-49.5 -9.5q-40 5 -78 5q-231 0 -231 -181v-225h268q56 0 56 -53v-6q0 -54 -56 -54h-268v-845q0 -66 -61 -66h-15q-61 0 -61 66v845h-168q-45 0 -45 37z
M901 1331q0 43 30 73t73 30t72.5 -30t29.5 -73t-29.5 -72.5t-72.5 -29.5t-73 29.5t-30 72.5zM934 156v802q0 66 61 66h17q61 0 61 -66v-804q0 -28 10.5 -40.5t36.5 -15.5q25 -3 36 -14.5t11 -34.5v-12q0 -49 -57 -49q-91 0 -133.5 46.5t-42.5 121.5z" />
    <glyph glyph-name="uniFB02" unicode="fl" horiz-adv-x="1259" 
d="M33 948q0 18 10.5 27.5t34.5 15.5l168 39v219q0 307 368 307q52 0 95 -6q49 -7 49 -55v-25q0 -22 -16.5 -35.5t-49.5 -9.5q-40 5 -78 5q-231 0 -231 -181v-225h268q56 0 56 -53v-6q0 -54 -56 -54h-268v-845q0 -66 -61 -66h-15q-61 0 -61 66v845h-168q-45 0 -45 37z
M934 156v1314q0 66 61 66h17q61 0 61 -66v-1316q0 -28 10.5 -40.5t36.5 -15.5q25 -3 36 -14.5t11 -34.5v-12q0 -49 -57 -49q-91 0 -133.5 46.5t-42.5 121.5z" />
    <glyph glyph-name=".notdef" horiz-adv-x="748" 
d="M68 0v1365h544v-1365h-544zM136 68h408v1229h-408v-1229z" />
    <glyph glyph-name="glyph1" horiz-adv-x="2048" 
 />
    <glyph glyph-name="glyph1" horiz-adv-x="2048" 
 />
    <glyph glyph-name="uni000D" unicode="&#xd;" horiz-adv-x="2048" 
 />
    <glyph glyph-name="space" unicode=" " horiz-adv-x="409" 
 />
    <glyph glyph-name="exclam" unicode="!" horiz-adv-x="389" 
d="M92 82q0 43 30 72.5t73 29.5t72.5 -29.5t29.5 -72.5t-29.5 -72.5t-72.5 -29.5t-73 29.5t-30 72.5zM96 1470q-2 28 14.5 47t47.5 19h73q31 0 47.5 -19t14.5 -47l-55 -1003q-3 -37 -39 -37h-9q-35 0 -38 37z" />
    <glyph glyph-name="quotedbl" unicode="&#x22;" horiz-adv-x="675" 
d="M100 1470q-3 30 13.5 48t48.5 18h65q32 0 48.5 -18t13.5 -48l-51 -409q-3 -37 -39 -37h-9q-35 0 -38 37zM387 1470q-3 30 13.5 48t48.5 18h65q32 0 48 -18t13 -48l-51 -409q-3 -37 -39 -37h-8q-36 0 -39 37z" />
    <glyph glyph-name="numbersign" unicode="#" 
d="M39 436l8 27q15 49 68 49h118l115 512h-155q-26 0 -38.5 17.5t-4.5 41.5l8 27q15 49 67 49h152l74 328q12 49 63 49h18q26 0 40 -17.5t8 -41.5l-72 -318h321l74 328q12 49 64 49h18q26 0 39.5 -17.5t7.5 -41.5l-71 -318h124q26 0 38.5 -17.5t4.5 -41.5l-8 -27
q-15 -49 -67 -49h-121l-113 -512h156q26 0 38.5 -17.5t4.5 -41.5l-8 -27q-15 -49 -68 -49h-154l-71 -328q-12 -49 -64 -49h-18q-26 0 -39.5 17.5t-7.5 41.5l69 318h-321l-72 -328q-12 -49 -63 -49h-19q-26 0 -39.5 17.5t-7.5 41.5l70 318h-123q-26 0 -38.5 17.5t-4.5 41.5z
M367 512h319l115 512h-322z" />
    <glyph glyph-name="dollar" unicode="$" 
d="M102 989q0 163 128.5 237t375.5 74q39 0 62 -2l63 189q16 49 68 49h45q25 0 35 -18t0 -41l-72 -189q88 -12 166 -31q41 -10 41 -55v-24q0 -22 -15 -33t-47 -4q-174 37 -348 37q-89 0 -152 -8t-115 -28t-78 -58t-26 -95q0 -80 90 -110q58 -19 234 -32q24 -2 35 -3
q86 -8 142.5 -15.5t115.5 -21t94.5 -33t65 -49.5t42.5 -72t13 -98q0 -158 -134 -238.5t-390 -80.5h-41l-64 -185q-16 -49 -67 -49h-45q-25 0 -35 18t0 41l71 187q-110 12 -196 35q-41 10 -41 55v24q0 50 57 37q180 -41 363 -41q185 0 286 45t101 150q0 40 -16.5 68.5t-43 46
t-74.5 29t-94 17.5t-120 11q-67 6 -111.5 10.5t-95 12.5t-83.5 17.5t-67 23.5t-54 32t-37.5 42.5t-24.5 55.5t-7 70z" />
    <glyph glyph-name="percent" unicode="%" horiz-adv-x="1832" 
d="M102 1157q0 200 84 299.5t267 99.5t266.5 -99t83.5 -300t-83.5 -300t-266.5 -99t-267 99.5t-84 299.5zM233 1157q0 -151 51 -213.5t169 -62.5t168.5 62.5t50.5 213.5t-50.5 214t-168.5 63t-169 -63t-51 -214zM339 24q-12 24 7 52l997 1411q35 49 84 49h25q28 0 40 -24
t-7 -52l-998 -1411q-35 -49 -84 -49h-24q-28 0 -40 24zM1030 379q0 201 83.5 300t266.5 99t267 -99.5t84 -299.5t-84 -299.5t-267 -99.5t-266.5 99t-83.5 300zM1161 379q0 -151 50.5 -214t168.5 -63t168.5 63t50.5 214t-50.5 213.5t-168.5 62.5t-168.5 -62.5t-50.5 -213.5z
" />
    <glyph glyph-name="ampersand" unicode="&#x26;" horiz-adv-x="1443" 
d="M92 406q0 94 22 167t65 123.5t88 82.5t110 65q-88 181 -88 368q0 66 19 124.5t58.5 109t111 80.5t167.5 30t167 -30t110.5 -80.5t58 -109t18.5 -124.5q0 -36 -7.5 -68.5t-17.5 -59t-31 -53t-38 -45t-48.5 -41t-52.5 -36t-61 -34l-62 -31l-67 -31.5l-53 -25
q52 -80 109 -149q161 -196 358 -326q102 111 161 276.5t68 368.5q3 66 62 66h16q31 0 47.5 -17.5t14.5 -48.5q-9 -224 -73.5 -407.5t-176.5 -312.5q117 -64 237 -117q60 -24 39 -78l-4 -10q-9 -26 -30.5 -34t-47.5 3q-153 64 -288 143q-207 -165 -482 -165
q-100 0 -183.5 22.5t-151.5 71t-106 133t-38 199.5zM236 406q0 -67 20 -119.5t52.5 -85t77.5 -53.5t90 -29t95 -8q204 0 355 112q-202 137 -357 328q-68 82 -129 178q-48 -26 -81 -51t-63 -62t-45 -89.5t-15 -120.5zM430 1212q0 -154 72 -311l55 27q49 22 66.5 30.5l59.5 30
t59 34t45.5 36t40.5 44.5t22 49.5t10 59.5q0 44 -10.5 80.5t-34 68.5t-67 50.5t-103.5 18.5q-115 0 -165 -61.5t-50 -156.5z" />
    <glyph glyph-name="quotesingle" unicode="'" horiz-adv-x="389" 
d="M100 1470q-3 30 13.5 48t48.5 18h65q32 0 48.5 -18t13.5 -48l-51 -409q-3 -37 -39 -37h-9q-35 0 -38 37z" />
    <glyph glyph-name="parenleft" unicode="(" horiz-adv-x="573" 
d="M102 625q0 575 228 1001q24 45 61 45h41q24 0 39.5 -19t-0.5 -48q-42 -83 -74.5 -164.5t-68 -203t-55 -278t-19.5 -333.5t19.5 -333.5t55 -278t68 -203t74.5 -164.5q16 -29 0.5 -48.5t-39.5 -19.5h-41q-37 0 -61 45q-228 426 -228 1002z" />
    <glyph glyph-name="parenright" unicode=")" horiz-adv-x="573" 
d="M101.5 -402.5q-15.5 19.5 0.5 48.5q42 83 74.5 164.5t68 203t55 278t19.5 333.5t-19.5 333.5t-55 278t-68 203t-74.5 164.5q-16 29 -0.5 48t39.5 19h41q38 0 62 -45q227 -424 227 -1001q0 -578 -227 -1002q-24 -45 -62 -45h-41q-24 0 -39.5 19.5z" />
    <glyph glyph-name="asterisk" unicode="*" horiz-adv-x="727" 
d="M8 1268l8 26q9 29 30 38t46 -3l172 -82q35 -15 25 -49l-4 -12q-8 -32 -49 -25l-187 33q-28 4 -39 24.5t-2 49.5zM110.5 918.5q-2.5 22.5 16.5 42.5l131 137q29 29 55 8l11 -6q26 -21 8 -56l-88 -167q-14 -25 -36.5 -29.5t-47.5 12.5l-23 19q-24 17 -26.5 39.5zM293 1475
q-3 28 12 44.5t45 16.5h29q30 0 45 -16.5t12 -44.5l-26 -189q-6 -39 -39 -39h-13q-36 0 -39 39zM397 1044q-18 35 9 56l10 6q26 21 55 -8l131 -137q19 -20 16.5 -42.5t-26.5 -39.5l-23 -19q-25 -17 -47.5 -12.5t-36.5 29.5zM440 1198q-10 34 25 49l172 82q25 12 46 3t30 -38
l8 -26q9 -29 -2 -49.5t-39 -24.5l-186 -33q-42 -7 -50 25z" />
    <glyph glyph-name="plus" unicode="+" horiz-adv-x="1003" 
d="M92 690v17q0 59 62 59h280v281q0 61 60 61h16q59 0 59 -61v-281h281q61 0 61 -59v-17q0 -59 -61 -59h-281v-281q0 -61 -59 -61h-16q-60 0 -60 61v281h-280q-62 0 -62 59z" />
    <glyph glyph-name="comma" unicode="," horiz-adv-x="389" 
d="M57 -207l37 281q3 28 23 44.5t51 16.5h49q28 0 42 -19t5 -48l-94 -275q-15 -49 -66 -49h-6q-21 0 -32.5 13t-8.5 36z" />
    <glyph glyph-name="hyphen" unicode="-" horiz-adv-x="634" 
d="M61 616v17q0 59 62 59h389q61 0 61 -59v-17q0 -59 -61 -59h-389q-62 0 -62 59z" />
    <glyph glyph-name="period" unicode="." horiz-adv-x="389" 
d="M92 82q0 43 30 72.5t73 29.5t72.5 -29.5t29.5 -72.5t-29.5 -72.5t-72.5 -29.5t-73 29.5t-30 72.5z" />
    <glyph glyph-name="slash" unicode="/" horiz-adv-x="798" 
d="M-10 -362l674 1984q16 49 67 49h43q25 0 34 -17t1 -42l-674 -1985q-16 -49 -67 -49h-43q-25 0 -34 17.5t-1 42.5z" />
    <glyph glyph-name="zero" unicode="0" horiz-adv-x="1228" 
d="M143 768q0 80 1.5 139.5t5.5 127t12 116.5t20.5 102t31.5 90t45 73.5t60.5 60.5t77.5 43t97.5 27.5t119.5 8.5q73 0 132.5 -12t105 -31.5t81 -54.5t60 -71.5t41.5 -92.5t27 -107.5t15.5 -126t7 -138t1.5 -154.5t-1.5 -154.5t-7 -138t-15.5 -126t-27 -107.5t-41.5 -92.5
t-60 -71.5t-81 -54.5t-105 -31.5t-132.5 -12q-65 0 -119.5 8.5t-97.5 27.5t-77.5 43t-60.5 60.5t-45 73.5t-31.5 90t-20.5 102t-12 116.5t-5.5 127t-1.5 139.5zM287 768q0 -93 1 -142.5t4.5 -125.5t12.5 -115.5t24 -93t39 -81t58 -55t81 -38.5t107 -11q67 0 118.5 17.5
t86 43.5t58.5 77.5t36.5 96.5t19 125t8 140t1.5 162t-1.5 162t-8 140t-19 125t-36.5 96.5t-58.5 77.5t-86 43.5t-118.5 17.5q-60 0 -107 -11t-81 -38.5t-58 -55t-39 -81t-24 -93t-12.5 -115.5t-4.5 -125.5t-1 -142.5z" />
    <glyph glyph-name="one" unicode="1" horiz-adv-x="1228" 
d="M215 1407v6q0 22 29 29l336 96q62 18 79 18h3q40 0 40 -43v-1411l297 -18q41 -3 41 -39v-8q0 -37 -39 -37h-737q-39 0 -39 37v8q0 36 41 39l297 18v1307l-317 -29q-31 -3 -31 27z" />
    <glyph glyph-name="two" unicode="2" horiz-adv-x="1228" 
d="M117 59v17q0 25 24 49q237 199 399 353t245.5 249t125.5 181.5t49 128.5t7 112q0 64 -14 110t-50 85.5t-106 60t-174 20.5q-73 0 -141 -10t-100.5 -19t-82.5 -26q-25 -9 -43 5.5t-18 37.5v35q0 38 45 55q136 53 338 53q491 0 491 -409q0 -137 -64.5 -261.5t-237.5 -301
t-509 -455.5l750 4q61 0 61 -59v-15q0 -59 -61 -59h-873q-61 0 -61 59z" />
    <glyph glyph-name="three" unicode="3" horiz-adv-x="1228" 
d="M127 88v35q0 23 18 37.5t43 5.5q167 -55 340 -55q100 0 175.5 17.5t122 46t75 71t39 87t10.5 99.5q0 159 -89 228t-281 69h-218q-61 0 -61 59v17q0 59 61 59h218q83 0 146.5 24t100 65t54.5 89t18 101q0 64 -17 111.5t-58.5 88t-119.5 61.5t-192 21q-73 0 -141 -10
t-100.5 -19t-82.5 -26q-25 -9 -43 5.5t-18 37.5v35q0 38 45 55q136 53 338 53q541 0 541 -413q0 -109 -65 -204t-165 -132q129 -29 205 -133t76 -242q0 -98 -28.5 -176t-92.5 -142t-179.5 -99t-275.5 -35q-218 0 -354 53q-45 17 -45 55z" />
    <glyph glyph-name="four" unicode="4" horiz-adv-x="1228" 
d="M102 502v10q0 22 31 70l639 929q28 45 68 45h6q61 0 61 -65v-916h164q55 0 55 -53v-20q0 -53 -55 -53h-164v-383q0 -66 -61 -66h-17q-61 0 -61 66v383h-610q-56 0 -56 53zM264 571l504 4l4 740z" />
    <glyph glyph-name="five" unicode="5" horiz-adv-x="1228" 
d="M164 82v27q0 24 16.5 37.5t44.5 5.5q156 -46 277 -46q59 0 110 7.5t110 31t100 62.5t68.5 108.5t27.5 161.5q0 64 -13 113.5t-30.5 81.5t-52.5 54.5t-62 33.5t-77 16.5t-78.5 6.5t-85.5 1h-7h-225q-62 0 -62 66v620q0 66 62 66h686q61 0 61 -59v-9q0 -59 -61 -59h-608
v-502q116 11 194 11q59 0 106.5 -4t101.5 -15.5t95.5 -31t81 -53t65 -79t41 -111t15.5 -147.5q0 -92 -19.5 -166.5t-51.5 -125.5t-78.5 -89t-94.5 -59.5t-107.5 -35t-108.5 -17.5t-105 -4q-161 0 -291 47q-45 15 -45 55z" />
    <glyph glyph-name="six" unicode="6" horiz-adv-x="1228" 
d="M133 707q0 159 15 282.5t53.5 233t101.5 180.5t161.5 112t231.5 41q182 0 312 -47q47 -15 47 -57v-31q0 -24 -17 -37.5t-45 -5.5q-151 47 -297 47q-432 0 -432 -659q44 82 136.5 141.5t232.5 59.5q87 0 157.5 -17t118 -44.5t83 -68.5t55 -82t31 -94t15 -95t3.5 -93
q0 -49 -4.5 -93t-17.5 -95t-34.5 -93.5t-57 -82.5t-83 -67.5t-115.5 -44.5t-151 -17q-93 0 -166 18t-125.5 49t-90 82.5t-60.5 108t-36 135.5t-17.5 156t-4.5 178zM285 473q0 -367 348 -367q80 0 140 25.5t93 63t53.5 90t26.5 96.5t6 92q0 42 -3.5 76.5t-13.5 80t-32 80
t-55.5 65.5t-88.5 48t-126 17q-83 0 -146.5 -23.5t-101 -59.5t-61 -86.5t-31.5 -97.5t-8 -100z" />
    <glyph glyph-name="seven" unicode="7" horiz-adv-x="1228" 
d="M102 1462v21q0 53 56 53h913q55 0 55 -53v-19q0 -28 -28 -86l-656 -1325q-27 -53 -82 -53h-49q-29 0 -40 23.5t3 48.5l709 1337h-825q-56 0 -56 53z" />
    <glyph glyph-name="eight" unicode="8" horiz-adv-x="1228" 
d="M96 432q0 126 65 233.5t189 143.5q-97 45 -150 131.5t-53 189.5q0 88 25 161.5t77.5 134.5t145.5 95.5t219 34.5t219 -34.5t145.5 -95.5t77.5 -134.5t25 -161.5q0 -103 -52.5 -189.5t-149.5 -131.5q124 -36 189 -143.5t65 -233.5q0 -74 -17 -139t-56 -123.5t-97.5 -100
t-147.5 -65.5t-201 -24t-200.5 24t-147.5 65.5t-97.5 100t-55.5 123.5t-17 139zM248 432q0 -47 10 -90.5t36 -87.5t66 -76t105.5 -52t148.5 -20t148.5 20t106 52t66.5 76t36 87.5t10 90.5q0 301 -367 301q-366 0 -366 -301zM299 1130q0 -52 17.5 -98t53 -85.5t98.5 -63
t146 -23.5t146 23.5t99 63t53.5 85.5t17.5 98q0 44 -7.5 83.5t-29 80t-55.5 70t-91.5 48t-132.5 18.5t-132.5 -18.5t-91 -47.5t-55 -70t-29 -80.5t-7.5 -83.5z" />
    <glyph glyph-name="nine" unicode="9" horiz-adv-x="1228" 
d="M133 1063q0 49 4.5 93t17.5 95t34.5 93.5t57 82.5t83 67.5t115.5 44.5t151 17q93 0 166 -18t125.5 -49t90 -82.5t60.5 -108t36 -135.5t17.5 -156t4.5 -178q0 -159 -15 -282.5t-53.5 -233t-101.5 -180.5t-162 -112t-232 -41q-181 0 -311 47q-47 15 -47 57v31q0 24 17 37.5
t45 5.5q151 -47 296 -47q433 0 433 659q-44 -82 -136.5 -141.5t-232.5 -59.5q-87 0 -157.5 17t-118 44.5t-83 68.5t-55 82t-31 94t-15 95t-3.5 93zM276 1063q0 -35 2 -64.5t10 -68.5t21 -70t37.5 -63t57 -53t82 -34.5t110.5 -13.5q83 0 146.5 23.5t101 59.5t61 86.5
t31.5 97.5t8 100q0 367 -348 367q-80 0 -140 -25.5t-93.5 -63t-54 -90t-26.5 -96.5t-6 -92z" />
    <glyph glyph-name="colon" unicode=":" horiz-adv-x="389" 
d="M92 82q0 43 30 72.5t73 29.5t72.5 -29.5t29.5 -72.5t-29.5 -72.5t-72.5 -29.5t-73 29.5t-30 72.5zM92 768q0 43 30 72.5t73 29.5t72.5 -29.5t29.5 -72.5t-29.5 -72.5t-72.5 -29.5t-73 29.5t-30 72.5z" />
    <glyph glyph-name="semicolon" unicode=";" horiz-adv-x="389" 
d="M57 -207l37 281q3 28 23 44.5t51 16.5h49q28 0 42 -19t5 -48l-94 -275q-15 -49 -66 -49h-6q-21 0 -32.5 13t-8.5 36zM92 768q0 43 30 72.5t73 29.5t72.5 -29.5t29.5 -72.5t-29.5 -72.5t-72.5 -29.5t-73 29.5t-30 72.5z" />
    <glyph glyph-name="less" unicode="&#x3c;" horiz-adv-x="1003" 
d="M92 686v25q0 58 49 84l711 413q23 14 41 7t18 -33v-41q0 -48 -49 -76l-629 -367l629 -366q49 -28 49 -76v-41q0 -26 -18 -33.5t-41 6.5l-711 414q-49 26 -49 84z" />
    <glyph glyph-name="equal" unicode="=" horiz-adv-x="1003" 
d="M92 555v16q0 60 62 60h696q61 0 61 -60v-16q0 -59 -61 -59h-696q-62 0 -62 59zM92 825v17q0 59 62 59h696q61 0 61 -59v-17q0 -59 -61 -59h-696q-62 0 -62 59z" />
    <glyph glyph-name="greater" unicode="&#x3e;" horiz-adv-x="1003" 
d="M92 215v41q0 48 49 76l629 366l-629 367q-49 28 -49 76v41q0 26 18.5 33t41.5 -7l710 -413q49 -26 49 -84v-25q0 -58 -49 -84l-710 -414q-23 -14 -41.5 -6.5t-18.5 33.5z" />
    <glyph glyph-name="question" unicode="?" horiz-adv-x="962" 
d="M51 1442v20q0 43 45 58q40 14 123 25t148 11q125 0 217 -22.5t146 -59t86.5 -91.5t43 -109t10.5 -123q0 -76 -18.5 -135t-47 -99t-81.5 -77t-101 -60t-128 -55q-42 -17 -71 -39t-44 -41.5t-23.5 -53.5t-10 -56t-3.5 -68q0 -37 -41 -37h-2q-35 0 -41 41q-8 46 -8 90
q0 37 4.5 66t18 60.5t37 57t62.5 50.5t93 45q114 43 157 73q108 73 111 225v11q0 55 -8.5 95t-32.5 77t-64 59.5t-105 36t-154 13.5q-138 0 -256 -29q-30 -7 -46 6t-16 35zM242 82q0 43 29.5 72.5t72.5 29.5t72.5 -29.5t29.5 -72.5t-29.5 -72.5t-72.5 -29.5t-72.5 29.5
t-29.5 72.5z" />
    <glyph glyph-name="at" unicode="@" horiz-adv-x="1781" 
d="M82 512q0 788 819 788q394 0 596.5 -168.5t202.5 -500.5q0 -49 -4.5 -95.5t-17.5 -100.5t-33.5 -100t-56 -90t-82 -75t-114 -49.5t-149.5 -18.5h-49q-20 0 -29.5 11t-21.5 41l-10 24q-128 -96 -279 -96q-79 0 -146 26.5t-120 77.5t-83 135t-30 191t30 191t83 135
t120 77.5t146 26.5q151 0 279 -96l10 24q12 30 21.5 41t29.5 11h6q43 0 43 -48v-655q177 -1 251.5 103.5t74.5 318.5q0 288 -160 413.5t-508 125.5t-513 -157.5t-165 -510.5t165 -510.5t513 -157.5q146 0 270.5 21.5t186.5 42.5q30 10 48.5 -1.5t18.5 -33.5v-27
q0 -40 -45 -57q-57 -21 -196 -43t-283 -22q-819 0 -819 788zM618 512q0 -154 61.5 -228.5t194.5 -74.5q105 0 226 65v476q-121 65 -226 65q-133 0 -194.5 -74.5t-61.5 -228.5z" />
    <glyph glyph-name="A" unicode="A" horiz-adv-x="1290" 
d="M53 66l522 1437q9 29 23 41t41 12h12q27 0 41 -12t23 -41l522 -1437q5 -13 5 -24q0 -14 -8 -24q-14 -18 -38 -18h-41q-54 0 -72 55l-129 375h-618l-129 -375q-18 -55 -72 -55h-41q-24 0 -38 18q-8 10 -8 24q0 11 5 24zM379 551h532l-266 772z" />
    <glyph glyph-name="B" unicode="B" horiz-adv-x="1259" 
d="M154 66v1404q0 66 61 66h424q130 0 225 -31.5t148.5 -88.5t78.5 -128t25 -158q0 -104 -52 -191t-149 -128q84 -23 142.5 -83t84 -135t25.5 -161q0 -94 -27 -169.5t-85.5 -136t-160.5 -93.5t-241 -33h-438q-61 0 -61 66zM293 129h379q84 0 146.5 18t99.5 46t60 69
t30.5 81.5t7.5 88.5q0 159 -77.5 231t-262.5 72h-383v-606zM293 864h383q83 0 142 22.5t89.5 62t44 84t13.5 97.5q0 57 -12 101.5t-43 86.5t-94.5 65.5t-156.5 23.5h-366v-543z" />
    <glyph glyph-name="C" unicode="C" horiz-adv-x="1249" 
d="M123 768q0 136 18.5 250t62.5 215.5t112 171.5t172.5 110.5t238.5 40.5q203 0 346 -51q53 -18 53 -69v-29q0 -21 -16 -33.5t-47 -1.5q-152 55 -336 55q-98 0 -176 -33t-130 -91.5t-86.5 -142.5t-49.5 -181t-15 -211t15 -211t49.5 -181t86.5 -142.5t130 -91.5t176 -33
q184 0 336 55q31 11 47 -1.5t16 -33.5v-29q0 -51 -53 -69q-143 -51 -346 -51q-134 0 -238.5 40.5t-172.5 110.5t-112 171.5t-62.5 215.5t-18.5 250z" />
    <glyph glyph-name="D" unicode="D" horiz-adv-x="1341" 
d="M154 66v1404q0 66 61 66h356q147 0 260 -38.5t185.5 -105.5t118.5 -166t65 -210t19 -248t-19 -248t-65 -210t-118.5 -166t-185.5 -105.5t-260 -38.5h-356q-61 0 -61 66zM293 129h287q491 0 491 639t-491 639h-287v-1278z" />
    <glyph glyph-name="E" unicode="E" 
d="M154 66v1404q0 66 61 66h768q61 0 61 -59v-11q0 -59 -61 -59h-690v-543h618q62 0 62 -59v-10q0 -60 -62 -60h-618v-606h690q61 0 61 -59v-11q0 -59 -61 -59h-768q-61 0 -61 66z" />
    <glyph glyph-name="F" unicode="F" horiz-adv-x="1126" 
d="M154 66v1404q0 66 61 66h748q61 0 61 -59v-11q0 -59 -61 -59h-670v-543h598q61 0 61 -59v-10q0 -60 -61 -60h-598v-669q0 -66 -62 -66h-16q-61 0 -61 66z" />
    <glyph glyph-name="G" unicode="G" horiz-adv-x="1351" 
d="M123 768q0 136 18.5 250t62.5 215.5t112 171.5t172.5 110.5t238.5 40.5q211 0 377 -61q53 -18 53 -68v-34q0 -23 -16.5 -35.5t-46.5 -1.5q-176 71 -367 71q-98 0 -176 -33t-130 -91.5t-86.5 -142.5t-49.5 -181t-15 -211t15 -211t49.5 -181t86.5 -142.5t130 -91.5t176 -33
q239 0 332 45v524h-260q-62 0 -62 59v11q0 59 62 59h338q61 0 61 -66v-632q0 -50 -53 -68q-166 -61 -418 -61q-134 0 -238.5 40.5t-172.5 110.5t-112 171.5t-62.5 215.5t-18.5 250z" />
    <glyph glyph-name="H" unicode="H" horiz-adv-x="1351" 
d="M154 66v1404q0 66 61 66h16q62 0 62 -66v-606h766v606q0 66 61 66h17q61 0 61 -66v-1404q0 -66 -61 -66h-17q-61 0 -61 66v669h-766v-669q0 -66 -62 -66h-16q-61 0 -61 66z" />
    <glyph glyph-name="I" unicode="I" horiz-adv-x="532" 
d="M195 66v1404q0 66 61 66h20q62 0 62 -66v-1404q0 -66 -62 -66h-20q-61 0 -61 66z" />
    <glyph glyph-name="J" unicode="J" horiz-adv-x="776" 
d="M72 45v18q0 24 17 39t42 11q32 -4 84 -4q107 0 165 39.5t58 134.5v1187q0 66 62 66h20q62 0 62 -66v-1183q0 -307 -367 -307q-34 0 -84 4q-28 3 -43.5 19t-15.5 42z" />
    <glyph glyph-name="K" unicode="K" horiz-adv-x="1218" 
d="M154 66v1404q0 66 61 66h16q62 0 62 -66v-712l629 708q38 44 59 57t55 13h27q27 0 37.5 -25.5t-10.5 -48.5l-558 -620l621 -764q14 -16 14 -34q0 -8 -3 -16q-9 -28 -42 -28h-16q-50 0 -72 14.5t-63 65.5l-531 659l-147 -164v-509q0 -66 -62 -66h-16q-61 0 -61 66z" />
    <glyph glyph-name="L" unicode="L" horiz-adv-x="1085" 
d="M154 66v1404q0 66 61 66h16q62 0 62 -66v-1341h649q62 0 62 -59v-11q0 -59 -62 -59h-727q-61 0 -61 66z" />
    <glyph glyph-name="M" unicode="M" horiz-adv-x="1720" 
d="M154 66v1404q0 66 61 66h86q42 0 57 -35l502 -1095l502 1095q15 35 57 35h86q62 0 62 -66v-1404q0 -66 -62 -66h-16q-62 0 -62 66l9 1288l-504 -1088q-13 -30 -55 -30h-33q-43 0 -56 30l-503 1088l8 -1288q0 -66 -62 -66h-16q-61 0 -61 66z" />
    <glyph glyph-name="N" unicode="N" horiz-adv-x="1372" 
d="M154 66v1404q0 66 61 66h10q32 0 51 -29l807 -1222l-4 1185q0 66 62 66h16q62 0 62 -66v-1404q0 -66 -62 -66h-10q-32 0 -51 29l-807 1222l4 -1185q0 -66 -62 -66h-16q-61 0 -61 66z" />
    <glyph glyph-name="O" unicode="O" horiz-adv-x="1392" 
d="M123 768q0 94 5 170.5t20.5 160.5t41.5 148t70 124.5t103 99.5t143.5 62t189.5 23t189.5 -23t144 -62.5t103 -99t69.5 -124t41.5 -148.5t21 -160.5t5.5 -170.5t-5.5 -170.5t-21 -160.5t-41.5 -148.5t-69.5 -124t-103 -99t-144 -62.5t-189.5 -23t-189.5 23t-143.5 62
t-103 99.5t-70 124.5t-41.5 148t-20.5 160.5t-5 170.5zM270 768q0 -86 4 -153.5t15.5 -138t31 -123t52 -100.5t76.5 -78.5t106.5 -48t140.5 -17.5t140.5 17.5t106.5 48t76.5 78.5t52 100.5t31 123t15.5 138t4 153.5t-4 153.5t-15.5 138t-31 123t-52 100.5t-76.5 78.5
t-106.5 48t-140.5 17.5t-140.5 -17.5t-106.5 -48t-76.5 -78.5t-52 -100.5t-31 -123t-15.5 -138t-4 -153.5z" />
    <glyph glyph-name="P" unicode="P" horiz-adv-x="1208" 
d="M154 66v1404q0 66 61 66h408q112 0 200.5 -25t146.5 -68t96 -102.5t54.5 -125t16.5 -140.5t-16.5 -140.5t-54.5 -125t-96 -102.5t-146.5 -68t-200.5 -25h-330v-548q0 -66 -62 -66h-16q-61 0 -61 66zM293 743h348q83 0 146.5 21t100 53t59.5 78t30.5 88.5t7.5 91.5
t-7.5 91.5t-30.5 88.5t-59.5 78t-100 53t-146.5 21h-348v-664z" />
    <glyph glyph-name="Q" unicode="Q" horiz-adv-x="1392" 
d="M123 768q0 101 6 182t22 165t42.5 147.5t70.5 120.5t103 94t142.5 58t186.5 21q105 0 188.5 -21.5t143 -57.5t103.5 -93.5t70 -121t42 -147.5t21.5 -165t5.5 -182q0 -89 -3.5 -158.5t-14 -145t-28.5 -132t-48.5 -111.5t-72.5 -94t-102 -68.5t-135 -44.5v-2l529 -106
q59 -12 59 -66v-30q0 -28 -20 -41q-12 -8 -29 -8q-10 0 -21 3l-876 236q-82 22 -145 62.5t-104.5 98.5t-69 123t-41.5 148.5t-19.5 161t-5.5 174.5zM270 768q0 -86 4 -153.5t15.5 -138t31 -123t52 -100.5t76.5 -78.5t106.5 -48t140.5 -17.5t140.5 17.5t106.5 48t76.5 78.5
t52 100.5t31 123t15.5 138t4 153.5t-4 153.5t-15.5 138t-31 123t-52 100.5t-76.5 78.5t-106.5 48t-140.5 17.5t-140.5 -17.5t-106.5 -48t-76.5 -78.5t-52 -100.5t-31 -123t-15.5 -138t-4 -153.5z" />
    <glyph glyph-name="R" unicode="R" horiz-adv-x="1271" 
d="M154 66v1404q0 66 61 66h420q141 0 239.5 -29.5t155.5 -88t82 -135t25 -179.5q0 -107 -26 -185.5t-90 -137t-167 -85.5l328 -622q7 -14 7 -26q1 -13 -7 -25q-14 -23 -43 -23h-17q-62 0 -96 63l-311 611q-23 -2 -68 -2h-354v-606q0 -66 -62 -66h-16q-61 0 -61 66zM293 801
h379q79 0 136.5 16.5t91 42.5t53.5 67t26 82t6 95t-6 95t-26 82t-53.5 67t-91 42.5t-136.5 16.5h-379v-606z" />
    <glyph glyph-name="S" unicode="S" horiz-adv-x="1218" 
d="M111 111v22q0 23 17 36t48 3q181 -63 367 -63q415 0 415 333q0 66 -12 111.5t-35 77t-67.5 52t-96.5 32t-135 22.5q-141 18 -232 43.5t-153.5 70.5t-89 111.5t-26.5 165.5q0 59 12 113.5t46.5 113.5t89.5 102t150 71t218 28q193 0 344 -49q55 -18 55 -69v-29
q0 -24 -18.5 -34.5t-53.5 1.5q-128 51 -329 51q-109 0 -185 -23.5t-115.5 -67t-56 -94t-16.5 -116.5q0 -41 5 -73t19 -57t28 -43t42.5 -32.5t50.5 -23t65 -17t73 -13t86 -11.5q98 -13 167 -29.5t133.5 -46.5t103 -73.5t61 -109.5t22.5 -155q0 -68 -14.5 -129t-54 -123.5
t-101 -107.5t-163.5 -73.5t-234 -28.5q-190 0 -377 61q-53 18 -53 70z" />
    <glyph glyph-name="T" unicode="T" horiz-adv-x="1146" 
d="M80 1466v11q0 59 61 59h865q61 0 61 -59v-11q0 -59 -61 -59h-363v-1341q0 -66 -61 -66h-17q-61 0 -61 66v1341h-363q-61 0 -61 59z" />
    <glyph glyph-name="U" unicode="U" horiz-adv-x="1372" 
d="M143 481v989q0 66 62 66h16q62 0 62 -66v-966q0 -395 403 -395q404 0 404 395v966q0 66 61 66h16q62 0 62 -66v-989q0 -90 -21 -164.5t-54.5 -125.5t-80.5 -90t-95.5 -61.5t-104 -36.5t-99.5 -18.5t-88 -4.5t-88 4.5t-99.5 18.5t-104 36.5t-95.5 61.5t-80.5 90
t-54.5 125.5t-21 164.5z" />
    <glyph glyph-name="V" unicode="V" horiz-adv-x="1310" 
d="M63 1470q-5 13 -5 24q0 14 8 24q14 18 38 18h41q54 0 72 -55l438 -1268l439 1268q18 55 71 55h41q24 0 38 -18q8 -10 8 -24q0 -11 -5 -24l-522 -1437q-9 -29 -22.5 -41t-40.5 -12h-13q-27 0 -40.5 12t-22.5 41z" />
    <glyph glyph-name="W" unicode="W" horiz-adv-x="1802" 
d="M55 1468q-2 9 -2 16q0 19 11 33q15 19 42 19h27q55 0 68 -59l262 -1280l344 1276q15 63 76 63h37q60 0 75 -63l344 -1276l263 1280q13 59 67 59h27q27 0 42 -19q11 -14 11 -33q0 -8 -2 -16l-320 -1429q-13 -59 -75 -59h-25q-61 0 -76 59l-350 1313l-350 -1313
q-15 -59 -76 -59h-24q-63 0 -76 59z" />
    <glyph glyph-name="X" unicode="X" horiz-adv-x="1290" 
d="M34 24q-5 10 -5 20q0 15 10 30l483 704l-471 682q-18 26 -5 51t42 25h35q55 0 86 -53l405 -615l406 615q31 53 86 53h35q29 0 42 -25t-5 -51l-471 -682l483 -704q10 -16 10 -30q0 -10 -4 -20q-12 -24 -41 -24h-45q-54 0 -80 43l-416 641l-415 -641q-26 -43 -80 -43h-45
q-28 0 -40 24z" />
    <glyph glyph-name="Y" unicode="Y" horiz-adv-x="1372" 
d="M68 1510q11 26 43 26h18q52 0 82 -49l475 -739l475 739q30 49 82 49h19q32 0 43 -26q4 -10 4 -20q0 -16 -11 -32l-542 -827v-565q0 -66 -62 -66h-16q-62 0 -62 66v565l-542 827q-11 16 -11 32q0 10 5 20z" />
    <glyph glyph-name="Z" unicode="Z" horiz-adv-x="1249" 
d="M82 59v7q0 20 7.5 36t35.5 58l831 1251l-772 -4q-61 0 -61 59v11q0 59 61 59h891q62 0 62 -59v-7q0 -20 -7.5 -36t-35.5 -58l-832 -1251l844 4q61 0 61 -59v-11q0 -59 -61 -59h-963q-61 0 -61 59z" />
    <glyph glyph-name="bracketleft" unicode="[" horiz-adv-x="471" 
d="M133 -356v1962q0 65 62 65h153q62 0 62 -59v-17q0 -59 -62 -59h-69v-1823h69q62 0 62 -59v-16q0 -60 -62 -60h-153q-62 0 -62 66z" />
    <glyph glyph-name="backslash" unicode="\" horiz-adv-x="798" 
d="M-10 1612q-8 25 1 42t34 17h43q51 0 67 -49l674 -1984q8 -25 -1 -42.5t-34 -17.5h-43q-51 0 -67 49z" />
    <glyph glyph-name="bracketright" unicode="]" horiz-adv-x="471" 
d="M61 -346q0 59 62 59h70v1823h-70q-62 0 -62 59v17q0 59 62 59h153q62 0 62 -65v-1962q0 -66 -62 -66h-153q-62 0 -62 60v16z" />
    <glyph glyph-name="asciicircum" unicode="^" horiz-adv-x="1146" 
d="M59 786q-7 18 7 41l409 680q26 49 84 49h29q58 0 84 -49l409 -680q14 -23 7 -41t-33 -18h-33q-54 0 -84 49l-365 588l-364 -588q-30 -49 -84 -49h-33q-26 0 -33 18z" />
    <glyph glyph-name="underscore" unicode="_" horiz-adv-x="573" 
d="M0 -252q0 57 61 57h451q61 0 61 -57v-8q0 -57 -61 -57h-451q-61 0 -61 57v8z" />
    <glyph glyph-name="grave" unicode="`" 
d="M399 1462q-11 29 2 51.5t43 22.5h31q59 0 72 -55l76 -305q5 -20 -6 -35t-35 -15h-7q-44 0 -61 48z" />
    <glyph glyph-name="a" unicode="a" horiz-adv-x="1013" 
d="M102 309q0 298 365 320l270 16v57q0 116 -52.5 166t-190.5 50q-124 0 -244 -35q-36 -10 -56 3t-20 36v24q0 41 45 58q110 40 275 40q112 0 189.5 -24t119.5 -71.5t60 -107.5t18 -141v-653q0 -47 -43 -47h-4q-21 0 -31 10.5t-21 38.5l-12 33q-138 -102 -309 -102
q-97 0 -168.5 26.5t-112 74t-59.5 104t-19 124.5zM248 309q0 -32 3.5 -57t17 -54t36 -47.5t63.5 -31.5t97 -13q78 0 138.5 20t133.5 62v357l-280 -27q-209 -20 -209 -209z" />
    <glyph glyph-name="b" unicode="b" horiz-adv-x="1095" 
d="M133 47v1423q0 66 62 66h20q61 0 61 -66v-509q128 83 287 83q96 0 170 -27.5t120.5 -74.5t76 -116t41.5 -145t12 -169t-12 -169t-41.5 -145t-76 -116t-120.5 -74.5t-170 -27.5q-157 0 -319 104l-13 -33q-10 -28 -20 -39.5t-31 -11.5h-4q-43 0 -43 47zM276 172
q64 -34 128 -50t159 -16q71 0 123 23.5t81 60t46 93t22 108.5t5 121t-5 121t-22 108.5t-46 93t-81 60t-123 23.5q-95 0 -159 -16t-128 -50v-680z" />
    <glyph glyph-name="c" unicode="c" horiz-adv-x="942" 
d="M113 512q0 94 11.5 169.5t41 145t77.5 116t124.5 74t177.5 27.5q158 0 268 -36q45 -15 45 -58v-28q0 -22 -16.5 -34.5t-50.5 -2.5q-128 33 -248 33q-63 0 -111 -15.5t-78.5 -45.5t-50.5 -65.5t-30 -85t-13.5 -93.5t-3.5 -101t3.5 -101t13.5 -93.5t30 -85t50.5 -65.5
t78.5 -45.5t111 -15.5q120 0 248 33q34 10 50.5 -2.5t16.5 -34.5v-28q0 -43 -45 -58q-110 -36 -268 -36q-101 0 -177.5 27.5t-124.5 74t-77.5 116t-41 145t-11.5 169.5z" />
    <glyph glyph-name="d" unicode="d" horiz-adv-x="1095" 
d="M113 512q0 93 11.5 169t41 145t76 116t120.5 74.5t170 27.5q159 0 287 -83v509q0 66 62 66h20q62 0 62 -66v-1423q0 -47 -43 -47h-5q-21 0 -31 11.5t-20 39.5l-12 33q-162 -104 -320 -104q-96 0 -170 27.5t-120.5 74.5t-76 116t-41 145t-11.5 169zM256 512
q0 -48 2.5 -86.5t9.5 -82t19 -76.5t33 -64.5t49.5 -52t70 -32.5t92.5 -12q95 0 159 16t128 50v680q-64 34 -128 50t-159 16q-51 0 -92.5 -12t-70 -32.5t-49.5 -52t-33 -64.5t-19 -76.5t-9.5 -82t-2.5 -86.5z" />
    <glyph glyph-name="e" unicode="e" horiz-adv-x="1044" 
d="M113 512q0 94 11.5 169.5t40.5 145t76.5 116t124 74t177.5 27.5q85 0 149.5 -18t106.5 -55t69 -81.5t40.5 -109.5t18.5 -125.5t5 -142.5q0 -66 -62 -66h-614q3 -58 11 -104t27.5 -92t50 -76t81 -49t117.5 -19q157 0 282 41q31 10 47.5 0t16.5 -32v-33q0 -38 -45 -55
q-124 -47 -301 -47q-101 0 -177.5 27.5t-124 74t-76.5 116t-40.5 145t-11.5 169.5zM256 563h532q0 47 -1 77.5t-6.5 72t-15 67.5t-27.5 55t-43.5 45t-64 27t-87.5 11q-69 0 -120.5 -20t-82 -51.5t-49.5 -80t-26 -95.5t-9 -108z" />
    <glyph glyph-name="f" unicode="f" horiz-adv-x="768" 
d="M33 948q0 18 10.5 27.5t34.5 15.5l168 39v219q0 307 368 307q52 0 95 -6q49 -7 49 -55v-25q0 -22 -16.5 -35.5t-49.5 -9.5q-40 5 -78 5q-231 0 -231 -181v-225h268q56 0 56 -53v-6q0 -54 -56 -54h-268v-845q0 -66 -61 -66h-15q-61 0 -61 66v845h-168q-45 0 -45 37z" />
    <glyph glyph-name="g" unicode="g" horiz-adv-x="1044" 
d="M37 -223q0 99 59 169t152 101v2q-66 46 -66 135q0 77 78 140q-164 91 -164 335q0 385 400 385q85 0 163 -20h308q49 0 49 -39q0 -38 -51 -51l-129 -37q59 -91 59 -238q0 -385 -399 -385q-73 0 -136 13q-38 -38 -38 -76t18.5 -56.5t58.5 -23.5l349 -41
q147 -15 213.5 -78.5t66.5 -195.5q0 -91 -42.5 -159.5t-118 -109t-168.5 -60t-203 -19.5q-225 0 -342 73t-117 236zM170 -215q0 -109 79.5 -152t246.5 -43q82 0 149.5 11.5t125 36t90 70t32.5 108.5q0 77 -39.5 112.5t-134.5 46.5l-299 35q-250 -57 -250 -225zM229 659
q0 -46 4.5 -79.5t20.5 -69.5t44 -59t78 -37.5t120 -14.5q50 0 90 7.5t67.5 20t47.5 32.5t31.5 40.5t18.5 49t9 53.5t2 57q0 46 -4.5 79.5t-20.5 70t-43.5 59t-77.5 37.5t-120 15t-120 -15t-78 -37.5t-44 -59t-20.5 -70t-4.5 -79.5z" />
    <glyph glyph-name="h" unicode="h" horiz-adv-x="1024" 
d="M133 66v1404q0 66 62 66h20q61 0 61 -66v-509q130 83 277 83q348 0 348 -307v-671q0 -66 -61 -66h-21q-61 0 -61 66v677q0 95 -52 135t-153 40q-93 0 -154.5 -16t-122.5 -50v-786q0 -66 -61 -66h-20q-62 0 -62 66z" />
    <glyph glyph-name="i" unicode="i" horiz-adv-x="491" 
d="M133 1331q0 43 30 73t73 30t72.5 -30t29.5 -73t-29.5 -72.5t-72.5 -29.5t-73 29.5t-30 72.5zM166 156v802q0 66 61 66h17q61 0 61 -66v-804q0 -28 10.5 -40.5t36.5 -15.5q25 -3 36 -14.5t11 -34.5v-12q0 -49 -57 -49q-91 0 -133.5 46.5t-42.5 121.5z" />
    <glyph glyph-name="j" unicode="j" horiz-adv-x="471" 
d="M-96 -457q0 56 65 56q197 0 197 196v1163q0 66 61 66h17q61 0 61 -66v-1173q0 -147 -92.5 -227t-243.5 -80q-65 0 -65 55v10zM133 1331q0 43 30 73t73 30t72.5 -30t29.5 -73t-29.5 -72.5t-72.5 -29.5t-73 29.5t-30 72.5z" />
    <glyph glyph-name="k" unicode="k" horiz-adv-x="1024" 
d="M133 66v1404q0 66 62 66h16q61 0 61 -66v-923l478 436q2 2 8 7t8 7t7 6t7.5 5.5l7.5 4.5t8 4t8.5 3t10 2.5t10.5 1t13 0.5h43q28 0 39.5 -25t-11.5 -47l-399 -352l467 -526q10 -12 10 -26q0 -8 -4 -20q-11 -28 -43 -28h-31q-50 0 -88 41l-407 473l-142 -123v-325
q0 -66 -61 -66h-16q-62 0 -62 66z" />
    <glyph glyph-name="l" unicode="l" horiz-adv-x="491" 
d="M166 156v1314q0 66 61 66h17q61 0 61 -66v-1316q0 -28 10.5 -40.5t36.5 -15.5q25 -3 36 -14.5t11 -34.5v-12q0 -49 -57 -49q-91 0 -133.5 46.5t-42.5 121.5z" />
    <glyph glyph-name="m" unicode="m" horiz-adv-x="1607" 
d="M133 66v911q0 47 43 47h4q21 0 31 -11.5t20 -39.5l13 -33q142 104 299 104q207 0 286 -116q166 116 318 116q166 0 252 -77t86 -230v-671q0 -66 -62 -66h-20q-62 0 -62 66v677q0 95 -50 135t-144 40q-89 0 -150 -16.5t-129 -51.5q13 -54 13 -107v-677q0 -66 -62 -66h-20
q-62 0 -62 66v677q0 95 -50 135t-144 40q-85 0 -144 -14.5t-123 -47.5v-790q0 -66 -61 -66h-20q-62 0 -62 66z" />
    <glyph glyph-name="n" unicode="n" horiz-adv-x="1024" 
d="M133 66v911q0 47 43 47h4q21 0 31 -11.5t20 -39.5l13 -35q141 106 309 106q348 0 348 -307v-671q0 -66 -61 -66h-21q-61 0 -61 66v677q0 95 -52 135t-153 40q-93 0 -154.5 -16t-122.5 -50v-786q0 -66 -61 -66h-20q-62 0 -62 66z" />
    <glyph glyph-name="o" unicode="o" horiz-adv-x="1085" 
d="M113 512q0 100 11 176.5t40 145.5t76.5 113.5t123.5 70.5t179 26t179.5 -26t124 -70.5t76.5 -113.5t39.5 -145.5t10.5 -176.5t-10.5 -176.5t-39.5 -145.5t-76.5 -113.5t-124 -70.5t-179.5 -26t-179 26t-123.5 70.5t-76.5 113.5t-40 145.5t-11 176.5zM256 512
q0 -57 1.5 -95.5t8 -85t18.5 -77t33 -61t51 -48t74 -28.5t101 -11q56 0 99.5 11t73.5 28.5t51 48t33 61t18.5 76.5t8.5 85.5t2 95.5t-2 95.5t-8.5 85.5t-18.5 76.5t-33 61t-51 48t-73.5 28.5t-99.5 11q-57 0 -101 -11t-74 -28.5t-51 -48t-33 -61t-18.5 -77t-8 -85
t-1.5 -95.5z" />
    <glyph glyph-name="p" unicode="p" horiz-adv-x="1095" 
d="M133 -446v1423q0 47 43 47h4q21 0 31 -11.5t20 -39.5l13 -33q162 104 319 104q96 0 170 -27.5t120.5 -74.5t76 -116t41.5 -145t12 -169t-12 -169t-41.5 -145t-76 -116t-120.5 -74.5t-170 -27.5q-159 0 -287 83v-509q0 -66 -61 -66h-20q-62 0 -62 66zM276 172
q64 -34 128 -50t159 -16q71 0 123 23.5t81 60t46 93t22 108.5t5 121t-5 121t-22 108.5t-46 93t-81 60t-123 23.5q-95 0 -159 -16t-128 -50v-680z" />
    <glyph glyph-name="q" unicode="q" horiz-adv-x="1095" 
d="M113 512q0 93 11.5 169t41 145t76 116t120.5 74.5t170 27.5q158 0 320 -104l12 33q10 28 20 39.5t31 11.5h5q43 0 43 -47v-1423q0 -66 -62 -66h-20q-62 0 -62 66v509q-128 -83 -287 -83q-96 0 -170 27.5t-120.5 74.5t-76 116t-41 145t-11.5 169zM256 512q0 -48 2.5 -86.5
t9.5 -82t19 -76.5t33 -64.5t49.5 -52t70 -32.5t92.5 -12q95 0 159 16t128 50v680q-64 34 -128 50t-159 16q-51 0 -92.5 -12t-70 -32.5t-49.5 -52t-33 -64.5t-19 -76.5t-9.5 -82t-2.5 -86.5z" />
    <glyph glyph-name="r" unicode="r" horiz-adv-x="743" 
d="M133 66v911q0 47 43 47h4q21 0 31 -11.5t20 -39.5l13 -35q141 106 329 106q38 0 74 -4q55 -6 55 -57v-22q0 -23 -14.5 -37.5t-44.5 -10.5q-50 5 -70 5q-180 0 -297 -66v-786q0 -66 -61 -66h-20q-62 0 -62 66z" />
    <glyph glyph-name="s" unicode="s" horiz-adv-x="942" 
d="M102 82v24q0 23 17 37t45 7q2 0 39.5 -10.5t62.5 -16t71 -11.5t89 -6q147 0 208.5 52t61.5 135q0 39 -8 65.5t-31 51t-70.5 39t-121.5 20.5q-108 10 -181 33.5t-110.5 60.5t-52.5 79t-15 99q0 58 20 109t62.5 96t119.5 71.5t181 26.5q156 0 267 -38q45 -15 45 -60v-22
q0 -24 -19.5 -37t-50.5 -4q-136 35 -244 35q-74 0 -123.5 -13t-75.5 -38.5t-36 -55t-10 -70.5q0 -49 16.5 -77t68.5 -48t148 -28q86 -8 149 -25t104 -41t65 -59.5t33.5 -75t9.5 -92.5q0 -63 -21.5 -116.5t-67 -99.5t-128.5 -72.5t-195 -26.5q-73 0 -155 14.5t-122 28.5
q-45 15 -45 59z" />
    <glyph glyph-name="t" unicode="t" horiz-adv-x="768" 
d="M33 948q0 18 10.5 27.5t34.5 15.5l168 39v244q0 45 43 57l37 10q10 3 19 3q13 0 25 -8q18 -12 19 -33v-279h262q56 0 56 -53v-6q0 -54 -56 -54h-262v-637q0 -92 49 -134t148 -42h39q23 0 36 -13t13 -34v-20q0 -42 -51 -49q-8 -2 -50 -2q-66 0 -123 15.5t-103.5 47.5
t-73.5 87t-27 128v653h-168q-45 0 -45 37z" />
    <glyph glyph-name="u" unicode="u" horiz-adv-x="1024" 
d="M123 287v671q0 66 61 66h21q61 0 61 -66v-677q0 -95 52 -135t153 -40q93 0 154.5 16t122.5 50v786q0 66 61 66h20q62 0 62 -66v-911q0 -47 -43 -47h-4q-21 0 -31 11.5t-20 39.5l-13 35q-141 -106 -309 -106q-348 0 -348 307z" />
    <glyph glyph-name="v" unicode="v" horiz-adv-x="983" 
d="M61 950q-5 12 -5 24q0 14 7 26q13 24 43 24h31q54 0 70 -47l285 -793l284 793q16 47 70 47h31q30 0 43 -24q7 -13 7 -26q0 -12 -5 -24l-361 -923q-10 -25 -23.5 -36t-39.5 -11h-13q-26 0 -39.5 11t-23.5 36z" />
    <glyph glyph-name="w" unicode="w" horiz-adv-x="1433" 
d="M51 956q-3 11 -3 21q0 16 8 28q13 19 42 19h39q52 0 64 -57l182 -750l242 754q9 29 24 41t43 12h49q28 0 43.5 -12t24.5 -41l242 -754l182 750q12 57 63 57h39q29 0 42 -19q8 -12 8 -28q0 -10 -3 -21l-260 -925q-13 -51 -63 -51h-8q-50 0 -66 51l-268 839l-268 -839
q-16 -51 -66 -51h-8q-51 0 -64 51z" />
    <glyph glyph-name="x" unicode="x" horiz-adv-x="1003" 
d="M69 26q-5 10 -5 20q0 15 12 30l344 450l-324 422q-19 23 -6.5 49.5t41.5 26.5h33q45 0 72 -37l266 -364l266 364q27 37 72 37h32q29 0 41.5 -26.5t-6.5 -49.5l-323 -422l344 -450q12 -14 12 -30q0 -10 -5 -20q-12 -26 -42 -26h-33q-48 0 -72 37l-286 393l-287 -393
q-24 -37 -72 -37h-32q-30 0 -42 26z" />
    <glyph glyph-name="y" unicode="y" horiz-adv-x="983" 
d="M57 950q-5 12 -5 24q0 14 7 26q13 24 43 24h37q54 0 70 -47l283 -793l282 793q16 47 70 47h37q30 0 43 -24q7 -12 7 -26q0 -12 -5 -24l-555 -1415q-16 -47 -70 -47h-25q-30 0 -43 23.5t-2 50.5l199 465z" />
    <glyph glyph-name="z" unicode="z" horiz-adv-x="921" 
d="M61 53v10q0 31 31 70l570 770h-515q-55 0 -55 53v15q0 53 55 53h637q56 0 56 -53v-10q0 -31 -31 -70l-569 -770h565q55 0 55 -53v-15q0 -53 -55 -53h-688q-56 0 -56 53z" />
    <glyph glyph-name="braceleft" unicode="{" horiz-adv-x="430" 
d="M37 612v25q0 28 15 41t46 18q48 8 45 76l-37 676q-4 75 25 127t74.5 74t101.5 22q62 0 62 -59v-17q0 -55 -62 -61q-58 -7 -55 -78l37 -676q3 -93 -68 -155q71 -62 68 -156l-37 -676q-3 -71 55 -78q62 -6 62 -61v-16q0 -60 -62 -60q-56 0 -101.5 22t-74.5 74t-25 127
l37 676q3 68 -45 76q-31 5 -46 18t-15 41z" />
    <glyph glyph-name="bar" unicode="|" horiz-adv-x="501" 
d="M178 -356v1962q0 65 62 65h22q62 0 62 -65v-1962q0 -66 -62 -66h-22q-62 0 -62 66z" />
    <glyph glyph-name="braceright" unicode="}" horiz-adv-x="430" 
d="M61 -346q0 55 62 61q58 7 55 78l-37 676q-3 94 68 156q-71 62 -68 155l37 676q3 71 -55 78q-62 6 -62 61v17q0 59 62 59q56 0 101.5 -22t74.5 -74t25 -127l-37 -676q-3 -68 45 -76q31 -5 46 -18t15 -41v-25q0 -28 -15 -41t-46 -18q-48 -8 -45 -76l37 -676q4 -75 -25 -127
t-74.5 -74t-101.5 -22q-62 0 -62 60v16z" />
    <glyph glyph-name="asciitilde" unicode="~" horiz-adv-x="1003" 
d="M92 700v27q0 46 45 68q71 39 162 39q58 0 105.5 -15.5t80.5 -37.5l64 -44t69 -37.5t82 -15.5q45 0 76.5 8.5t75.5 30.5q32 13 45.5 4.5t13.5 -31.5v-26q0 -46 -45 -68q-71 -39 -161 -39q-70 0 -128 23.5t-91.5 51.5t-81.5 51.5t-101 23.5q-45 0 -75.5 -8.5t-75.5 -30.5
q-32 -13 -46 -5t-14 31z" />
    <glyph glyph-name="uni00A0" unicode="&#xa0;" horiz-adv-x="348" 
 />
    <glyph glyph-name="exclamdown" unicode="&#xa1;" horiz-adv-x="389" 
d="M92 942q0 43 30 72.5t73 29.5t72.5 -29.5t29.5 -72.5t-29.5 -72.5t-72.5 -29.5t-73 29.5t-30 72.5zM96 -446l56 1003q3 37 38 37h9q36 0 39 -37l55 -1003q2 -28 -14.5 -47t-47.5 -19h-73q-31 0 -47.5 19t-14.5 47z" />
    <glyph glyph-name="cent" unicode="&#xa2;" 
d="M113 768q0 257 150.5 394.5t414.5 137.5l63 187q16 49 68 49h45q25 0 35 -18t0 -41l-72 -187q81 -12 168 -37q39 -12 39 -57v-25q0 -22 -15.5 -33t-45.5 -3q-148 39 -287 39q-195 0 -307.5 -107t-112.5 -299t112.5 -299t307.5 -107q139 0 287 39q30 8 45.5 -3t15.5 -33
v-27q0 -44 -43 -57q-154 -45 -303 -45q-46 0 -66 2l-63 -189q-16 -49 -68 -49h-45q-25 0 -35 18t0 41l76 199q-173 47 -268.5 176.5t-95.5 333.5z" />
    <glyph glyph-name="sterling" unicode="&#xa3;" horiz-adv-x="1185" 
d="M72 57v11q0 57 61 57h103v614h-103q-61 0 -61 58v10q0 57 61 57h103v287q0 184 118 294.5t355 110.5q83 0 184 -16t149 -31q52 -17 52 -63v-21q0 -22 -17 -34t-47 -5q-180 44 -321 44q-175 0 -252.5 -65t-77.5 -212v-289h510q61 0 61 -57v-10q0 -58 -61 -58h-510v-614
h694q62 0 62 -57v-11q0 -57 -62 -57h-940q-61 0 -61 57z" />
    <glyph glyph-name="currency" unicode="&#xa4;" horiz-adv-x="1310" 
d="M113 639q0 264 123 393l-115 137q-38 48 6 86l12 11q46 37 86 -9l121 -143q117 57 309 57q193 0 310 -57l120 143q40 46 86 9l13 -11q44 -38 6 -86l-115 -137q123 -129 123 -393t-123 -393l115 -137q38 -48 -6 -86l-13 -11q-47 -38 -86 8l-120 144q-119 -58 -310 -58
q-190 0 -309 58l-121 -144q-39 -46 -86 -8l-12 11q-44 38 -6 86l115 137q-123 129 -123 393zM250 639q0 -102 20 -175.5t53.5 -117.5t87.5 -70t110.5 -34.5t133.5 -8.5t133.5 8.5t110.5 34.5t87.5 70t54 117.5t20.5 175.5t-20.5 175.5t-54 117.5t-87.5 69.5t-110.5 34
t-133.5 8.5q-64 0 -112.5 -6t-97 -21.5t-82 -44.5t-60.5 -73t-40 -109.5t-13 -150.5z" />
    <glyph glyph-name="yen" unicode="&#xa5;" 
d="M56 1510q10 26 42 26h39q58 0 82 -49l365 -739l364 739q24 49 82 49h39q32 0 42 -26t-5 -52l-250 -467h168q61 0 61 -57v-21q0 -57 -61 -57h-242l-94 -176h336q61 0 61 -57v-21q0 -57 -61 -57h-369v-479q0 -66 -61 -66h-21q-61 0 -61 66v479h-369q-61 0 -61 57v21
q0 57 61 57h334l-94 176h-240q-61 0 -61 57v21q0 57 61 57h168l-250 467q-15 26 -5 52z" />
    <glyph glyph-name="brokenbar" unicode="&#xa6;" horiz-adv-x="501" 
d="M178 -356v848q0 65 62 65h22q62 0 62 -65v-848q0 -66 -62 -66h-22q-62 0 -62 66zM178 758v848q0 65 62 65h22q62 0 62 -65v-848q0 -66 -62 -66h-22q-62 0 -62 66z" />
    <glyph glyph-name="section" unicode="&#xa7;" horiz-adv-x="1267" 
d="M80 559q0 101 44 195t144 155q-65 76 -65 228q0 48 9 93t30 94.5t60.5 89.5t94.5 72.5t138.5 51t187.5 18.5q193 0 344 -49q55 -18 55 -69v-29q0 -24 -18 -34t-53 1q-128 51 -330 51q-89 0 -155.5 -15t-108 -40.5t-67.5 -64t-36 -79.5t-10 -93q0 -34 6 -62.5t14.5 -50.5
t26.5 -40.5t33.5 -32t45 -26t51 -20t61.5 -17t66 -14.5l75 -14q142 -25 227.5 -52t141 -73t76 -108t20.5 -160q0 -101 -44.5 -195t-144.5 -155q66 -84 66 -228q0 -48 -9 -93t-30 -94.5t-60.5 -89.5t-94.5 -72.5t-138.5 -51t-187.5 -18.5q-193 0 -344 49q-56 18 -56 69v29
q0 24 18.5 34.5t53.5 -1.5q128 -51 330 -51q89 0 155.5 15t108 40.5t67.5 64t36 79.5t10 93q0 34 -6 62.5t-14.5 50.5t-26.5 40.5t-33.5 32t-45 26t-51 20t-61.5 17t-66 14.5l-75 14q-142 25 -227.5 52t-141 73t-76 108t-20.5 160zM219 557q0 -60 15 -101.5t33.5 -66
t68 -43.5t85 -27t117.5 -23l9 -1.5t8.5 -1.5t9.5 -2q230 -43 316 -88q168 70 168 264q0 43 -7 76t-18 57t-33.5 42.5t-44.5 30t-60 22t-70.5 17l-85.5 16.5q-19 3 -28 5q-224 38 -317 88q-166 -70 -166 -264z" />
    <glyph glyph-name="dieresis" unicode="&#xa8;" 
d="M287 1331q0 43 29.5 73t72.5 30t73 -30t30 -73t-30 -72.5t-73 -29.5t-72.5 29.5t-29.5 72.5zM676 1331q0 43 29.5 73t72.5 30t73 -30t30 -73t-30 -72.5t-73 -29.5t-72.5 29.5t-29.5 72.5z" />
    <glyph glyph-name="copyright" unicode="&#xa9;" horiz-adv-x="1585" 
d="M113 641q0 155 53.5 281t146 208t216 126t264.5 44t264.5 -44t216 -126t146 -208t53.5 -281t-53.5 -281.5t-146 -208.5t-216 -126.5t-264.5 -44.5t-264.5 44.5t-216 126.5t-146 208.5t-53.5 281.5zM258 641q0 -255 143.5 -395t391.5 -140t391 140t143 395
q0 252 -143.5 392.5t-390.5 140.5t-391 -140.5t-144 -392.5zM401 641q0 107 34 187.5t93 127t130.5 69t154.5 22.5q112 0 203 -31q43 -14 43 -58v-18q0 -25 -20 -38t-46 -5q-86 23 -164 23q-284 0 -284 -279t284 -279q78 0 164 23q26 8 46 -5t20 -38v-18q0 -44 -43 -58
q-88 -30 -203 -30q-83 0 -154.5 22.5t-130.5 68.5t-93 126.5t-34 187.5z" />
    <glyph glyph-name="ordfeminine" unicode="&#xaa;" horiz-adv-x="757" 
d="M61 1001q0 109 71 173t214 71l189 10v43q0 75 -36.5 109.5t-125.5 34.5q-102 0 -191 -31q-34 -11 -50.5 1t-16.5 34v22q0 37 41 52q103 36 217 36q86 0 145 -18t90.5 -54.5t44.5 -81.5t13 -108v-479q0 -47 -43 -47h-7q-20 0 -30 10t-21 39q-120 -69 -223 -69
q-148 0 -214.5 64.5t-66.5 188.5zM195 1001q0 -60 35 -99.5t116 -39.5q92 0 189 53v240l-191 -16q-71 -6 -110 -42.5t-39 -95.5z" />
    <glyph glyph-name="guillemotleft" unicode="&#xab;" horiz-adv-x="952" 
d="M82 492v40q0 49 49 84l281 207q22 15 40.5 7.5t18.5 -33.5v-27q0 -38 -49 -80l-209 -178l209 -178q49 -42 49 -80v-27q0 -26 -18.5 -33.5t-40.5 7.5l-281 207q-49 35 -49 84zM471 492v40q0 49 49 84l281 207q22 15 40.5 7.5t18.5 -33.5v-27q0 -38 -49 -80l-209 -178
l209 -178q49 -42 49 -80v-27q0 -26 -18.5 -33.5t-40.5 7.5l-281 207q-49 35 -49 84z" />
    <glyph glyph-name="logicalnot" unicode="&#xac;" horiz-adv-x="1323" 
d="M164 952v13q0 59 61 59h758q61 0 61 -66v-454q0 -66 -61 -66h-14q-62 0 -62 66v389h-682q-61 0 -61 59z" />
    <glyph glyph-name="uni00AD" unicode="&#xad;" horiz-adv-x="634" 
d="M61 616v17q0 59 62 59h389q61 0 61 -59v-17q0 -59 -61 -59h-389q-62 0 -62 59z" />
    <glyph glyph-name="registered" unicode="&#xae;" horiz-adv-x="643" 
d="M41 1280q0 83 22 139.5t63 85t87.5 40t108.5 11.5t108 -11.5t87 -40t63 -85t22 -139.5q0 -82 -22 -138.5t-63 -85.5t-87.5 -40.5t-107.5 -11.5t-108 11.5t-88 40.5t-63 85.5t-22 138.5zM113 1280q0 -65 15 -108.5t45 -65t64.5 -29.5t84.5 -8t84.5 8t64.5 29.5t44.5 65
t14.5 108.5t-14.5 108.5t-44.5 65t-64.5 29.5t-84.5 8t-84.5 -8t-64.5 -29.5t-45 -65t-15 -108.5zM205 1163v234q0 30 28 30h103q102 0 102 -94q0 -65 -43 -84l49 -88q7 -12 -0.5 -20t-19.5 -8h-12q-24 0 -37 20l-47 84h-58v-74q0 -30 -28 -30h-9q-28 0 -28 30zM270 1300h62
q23 0 30 8.5t7 24.5t-7 24.5t-30 8.5h-62v-66z" />
    <glyph glyph-name="macron" unicode="&#xaf;" 
d="M303 1327v8q0 28 15.5 43t43.5 15h443q59 0 59 -58v-8q0 -57 -59 -57h-443q-59 0 -59 57z" />
    <glyph glyph-name="degree" unicode="&#xb0;" horiz-adv-x="688" 
d="M61 1280q0 78 24 134t66 86t89.5 43t103.5 13t103.5 -13t89.5 -43t66 -86t24 -134q0 -77 -24 -133t-66 -86t-89.5 -43.5t-103.5 -13.5t-103.5 13.5t-89.5 43.5t-66 86t-24 133zM182 1280q0 -164 162 -164t162 164t-162 164t-162 -164z" />
    <glyph glyph-name="plusminus" unicode="&#xb1;" horiz-adv-x="1003" 
d="M92 213v16q0 60 62 60h696q61 0 61 -60v-16q0 -59 -61 -59h-696q-62 0 -62 59zM92 825v17q0 59 62 59h280v281q0 61 60 61h16q59 0 59 -61v-281h281q61 0 61 -59v-17q0 -59 -61 -59h-281v-281q0 -61 -59 -61h-16q-60 0 -60 61v281h-280q-62 0 -62 59z" />
    <glyph glyph-name="uni00B2" unicode="&#xb2;" horiz-adv-x="851" 
d="M72 758v8q0 37 43 63q309 203 398 283.5t89 173.5q0 141 -211 141q-115 0 -215 -28q-28 -7 -44.5 6.5t-16.5 36.5v24q0 41 45 56q113 34 229 34q183 0 265.5 -74.5t82.5 -197.5q0 -60 -26.5 -112t-103 -115t-128 -99t-183.5 -120l-26 -17h439q61 0 61 -59v-4
q0 -60 -61 -60h-576q-61 0 -61 60z" />
    <glyph glyph-name="uni00B3" unicode="&#xb3;" horiz-adv-x="880" 
d="M92 766v27q0 23 16.5 35.5t45.5 5.5q124 -31 272 -31q120 0 182 36.5t62 102.5q0 76 -39.5 105.5t-145.5 29.5h-180q-59 0 -59 58v4q0 57 59 57h178q87 0 120.5 29t33.5 92q0 54 -53.5 83.5t-161.5 29.5q-162 0 -254 -27q-28 -9 -45 4.5t-17 36.5v26q0 46 46 58
q110 28 268 28q350 0 350 -239q0 -61 -26 -104t-62 -60q55 -20 91 -74.5t36 -138.5q0 -121 -97.5 -191.5t-287.5 -70.5q-153 0 -287 31q-45 10 -45 57z" />
    <glyph glyph-name="acute" unicode="&#xb4;" 
d="M545 1176l76 305q13 55 71 55h31q30 0 43 -22.5t2 -51.5l-115 -288q-17 -48 -61 -48h-6q-24 0 -35 15t-6 35z" />
    <glyph glyph-name="paragraph" unicode="&#xb6;" horiz-adv-x="1208" 
d="M72 1075q0 75 16.5 140.5t54.5 125t96 102.5t146.5 68t200.5 25h407q62 0 62 -66v-1404q0 -66 -62 -66h-16q-62 0 -62 66v548h-157v-548q0 -66 -62 -66h-16q-62 0 -62 66v548h-32q-112 0 -200.5 25t-146.5 68t-96 102.5t-54.5 125t-16.5 140.5zM223 1075q0 -49 7.5 -91.5
t30.5 -88.5t59.5 -78t100 -53t146.5 -21h51v664h-51q-83 0 -146.5 -21t-100 -53t-59.5 -78t-30.5 -88.5t-7.5 -91.5zM758 743h157v664h-157v-664z" />
    <glyph glyph-name="periodcentered" unicode="&#xb7;" horiz-adv-x="327" 
d="M92 625q0 43 30 72.5t73 29.5t72.5 -29.5t29.5 -72.5t-29.5 -73t-72.5 -30t-73 30t-30 73z" />
    <glyph glyph-name="cedilla" unicode="&#xb8;" 
d="M410 -428q0 19 13 29t38 4q60 -13 106 -13q138 0 138 74q0 97 -132 121q-51 9 -45 63l13 123q3 37 39 37h8q36 0 39 -37l8 -104q35 -9 65.5 -22.5t61.5 -36.5t49 -59t18 -81q0 -84 -60.5 -133t-166.5 -49q-87 0 -147 18q-45 15 -45 56v10z" />
    <glyph glyph-name="uni00B9" unicode="&#xb9;" horiz-adv-x="593" 
d="M76 1436v8q0 26 28 35l209 61q55 16 76 16h4q43 0 43 -45v-747q0 -66 -61 -66h-17q-61 0 -61 66v647l-186 -6q-14 0 -24.5 9t-10.5 22z" />
    <glyph glyph-name="ordmasculine" unicode="&#xba;" horiz-adv-x="858" 
d="M72 1153q0 201 84 302t266 101q364 0 364 -403q0 -405 -364 -405q-182 0 -266 102t-84 303zM199 1153q0 -152 53 -219.5t170 -67.5q121 0 180.5 69.5t59.5 217.5t-59.5 216.5t-180.5 68.5q-118 0 -170.5 -66.5t-52.5 -218.5z" />
    <glyph glyph-name="guillemotright" unicode="&#xbb;" horiz-adv-x="952" 
d="M92 227v27q0 38 49 80l209 178l-209 178q-49 42 -49 80v27q0 26 19 33.5t41 -7.5l280 -207q49 -35 49 -84v-40q0 -49 -49 -84l-280 -207q-22 -15 -41 -7.5t-19 33.5zM481 227v27q0 38 49 80l209 178l-209 178q-49 42 -49 80v27q0 26 19 33.5t41 -7.5l280 -207
q49 -35 49 -84v-40q0 -49 -49 -84l-280 -207q-22 -15 -41 -7.5t-19 33.5z" />
    <glyph glyph-name="onequarter" unicode="&#xbc;" horiz-adv-x="1910" 
d="M76 1436v8q0 26 28 35l209 61q55 16 76 16h4q43 0 43 -45v-747q0 -66 -61 -66h-17q-61 0 -61 66v647l-186 -6q-14 0 -24.5 9t-10.5 22zM290 24q-12 24 7 52l997 1411q35 49 84 49h25q28 0 40 -24t-7 -52l-998 -1411q-35 -49 -84 -49h-24q-28 0 -40 24zM1044 297v4
q0 12 7 25t13.5 20l29.5 31l422 438q28 28 42 35.5t33 7.5h11q53 0 53 -55v-436h108q66 0 66 -60v-6q0 -59 -66 -59h-108v-187q0 -55 -53 -55h-27q-53 0 -53 55v187h-412q-30 0 -48 15t-18 40zM1245 367h277v284z" />
    <glyph glyph-name="onehalf" unicode="&#xbd;" horiz-adv-x="1937" 
d="M76 1436v8q0 26 28 35l209 61q55 16 76 16h4q43 0 43 -45v-747q0 -66 -61 -66h-17q-61 0 -61 66v647l-186 -6q-14 0 -24.5 9t-10.5 22zM290 24q-12 24 7 52l997 1411q35 49 84 49h25q28 0 40 -24t-7 -52l-998 -1411q-35 -49 -84 -49h-24q-28 0 -40 24zM1178 59v9
q0 37 43 63q309 203 398 283.5t89 173.5q0 141 -211 141q-111 0 -215 -29q-28 -7 -44.5 6.5t-16.5 36.5v25q0 40 45 55q116 35 229 35q183 0 265.5 -74.5t82.5 -197.5q0 -60 -26.5 -112t-103 -115t-128 -99t-183.5 -120l-26 -17h439q61 0 61 -60v-4q0 -59 -61 -59h-576
q-61 0 -61 59z" />
    <glyph glyph-name="threequarters" unicode="&#xbe;" horiz-adv-x="2177" 
d="M92 766v27q0 23 16.5 35.5t45.5 5.5q124 -31 272 -31q120 0 182 36.5t62 102.5q0 76 -39.5 105.5t-145.5 29.5h-180q-59 0 -59 58v4q0 57 59 57h178q87 0 120.5 29t33.5 92q0 54 -53.5 83.5t-161.5 29.5q-162 0 -254 -27q-28 -9 -45 4.5t-17 36.5v26q0 46 46 58
q110 28 268 28q350 0 350 -239q0 -61 -26 -104t-62 -60q55 -20 91 -74.5t36 -138.5q0 -121 -97.5 -191.5t-287.5 -70.5q-153 0 -287 31q-45 10 -45 57zM558 24q-12 24 7 52l998 1411q35 49 84 49h24q28 0 40 -24t-7 -52l-997 -1411q-35 -49 -84 -49h-25q-28 0 -40 24z
M1311 297v4q0 12 6.5 24.5t14 21t28.5 30.5l422 438q28 28 42.5 35.5t33.5 7.5h10q53 0 53 -55v-436h109q65 0 65 -60v-6q0 -59 -65 -59h-109v-187q0 -55 -53 -55h-27q-53 0 -53 55v187h-412q-30 0 -47.5 15t-17.5 40zM1511 367h277v284z" />
    <glyph glyph-name="questiondown" unicode="&#xbf;" horiz-adv-x="962" 
d="M92 -127q0 54 9.5 100t25 81t43 66t55 53.5t71 46t80.5 40l93 39.5q42 17 71 39t44 41.5t23.5 53.5t10 56t3.5 68q0 37 41 37h2q35 0 41 -41q8 -46 8 -90q0 -37 -4.5 -66t-18 -60.5t-37 -57t-62.5 -50.5t-93 -45q-115 -43 -158 -73q-107 -73 -111 -225v-11
q0 -69 15 -116.5t53.5 -87t112 -58.5t184.5 -19q138 0 256 29q30 7 45.5 -5.5t15.5 -35.5v-20q0 -43 -45 -58q-40 -14 -122.5 -25t-147.5 -11q-105 0 -186.5 15t-135.5 44t-91 64.5t-56 84t-27 94.5t-8 103zM516 942q0 43 29.5 72.5t72.5 29.5t73 -29.5t30 -72.5t-30 -72.5
t-73 -29.5t-72.5 29.5t-29.5 72.5z" />
    <glyph glyph-name="Agrave" unicode="&#xc0;" horiz-adv-x="1290" 
d="M53 66l522 1437q9 29 23 41t41 12h12q27 0 41 -12t23 -41l522 -1437q11 -30 -3 -48t-38 -18h-41q-54 0 -72 55l-129 375h-618l-129 -375q-18 -55 -72 -55h-41q-24 0 -38 18t-3 48zM379 551h532l-266 772zM467.5 1817.5q11.5 25.5 38.5 25.5h39q49 0 73 -49l52 -100
q11 -20 1 -38t-32 -18h-18q-28 0 -58 35l-86 96q-21 23 -9.5 48.5z" />
    <glyph glyph-name="Aacute" unicode="&#xc1;" horiz-adv-x="1290" 
d="M53 66l522 1437q9 29 23 41t41 12h12q27 0 41 -12t23 -41l522 -1437q11 -30 -3 -48t-38 -18h-41q-54 0 -72 55l-129 375h-618l-129 -375q-18 -55 -72 -55h-41q-24 0 -38 18t-3 48zM379 551h532l-266 772zM619.5 1656q-9.5 18 1.5 38l51 100q24 49 73 49h39
q27 0 38.5 -25.5t-9.5 -48.5l-86 -96q-30 -35 -57 -35h-19q-22 0 -31.5 18z" />
    <glyph glyph-name="Acircumflex" unicode="&#xc2;" horiz-adv-x="1290" 
d="M53 66l522 1437q9 29 23 41t41 12h12q27 0 41 -12t23 -41l522 -1437q11 -30 -3 -48t-38 -18h-41q-54 0 -72 55l-129 375h-618l-129 -375q-18 -55 -72 -55h-41q-24 0 -38 18t-3 48zM375 1656.5q-6 18.5 12 33.5l123 108q53 45 96 45h78q43 0 96 -45l123 -108
q18 -15 12 -33.5t-24 -18.5h-10q-28 0 -76 25l-160 90l-160 -90q-48 -25 -75 -25h-11q-18 0 -24 18.5zM379 551h532l-266 772z" />
    <glyph glyph-name="Atilde" unicode="&#xc3;" horiz-adv-x="1290" 
d="M53 66l522 1437q9 29 23 41t41 12h12q27 0 41 -12t23 -41l522 -1437q11 -30 -3 -48t-38 -18h-41q-54 0 -72 55l-129 375h-618l-129 -375q-18 -55 -72 -55h-41q-24 0 -38 18t-3 48zM279 1704q8 70 64 115t146 45q57 0 104.5 -19.5t75 -43t62.5 -43t70 -19.5q74 0 92 55
q9 27 23 38t38 11h4q27 0 42 -18.5t12 -46.5q-8 -70 -64.5 -115t-146.5 -45q-57 0 -104.5 19.5t-75 43t-62.5 43t-70 19.5q-74 0 -92 -55q-9 -27 -23 -38.5t-38 -11.5h-4q-27 0 -41.5 19t-11.5 47zM379 551h532l-266 772z" />
    <glyph glyph-name="Adieresis" unicode="&#xc4;" horiz-adv-x="1290" 
d="M53 66l522 1437q9 29 23 41t41 12h12q27 0 41 -12t23 -41l522 -1437q11 -30 -3 -48t-38 -18h-41q-54 0 -72 55l-129 375h-618l-129 -375q-18 -55 -72 -55h-41q-24 0 -38 18t-3 48zM348 1741q0 43 30 72.5t73 29.5t72.5 -29.5t29.5 -72.5t-29.5 -73t-72.5 -30t-73 30
t-30 73zM379 551h532l-266 772zM737 1741q0 43 30 72.5t73 29.5t72.5 -29.5t29.5 -72.5t-29.5 -73t-72.5 -30t-73 30t-30 73z" />
    <glyph glyph-name="Aring" unicode="&#xc5;" horiz-adv-x="1290" 
d="M53 66l522 1437q9 29 23 41t41 12h12q27 0 41 -12t23 -41l522 -1437q11 -30 -3 -48t-38 -18h-41q-54 0 -72 55l-129 375h-618l-129 -375q-18 -55 -72 -55h-41q-24 0 -38 18t-3 48zM379 551h532l-266 772zM453 1741q0 145 192 145q193 0 193 -145q0 -146 -193 -146
q-192 0 -192 146zM555 1741q0 -45 90 -45t90 45t-90 45t-90 -45z" />
    <glyph glyph-name="AE" unicode="&#xc6;" horiz-adv-x="1996" 
d="M52 23.5q-11 23.5 3 46.5l727 1409q28 57 84 57h946q62 0 62 -59v-11q0 -59 -62 -59h-839l88 -543h680q61 0 61 -59v-10q0 -60 -61 -60h-658l99 -606h630q62 0 62 -59v-11q0 -59 -62 -59h-688q-62 0 -71 63l-62 367h-602l-199 -397q-16 -33 -61 -33h-35q-31 0 -42 23.5z
M449 551h524l-129 790z" />
    <glyph glyph-name="Ccedilla" unicode="&#xc7;" horiz-adv-x="1249" 
d="M123 768q0 136 18.5 250t62.5 215.5t112 171.5t172.5 110.5t238.5 40.5q203 0 346 -51q53 -18 53 -69v-29q0 -21 -16 -33.5t-47 -1.5q-152 55 -336 55q-98 0 -176 -33t-130 -91.5t-86.5 -142.5t-49.5 -181t-15 -211t15 -211t49.5 -181t86.5 -142.5t130 -91.5t176 -33
q184 0 336 55q31 11 47 -1.5t16 -33.5v-29q0 -51 -53 -69q-119 -44 -303 -51l8 -111q35 -9 66 -22.5t62 -36.5t49 -59t18 -81q0 -84 -60.5 -133t-167.5 -49q-87 0 -147 18q-45 15 -45 56v10q0 19 13 29t38 4q60 -13 107 -13q137 0 137 74q0 97 -131 121q-51 9 -45 63l12 132
q-125 6 -222 49.5t-160 114t-104 170t-58 210t-17 242.5z" />
    <glyph glyph-name="Egrave" unicode="&#xc8;" 
d="M154 66v1404q0 66 61 66h768q61 0 61 -59v-11q0 -59 -61 -59h-690v-543h618q62 0 62 -59v-10q0 -60 -62 -60h-618v-606h690q61 0 61 -59v-11q0 -59 -61 -59h-768q-61 0 -61 66zM436.5 1817.5q11.5 25.5 38.5 25.5h39q50 0 74 -49l51 -100q11 -20 1 -38t-32 -18h-18
q-28 0 -58 35l-86 96q-21 23 -9.5 48.5z" />
    <glyph glyph-name="Eacute" unicode="&#xc9;" 
d="M154 66v1404q0 66 61 66h768q61 0 61 -59v-11q0 -59 -61 -59h-690v-543h618q62 0 62 -59v-10q0 -60 -62 -60h-618v-606h690q61 0 61 -59v-11q0 -59 -61 -59h-768q-61 0 -61 66zM589 1656q-10 18 1 38l51 100q24 49 74 49h39q27 0 38 -25.5t-10 -48.5l-86 -96
q-30 -35 -57 -35h-18q-22 0 -32 18z" />
    <glyph glyph-name="Ecircumflex" unicode="&#xca;" 
d="M154 66v1404q0 66 61 66h768q61 0 61 -59v-11q0 -59 -61 -59h-690v-543h618q62 0 62 -59v-10q0 -60 -62 -60h-618v-606h690q61 0 61 -59v-11q0 -59 -61 -59h-768q-61 0 -61 66zM344.5 1656.5q-6.5 18.5 11.5 33.5l123 108q53 45 96 45h78q44 0 97 -45l122 -108
q18 -15 12 -33.5t-24 -18.5h-10q-28 0 -76 25l-160 90l-159 -90q-48 -25 -76 -25h-10q-18 0 -24.5 18.5z" />
    <glyph glyph-name="Edieresis" unicode="&#xcb;" 
d="M154 66v1404q0 66 61 66h768q61 0 61 -59v-11q0 -59 -61 -59h-690v-543h618q62 0 62 -59v-10q0 -60 -62 -60h-618v-606h690q61 0 61 -59v-11q0 -59 -61 -59h-768q-61 0 -61 66zM317 1741q0 43 30 72.5t73 29.5t72.5 -29.5t29.5 -72.5t-29.5 -73t-72.5 -30t-73 30t-30 73z
M707 1741q0 43 29.5 72.5t72.5 29.5t72.5 -29.5t29.5 -72.5t-29.5 -73t-72.5 -30t-72.5 30t-29.5 73z" />
    <glyph glyph-name="Igrave" unicode="&#xcc;" horiz-adv-x="532" 
d="M88.5 1817.5q11.5 25.5 38.5 25.5h39q50 0 74 -49l51 -100q11 -20 1 -38t-32 -18h-18q-28 0 -58 35l-86 96q-21 23 -9.5 48.5zM195 66v1404q0 66 61 66h20q62 0 62 -66v-1404q0 -66 -62 -66h-20q-61 0 -61 66z" />
    <glyph glyph-name="Iacute" unicode="&#xcd;" horiz-adv-x="532" 
d="M195 66v1404q0 66 61 66h20q62 0 62 -66v-1404q0 -66 -62 -66h-20q-61 0 -61 66zM240.5 1656q-9.5 18 1.5 38l51 100q24 49 74 49h39q27 0 38 -25.5t-10 -48.5l-86 -96q-30 -35 -57 -35h-19q-22 0 -31.5 18z" />
    <glyph glyph-name="Icircumflex" unicode="&#xce;" horiz-adv-x="532" 
d="M-4 1656.5q-6 18.5 12 33.5l123 108q53 45 96 45h78q43 0 96 -45l123 -108q18 -15 12 -33.5t-24 -18.5h-10q-28 0 -76 25l-160 90l-160 -90q-48 -25 -75 -25h-11q-18 0 -24 18.5zM195 66v1404q0 66 61 66h20q62 0 62 -66v-1404q0 -66 -62 -66h-20q-61 0 -61 66z" />
    <glyph glyph-name="Idieresis" unicode="&#xcf;" horiz-adv-x="532" 
d="M10 1741q0 43 30 72.5t73 29.5t72.5 -29.5t29.5 -72.5t-29.5 -73t-72.5 -30t-73 30t-30 73zM195 66v1404q0 66 61 66h20q62 0 62 -66v-1404q0 -66 -62 -66h-20q-61 0 -61 66zM317 1741q0 43 30 72.5t73 29.5t72.5 -29.5t29.5 -72.5t-29.5 -73t-72.5 -30t-73 30t-30 73z
" />
    <glyph glyph-name="Eth" unicode="&#xd0;" horiz-adv-x="1402" 
d="M31 791v10q0 49 51 49h133v620q0 66 61 66h357q147 0 259.5 -38.5t185.5 -105.5t118.5 -166t64.5 -210t19 -248t-19 -248t-64.5 -210t-118.5 -166t-185.5 -105.5t-259.5 -38.5h-357q-61 0 -61 66v675h-133q-51 0 -51 50zM354 129h287q492 0 492 639t-492 639h-287v-557
h324q51 0 51 -49v-10q0 -50 -51 -50h-324v-612z" />
    <glyph glyph-name="Ntilde" unicode="&#xd1;" horiz-adv-x="1372" 
d="M154 66v1404q0 66 61 66h10q32 0 51 -29l807 -1222l-4 1185q0 66 62 66h16q62 0 62 -66v-1404q0 -66 -62 -66h-10q-32 0 -51 29l-807 1222l4 -1185q0 -66 -62 -66h-16q-61 0 -61 66zM319 1704q8 70 64.5 115t146.5 45q57 0 104.5 -19.5t75 -43t62.5 -43t70 -19.5
q74 0 92 55q9 27 23 38t38 11h4q27 0 42 -18.5t12 -46.5q-8 -70 -64.5 -115t-146.5 -45q-57 0 -104.5 19.5t-75 43t-62.5 43t-70 19.5q-74 0 -92 -55q-9 -27 -23 -38.5t-38 -11.5h-4q-27 0 -42 19t-12 47z" />
    <glyph glyph-name="Ograve" unicode="&#xd2;" horiz-adv-x="1392" 
d="M123 768q0 94 5 170.5t20.5 160.5t41.5 148t70 124.5t103 99.5t143.5 62t189.5 23t189.5 -23t144 -62.5t103 -99t69.5 -124t41.5 -148.5t21 -160.5t5.5 -170.5t-5.5 -170.5t-21 -160.5t-41.5 -148.5t-69.5 -124t-103 -99t-144 -62.5t-189.5 -23t-189.5 23t-143.5 62
t-103 99.5t-70 124.5t-41.5 148t-20.5 160.5t-5 170.5zM270 768q0 -86 4 -153.5t15.5 -138t31 -123t52 -100.5t76.5 -78.5t106.5 -48t140.5 -17.5t140.5 17.5t106.5 48t76.5 78.5t52 100.5t31 123t15.5 138t4 153.5t-4 153.5t-15.5 138t-31 123t-52 100.5t-76.5 78.5
t-106.5 48t-140.5 17.5t-140.5 -17.5t-106.5 -48t-76.5 -78.5t-52 -100.5t-31 -123t-15.5 -138t-4 -153.5zM518.5 1817.5q11.5 25.5 38.5 25.5h39q50 0 74 -49l51 -100q11 -20 1 -38t-32 -18h-18q-28 0 -58 35l-86 96q-21 23 -9.5 48.5z" />
    <glyph glyph-name="Oacute" unicode="&#xd3;" horiz-adv-x="1392" 
d="M123 768q0 94 5 170.5t20.5 160.5t41.5 148t70 124.5t103 99.5t143.5 62t189.5 23t189.5 -23t144 -62.5t103 -99t69.5 -124t41.5 -148.5t21 -160.5t5.5 -170.5t-5.5 -170.5t-21 -160.5t-41.5 -148.5t-69.5 -124t-103 -99t-144 -62.5t-189.5 -23t-189.5 23t-143.5 62
t-103 99.5t-70 124.5t-41.5 148t-20.5 160.5t-5 170.5zM270 768q0 -86 4 -153.5t15.5 -138t31 -123t52 -100.5t76.5 -78.5t106.5 -48t140.5 -17.5t140.5 17.5t106.5 48t76.5 78.5t52 100.5t31 123t15.5 138t4 153.5t-4 153.5t-15.5 138t-31 123t-52 100.5t-76.5 78.5
t-106.5 48t-140.5 17.5t-140.5 -17.5t-106.5 -48t-76.5 -78.5t-52 -100.5t-31 -123t-15.5 -138t-4 -153.5zM670.5 1656q-9.5 18 1.5 38l51 100q24 49 74 49h39q27 0 38 -25.5t-10 -48.5l-86 -96q-30 -35 -57 -35h-19q-22 0 -31.5 18z" />
    <glyph glyph-name="Ocircumflex" unicode="&#xd4;" horiz-adv-x="1392" 
d="M123 768q0 94 5 170.5t20.5 160.5t41.5 148t70 124.5t103 99.5t143.5 62t189.5 23t189.5 -23t144 -62.5t103 -99t69.5 -124t41.5 -148.5t21 -160.5t5.5 -170.5t-5.5 -170.5t-21 -160.5t-41.5 -148.5t-69.5 -124t-103 -99t-144 -62.5t-189.5 -23t-189.5 23t-143.5 62
t-103 99.5t-70 124.5t-41.5 148t-20.5 160.5t-5 170.5zM270 768q0 -86 4 -153.5t15.5 -138t31 -123t52 -100.5t76.5 -78.5t106.5 -48t140.5 -17.5t140.5 17.5t106.5 48t76.5 78.5t52 100.5t31 123t15.5 138t4 153.5t-4 153.5t-15.5 138t-31 123t-52 100.5t-76.5 78.5
t-106.5 48t-140.5 17.5t-140.5 -17.5t-106.5 -48t-76.5 -78.5t-52 -100.5t-31 -123t-15.5 -138t-4 -153.5zM426.5 1656.5q-6.5 18.5 11.5 33.5l123 108q53 45 96 45h78q43 0 96 -45l123 -108q18 -15 12 -33.5t-24 -18.5h-10q-28 0 -76 25l-160 90l-159 -90q-48 -25 -76 -25
h-10q-18 0 -24.5 18.5z" />
    <glyph glyph-name="Otilde" unicode="&#xd5;" horiz-adv-x="1392" 
d="M123 768q0 94 5 170.5t20.5 160.5t41.5 148t70 124.5t103 99.5t143.5 62t189.5 23t189.5 -23t144 -62.5t103 -99t69.5 -124t41.5 -148.5t21 -160.5t5.5 -170.5t-5.5 -170.5t-21 -160.5t-41.5 -148.5t-69.5 -124t-103 -99t-144 -62.5t-189.5 -23t-189.5 23t-143.5 62
t-103 99.5t-70 124.5t-41.5 148t-20.5 160.5t-5 170.5zM270 768q0 -86 4 -153.5t15.5 -138t31 -123t52 -100.5t76.5 -78.5t106.5 -48t140.5 -17.5t140.5 17.5t106.5 48t76.5 78.5t52 100.5t31 123t15.5 138t4 153.5t-4 153.5t-15.5 138t-31 123t-52 100.5t-76.5 78.5
t-106.5 48t-140.5 17.5t-140.5 -17.5t-106.5 -48t-76.5 -78.5t-52 -100.5t-31 -123t-15.5 -138t-4 -153.5zM330 1704q8 70 64.5 115t146.5 45q57 0 104.5 -19.5t74.5 -43t62 -43t70 -19.5q74 0 92 55q9 26 23 37.5t39 11.5h4q27 0 41.5 -18.5t11.5 -46.5q-8 -70 -64.5 -115
t-146.5 -45q-57 0 -104.5 19.5t-74.5 43t-62 43t-70 19.5q-74 0 -92 -55q-17 -50 -62 -50h-4q-27 0 -41.5 19t-11.5 47z" />
    <glyph glyph-name="Odieresis" unicode="&#xd6;" horiz-adv-x="1392" 
d="M123 768q0 94 5 170.5t20.5 160.5t41.5 148t70 124.5t103 99.5t143.5 62t189.5 23t189.5 -23t144 -62.5t103 -99t69.5 -124t41.5 -148.5t21 -160.5t5.5 -170.5t-5.5 -170.5t-21 -160.5t-41.5 -148.5t-69.5 -124t-103 -99t-144 -62.5t-189.5 -23t-189.5 23t-143.5 62
t-103 99.5t-70 124.5t-41.5 148t-20.5 160.5t-5 170.5zM270 768q0 -86 4 -153.5t15.5 -138t31 -123t52 -100.5t76.5 -78.5t106.5 -48t140.5 -17.5t140.5 17.5t106.5 48t76.5 78.5t52 100.5t31 123t15.5 138t4 153.5t-4 153.5t-15.5 138t-31 123t-52 100.5t-76.5 78.5
t-106.5 48t-140.5 17.5t-140.5 -17.5t-106.5 -48t-76.5 -78.5t-52 -100.5t-31 -123t-15.5 -138t-4 -153.5zM399 1741q0 43 30 72.5t73 29.5t72.5 -29.5t29.5 -72.5t-29.5 -73t-72.5 -30t-73 30t-30 73zM788 1741q0 43 30 72.5t73 29.5t72.5 -29.5t29.5 -72.5t-29.5 -73
t-72.5 -30t-73 30t-30 73z" />
    <glyph glyph-name="multiply" unicode="&#xd7;" horiz-adv-x="1003" 
d="M141 350q-44 41 2 84l265 264l-265 265q-46 43 -2 84l13 12q41 44 84 -2l264 -264l264 264q43 46 84 2l12 -12q44 -41 -2 -84l-264 -265l264 -264q46 -43 2 -84l-12 -12q-41 -44 -84 2l-264 264l-264 -264q-43 -46 -84 -2z" />
    <glyph glyph-name="Oslash" unicode="&#xd8;" horiz-adv-x="1351" 
d="M123 768q0 94 5 170.5t20.5 160.5t41.5 148t70 124.5t103 99.5t143.5 62t189.5 23q219 0 355 -102l28 47q12 20 26.5 27.5t39.5 7.5h16q28 0 38 -20.5t-7 -49.5l-59 -96q78 -104 107.5 -255t29.5 -347q0 -94 -5.5 -170.5t-21 -160.5t-41.5 -148.5t-69.5 -124t-103 -99
t-144 -62.5t-189.5 -23q-221 0 -354 100l-29 -45q-12 -20 -26 -27.5t-39 -7.5h-17q-27 0 -37.5 20.5t7.5 49.5l57 94q-78 105 -106.5 255t-28.5 349zM270 768q0 -322 72 -467l635 1032q-100 94 -281 94q-78 0 -140.5 -17.5t-106.5 -48t-76.5 -78.5t-52 -100.5t-31 -123
t-15.5 -138t-4 -153.5zM416 201q98 -92 280 -92q78 0 140.5 17.5t106.5 48t76.5 78.5t52 100.5t31 123t15.5 138t4 153.5q0 318 -73 465z" />
    <glyph glyph-name="Ugrave" unicode="&#xd9;" horiz-adv-x="1372" 
d="M143 481v989q0 66 62 66h16q62 0 62 -66v-966q0 -395 403 -395q404 0 404 395v966q0 66 61 66h16q62 0 62 -66v-989q0 -90 -21 -164.5t-54.5 -125.5t-80.5 -90t-95.5 -61.5t-104 -36.5t-99.5 -18.5t-88 -4.5t-88 4.5t-99.5 18.5t-104 36.5t-95.5 61.5t-80.5 90
t-54.5 125.5t-21 164.5zM508.5 1817.5q11.5 25.5 38.5 25.5h39q49 0 73 -49l52 -100q11 -20 1 -38t-32 -18h-18q-28 0 -58 35l-86 96q-21 23 -9.5 48.5z" />
    <glyph glyph-name="Uacute" unicode="&#xda;" horiz-adv-x="1372" 
d="M143 481v989q0 66 62 66h16q62 0 62 -66v-966q0 -395 403 -395q404 0 404 395v966q0 66 61 66h16q62 0 62 -66v-989q0 -90 -21 -164.5t-54.5 -125.5t-80.5 -90t-95.5 -61.5t-104 -36.5t-99.5 -18.5t-88 -4.5t-88 4.5t-99.5 18.5t-104 36.5t-95.5 61.5t-80.5 90
t-54.5 125.5t-21 164.5zM660.5 1656q-9.5 18 1.5 38l51 100q24 49 73 49h39q27 0 38.5 -25.5t-9.5 -48.5l-86 -96q-30 -35 -57 -35h-19q-22 0 -31.5 18z" />
    <glyph glyph-name="Ucircumflex" unicode="&#xdb;" horiz-adv-x="1372" 
d="M143 481v989q0 66 62 66h16q62 0 62 -66v-966q0 -395 403 -395q404 0 404 395v966q0 66 61 66h16q62 0 62 -66v-989q0 -90 -21 -164.5t-54.5 -125.5t-80.5 -90t-95.5 -61.5t-104 -36.5t-99.5 -18.5t-88 -4.5t-88 4.5t-99.5 18.5t-104 36.5t-95.5 61.5t-80.5 90
t-54.5 125.5t-21 164.5zM416 1656.5q-6 18.5 12 33.5l123 108q53 45 96 45h78q43 0 96 -45l123 -108q18 -15 12 -33.5t-24 -18.5h-10q-28 0 -76 25l-160 90l-160 -90q-48 -25 -75 -25h-11q-18 0 -24 18.5z" />
    <glyph glyph-name="Udieresis" unicode="&#xdc;" horiz-adv-x="1372" 
d="M143 481v989q0 66 62 66h16q62 0 62 -66v-966q0 -395 403 -395q404 0 404 395v966q0 66 61 66h16q62 0 62 -66v-989q0 -90 -21 -164.5t-54.5 -125.5t-80.5 -90t-95.5 -61.5t-104 -36.5t-99.5 -18.5t-88 -4.5t-88 4.5t-99.5 18.5t-104 36.5t-95.5 61.5t-80.5 90
t-54.5 125.5t-21 164.5zM389 1741q0 43 30 72.5t73 29.5t72.5 -29.5t29.5 -72.5t-29.5 -73t-72.5 -30t-73 30t-30 73zM778 1741q0 43 30 72.5t73 29.5t72.5 -29.5t29.5 -72.5t-29.5 -73t-72.5 -30t-73 30t-30 73z" />
    <glyph glyph-name="Yacute" unicode="&#xdd;" horiz-adv-x="1372" 
d="M67.5 1510q11.5 26 43.5 26h18q52 0 82 -49l475 -739l475 739q30 49 82 49h19q32 0 43 -26t-7 -52l-542 -827v-565q0 -66 -62 -66h-16q-62 0 -62 66v565l-542 827q-18 26 -6.5 52zM660.5 1656q-9.5 18 1.5 38l51 100q24 49 73 49h39q27 0 38.5 -25.5t-9.5 -48.5l-86 -96
q-30 -35 -57 -35h-19q-22 0 -31.5 18z" />
    <glyph glyph-name="Thorn" unicode="&#xde;" 
d="M154 66v1404q0 66 61 66h16q62 0 62 -66v-241h330q112 0 200.5 -25t146.5 -68t96 -102.5t54.5 -125t16.5 -140.5t-16.5 -140.5t-54.5 -125t-96 -102.5t-146.5 -68t-200.5 -25h-330v-241q0 -66 -62 -66h-16q-61 0 -61 66zM293 436h348q83 0 146.5 21t100 53t59.5 78
t30.5 88.5t7.5 91.5t-7.5 91.5t-30.5 88.5t-59.5 78t-100 53t-146.5 21h-348v-664z" />
    <glyph glyph-name="germandbls" unicode="&#xdf;" horiz-adv-x="1101" 
d="M172 66v1183q0 149 93.5 228t275.5 79q181 0 271.5 -78.5t90.5 -228.5q0 -64 -17.5 -115t-45.5 -84t-62 -59.5t-67.5 -49t-61.5 -46.5t-45.5 -57.5t-17.5 -75.5q0 -65 34.5 -98.5t135.5 -65.5q164 -53 229.5 -117t65.5 -188q0 -62 -18.5 -116t-57.5 -99.5t-107 -71.5
t-159 -26q-114 0 -205 34q-45 17 -45 56v30q0 22 14.5 33t44.5 4q6 -2 32 -9t42.5 -10.5t49 -7.5t67.5 -4q60 0 102 15t63.5 42t30 58t8.5 70q0 75 -37.5 113t-152.5 73q-154 46 -212 109.5t-58 175.5q0 58 17.5 103.5t45.5 75t62.5 54l68.5 48t62 49.5t45.5 66t17.5 91
q0 94 -63.5 137.5t-167.5 43.5t-168 -43.5t-64 -137.5v-1183q0 -66 -61 -66h-15q-61 0 -61 66z" />
    <glyph glyph-name="agrave" unicode="&#xe0;" horiz-adv-x="1013" 
d="M102 309q0 298 365 320l270 16v57q0 116 -52.5 166t-190.5 50q-124 0 -244 -35q-36 -10 -56 3t-20 36v24q0 41 45 58q110 40 275 40q112 0 189.5 -24t119.5 -71.5t60 -107.5t18 -141v-653q0 -47 -43 -47h-4q-21 0 -31 10.5t-21 38.5l-12 33q-138 -102 -309 -102
q-97 0 -168.5 26.5t-112 74t-59.5 104t-19 124.5zM248 309q0 -32 3.5 -57t17 -54t36 -47.5t63.5 -31.5t97 -13q78 0 138.5 20t133.5 62v357l-280 -27q-209 -20 -209 -209zM309 1462q-11 29 2 51.5t43 22.5h31q59 0 72 -55l75 -305q5 -20 -5.5 -35t-34.5 -15h-7q-44 0 -61 48
z" />
    <glyph glyph-name="aacute" unicode="&#xe1;" horiz-adv-x="1013" 
d="M102 309q0 298 365 320l270 16v57q0 116 -52.5 166t-190.5 50q-124 0 -244 -35q-36 -10 -56 3t-20 36v24q0 41 45 58q110 40 275 40q112 0 189.5 -24t119.5 -71.5t60 -107.5t18 -141v-653q0 -47 -43 -47h-4q-21 0 -31 10.5t-21 38.5l-12 33q-138 -102 -309 -102
q-97 0 -168.5 26.5t-112 74t-59.5 104t-19 124.5zM248 309q0 -32 3.5 -57t17 -54t36 -47.5t63.5 -31.5t97 -13q78 0 138.5 20t133.5 62v357l-280 -27q-209 -20 -209 -209zM455 1176l75 305q13 55 72 55h31q30 0 43 -22.5t2 -51.5l-115 -288q-17 -48 -61 -48h-6q-24 0 -35 15
t-6 35z" />
    <glyph glyph-name="acircumflex" unicode="&#xe2;" horiz-adv-x="1013" 
d="M102 309q0 298 365 320l270 16v57q0 116 -52.5 166t-190.5 50q-124 0 -244 -35q-36 -10 -56 3t-20 36v24q0 41 45 58q110 40 275 40q112 0 189.5 -24t119.5 -71.5t60 -107.5t18 -141v-653q0 -47 -43 -47h-4q-21 0 -31 10.5t-21 38.5l-12 33q-138 -102 -309 -102
q-97 0 -168.5 26.5t-112 74t-59.5 104t-19 124.5zM146.5 1143.5q-7.5 17.5 5.5 36.5l233 317q17 24 31.5 31.5t40.5 7.5h73q26 0 40.5 -7.5t31.5 -31.5l234 -317q13 -19 5.5 -36.5t-28.5 -17.5h-12q-25 0 -40 7.5t-34 27.5l-233 254l-234 -254q-19 -20 -34 -27.5t-40 -7.5
h-12q-20 0 -27.5 17.5zM248 309q0 -32 3.5 -57t17 -54t36 -47.5t63.5 -31.5t97 -13q78 0 138.5 20t133.5 62v357l-280 -27q-209 -20 -209 -209z" />
    <glyph glyph-name="atilde" unicode="&#xe3;" horiz-adv-x="1013" 
d="M102 309q0 298 365 320l270 16v57q0 116 -52.5 166t-190.5 50q-124 0 -244 -35q-36 -10 -56 3t-20 36v24q0 41 45 58q110 40 275 40q112 0 189.5 -24t119.5 -71.5t60 -107.5t18 -141v-653q0 -47 -43 -47h-4q-21 0 -31 10.5t-21 38.5l-12 33q-138 -102 -309 -102
q-97 0 -168.5 26.5t-112 74t-59.5 104t-19 124.5zM127 1305q8 70 64.5 114.5t146.5 44.5q47 0 86 -15t66 -36t51.5 -42.5t51.5 -36.5t56 -15q74 0 92 55q9 26 23 37.5t39 11.5h4q27 0 41.5 -18.5t11.5 -46.5q-8 -70 -64.5 -115t-146.5 -45q-47 0 -86 15t-66 36t-51.5 42.5
t-51.5 36.5t-56 15q-74 0 -92 -55q-9 -26 -23 -37.5t-39 -11.5h-4q-27 0 -41.5 19t-11.5 47zM248 309q0 -32 3.5 -57t17 -54t36 -47.5t63.5 -31.5t97 -13q78 0 138.5 20t133.5 62v357l-280 -27q-209 -20 -209 -209z" />
    <glyph glyph-name="adieresis" unicode="&#xe4;" horiz-adv-x="1013" 
d="M102 309q0 298 365 320l270 16v57q0 116 -52.5 166t-190.5 50q-124 0 -244 -35q-36 -10 -56 3t-20 36v24q0 41 45 58q110 40 275 40q112 0 189.5 -24t119.5 -71.5t60 -107.5t18 -141v-653q0 -47 -43 -47h-4q-21 0 -31 10.5t-21 38.5l-12 33q-138 -102 -309 -102
q-97 0 -168.5 26.5t-112 74t-59.5 104t-19 124.5zM197 1331q0 43 29.5 73t72.5 30t72.5 -30t29.5 -73t-29.5 -72.5t-72.5 -29.5t-72.5 29.5t-29.5 72.5zM248 309q0 -32 3.5 -57t17 -54t36 -47.5t63.5 -31.5t97 -13q78 0 138.5 20t133.5 62v357l-280 -27q-209 -20 -209 -209z
M586 1331q0 43 29.5 73t72.5 30t73 -30t30 -73t-30 -72.5t-73 -29.5t-72.5 29.5t-29.5 72.5z" />
    <glyph glyph-name="aring" unicode="&#xe5;" horiz-adv-x="1013" 
d="M102 309q0 298 365 320l270 16v57q0 116 -52.5 166t-190.5 50q-124 0 -244 -35q-36 -10 -56 3t-20 36v24q0 41 45 58q110 40 275 40q112 0 189.5 -24t119.5 -71.5t60 -107.5t18 -141v-653q0 -47 -43 -47h-4q-21 0 -31 10.5t-21 38.5l-12 33q-138 -102 -309 -102
q-97 0 -168.5 26.5t-112 74t-59.5 104t-19 124.5zM248 309q0 -32 3.5 -57t17 -54t36 -47.5t63.5 -31.5t97 -13q78 0 138.5 20t133.5 62v357l-280 -27q-209 -20 -209 -209zM281 1331q0 102 58.5 154.5t154.5 52.5t154.5 -52.5t58.5 -154.5t-58.5 -154.5t-154.5 -52.5
t-154.5 52.5t-58.5 154.5zM383 1331q0 -54 30.5 -80t80.5 -26t80 26t30 80t-30 80.5t-80 26.5t-80.5 -26.5t-30.5 -80.5z" />
    <glyph glyph-name="ae" unicode="&#xe6;" horiz-adv-x="1710" 
d="M102 289q0 64 17 112.5t57.5 89.5t116.5 62.5t186 21.5h299v127q0 114 -61 165t-207 51q-140 0 -260 -35q-36 -10 -56 3t-20 36v24q0 41 45 58q110 40 291 40q274 0 362 -141q106 141 336 141q73 0 131 -14.5t98.5 -38.5t69.5 -63t46.5 -80t27.5 -97.5t13 -108t3 -118.5
q0 -65 -61 -65h-614v-13q3 -59 11 -105t28 -91.5t50.5 -76t80.5 -49t116 -18.5q158 0 283 41q30 10 46.5 0t16.5 -32v-33q0 -38 -45 -55q-124 -47 -301 -47q-227 0 -334 139l-63 -49q-122 -90 -322 -90q-197 0 -292 84.5t-95 224.5zM248 289q0 -183 246 -183q84 0 161.5 26
t126.5 67l35 30q-33 97 -39 228v2h-309q-123 0 -172 -44t-49 -126zM922 575h532q-1 44 -2.5 75t-7 69.5t-16 65t-28.5 53.5t-43.5 43t-63 26.5t-85.5 10.5q-68 0 -118.5 -19t-80.5 -49.5t-49.5 -77.5t-27 -92.5t-10.5 -104.5z" />
    <glyph glyph-name="ccedilla" unicode="&#xe7;" horiz-adv-x="942" 
d="M113 512q0 94 11.5 169.5t41 145t77.5 116t124.5 74t177.5 27.5q158 0 268 -36q45 -15 45 -58v-28q0 -22 -16.5 -34.5t-50.5 -2.5q-128 33 -248 33q-63 0 -111 -15.5t-78.5 -45.5t-50.5 -65.5t-30 -85t-13.5 -93.5t-3.5 -101t3.5 -101t13.5 -93.5t30 -85t50.5 -65.5
t78.5 -45.5t111 -15.5q120 0 248 33q34 10 50.5 -2.5t16.5 -34.5v-28q0 -43 -45 -58q-97 -33 -246 -36l8 -111q35 -9 66 -22.5t62 -36.5t49 -59t18 -81q0 -84 -60.5 -133t-166.5 -49q-88 0 -148 18q-45 15 -45 56v10q0 19 13 29t38 4q60 -13 107 -13q137 0 137 74
q0 97 -131 121q-51 9 -45 63l12 134q-86 8 -150.5 39.5t-105.5 78t-66.5 113.5t-35.5 138.5t-10 158.5z" />
    <glyph glyph-name="egrave" unicode="&#xe8;" horiz-adv-x="1044" 
d="M113 512q0 94 11.5 169.5t40.5 145t76.5 116t124 74t177.5 27.5q85 0 149.5 -18t106.5 -55t69 -81.5t40.5 -109.5t18.5 -125.5t5 -142.5q0 -66 -62 -66h-614q3 -58 11 -104t27.5 -92t50 -76t81 -49t117.5 -19q157 0 282 41q31 10 47.5 0t16.5 -32v-33q0 -38 -45 -55
q-124 -47 -301 -47q-101 0 -177.5 27.5t-124 74t-76.5 116t-40.5 145t-11.5 169.5zM256 563h532q0 47 -1 77.5t-6.5 72t-15 67.5t-27.5 55t-43.5 45t-64 27t-87.5 11q-69 0 -120.5 -20t-82 -51.5t-49.5 -80t-26 -95.5t-9 -108zM358 1462q-11 29 2 51.5t43 22.5h31
q59 0 72 -55l76 -305q5 -20 -6 -35t-35 -15h-6q-45 0 -62 48z" />
    <glyph glyph-name="eacute" unicode="&#xe9;" horiz-adv-x="1044" 
d="M113 512q0 94 11.5 169.5t40.5 145t76.5 116t124 74t177.5 27.5q85 0 149.5 -18t106.5 -55t69 -81.5t40.5 -109.5t18.5 -125.5t5 -142.5q0 -66 -62 -66h-614q3 -58 11 -104t27.5 -92t50 -76t81 -49t117.5 -19q157 0 282 41q31 10 47.5 0t16.5 -32v-33q0 -38 -45 -55
q-124 -47 -301 -47q-101 0 -177.5 27.5t-124 74t-76.5 116t-40.5 145t-11.5 169.5zM256 563h532q0 47 -1 77.5t-6.5 72t-15 67.5t-27.5 55t-43.5 45t-64 27t-87.5 11q-69 0 -120.5 -20t-82 -51.5t-49.5 -80t-26 -95.5t-9 -108zM504 1176l76 305q13 55 71 55h31
q30 0 43 -22.5t2 -51.5l-115 -288q-17 -48 -61 -48h-6q-24 0 -35 15t-6 35z" />
    <glyph glyph-name="ecircumflex" unicode="&#xea;" horiz-adv-x="1044" 
d="M113 512q0 94 11.5 169.5t40.5 145t76.5 116t124 74t177.5 27.5q85 0 149.5 -18t106.5 -55t69 -81.5t40.5 -109.5t18.5 -125.5t5 -142.5q0 -66 -62 -66h-614q3 -58 11 -104t27.5 -92t50 -76t81 -49t117.5 -19q157 0 282 41q31 10 47.5 0t16.5 -32v-33q0 -38 -45 -55
q-124 -47 -301 -47q-101 0 -177.5 27.5t-124 74t-76.5 116t-40.5 145t-11.5 169.5zM195.5 1143.5q-7.5 17.5 5.5 36.5l233 317q17 24 31.5 31.5t40.5 7.5h74q26 0 40 -7.5t31 -31.5l234 -317q13 -19 5.5 -36.5t-28.5 -17.5h-12q-25 0 -40 7.5t-34 27.5l-233 254l-234 -254
q-19 -21 -34 -28t-39 -7h-13q-20 0 -27.5 17.5zM256 563h532q0 47 -1 77.5t-6.5 72t-15 67.5t-27.5 55t-43.5 45t-64 27t-87.5 11q-69 0 -120.5 -20t-82 -51.5t-49.5 -80t-26 -95.5t-9 -108z" />
    <glyph glyph-name="edieresis" unicode="&#xeb;" horiz-adv-x="1044" 
d="M113 512q0 94 11.5 169.5t40.5 145t76.5 116t124 74t177.5 27.5q85 0 149.5 -18t106.5 -55t69 -81.5t40.5 -109.5t18.5 -125.5t5 -142.5q0 -66 -62 -66h-614q3 -58 11 -104t27.5 -92t50 -76t81 -49t117.5 -19q157 0 282 41q31 10 47.5 0t16.5 -32v-33q0 -38 -45 -55
q-124 -47 -301 -47q-101 0 -177.5 27.5t-124 74t-76.5 116t-40.5 145t-11.5 169.5zM246 1331q0 43 29.5 73t72.5 30t73 -30t30 -73t-30 -72.5t-73 -29.5t-72.5 29.5t-29.5 72.5zM256 563h532q0 47 -1 77.5t-6.5 72t-15 67.5t-27.5 55t-43.5 45t-64 27t-87.5 11
q-69 0 -120.5 -20t-82 -51.5t-49.5 -80t-26 -95.5t-9 -108zM635 1331q0 43 29.5 73t72.5 30t73 -30t30 -73t-30 -72.5t-73 -29.5t-72.5 29.5t-29.5 72.5z" />
    <glyph glyph-name="igrave" unicode="&#xec;" horiz-adv-x="491" 
d="M51 1462q-11 29 2 51.5t43 22.5h31q59 0 72 -55l75 -305q5 -20 -6 -35t-35 -15h-6q-44 0 -61 48zM166 156v802q0 66 61 66h17q61 0 61 -66v-804q0 -28 10.5 -40.5t36.5 -15.5q25 -3 36 -14.5t11 -34.5v-12q0 -49 -57 -49q-91 0 -133.5 46.5t-42.5 121.5z" />
    <glyph glyph-name="iacute" unicode="&#xed;" horiz-adv-x="491" 
d="M166 156v802q0 66 61 66h17q61 0 61 -66v-804q0 -28 10.5 -40.5t36.5 -15.5q25 -3 36 -14.5t11 -34.5v-12q0 -49 -57 -49q-91 0 -133.5 46.5t-42.5 121.5zM197 1176l75 305q13 55 72 55h31q30 0 43 -22.5t2 -51.5l-115 -288q-17 -48 -61 -48h-6q-24 0 -35 15t-6 35z" />
    <glyph glyph-name="icircumflex" unicode="&#xee;" horiz-adv-x="491" 
d="M-111.5 1143.5q-7.5 17.5 5.5 36.5l233 317q17 24 31.5 31.5t40.5 7.5h73q26 0 40.5 -7.5t31.5 -31.5l234 -317q13 -19 5.5 -36.5t-28.5 -17.5h-12q-25 0 -40 7.5t-34 27.5l-233 254l-234 -254q-19 -20 -34 -27.5t-40 -7.5h-12q-20 0 -27.5 17.5zM166 156v802q0 66 61 66
h17q61 0 61 -66v-804q0 -28 10.5 -40.5t36.5 -15.5q25 -3 36 -14.5t11 -34.5v-12q0 -49 -57 -49q-91 0 -133.5 46.5t-42.5 121.5z" />
    <glyph glyph-name="idieresis" unicode="&#xef;" horiz-adv-x="491" 
d="M-20 1331q0 43 29.5 73t72.5 30t72.5 -30t29.5 -73t-29.5 -72.5t-72.5 -29.5t-72.5 29.5t-29.5 72.5zM166 156v802q0 66 61 66h17q61 0 61 -66v-804q0 -28 10.5 -40.5t36.5 -15.5q25 -3 36 -14.5t11 -34.5v-12q0 -49 -57 -49q-91 0 -133.5 46.5t-42.5 121.5zM287 1331
q0 43 29.5 73t72.5 30t73 -30t30 -73t-30 -72.5t-73 -29.5t-72.5 29.5t-29.5 72.5z" />
    <glyph glyph-name="eth" unicode="&#xf0;" horiz-adv-x="1126" 
d="M113 512q0 98 13 176t45 146t82.5 113.5t128.5 71t181 25.5q119 0 217 -53q-82 174 -188 283l-246 -127q-28 -16 -49 -2.5t-21 41.5v8q0 24 7 36.5t28 24.5l191 99q-105 78 -240 127q-18 6 -24 19.5t1.5 24.5t24.5 11h144q57 0 112 -37q61 -41 107 -82l174 90
q28 14 48.5 1t20.5 -40v-8q0 -25 -7 -37t-27 -24l-125 -64q143 -158 223 -371t80 -452q0 -98 -13 -176t-44.5 -146t-82.5 -113.5t-129.5 -71t-181.5 -25.5t-181 25.5t-128.5 71t-82.5 113.5t-45 146t-13 176zM256 512q0 -77 6 -132t24.5 -110t51.5 -88.5t89.5 -54.5
t135.5 -21q78 0 134 21t89 55t52.5 88.5t25.5 110t6 131.5t-6 131.5t-25.5 110t-52.5 88.5t-89 55t-134 21q-79 0 -135.5 -21t-89.5 -54.5t-51.5 -88.5t-24.5 -110t-6 -132z" />
    <glyph glyph-name="ntilde" unicode="&#xf1;" horiz-adv-x="1024" 
d="M133 66v911q0 47 43 47h4q21 0 31 -11.5t20 -39.5l13 -35q141 106 309 106q348 0 348 -307v-671q0 -66 -61 -66h-21q-61 0 -61 66v677q0 95 -52 135t-153 40q-93 0 -154.5 -16t-122.5 -50v-786q0 -66 -61 -66h-20q-62 0 -62 66zM156 1305q8 70 64.5 114.5t146.5 44.5
q47 0 86 -15t66 -36t51.5 -42.5t51.5 -36.5t56 -15q74 0 92 55q9 27 23 38t38 11h5q27 0 41.5 -18.5t11.5 -46.5q-8 -70 -64.5 -115t-146.5 -45q-47 0 -86 15t-66 36t-51.5 42.5t-51.5 36.5t-56 15q-75 0 -93 -55q-9 -27 -23 -38t-38 -11h-4q-27 0 -41.5 19t-11.5 47z" />
    <glyph glyph-name="ograve" unicode="&#xf2;" horiz-adv-x="1085" 
d="M113 512q0 100 11 176.5t40 145.5t76.5 113.5t123.5 70.5t179 26t179.5 -26t124 -70.5t76.5 -113.5t39.5 -145.5t10.5 -176.5t-10.5 -176.5t-39.5 -145.5t-76.5 -113.5t-124 -70.5t-179.5 -26t-179 26t-123.5 70.5t-76.5 113.5t-40 145.5t-11 176.5zM256 512
q0 -57 1.5 -95.5t8 -85t18.5 -77t33 -61t51 -48t74 -28.5t101 -11q56 0 99.5 11t73.5 28.5t51 48t33 61t18.5 76.5t8.5 85.5t2 95.5t-2 95.5t-8.5 85.5t-18.5 76.5t-33 61t-51 48t-73.5 28.5t-99.5 11q-57 0 -101 -11t-74 -28.5t-51 -48t-33 -61t-18.5 -77t-8 -85
t-1.5 -95.5zM358 1462q-11 29 2 51.5t43 22.5h31q59 0 72 -55l76 -305q5 -20 -6 -35t-35 -15h-6q-45 0 -62 48z" />
    <glyph glyph-name="oacute" unicode="&#xf3;" horiz-adv-x="1085" 
d="M113 512q0 100 11 176.5t40 145.5t76.5 113.5t123.5 70.5t179 26t179.5 -26t124 -70.5t76.5 -113.5t39.5 -145.5t10.5 -176.5t-10.5 -176.5t-39.5 -145.5t-76.5 -113.5t-124 -70.5t-179.5 -26t-179 26t-123.5 70.5t-76.5 113.5t-40 145.5t-11 176.5zM256 512
q0 -57 1.5 -95.5t8 -85t18.5 -77t33 -61t51 -48t74 -28.5t101 -11q56 0 99.5 11t73.5 28.5t51 48t33 61t18.5 76.5t8.5 85.5t2 95.5t-2 95.5t-8.5 85.5t-18.5 76.5t-33 61t-51 48t-73.5 28.5t-99.5 11q-57 0 -101 -11t-74 -28.5t-51 -48t-33 -61t-18.5 -77t-8 -85
t-1.5 -95.5zM504 1176l76 305q13 55 71 55h31q30 0 43 -22.5t2 -51.5l-115 -288q-17 -48 -61 -48h-6q-24 0 -35 15t-6 35z" />
    <glyph glyph-name="ocircumflex" unicode="&#xf4;" horiz-adv-x="1085" 
d="M113 512q0 100 11 176.5t40 145.5t76.5 113.5t123.5 70.5t179 26t179.5 -26t124 -70.5t76.5 -113.5t39.5 -145.5t10.5 -176.5t-10.5 -176.5t-39.5 -145.5t-76.5 -113.5t-124 -70.5t-179.5 -26t-179 26t-123.5 70.5t-76.5 113.5t-40 145.5t-11 176.5zM195.5 1143.5
q-7.5 17.5 5.5 36.5l233 317q17 24 31.5 31.5t40.5 7.5h74q26 0 40 -7.5t31 -31.5l234 -317q13 -19 5.5 -36.5t-28.5 -17.5h-12q-25 0 -40 7.5t-34 27.5l-233 254l-234 -254q-19 -21 -34 -28t-39 -7h-13q-20 0 -27.5 17.5zM256 512q0 -57 1.5 -95.5t8 -85t18.5 -77t33 -61
t51 -48t74 -28.5t101 -11q56 0 99.5 11t73.5 28.5t51 48t33 61t18.5 76.5t8.5 85.5t2 95.5t-2 95.5t-8.5 85.5t-18.5 76.5t-33 61t-51 48t-73.5 28.5t-99.5 11q-57 0 -101 -11t-74 -28.5t-51 -48t-33 -61t-18.5 -77t-8 -85t-1.5 -95.5z" />
    <glyph glyph-name="otilde" unicode="&#xf5;" horiz-adv-x="1085" 
d="M113 512q0 100 11 176.5t40 145.5t76.5 113.5t123.5 70.5t179 26t179.5 -26t124 -70.5t76.5 -113.5t39.5 -145.5t10.5 -176.5t-10.5 -176.5t-39.5 -145.5t-76.5 -113.5t-124 -70.5t-179.5 -26t-179 26t-123.5 70.5t-76.5 113.5t-40 145.5t-11 176.5zM176 1305
q8 70 64.5 114.5t146.5 44.5q47 0 86 -15t66 -36t51.5 -42.5t51.5 -36.5t56 -15q75 0 93 55q9 27 23 38t38 11h4q27 0 41.5 -18.5t11.5 -46.5q-8 -70 -64.5 -115t-146.5 -45q-47 0 -86 15t-66 36t-51.5 42.5t-51.5 36.5t-56 15q-74 0 -92 -55q-9 -26 -23 -37.5t-39 -11.5h-4
q-27 0 -41.5 19t-11.5 47zM256 512q0 -57 1.5 -95.5t8 -85t18.5 -77t33 -61t51 -48t74 -28.5t101 -11q56 0 99.5 11t73.5 28.5t51 48t33 61t18.5 76.5t8.5 85.5t2 95.5t-2 95.5t-8.5 85.5t-18.5 76.5t-33 61t-51 48t-73.5 28.5t-99.5 11q-57 0 -101 -11t-74 -28.5t-51 -48
t-33 -61t-18.5 -77t-8 -85t-1.5 -95.5z" />
    <glyph glyph-name="odieresis" unicode="&#xf6;" horiz-adv-x="1085" 
d="M113 512q0 100 11 176.5t40 145.5t76.5 113.5t123.5 70.5t179 26t179.5 -26t124 -70.5t76.5 -113.5t39.5 -145.5t10.5 -176.5t-10.5 -176.5t-39.5 -145.5t-76.5 -113.5t-124 -70.5t-179.5 -26t-179 26t-123.5 70.5t-76.5 113.5t-40 145.5t-11 176.5zM246 1331
q0 43 29.5 73t72.5 30t73 -30t30 -73t-30 -72.5t-73 -29.5t-72.5 29.5t-29.5 72.5zM256 512q0 -57 1.5 -95.5t8 -85t18.5 -77t33 -61t51 -48t74 -28.5t101 -11q56 0 99.5 11t73.5 28.5t51 48t33 61t18.5 76.5t8.5 85.5t2 95.5t-2 95.5t-8.5 85.5t-18.5 76.5t-33 61t-51 48
t-73.5 28.5t-99.5 11q-57 0 -101 -11t-74 -28.5t-51 -48t-33 -61t-18.5 -77t-8 -85t-1.5 -95.5zM635 1331q0 43 29.5 73t72.5 30t73 -30t30 -73t-30 -72.5t-73 -29.5t-72.5 29.5t-29.5 72.5z" />
    <glyph glyph-name="divide" unicode="&#xf7;" horiz-adv-x="1003" 
d="M92 690v17q0 59 62 59h696q61 0 61 -59v-17q0 -59 -61 -59h-696q-62 0 -62 59zM399 371q0 43 30 72.5t73 29.5t72.5 -29.5t29.5 -72.5t-29.5 -73t-72.5 -30t-73 30t-30 73zM399 1026q0 43 30 72.5t73 29.5t72.5 -29.5t29.5 -72.5t-29.5 -72.5t-72.5 -29.5t-73 29.5
t-30 72.5z" />
    <glyph glyph-name="oslash" unicode="&#xf8;" horiz-adv-x="1085" 
d="M113 512q0 100 11 176.5t40 145.5t76.5 113.5t123.5 70.5t179 26q157 0 256 -61l4 6q14 20 27 27.5t38 7.5h23q28 0 39 -21t-8 -49l-37 -53q88 -122 88 -389q0 -100 -10.5 -176.5t-39.5 -145.5t-76.5 -113.5t-124 -70.5t-179.5 -26q-159 0 -254 59l-2 -4
q-14 -20 -27.5 -27.5t-38.5 -7.5h-22q-28 0 -39 21t8 49l35 49q-90 121 -90 393zM256 512q0 -193 31 -268l436 628q-68 46 -180 46q-57 0 -101 -11t-74 -28.5t-51 -48t-33 -61t-18.5 -77t-8 -85t-1.5 -95.5zM365 147q65 -41 178 -41q56 0 99.5 11t73.5 28.5t51 48t33 61
t18.5 76.5t8.5 85.5t2 95.5q0 185 -32 262z" />
    <glyph glyph-name="ugrave" unicode="&#xf9;" horiz-adv-x="1024" 
d="M123 287v671q0 66 61 66h21q61 0 61 -66v-677q0 -95 52 -135t153 -40q93 0 154.5 16t122.5 50v786q0 66 61 66h20q62 0 62 -66v-911q0 -47 -43 -47h-4q-21 0 -31 11.5t-20 39.5l-13 35q-141 -106 -309 -106q-348 0 -348 307zM322 1462q-11 29 2 51.5t43 22.5h30
q59 0 72 -55l76 -305q5 -20 -6 -35t-35 -15h-6q-45 0 -62 48z" />
    <glyph glyph-name="uacute" unicode="&#xfa;" horiz-adv-x="1024" 
d="M123 287v671q0 66 61 66h21q61 0 61 -66v-677q0 -95 52 -135t153 -40q93 0 154.5 16t122.5 50v786q0 66 61 66h20q62 0 62 -66v-911q0 -47 -43 -47h-4q-21 0 -31 11.5t-20 39.5l-13 35q-141 -106 -309 -106q-348 0 -348 307zM467 1176l76 305q13 55 71 55h31
q30 0 43 -22.5t2 -51.5l-115 -288q-17 -48 -61 -48h-6q-24 0 -35 15t-6 35z" />
    <glyph glyph-name="ucircumflex" unicode="&#xfb;" horiz-adv-x="1024" 
d="M123 287v671q0 66 61 66h21q61 0 61 -66v-677q0 -95 52 -135t153 -40q93 0 154.5 16t122.5 50v786q0 66 61 66h20q62 0 62 -66v-911q0 -47 -43 -47h-4q-21 0 -31 11.5t-20 39.5l-13 35q-141 -106 -309 -106q-348 0 -348 307zM158.5 1143.5q-7.5 17.5 5.5 36.5l233 317
q17 24 31.5 31.5t40.5 7.5h74q26 0 40 -7.5t31 -31.5l234 -317q13 -19 5.5 -36.5t-28.5 -17.5h-12q-25 0 -40 7.5t-34 27.5l-233 254l-234 -254q-19 -21 -34 -28t-39 -7h-13q-20 0 -27.5 17.5z" />
    <glyph glyph-name="udieresis" unicode="&#xfc;" horiz-adv-x="1024" 
d="M123 287v671q0 66 61 66h21q61 0 61 -66v-677q0 -95 52 -135t153 -40q93 0 154.5 16t122.5 50v786q0 66 61 66h20q62 0 62 -66v-911q0 -47 -43 -47h-4q-21 0 -31 11.5t-20 39.5l-13 35q-141 -106 -309 -106q-348 0 -348 307zM209 1331q0 43 29.5 73t72.5 30t73 -30
t30 -73t-30 -72.5t-73 -29.5t-72.5 29.5t-29.5 72.5zM598 1331q0 43 29.5 73t72.5 30t73 -30t30 -73t-30 -72.5t-73 -29.5t-72.5 29.5t-29.5 72.5z" />
    <glyph glyph-name="yacute" unicode="&#xfd;" horiz-adv-x="983" 
d="M57 950q-11 27 2 50.5t43 23.5h37q54 0 70 -47l283 -793l282 793q16 47 70 47h37q30 0 43 -23.5t2 -50.5l-555 -1415q-16 -47 -70 -47h-25q-30 0 -43 23.5t-2 50.5l199 465zM453 1176l75 305q13 55 72 55h31q30 0 43 -22.5t2 -51.5l-115 -288q-17 -48 -61 -48h-6
q-24 0 -35 15t-6 35z" />
    <glyph glyph-name="thorn" unicode="&#xfe;" horiz-adv-x="1095" 
d="M133 -446v1916q0 66 62 66h20q61 0 61 -66v-509q128 83 287 83q96 0 170 -27.5t120.5 -74.5t76 -116t41.5 -145t12 -169t-12 -169t-41.5 -145t-76 -116t-120.5 -74.5t-170 -27.5q-159 0 -287 83v-509q0 -66 -61 -66h-20q-62 0 -62 66zM276 172q64 -34 128 -50t159 -16
q71 0 123 23.5t81 60t46 93t22 108.5t5 121t-5 121t-22 108.5t-46 93t-81 60t-123 23.5q-95 0 -159 -16t-128 -50v-680z" />
    <glyph glyph-name="ydieresis" unicode="&#xff;" horiz-adv-x="983" 
d="M57 950q-11 27 2 50.5t43 23.5h37q54 0 70 -47l283 -793l282 793q16 47 70 47h37q30 0 43 -23.5t2 -50.5l-555 -1415q-16 -47 -70 -47h-25q-30 0 -43 23.5t-2 50.5l199 465zM195 1331q0 43 29.5 73t72.5 30t72.5 -30t29.5 -73t-29.5 -72.5t-72.5 -29.5t-72.5 29.5
t-29.5 72.5zM584 1331q0 43 29.5 73t72.5 30t72.5 -30t29.5 -73t-29.5 -72.5t-72.5 -29.5t-72.5 29.5t-29.5 72.5z" />
    <glyph glyph-name="OE" unicode="&#x152;" horiz-adv-x="1822" 
d="M123 768q0 137 19 248t64.5 210t118.5 166t185.5 105.5t259.5 38.5h868q62 0 62 -59v-11q0 -59 -62 -59h-604v-543h533q61 0 61 -59v-10q0 -60 -61 -60h-533v-606h604q62 0 62 -59v-11q0 -59 -62 -59h-868q-147 0 -259.5 38.5t-185.5 105.5t-118.5 166t-64.5 210t-19 248
zM270 768q0 -639 492 -639h133v1278h-133q-492 0 -492 -639z" />
    <glyph glyph-name="oe" unicode="&#x153;" horiz-adv-x="1761" 
d="M113 512q0 100 11 176.5t40 145.5t76.5 113.5t123.5 70.5t179 26q264 0 360 -172q102 172 357 172q85 0 149.5 -18t106.5 -55t69 -81.5t40.5 -109.5t18.5 -125.5t5 -142.5q0 -66 -62 -66h-614q3 -58 11 -104t27.5 -92t50 -76t81 -49t117.5 -19q157 0 282 41q31 10 47.5 0
t16.5 -32v-33q0 -38 -45 -55q-124 -47 -301 -47q-255 0 -357 172q-96 -172 -360 -172q-103 0 -179 26t-123.5 70.5t-76.5 113.5t-40 145.5t-11 176.5zM256 512q0 -57 1.5 -95.5t8 -85t18.5 -77t33 -61t51 -48t74 -28.5t101 -11q56 0 99.5 11t73.5 28.5t51 48t33 61
t18.5 76.5t8.5 85.5t2 95.5t-2 95.5t-8.5 85.5t-18.5 76.5t-33 61t-51 48t-73.5 28.5t-99.5 11q-57 0 -101 -11t-74 -28.5t-51 -48t-33 -61t-18.5 -77t-8 -85t-1.5 -95.5zM973 563h532q0 47 -1 77.5t-6.5 72t-15 67.5t-27.5 55t-43.5 45t-64 27t-87.5 11q-69 0 -120.5 -20
t-82 -51.5t-49.5 -80t-26 -95.5t-9 -108z" />
    <glyph glyph-name="Ydieresis" unicode="&#x178;" horiz-adv-x="1372" 
d="M67.5 1510q11.5 26 43.5 26h18q52 0 82 -49l475 -739l475 739q30 49 82 49h19q32 0 43 -26t-7 -52l-542 -827v-565q0 -66 -62 -66h-16q-62 0 -62 66v565l-542 827q-18 26 -6.5 52zM389 1741q0 43 30 72.5t73 29.5t72.5 -29.5t29.5 -72.5t-29.5 -73t-72.5 -30t-73 30
t-30 73zM778 1741q0 43 30 72.5t73 29.5t72.5 -29.5t29.5 -72.5t-29.5 -73t-72.5 -30t-73 30t-30 73z" />
    <glyph glyph-name="circumflex" unicode="&#x2c6;" 
d="M236.5 1143.5q-7.5 17.5 5.5 36.5l233 317q17 24 31.5 31.5t40.5 7.5h74q26 0 40 -7.5t31 -31.5l234 -317q13 -19 5.5 -36.5t-28.5 -17.5h-12q-25 0 -40 7.5t-34 27.5l-233 254l-234 -254q-19 -20 -34 -27.5t-40 -7.5h-12q-20 0 -27.5 17.5z" />
    <glyph glyph-name="tilde" unicode="&#x2dc;" 
d="M217 1305q8 70 64.5 114.5t146.5 44.5q47 0 86 -15t66 -36t51.5 -42.5t51.5 -36.5t56 -15q74 0 92 55q9 26 23 37.5t39 11.5h4q27 0 41.5 -18.5t11.5 -46.5q-8 -70 -64.5 -115t-146.5 -45q-47 0 -86 15t-66 36t-51.5 42.5t-51.5 36.5t-56 15q-74 0 -92 -55
q-9 -26 -23 -37.5t-39 -11.5h-4q-27 0 -41.5 19t-11.5 47z" />
    <glyph glyph-name="uni2000" unicode="&#x2000;" horiz-adv-x="943" 
 />
    <glyph glyph-name="uni2001" unicode="&#x2001;" horiz-adv-x="1886" 
 />
    <glyph glyph-name="uni2002" unicode="&#x2002;" horiz-adv-x="943" 
 />
    <glyph glyph-name="uni2003" unicode="&#x2003;" horiz-adv-x="1886" 
 />
    <glyph glyph-name="uni2004" unicode="&#x2004;" horiz-adv-x="628" 
 />
    <glyph glyph-name="uni2005" unicode="&#x2005;" horiz-adv-x="471" 
 />
    <glyph glyph-name="uni2006" unicode="&#x2006;" horiz-adv-x="314" 
 />
    <glyph glyph-name="uni2007" unicode="&#x2007;" horiz-adv-x="314" 
 />
    <glyph glyph-name="uni2008" unicode="&#x2008;" horiz-adv-x="235" 
 />
    <glyph glyph-name="uni2009" unicode="&#x2009;" horiz-adv-x="377" 
 />
    <glyph glyph-name="uni200A" unicode="&#x200a;" horiz-adv-x="104" 
 />
    <glyph glyph-name="uni2010" unicode="&#x2010;" horiz-adv-x="634" 
d="M61 616v17q0 59 62 59h389q61 0 61 -59v-17q0 -59 -61 -59h-389q-62 0 -62 59z" />
    <glyph glyph-name="uni2011" unicode="&#x2011;" horiz-adv-x="634" 
d="M61 616v17q0 59 62 59h389q61 0 61 -59v-17q0 -59 -61 -59h-389q-62 0 -62 59z" />
    <glyph glyph-name="figuredash" unicode="&#x2012;" horiz-adv-x="634" 
d="M61 616v17q0 59 62 59h389q61 0 61 -59v-17q0 -59 -61 -59h-389q-62 0 -62 59z" />
    <glyph glyph-name="endash" unicode="&#x2013;" horiz-adv-x="1024" 
d="M92 616v17q0 59 62 59h716q62 0 62 -59v-17q0 -59 -62 -59h-716q-62 0 -62 59z" />
    <glyph glyph-name="emdash" unicode="&#x2014;" horiz-adv-x="2048" 
d="M92 616v17q0 59 62 59h1740q62 0 62 -59v-17q0 -59 -62 -59h-1740q-62 0 -62 59z" />
    <glyph glyph-name="quoteleft" unicode="&#x2018;" horiz-adv-x="307" 
d="M10 1100l123 385q16 51 57 51h7q20 0 29.5 -14.5t6.5 -36.5l-45 -395q-8 -66 -73 -66h-52q-32 0 -47 23t-6 53z" />
    <glyph glyph-name="quoteright" unicode="&#x2019;" horiz-adv-x="307" 
d="M74 1075l45 395q8 66 74 66h51q32 0 47 -23t6 -53l-123 -385q-16 -51 -57 -51h-6q-20 0 -30 14.5t-7 36.5z" />
    <glyph glyph-name="quotesinglbase" unicode="&#x201a;" horiz-adv-x="307" 
d="M53 -307l45 395q8 66 74 66h51q32 0 47 -23t6 -53l-122 -385q-16 -51 -58 -51h-6q-20 0 -30 14.5t-7 36.5z" />
    <glyph glyph-name="quotedblleft" unicode="&#x201c;" horiz-adv-x="614" 
d="M10 1100l123 385q16 51 57 51h7q20 0 29.5 -14.5t6.5 -36.5l-45 -395q-8 -66 -73 -66h-52q-32 0 -47 23t-6 53zM317 1100l123 385q16 51 58 51h6q20 0 30 -14.5t7 -36.5l-45 -395q-8 -66 -74 -66h-51q-32 0 -47.5 23t-6.5 53z" />
    <glyph glyph-name="quotedblright" unicode="&#x201d;" horiz-adv-x="614" 
d="M74 1075l45 395q8 66 74 66h51q32 0 47 -23t6 -53l-123 -385q-16 -51 -57 -51h-6q-20 0 -30 14.5t-7 36.5zM381 1075l45 395q8 66 74 66h51q32 0 47 -23t6 -53l-123 -385q-16 -51 -57 -51h-6q-20 0 -30 14.5t-7 36.5z" />
    <glyph glyph-name="quotedblbase" unicode="&#x201e;" horiz-adv-x="614" 
d="M53 -307l45 395q8 66 74 66h51q32 0 47 -23t6 -53l-122 -385q-16 -51 -58 -51h-6q-20 0 -30 14.5t-7 36.5zM360 -307l46 395q8 66 73 66h51q32 0 47.5 -23t6.5 -53l-123 -385q-16 -51 -58 -51h-6q-20 0 -30 14.5t-7 36.5z" />
    <glyph glyph-name="bullet" unicode="&#x2022;" horiz-adv-x="757" 
d="M102 768q0 115 80.5 195.5t196.5 80.5q115 0 195.5 -80t80.5 -196t-80.5 -196t-195.5 -80q-116 0 -196.5 80.5t-80.5 195.5z" />
    <glyph glyph-name="ellipsis" unicode="&#x2026;" horiz-adv-x="1966" 
d="M205 82q0 43 29.5 72.5t72.5 29.5t73 -29.5t30 -72.5t-30 -72.5t-73 -29.5t-72.5 29.5t-29.5 72.5zM881 82q0 43 29.5 72.5t72.5 29.5t72.5 -29.5t29.5 -72.5t-29.5 -72.5t-72.5 -29.5t-72.5 29.5t-29.5 72.5zM1556 82q0 43 30 72.5t73 29.5t72.5 -29.5t29.5 -72.5
t-29.5 -72.5t-72.5 -29.5t-73 29.5t-30 72.5z" />
    <glyph glyph-name="uni202F" unicode="&#x202f;" horiz-adv-x="377" 
 />
    <glyph glyph-name="guilsinglleft" unicode="&#x2039;" horiz-adv-x="563" 
d="M82 492v40q0 49 49 84l281 207q22 15 40.5 7.5t18.5 -33.5v-27q0 -38 -49 -80l-209 -178l209 -178q49 -42 49 -80v-27q0 -26 -18.5 -33.5t-40.5 7.5l-281 207q-49 35 -49 84z" />
    <glyph glyph-name="guilsinglright" unicode="&#x203a;" horiz-adv-x="563" 
d="M92 227v27q0 38 49 80l209 178l-209 178q-49 42 -49 80v27q0 26 19 33.5t41 -7.5l280 -207q49 -35 49 -84v-40q0 -49 -49 -84l-280 -207q-22 -15 -41 -7.5t-19 33.5z" />
    <glyph glyph-name="uni205F" unicode="&#x205f;" horiz-adv-x="471" 
 />
    <glyph glyph-name="Euro" unicode="&#x20ac;" 
d="M92 604v17q0 59 62 59h61v176h-61q-62 0 -62 59v17q0 59 62 59h69q9 109 29 193.5t58.5 156t95 118t140 72t191.5 25.5q161 0 277 -38q49 -17 49 -64v-18q0 -22 -19 -34.5t-51 -4.5q-121 33 -256 33q-95 0 -163 -30t-110 -90t-64.5 -136.5t-32.5 -182.5h518q25 0 35 -18
t0 -41l-11 -27q-16 -49 -67 -49h-484v-176h377q25 0 35 -18t0 -41l-10 -27q-16 -49 -68 -49h-325q10 -106 32.5 -182.5t64.5 -136.5t110 -90t163 -30q135 0 256 33q32 8 51 -4.5t19 -34.5v-18q0 -47 -49 -64q-116 -38 -277 -38q-108 0 -191.5 25.5t-140 72t-95 118
t-58.5 156t-29 193.5h-69q-62 0 -62 59z" />
    <glyph glyph-name="trademark" unicode="&#x2122;" horiz-adv-x="1116" 
d="M-2 1493v8q0 35 39 35h340q39 0 39 -35v-8q0 -35 -39 -35h-125v-391q0 -43 -39 -43h-12q-39 0 -39 43v391h-125q-39 0 -39 35zM506 1067v428q0 41 39 41h39q21 0 32 -9.5t21 -31.5l139 -305l139 305q18 41 54 41h39q39 0 39 -41v-428q0 -43 -39 -43h-9q-38 0 -38 43
l4 344l-138 -297q-12 -27 -47 -27h-8q-35 0 -47 27l-137 297l4 -344q0 -43 -39 -43h-8q-39 0 -39 43z" />
    <glyph glyph-name="uniE000" unicode="&#xe000;" horiz-adv-x="1024" 
d="M0 0v1024h1024v-1024h-1024z" />
    </font>
</defs>
</svg>
